<?xml version="1.0" encoding="UTF-8" standalone="no"?>
<svg
    xmlns:svg="http://www.w3.org/2000/svg"
    xmlns="http://www.w3.org/2000/svg"
    width="1640"
    height="856"
    version="1.1"
    viewBox="0 0 1640 856">
    <rect
        x="0"
        y="0"
        width="1640"
        height="856"
        style="fill:#ffffff"/>
    <g>
        <g>
            <g>
                <path
                    d="m 839.6919,205.01933 c -3.32825,1.1777 -10.24081,10.29226 -6.81016,13.82533 1.68976,-0.1024 11.11134,-4.40348 12.44263,-5.52997 z m 28.87916,6.6568 c -0.0512,3.73788 1.33127,10.34322 4.40354,12.80101 -0.35845,-3.22585 -2.20203,-4.09634 -0.66592,-10.39442 z m -51.0393,3.60745 c -0.51043,-6.6e-4 -0.95835,0.18149 -1.29118,0.64233 -3.53306,4.86437 16.43629,14.03013 19.76454,15.41263 9.67752,3.99391 18.53587,8.09022 28.77666,11.57209 l 0.81927,-1.9461 c -1.38251,-1.48491 -31.49035,-17.15334 -37.0716,-19.96956 -2.09932,-1.02407 -4.19846,-2.15029 -6.14423,-3.32798 -1.22889,-0.72966 -3.32215,-2.38101 -4.85346,-2.38341 z m 30.5576,1.46161 c -1.38251,3.48187 -1.74076,6.1445 -1.02391,8.8071 1.2801,-0.2048 5.58104,-2.15068 6.96352,-2.91874 l -1.17766,-1.58732 c -0.56322,-0.56324 -0.97278,-0.97271 -1.48481,-1.43354 -1.07529,-1.07529 -1.79225,-2.09944 -3.27714,-2.8675 z m 9.01172,8.29496 c -0.61445,2.45778 -0.61432,5.83719 0.9218,7.52691 1.84335,-0.25602 3.89158,-1.38228 5.27409,-2.9696 -0.30721,-0.35842 -5.37663,-4.09648 -6.19589,-4.55731 z m -49.70664,6.86872 c -0.46837,0.0216 -0.29393,0.36717 -0.52435,0.45357 0.0512,1.58732 -1.58705,-0.10244 2.66287,2.35535 1.02409,0.56324 2.25301,1.43392 3.22588,2.20198 10.49683,8.80707 3.68661,21.14682 3.12336,34.71585 -0.20482,4.96678 0.40974,9.47281 2.91876,13.26191 2.40656,3.68668 7.3218,7.57822 12.44222,7.21979 15.46355,-1.22889 8.03932,-37.78858 30.62023,-28.41826 0.56326,-1.07529 0.30725,-5.47869 0,-6.65639 l -8.24408,-2.15072 c -2.15056,-0.56324 -6.34926,-2.35525 -8.34621,-2.66247 -2.71381,2.86742 -5.63221,20.02082 -9.37012,26.01166 -4.1475,6.55411 -19.25276,6.91254 -14.02992,-18.74061 0.81926,-3.8915 2.20169,-9.16554 2.30408,-12.801 0.20482,-5.17161 -1.4847,-6.29804 -5.3762,-9.11425 -3.22587,-2.35538 -5.22309,-3.53315 -8.65375,-4.86445 -1.63533,-0.64965 -2.38849,-0.82876 -2.75277,-0.81196 z"
                    style="fill:#ffc82a" />
                <path
                    d="m 845.60221,204.00032 c -0.85407,-0.006 -1.62193,0.0718 -2.27479,0.25099 0.20482,2.81622 8.34616,11.72583 11.11119,14.49084 4.50593,4.45474 10.08707,9.16563 16.64116,12.49389 3.53306,-4.30113 0.35878,-1.12644 -3.22548,-9.52388 -1.63853,-3.78909 -2.09948,-6.75903 -1.68983,-11.67461 -4.39075,-1.88174 -14.58377,-5.99803 -20.56225,-6.03723 z m -9.33228,1.00275 c -3.80581,0.001 -13.33908,5.28084 -15.47202,8.15786 1.63853,2.04815 5.58103,4.6082 8.60208,5.83709 2.15056,-8.90948 1.17776,-7.11736 7.21979,-13.97869 -0.11041,-0.0112 -0.22707,-0.0163 -0.34985,-0.0163 z m 9.6386,10.17759 c -1.56088,-0.003 -4.97787,2.01564 -6.37,2.63969 -1.22887,0.56324 -6.0423,2.35556 -6.65679,2.97001 l 22.27364,11.93047 -0.15336,-6.55428 c -0.0512,-1.3313 0.15351,-0.97276 -0.51216,-1.89444 -1.68971,0.0512 -2.50891,1.229 -4.30103,2.09947 -1.28011,0.61445 -3.43065,1.48492 -4.76194,0 -2.20178,-2.50899 1.33123,-9.06309 0.76802,-11.16244 -0.0864,-0.0192 -0.18232,-0.0283 -0.28638,-0.0284 z m 29.47268,1.41077 c -1.63853,3.78908 -0.71681,6.1959 1.63857,8.60248 0.92167,-0.1024 4.45463,-1.7411 5.06906,-2.15072 -1.99696,-1.99695 -3.9426,-4.60842 -6.70763,-6.45176 z m -61.85434,3.78929 c -1.1777,0.92166 -3.99387,6.09332 -4.76194,8.03908 4.24992,4.50594 46.08348,26.31893 53.04723,25.65327 0.87046,-0.81926 0.51195,-2.61139 0.71678,-3.9939 0.20479,-1.63853 1.02403,-3.27714 1.17767,-4.86445 -9.57515,-4.35234 -16.64119,-6.09358 -27.03556,-11.46999 -4.30116,-2.25297 -8.14157,-4.14748 -12.08425,-6.34925 -2.09936,-1.22889 -3.63559,-2.20166 -5.68374,-3.48175 -1.63853,-0.97288 -3.89131,-2.81616 -5.37619,-3.53301 z m 69.58588,4.65943 c 1.5873,5.22279 6.50322,11.46983 4.71108,15.71975 7.37339,-6.50289 1.84303,-8.75603 -4.71108,-15.71975 z m -1.58731,0.5634 c -4.14751,8.55105 -8.75565,12.39138 0.20502,16.38529 -2.96982,-3.53307 -0.10262,-10.90647 -0.20502,-16.38529 z m 1.22892,2.8675 c -2.81622,11.00884 0.81936,13.15925 2.86749,15.41223 2.61139,-3.32826 0.92159,-10.03582 -2.86749,-15.41223 z m -18.89398,3.58427 -5.01823,2.45784 c 1.0241,1.1265 3.37949,1.99688 5.22284,2.71373 -0.35842,-2.61139 -1.02388,-2.30415 -0.20461,-5.17157 z m -37.89089,10.44567 c 1.07528,12.18653 -4.45489,28.82754 -0.97305,34.45998 1.84335,2.91862 5.32518,3.43055 7.52692,1.4848 3.6867,-3.27705 4.96705,-14.43934 6.24714,-18.58686 1.99696,-6.40049 3.3792,-6.75905 4.14729,-8.9096 z"
                    style="fill:#334f7d" />
            </g>
            <g>
                <path
                    d="m 868.56262,280.36121 v 19.23687 c 0,14.91408 -12.64423,27.46679 -27.06295,27.46679 h -43.2704 c -11.85237,0 -21.66023,10.14413 -21.66023,22.01382 v 41.2507 c 0,11.74019 10.20888,18.64563 21.66023,22.01384 13.71299,4.03215 26.86308,4.76085 43.2704,0 10.90622,-3.15771 21.66041,-9.51258 21.66041,-22.01384 v -16.51037 h -43.27024 v -5.50345 h 43.27024 21.6604 c 12.59028,0 17.2819,-8.78194 21.66042,-21.96335 4.52283,-13.57002 4.33037,-26.61981 0,-44.02765 -3.11149,-12.53365 -9.05415,-21.96336 -21.66042,-21.96336 z m -24.33648,104.46472 c 4.49066,0 8.12901,3.67962 8.12901,8.22995 0,4.56652 -3.63835,8.28044 -8.12901,8.28044 -4.4748,0 -8.12901,-3.71392 -8.12901,-8.28044 0,-4.55033 3.65421,-8.22995 8.12901,-8.22995 z"
                    style="fill:#ffc82a" />
                <path
                    d="m 804.87354,234.87216 c -2.29926,0.26124 -4.52203,0.58083 -6.64424,0.95635 -18.33191,3.23866 -21.66046,10.0175 -21.66046,22.51874 v 16.51069 h 36.9081 c -0.0667,-1.82058 -0.0526,-3.1711 -0.0526,-3.1711 0,0 2.66277,-17.76782 2.91878,-20.68644 0.20478,-2.96983 0.20472,-4.50567 -0.76814,-7.52671 -0.97287,-2.96983 -3.48197,-4.35264 -4.55729,-5.2743 -1.02347,-0.92115 -3.12594,-2.7118 -6.14422,-3.32723 z m -9.37061,12.46828 c 4.47481,0 8.12893,3.71391 8.12893,8.28044 0,4.55035 -3.65412,8.22978 -8.12893,8.22978 -4.49081,0 -8.12896,-3.67943 -8.12896,-8.22978 0,-4.56653 3.63815,-8.28044 8.12896,-8.28044 z m 60.4013,16.58457 c -1.92006,-0.0432 -4.12797,0.96494 -6.27852,3.15389 -2.86744,2.91862 -4.25,9.11384 -6.50297,15.82155 -2.20178,6.70771 -3.43084,6.81041 -6.7079,10.18987 -3.32825,3.37946 -10.03626,1.12609 -14.28618,-1.12688 -4.30115,-2.25298 -5.73452,-5.47871 -7.27065,-8.24373 -0.4149,-0.74684 -0.70719,-1.97346 -0.91731,-3.35837 h -37.37186 -16.25789 c -12.59042,0 -23.61434,7.56756 -27.06255,21.96344 -3.97767,16.50102 -4.15393,26.79753 0,44.02725 3.07934,12.82517 10.433,21.96344 23.02341,21.96344 h 14.89447 v -19.79238 c 0,-14.29872 12.37189,-26.91104 27.06302,-26.91106 h 43.27025 c 12.04495,0 21.66046,-9.91764 21.66046,-22.01409 v -31.66212 c 0,0 -1.16229,-1.1303 -2.57907,-2.03399 -0.93106,-0.59388 -1.97188,-1.20206 -2.86532,-1.58786 -0.56325,-0.24322 -1.17137,-0.37456 -1.81139,-0.38896 z"
                    style="fill:#334f7d" />
            </g>
        </g>
        <g>
            <path
                d="m 694.67288,469.37358 c 13.86886,-0.2331 20.1623,12.81997 20.27884,27.62122 0,13.05308 -6.52651,25.29031 -20.51191,25.75649 -5.71076,0 -10.60568,-1.74816 -15.38402,-4.6618 v 30.18523 l -8.39126,-3.03018 0.11653,-67.01353 c -0.11653,0 6.52656,-8.74089 23.77528,-8.97399 z m -2.09783,47.31736 c 11.18831,-0.69925 12.58688,-11.65451 12.58688,-20.27887 0,-8.39126 -1.39857,-20.97814 -12.00421,-21.44432 -7.22577,-0.46619 -13.05301,2.91362 -14.21846,4.07909 v 33.2154 c 2.79708,1.74816 8.39127,4.77833 13.63579,4.4287 z"
                style="fill:#646464" />
            <path
                d="m 737.56151,505.03643 v -35.7794 l -8.62434,2.91363 v 35.42975 c 0,9.44016 8.74089,14.91781 16.43289,14.91781 10.02288,0 15.73359,-2.79707 18.29761,-3.96256 0.11653,1.28202 0,0.93238 0,2.21437 0,3.72945 -0.11655,10.13944 -1.86473,13.40273 -3.49636,6.64305 -12.81999,7.57544 -19.34653,8.50778 l 1.39855,5.36108 c 8.62433,-0.23307 20.74506,-3.49635 25.05724,-11.65451 2.44744,-4.66182 2.79707,-13.63582 2.79707,-19.5796 v -46.26848 h -8.50781 v 41.60664 c -2.79706,1.86473 -7.92506,4.42873 -12.47035,4.54527 -7.57543,0.11657 -13.1696,-3.96252 -13.1696,-11.77106 z"
                style="fill:#646464" />
            <path
                d="m 787.25351,476.01665 v 33.44848 c 0,8.74089 6.75961,13.8689 18.06451,12.81998 v -4.42872 c -5.94382,-0.23307 -9.55671,-1.8647 -9.55671,-8.62433 v -33.21541 h 9.55671 v -5.47762 h -9.55671 v -17.2487 l -8.5078,3.03017 v 14.21853 h -5.82729 v 5.47762 z"
                style="fill:#646464" />
            <path
                d="m 859.43511,521.58584 v -35.54629 c 0,-8.85745 -6.06037,-15.85016 -15.15091,-15.85016 -6.87618,0 -12.70342,2.21435 -17.83142,5.94381 v -35.7794 l -8.5078,2.68054 v 78.5515 h 8.5078 v -39.39229 c 4.31217,-3.03017 9.20708,-6.17689 14.56816,-6.17689 6.87618,0 9.7898,6.75961 9.7898,12.70343 v 32.86575 z"
                style="fill:#646464" />
            <path
                d="m 869.77303,495.13008 c 0,14.10198 7.45889,27.38814 23.1925,27.50468 15.85015,-0.11654 23.54213,-13.4027 23.54213,-27.50468 -0.11654,-13.75234 -8.74089,-25.7565 -23.42558,-25.87305 -14.56817,0.11655 -23.30905,12.12071 -23.30905,25.87305 z m 9.20707,0 c 0,-9.20708 2.3309,-19.34651 13.98543,-20.04579 10.95524,0.58273 14.21853,10.83871 14.21853,20.04579 0,9.7898 -2.09782,21.91049 -13.98544,22.26013 -10.95525,-0.11653 -14.10198,-12.47033 -14.10198,-22.26013 z"
                style="fill:#646464" />
            <path
                d="m 969.33548,521.58584 v -39.04265 c 0,-6.87617 -5.4777,-11.30489 -11.65457,-12.70343 -6.06034,-1.39855 -11.77107,-0.2331 -15.96669,0.93236 -5.36109,1.39854 -9.20709,3.84599 -13.51926,6.99271 v 43.82101 h 8.5078 v -42.7721 c 2.68055,-1.86472 6.99272,-3.84599 11.53798,-3.96254 7.45889,-0.11655 12.58692,4.19564 12.58692,12.00417 v 34.73047 z"
                style="fill:#646464" />
            <path
                d="m 694.67288,469.37358 c 13.86886,-0.2331 20.1623,12.81997 20.27884,27.62122 0,13.05308 -6.52651,25.29031 -20.51191,25.75649 -5.71076,0 -10.60568,-1.74816 -15.38402,-4.6618 v 30.18523 l -8.39126,-3.03018 0.11653,-67.01353 c -0.11653,0 6.52656,-8.74089 23.77528,-8.97399 z m -2.09783,47.31736 c 11.18831,-0.69925 12.58688,-11.65451 12.58688,-20.27887 0,-8.39126 -1.39857,-20.97814 -12.00421,-21.44432 -7.22577,-0.46619 -13.05301,2.91362 -14.21846,4.07909 v 33.2154 c 2.79708,1.74816 8.39127,4.77833 13.63579,4.4287 z"
                style="fill:#646464" />
            <path
                d="m 737.56151,505.03643 v -35.7794 l -8.62434,2.91363 v 35.42975 c 0,9.44016 8.74089,14.91781 16.43289,14.91781 10.02288,0 15.73359,-2.79707 18.29761,-3.96256 0.11653,1.28202 0,0.93238 0,2.21437 0,3.72945 -0.11655,10.13944 -1.86473,13.40273 -3.49636,6.64305 -12.81999,7.57544 -19.34653,8.50778 l 1.39855,5.36108 c 8.62433,-0.23307 20.74506,-3.49635 25.05724,-11.65451 2.44744,-4.66182 2.79707,-13.63582 2.79707,-19.5796 v -46.26848 h -8.50781 v 41.60664 c -2.79706,1.86473 -7.92506,4.42873 -12.47035,4.54527 -7.57543,0.11657 -13.1696,-3.96252 -13.1696,-11.77106 z"
                style="fill:#646464" />
            <path
                d="m 787.25351,476.01665 v 33.44848 c 0,8.74089 6.75961,13.8689 18.06451,12.81998 v -4.42872 c -5.94382,-0.23307 -9.55671,-1.8647 -9.55671,-8.62433 v -33.21541 h 9.55671 v -5.47762 h -9.55671 v -17.2487 l -8.5078,3.03017 v 14.21853 h -5.82729 v 5.47762 z"
                style="fill:#646464" />
            <path
                d="m 859.43511,521.58584 v -35.54629 c 0,-8.85745 -6.06037,-15.85016 -15.15091,-15.85016 -6.87618,0 -12.70342,2.21435 -17.83142,5.94381 v -35.7794 l -8.5078,2.68054 v 78.5515 h 8.5078 v -39.39229 c 4.31217,-3.03017 9.20708,-6.17689 14.56816,-6.17689 6.87618,0 9.7898,6.75961 9.7898,12.70343 v 32.86575 z"
                style="fill:#646464" />
            <path
                d="m 869.77303,495.13008 c 0,14.10198 7.45889,27.38814 23.1925,27.50468 15.85015,-0.11654 23.54213,-13.4027 23.54213,-27.50468 -0.11654,-13.75234 -8.74089,-25.7565 -23.42558,-25.87305 -14.56817,0.11655 -23.30905,12.12071 -23.30905,25.87305 z m 9.20707,0 c 0,-9.20708 2.3309,-19.34651 13.98543,-20.04579 10.95524,0.58273 14.21853,10.83871 14.21853,20.04579 0,9.7898 -2.09782,21.91049 -13.98544,22.26013 -10.95525,-0.11653 -14.10198,-12.47033 -14.10198,-22.26013 z"
                style="fill:#646464" />
            <path
                d="m 969.33548,521.58584 v -39.04265 c 0,-6.87617 -5.4777,-11.30489 -11.65457,-12.70343 -6.06034,-1.39855 -11.77107,-0.2331 -15.96669,0.93236 -5.36109,1.39854 -9.20709,3.84599 -13.51926,6.99271 v 43.82101 h 8.5078 v -42.7721 c 2.68055,-1.86472 6.99272,-3.84599 11.53798,-3.96254 7.45889,-0.11655 12.58692,4.19564 12.58692,12.00417 v 34.73047 z"
                style="fill:#646464" />
            <path
                d="m 750.14477,573.09888 c 13.86891,-0.23311 20.16235,12.81998 20.27887,27.62119 0,13.05309 -6.52648,25.29036 -20.51196,25.75654 -5.71069,0 -10.60559,-1.7482 -15.38392,-4.66181 V 652 l -8.39132,-3.03017 0.11653,-67.01353 c -0.11653,0 6.52656,-8.74089 23.77523,-8.97399 z m -2.09782,47.31737 c 11.18836,-0.69927 12.58689,-11.65453 12.58689,-20.27889 0,-8.39126 -1.39853,-20.97813 -12.00419,-21.44434 -7.2258,-0.46617 -13.05298,2.91364 -14.21852,4.07909 v 33.21541 c 2.79714,1.74819 8.39128,4.77837 13.63582,4.42873 z"
                style="fill:#646464" />
            <path
                d="m 822.51939,620.64932 -1.9813,-4.07909 c -4.31215,2.09783 -8.50778,4.07909 -14.33504,4.19566 -9.55671,0.34964 -16.31633,-8.62436 -15.38396,-21.91051 h 31.23411 c -0.23309,-15.73363 -5.47765,-25.52343 -19.69617,-25.52343 -14.91778,0 -20.39539,13.8689 -20.51196,27.27158 0,8.62436 3.37979,16.66598 8.97402,21.44434 6.06035,5.12801 15.61705,5.01147 22.95938,2.91365 3.37978,-1.04892 6.06035,-2.56404 8.74092,-4.3122 z m -9.09054,-26.80542 h -22.37668 c 0.58275,-7.34234 3.49631,-15.26741 11.65453,-15.26741 7.57541,0 10.83867,7.92507 10.83867,15.38398 z"
                style="fill:#646464" />
            <path
                d="m 855.80404,579.3923 c 1.1654,0 3.14664,0.34964 4.77833,0.69927 0.93231,-2.09779 2.3309,-4.77837 3.37978,-6.87616 -7.10923,-1.28202 -12.00418,-0.11653 -17.13211,1.74819 -4.77839,1.63162 -8.97407,4.4287 -12.12071,7.92505 v 42.4225 h 8.50777 V 584.0541 c 3.03018,-2.56397 6.87615,-4.6618 12.47031,-4.6618 z"
                style="fill:#646464" />
            <path
                d="m 871.90724,575.89595 v 35.66284 c 0,10.13944 8.85754,14.68471 16.54946,14.68471 10.02289,0 18.29762,-3.26325 25.40686,-8.39125 v -43.93756 h -8.50775 v 42.77211 c -2.7971,1.86473 -6.99273,3.96252 -11.53802,4.07909 -7.45888,0.11653 -13.16958,-4.3122 -13.16958,-12.1207 v -35.66288 z m 10.9553,-9.67327 22.37669,-11.0718 -3.3798,-6.87616 -23.07595,13.75233 z"
                style="fill:#646464" />
            <path
                d="m 750.14477,573.09888 c 13.86891,-0.23311 20.16235,12.81998 20.27887,27.62119 0,13.05309 -6.52648,25.29036 -20.51196,25.75654 -5.71069,0 -10.60559,-1.7482 -15.38392,-4.66181 V 652 l -8.39132,-3.03017 0.11653,-67.01353 c -0.11653,0 6.52656,-8.74089 23.77523,-8.97399 z m -2.09782,47.31737 c 11.18836,-0.69927 12.58689,-11.65453 12.58689,-20.27889 0,-8.39126 -1.39853,-20.97813 -12.00419,-21.44434 -7.2258,-0.46617 -13.05298,2.91364 -14.21852,4.07909 v 33.21541 c 2.79714,1.74819 8.39128,4.77837 13.63582,4.42873 z"
                style="fill:#646464" />
            <path
                d="m 822.51939,620.64932 -1.9813,-4.07909 c -4.31215,2.09783 -8.50778,4.07909 -14.33504,4.19566 -9.55671,0.34964 -16.31633,-8.62436 -15.38396,-21.91051 h 31.23411 c -0.23309,-15.73363 -5.47765,-25.52343 -19.69617,-25.52343 -14.91778,0 -20.39539,13.8689 -20.51196,27.27158 0,8.62436 3.37979,16.66598 8.97402,21.44434 6.06035,5.12801 15.61705,5.01147 22.95938,2.91365 3.37978,-1.04892 6.06035,-2.56404 8.74092,-4.3122 z m -9.09054,-26.80542 h -22.37668 c 0.58275,-7.34234 3.49631,-15.26741 11.65453,-15.26741 7.57541,0 10.83867,7.92507 10.83867,15.38398 z"
                style="fill:#646464" />
            <path
                d="m 855.80404,579.3923 c 1.1654,0 3.14664,0.34964 4.77833,0.69927 0.93231,-2.09779 2.3309,-4.77837 3.37978,-6.87616 -7.10923,-1.28202 -12.00418,-0.11653 -17.13211,1.74819 -4.77839,1.63162 -8.97407,4.4287 -12.12071,7.92505 v 42.4225 h 8.50777 V 584.0541 c 3.03018,-2.56397 6.87615,-4.6618 12.47031,-4.6618 z"
                style="fill:#646464" />
            <path
                d="m 871.90724,575.89595 v 35.66284 c 0,10.13944 8.85754,14.68471 16.54946,14.68471 10.02289,0 18.29762,-3.26325 25.40686,-8.39125 v -43.93756 h -8.50775 v 42.77211 c -2.7971,1.86473 -6.99273,3.96252 -11.53802,4.07909 -7.45888,0.11653 -13.16958,-4.3122 -13.16958,-12.1207 v -35.66288 z m 10.9553,-9.67327 22.37669,-11.0718 -3.3798,-6.87616 -23.07595,13.75233 z"
                style="fill:#646464" />
        </g>
    </g>
</svg>
