<?xml version="1.0" encoding="UTF-8" standalone="no"?>
<svg
     xmlns:dc="http://purl.org/dc/elements/1.1/"
     xmlns:cc="http://creativecommons.org/ns#"
     xmlns:rdf="http://www.w3.org/1999/02/22-rdf-syntax-ns#"
     xmlns:svg="http://www.w3.org/2000/svg"
     xmlns="http://www.w3.org/2000/svg"
     xmlns:sodipodi="http://sodipodi.sourceforge.net/DTD/sodipodi-0.dtd"
     xmlns:inkscape="http://www.inkscape.org/namespaces/inkscape"
     width="1640"
     height="856"
     version="1.1"
     viewBox="0 0 1640 856"
     id="svg39"
     sodipodi:docname="facebook-group-banner.svg"
     inkscape:version="0.92.4 (5da689c313, 2019-01-14)">
    <metadata
         id="metadata45">
        <rdf:RDF>
            <cc:Work
                 rdf:about="">
                <dc:format>image/svg+xml</dc:format>
                <dc:type
                     rdf:resource="http://purl.org/dc/dcmitype/StillImage" />
            </cc:Work>
        </rdf:RDF>
    </metadata>
    <defs
         id="defs43" />
    <sodipodi:namedview
         pagecolor="#ffffff"
         bordercolor="#666666"
         borderopacity="1"
         objecttolerance="10"
         gridtolerance="10"
         guidetolerance="10"
         inkscape:pageopacity="0"
         inkscape:pageshadow="2"
         inkscape:window-width="3440"
         inkscape:window-height="1356"
         id="namedview41"
         showgrid="false"
         inkscape:zoom="0.17378049"
         inkscape:cx="-184.14034"
         inkscape:cy="428.00001"
         inkscape:window-x="0"
         inkscape:window-y="560"
         inkscape:window-maximized="1"
         inkscape:current-layer="svg39" />
    <rect
         x="0"
         y="5.6843419e-14"
         width="1640"
         height="856"
         style="fill:#ffffff"
         id="rect2" />
    <g
         id="g82"
         transform="matrix(0.44643498,0,0,0.44643498,591.42529,85.14287)">
        <g
             id="g38">
            <g
                 id="g30">
                <path
                     d="m 571.07487,99.056448 c -9.98458,3.533022 -30.72196,30.876332 -20.43015,41.475382 5.0692,-0.30721 33.33354,-13.21025 37.32734,-16.58966 z m 86.63626,19.970092 c -0.15354,11.21349 3.99377,31.02922 13.21044,38.40249 -1.07535,-9.67741 -6.60599,-12.28883 -1.99773,-31.18282 z m -153.11571,10.8222 c -1.53128,-0.002 -2.87502,0.54448 -3.87347,1.92696 -10.59904,14.5929 49.30816,42.08979 59.29274,46.23724 29.03216,11.98155 55.60682,24.27031 86.32874,34.71577 l 2.4578,-5.83823 c -4.14748,-4.45467 -94.46971,-51.45927 -111.21322,-59.90779 -6.29787,-3.0722 -12.59518,-6.4508 -18.43242,-9.98382 -3.68661,-2.18895 -9.96632,-7.14293 -14.56017,-7.15013 z m 91.67147,4.38479 c -4.14746,10.44543 -5.22219,18.43321 -3.07167,26.42091 3.84026,-0.61441 16.74289,-6.45197 20.89026,-8.75611 l -3.53295,-4.76188 c -1.68963,-1.68971 -2.9183,-2.91809 -4.45435,-4.30057 -3.22581,-3.22581 -5.37669,-6.29822 -9.83129,-8.60235 z m 27.03479,24.88448 c -1.84331,7.37327 -1.84293,17.51133 2.76536,22.58044 5.52998,-0.76804 11.67457,-4.14679 15.82204,-8.90867 -0.9216,-1.07525 -16.12965,-12.28927 -18.5874,-13.67177 z M 474.18389,179.7239 c -1.40511,0.0648 -0.88177,1.10149 -1.57304,1.3607 0.15365,4.76189 -4.76107,-0.30732 7.98849,7.06593 3.07223,1.6897 6.75896,4.30171 9.67753,6.60584 31.49003,26.42084 11.05968,63.43957 9.36994,104.14608 -0.61446,14.90013 1.22919,28.41803 8.75615,39.78516 7.21959,11.05988 21.9651,22.73433 37.32612,21.65907 46.39,-3.68662 24.11763,-113.36412 91.85941,-85.25359 1.68974,-3.2258 0.92171,-16.43583 0,-19.96886 l -24.73191,-6.45207 c -6.45158,-1.6897 -19.0475,-7.06564 -25.03828,-7.9873 -8.14129,8.60213 -16.8964,60.06159 -28.10993,78.03388 -12.44233,19.66203 -57.75747,20.73732 -42.08919,-56.22105 2.45774,-11.67433 6.605,-27.49621 6.91214,-38.40247 0.61446,-15.51458 -4.45405,-18.89383 -16.12836,-27.34234 -9.67747,-7.06602 -15.66905,-10.59929 -25.96087,-14.59313 -4.90591,-1.94893 -7.16537,-2.48626 -8.2582,-2.43585 z"
                     style="fill:#ffc82a"
                     id="path26"
                     inkscape:connector-curvature="0" />
                <path
                     d="m 588.80556,95.999444 c -2.56216,-0.01681 -4.86573,0.215321 -6.82428,0.752966 0.61446,8.44852 25.03813,35.17696 33.33309,43.47189 13.51761,13.36402 30.26081,27.49649 49.92277,37.48112 10.59903,-12.90318 1.07632,-3.37925 -9.67629,-28.57122 -4.91552,-11.36711 -6.29835,-20.27679 -5.06942,-35.02331 -13.17205,-5.64514 -43.75068,-17.993842 -61.68587,-18.111446 z m -27.99643,3.008206 c -11.41729,0.0039 -40.01667,15.84228 -46.4154,24.47322 4.91551,6.14439 16.74286,13.82442 25.80587,17.51103 6.45158,-26.72806 3.53321,-21.35176 21.65907,-41.935452 -0.33123,-0.0336 -0.68121,-0.04894 -1.04954,-0.0488 z m 28.91537,30.53233 c -4.68256,-0.01 -14.93339,6.04685 -19.10971,7.91896 -3.68657,1.6897 -18.12666,7.06659 -19.97007,8.9099 l 66.81995,35.79091 -0.46009,-19.66255 c -0.15367,-3.99385 0.46051,-2.91827 -1.53644,-5.68325 -5.06906,0.15361 -7.52664,3.68696 -12.90293,6.29832 -3.84026,1.84332 -10.29179,4.45468 -14.28561,0 -6.60525,-7.52686 3.99365,-27.18886 2.30405,-33.48685 -0.25922,-0.0576 -0.54697,-0.0848 -0.85915,-0.0854 z m 88.41678,4.23225 c -4.91552,11.36709 -2.15039,18.58745 4.91564,25.80708 2.76498,-0.30721 13.3637,-5.22321 15.20699,-6.45207 -5.9908,-5.99077 -11.82764,-13.82508 -20.12263,-19.35501 z m -185.56036,11.36771 c -3.53303,2.76496 -11.98143,18.27972 -14.28563,24.11688 12.74958,13.51763 138.24846,78.95568 159.13943,76.95874 2.61133,-2.45775 1.53584,-7.83409 2.15031,-11.98155 0.61436,-4.91552 3.07204,-9.83125 3.53296,-14.59314 -28.72504,-13.05684 -49.92287,-18.28046 -81.10554,-34.40946 -12.90328,-6.75881 -24.42435,-12.44228 -36.25222,-19.04748 -6.29801,-3.68663 -10.90662,-6.60488 -17.05096,-10.44511 -4.91552,-2.91859 -11.67378,-8.44836 -16.12835,-10.59888 z m 208.75466,13.97807 c 4.76183,15.66817 19.50936,34.40903 14.13305,47.15861 22.11983,-19.50839 5.52899,-26.26771 -14.13305,-47.15861 z m -4.76188,1.6902 c -12.44234,25.65279 -26.26656,37.1736 0.61507,49.15516 -8.90934,-10.59907 -0.30784,-32.71893 -0.61507,-49.15516 z m 3.68673,8.60238 c -8.44854,33.02604 2.45802,39.47718 8.60234,46.23602 7.83407,-9.98464 2.76473,-30.10703 -8.60234,-46.23602 z m -56.68114,10.75264 -15.05445,7.37345 c 3.07222,3.37942 10.13831,5.99054 15.66827,8.14107 -1.07524,-7.83409 -3.07159,-6.91237 -0.61382,-15.51452 z M 529.90825,211.4998 c 3.2258,36.55908 -13.36449,86.4814 -2.9191,103.37846 5.52996,8.75575 15.9753,10.2915 22.58042,4.45434 11.05996,-9.83101 14.90093,-43.31739 18.74117,-55.75977 5.99078,-19.2012 10.13744,-20.27687 12.44167,-26.72845 z"
                     style="fill:#334f7d"
                     id="path28"
                     inkscape:connector-curvature="0" />
            </g>
            <g
                 id="g36">
                <path
                     d="m 657.68581,325.07886 v 57.70975 c 0,44.74162 -37.93213,82.39922 -81.18769,82.39922 H 446.68877 c -35.5566,0 -64.97975,30.43193 -64.97975,66.04053 v 123.75032 c 0,35.22005 30.62619,55.93608 64.97975,66.04055 41.13839,12.0963 80.58809,14.28238 129.80935,0 32.71819,-9.47298 64.98029,-28.53732 64.98029,-66.04055 v -49.5304 H 511.66955 v -16.51014 h 129.80886 64.98027 c 37.77029,0 51.84499,-26.34544 64.98033,-65.88909 13.56832,-40.70949 12.99094,-79.85829 0,-132.08107 -9.33432,-37.60042 -27.16204,-65.88912 -64.98033,-65.88912 z m -73.00839,313.38967 c 13.47176,0 24.38668,11.0387 24.38668,24.68949 0,13.69936 -10.91492,24.84096 -24.38668,24.84096 -13.42423,0 -24.38669,-11.1416 -24.38669,-24.84096 0,-13.65079 10.96246,-24.68949 24.38669,-24.68949 z"
                     style="fill:#ffc82a"
                     id="path32"
                     inkscape:connector-curvature="0" />
                <path
                     d="m 466.6213,188.61364 c -6.8977,0.7837 -13.5659,1.74248 -19.93243,2.869 -54.99496,9.71585 -64.98046,30.05209 -64.98046,67.55527 v 49.53134 h 110.72271 c -0.20014,-5.46164 -0.15757,-9.51313 -0.15757,-9.51313 0,0 7.98818,-53.3027 8.75618,-62.05845 0.61437,-8.90936 0.61416,-13.51681 -2.30437,-22.57979 -2.91857,-8.90936 -10.44577,-13.05773 -13.67167,-15.82269 -3.07037,-2.76341 -9.37767,-8.13528 -18.43239,-9.98155 z m -28.11144,37.40432 c 13.42423,0 24.38647,11.14158 24.38647,24.84095 0,13.65085 -10.96224,24.68899 -24.38647,24.68899 -13.47223,0 -24.3865,-11.03814 -24.3865,-24.68899 0,-13.69937 10.91427,-24.84095 24.3865,-24.84095 z m 181.20133,49.753 c -5.76011,-0.12966 -12.38374,2.89476 -18.83529,9.46153 -8.60222,8.75575 -12.74983,27.34111 -19.50864,47.46395 -6.60524,20.12285 -10.29239,20.43095 -20.1234,30.5692 -9.98461,10.13821 -30.10837,3.37821 -42.85793,-3.3806 -12.90327,-6.75884 -17.20335,-16.43591 -21.81164,-24.73083 -1.2447,-2.24049 -2.12154,-5.92031 -2.75189,-10.07498 H 381.70841 332.93544 c -37.77071,0 -70.84203,22.70236 -81.18651,65.88939 -11.93281,49.50236 -12.46162,80.39145 0,132.07987 9.23789,38.47493 31.29856,65.88937 69.06926,65.88937 h 44.68276 v -59.37628 c 0,-42.89556 37.11514,-80.73199 81.18792,-80.73203 h 129.8089 c 36.13434,0 64.98044,-29.75251 64.98044,-66.04133 V 287.8032 c 0,0 -3.48681,-3.39083 -7.73709,-6.10186 -2.79314,-1.78163 -5.91557,-3.60615 -8.59584,-4.76354 -1.68971,-0.72964 -3.51407,-1.12363 -5.43409,-1.16684 z"
                     style="fill:#334f7d"
                     id="path34"
                     inkscape:connector-curvature="0" />
            </g>
        </g>
        <g
             id="g80">
            <path
                 d="m 136.02403,892.10785 c 41.606,-0.69928 60.48605,38.45938 60.83565,82.86248 0,39.15867 -19.57925,75.86987 -61.53485,77.26837 -17.13204,0 -31.81659,-5.2444 -46.151391,-13.9852 v 90.5544 l -25.173447,-9.0904 0.349601,-201.03772 c -0.349601,0 19.579396,-26.22232 71.324837,-26.92158 z m -6.2934,141.95005 c 33.56445,-2.0977 37.7601,-34.96303 37.7601,-60.83574 0,-25.1734 -4.19565,-62.93353 -36.01209,-64.33205 -21.677,-1.39853 -39.158502,8.74077 -42.654801,12.2371 v 99.64479 c 8.391149,5.2444 25.173451,14.3348 40.906791,13.2859 z"
                 style="fill:#646464"
                 id="path40"
                 inkscape:connector-curvature="0" />
            <path
                 d="M 264.68809,999.09487 V 891.75822 l -25.87267,8.74075 v 106.28773 c 0,28.3201 26.2223,44.7528 49.29798,44.7528 30.06822,0 47.20011,-8.3911 54.89204,-11.8875 0.34961,3.846 0,2.7971 0,6.643 0,11.1882 -0.34963,30.4179 -5.59412,40.2076 -10.48892,19.9289 -38.45939,22.726 -58.03874,25.523 l 4.19559,16.083 c 25.87264,-0.6992 62.23431,-10.4889 75.17065,-34.963 7.34221,-13.9853 8.39109,-40.9069 8.39109,-58.738 V 895.60415 h -25.52305 v 124.81815 c -8.39109,5.5941 -23.77485,13.286 -37.41054,13.6356 -22.72595,0.3497 -39.50823,-11.8874 -39.50823,-35.31266 z"
                 style="fill:#646464"
                 id="path42"
                 inkscape:connector-curvature="0" />
            <path
                 d="m 413.76195,912.03677 v 100.34403 c 0,26.2223 20.27855,41.6061 54.19276,38.4594 v -13.286 c -17.8312,-0.6992 -28.66972,-5.594 -28.66972,-25.8726 v -99.64483 h 28.66972 v -16.43262 h -28.66972 v -51.74536 l -25.52304,9.09038 v 42.65498 h -17.48159 v 16.43262 z"
                 style="fill:#646464"
                 id="path44"
                 inkscape:connector-curvature="0" />
            <path
                 d="M 630.30367,1048.7424 V 942.10505 c 0,-26.57195 -18.18085,-47.54979 -45.45208,-47.54979 -20.62824,0 -38.10972,6.64297 -53.4935,17.83117 V 805.04976 l -25.52304,8.04151 v 235.65113 h 25.52304 V 930.56723 c 12.93634,-9.09041 27.62085,-18.53043 43.70386,-18.53043 20.62825,0 29.36897,20.27857 29.36897,38.10976 v 98.59584 z"
                 style="fill:#646464"
                 id="path46"
                 inkscape:connector-curvature="0" />
            <path
                 d="m 661.31697,969.37625 c 0,42.30535 22.37637,82.16325 69.57652,82.51285 47.54976,-0.3496 70.62537,-40.2075 70.62537,-82.51285 -0.34961,-41.25643 -26.22228,-77.2684 -70.27574,-77.61803 -43.70387,0.34963 -69.92615,36.3616 -69.92615,77.61803 z m 27.62085,0 c 0,-27.62083 6.9926,-58.03871 41.95567,-60.13651 32.86525,1.74817 42.65499,32.51568 42.65499,60.13651 0,29.36899 -6.29336,65.73055 -41.95575,66.77945 -32.86527,-0.3496 -42.3053,-37.41046 -42.3053,-66.77945 z"
                 style="fill:#646464"
                 id="path48"
                 inkscape:connector-curvature="0" />
            <path
                 d="M 960.00001,1048.7424 V 931.61614 c 0,-20.62823 -16.43271,-33.9142 -34.96313,-38.10976 -18.18076,-4.19559 -35.31272,-0.69929 -47.89941,2.79704 -16.08304,4.19555 -27.62086,11.5378 -40.5572,20.97784 v 131.46114 h 25.52305 V 920.42793 c 8.04153,-5.59409 20.97787,-11.53782 34.61344,-11.88745 22.37645,-0.34963 37.76013,12.58673 37.76013,36.01198 v 104.18994 z"
                 style="fill:#646464"
                 id="path50"
                 inkscape:connector-curvature="0" />
            <path
                 d="m 136.02403,892.10785 c 41.606,-0.69928 60.48605,38.45938 60.83565,82.86248 0,39.15867 -19.57925,75.86987 -61.53485,77.26837 -17.13204,0 -31.81659,-5.2444 -46.151391,-13.9852 v 90.5544 l -25.173447,-9.0904 0.349601,-201.03772 c -0.349601,0 19.579396,-26.22232 71.324837,-26.92158 z m -6.2934,141.95005 c 33.56445,-2.0977 37.7601,-34.96303 37.7601,-60.83574 0,-25.1734 -4.19565,-62.93353 -36.01209,-64.33205 -21.677,-1.39853 -39.158502,8.74077 -42.654801,12.2371 v 99.64479 c 8.391149,5.2444 25.173451,14.3348 40.906791,13.2859 z"
                 style="fill:#646464"
                 id="path52"
                 inkscape:connector-curvature="0" />
            <path
                 d="M 264.68809,999.09487 V 891.75822 l -25.87267,8.74075 v 106.28773 c 0,28.3201 26.2223,44.7528 49.29798,44.7528 30.06822,0 47.20011,-8.3911 54.89204,-11.8875 0.34961,3.846 0,2.7971 0,6.643 0,11.1882 -0.34963,30.4179 -5.59412,40.2076 -10.48892,19.9289 -38.45939,22.726 -58.03874,25.523 l 4.19559,16.083 c 25.87264,-0.6992 62.23431,-10.4889 75.17065,-34.963 7.34221,-13.9853 8.39109,-40.9069 8.39109,-58.738 V 895.60415 h -25.52305 v 124.81815 c -8.39109,5.5941 -23.77485,13.286 -37.41054,13.6356 -22.72595,0.3497 -39.50823,-11.8874 -39.50823,-35.31266 z"
                 style="fill:#646464"
                 id="path54"
                 inkscape:connector-curvature="0" />
            <path
                 d="m 413.76195,912.03677 v 100.34403 c 0,26.2223 20.27855,41.6061 54.19276,38.4594 v -13.286 c -17.8312,-0.6992 -28.66972,-5.594 -28.66972,-25.8726 v -99.64483 h 28.66972 v -16.43262 h -28.66972 v -51.74536 l -25.52304,9.09038 v 42.65498 h -17.48159 v 16.43262 z"
                 style="fill:#646464"
                 id="path56"
                 inkscape:connector-curvature="0" />
            <path
                 d="M 630.30367,1048.7424 V 942.10505 c 0,-26.57195 -18.18085,-47.54979 -45.45208,-47.54979 -20.62824,0 -38.10972,6.64297 -53.4935,17.83117 V 805.04976 l -25.52304,8.04151 v 235.65113 h 25.52304 V 930.56723 c 12.93634,-9.09041 27.62085,-18.53043 43.70386,-18.53043 20.62825,0 29.36897,20.27857 29.36897,38.10976 v 98.59584 z"
                 style="fill:#646464"
                 id="path58"
                 inkscape:connector-curvature="0" />
            <path
                 d="m 661.31697,969.37625 c 0,42.30535 22.37637,82.16325 69.57652,82.51285 47.54976,-0.3496 70.62537,-40.2075 70.62537,-82.51285 -0.34961,-41.25643 -26.22228,-77.2684 -70.27574,-77.61803 -43.70387,0.34963 -69.92615,36.3616 -69.92615,77.61803 z m 27.62085,0 c 0,-27.62083 6.9926,-58.03871 41.95567,-60.13651 32.86525,1.74817 42.65499,32.51568 42.65499,60.13651 0,29.36899 -6.29336,65.73055 -41.95575,66.77945 -32.86527,-0.3496 -42.3053,-37.41046 -42.3053,-66.77945 z"
                 style="fill:#646464"
                 id="path60"
                 inkscape:connector-curvature="0" />
            <path
                 d="M 960.00001,1048.7424 V 931.61614 c 0,-20.62823 -16.43271,-33.9142 -34.96313,-38.10976 -18.18076,-4.19559 -35.31272,-0.69929 -47.89941,2.79704 -16.08304,4.19555 -27.62086,11.5378 -40.5572,20.97784 v 131.46114 h 25.52305 V 920.42793 c 8.04153,-5.59409 20.97787,-11.53782 34.61344,-11.88745 22.37645,-0.34963 37.76013,12.58673 37.76013,36.01198 v 104.18994 z"
                 style="fill:#646464"
                 id="path62"
                 inkscape:connector-curvature="0" />
            <path
                 d="m 302.43734,1203.2793 c 41.60613,-0.6993 60.48618,38.4594 60.83574,82.8624 0,39.1587 -19.57917,75.87 -61.535,77.2685 -17.13182,0 -31.8163,-5.2445 -46.15111,-13.9852 v 90.5543 l -25.1736,-9.0904 0.3496,-201.0377 c -0.3496,0 19.5794,-26.2223 71.32464,-26.9216 z m -6.29338,141.9501 c 33.56458,-2.0978 37.76014,-34.9631 37.76014,-60.8358 0,-25.1734 -4.19556,-62.9335 -36.01208,-64.3321 -21.67705,-1.3985 -39.15835,8.7408 -42.65495,12.2371 v 99.6448 c 8.39131,5.2445 25.17349,14.3349 40.90689,13.286 z"
                 style="fill:#646464"
                 id="path64"
                 inkscape:connector-curvature="0" />
            <path
                 d="m 519.55808,1345.9286 -5.9438,-12.2371 c -12.93627,6.2934 -25.52298,12.2371 -43.00451,12.5868 -28.66971,1.0489 -48.94828,-25.8727 -46.15124,-65.7306 h 93.70103 c -0.69928,-47.2002 -16.43273,-76.5692 -59.08768,-76.5692 -44.75272,0 -61.18529,41.6061 -61.53499,81.8136 0,25.8727 10.13921,49.9972 26.92164,64.3321 18.1808,15.3838 46.8505,15.0342 68.87716,8.7408 10.13921,-3.1467 18.18081,-7.692 26.22239,-12.9364 z m -27.2712,-80.4151 h -67.12909 c 1.74822,-22.0267 10.48877,-45.8016 34.96307,-45.8016 22.72592,0 32.51557,23.7749 32.51557,46.1513 z"
                 style="fill:#646464"
                 id="path66"
                 inkscape:connector-curvature="0" />
            <path
                 d="m 619.41063,1222.1593 c 3.49613,0 9.43979,1.0489 14.33477,2.0978 2.79689,-6.2933 6.99261,-14.3349 10.13921,-20.6282 -21.32739,-3.846 -36.01204,-0.3496 -51.39562,5.2445 -14.33494,4.8948 -26.92181,13.2859 -36.3616,23.7748 v 127.2657 h 25.52296 v -123.7694 c 9.0904,-7.6918 20.62813,-13.9852 37.4104,-13.9852 z"
                 style="fill:#646464"
                 id="path68"
                 inkscape:connector-curvature="0" />
            <path
                 d="m 667.71951,1211.6704 v 106.987 c 0,30.4179 26.57225,44.0535 49.64769,44.0535 30.06824,0 54.89209,-9.7896 76.2195,-25.1734 v -131.8108 h -25.5229 v 128.3145 c -8.39119,5.5941 -20.97789,11.8874 -34.61357,12.2371 -22.37632,0.3496 -39.50818,-12.9364 -39.50818,-36.3616 v -106.9871 z m 32.86544,-29.0194 67.12912,-33.2149 -10.13927,-20.6282 -69.22684,41.2564 z"
                 style="fill:#646464"
                 id="path70"
                 inkscape:connector-curvature="0" />
            <path
                 d="m 302.43734,1203.2793 c 41.60613,-0.6993 60.48618,38.4594 60.83574,82.8624 0,39.1587 -19.57917,75.87 -61.535,77.2685 -17.13182,0 -31.8163,-5.2445 -46.15111,-13.9852 v 90.5543 l -25.1736,-9.0904 0.3496,-201.0377 c -0.3496,0 19.5794,-26.2223 71.32464,-26.9216 z m -6.29338,141.9501 c 33.56458,-2.0978 37.76014,-34.9631 37.76014,-60.8358 0,-25.1734 -4.19556,-62.9335 -36.01208,-64.3321 -21.67705,-1.3985 -39.15835,8.7408 -42.65495,12.2371 v 99.6448 c 8.39131,5.2445 25.17349,14.3349 40.90689,13.286 z"
                 style="fill:#646464"
                 id="path72"
                 inkscape:connector-curvature="0" />
            <path
                 d="m 519.55808,1345.9286 -5.9438,-12.2371 c -12.93627,6.2934 -25.52298,12.2371 -43.00451,12.5868 -28.66971,1.0489 -48.94828,-25.8727 -46.15124,-65.7306 h 93.70103 c -0.69928,-47.2002 -16.43273,-76.5692 -59.08768,-76.5692 -44.75272,0 -61.18529,41.6061 -61.53499,81.8136 0,25.8727 10.13921,49.9972 26.92164,64.3321 18.1808,15.3838 46.8505,15.0342 68.87716,8.7408 10.13921,-3.1467 18.18081,-7.692 26.22239,-12.9364 z m -27.2712,-80.4151 h -67.12909 c 1.74822,-22.0267 10.48877,-45.8016 34.96307,-45.8016 22.72592,0 32.51557,23.7749 32.51557,46.1513 z"
                 style="fill:#646464"
                 id="path74"
                 inkscape:connector-curvature="0" />
            <path
                 d="m 619.41063,1222.1593 c 3.49613,0 9.43979,1.0489 14.33477,2.0978 2.79689,-6.2933 6.99261,-14.3349 10.13921,-20.6282 -21.32739,-3.846 -36.01204,-0.3496 -51.39562,5.2445 -14.33494,4.8948 -26.92181,13.2859 -36.3616,23.7748 v 127.2657 h 25.52296 v -123.7694 c 9.0904,-7.6918 20.62813,-13.9852 37.4104,-13.9852 z"
                 style="fill:#646464"
                 id="path76"
                 inkscape:connector-curvature="0" />
            <path
                 d="m 667.71951,1211.6704 v 106.987 c 0,30.4179 26.57225,44.0535 49.64769,44.0535 30.06824,0 54.89209,-9.7896 76.2195,-25.1734 v -131.8108 h -25.5229 v 128.3145 c -8.39119,5.5941 -20.97789,11.8874 -34.61357,12.2371 -22.37632,0.3496 -39.50818,-12.9364 -39.50818,-36.3616 v -106.9871 z m 32.86544,-29.0194 67.12912,-33.2149 -10.13927,-20.6282 -69.22684,41.2564 z"
                 style="fill:#646464"
                 id="path78"
                 inkscape:connector-curvature="0" />
        </g>
    </g>
</svg>
