<?xml version="1.0" encoding="UTF-8" standalone="no"?>
<svg
    xmlns:svg="http://www.w3.org/2000/svg"
    xmlns="http://www.w3.org/2000/svg"
    width="1640"
    height="856"
    version="1.1"
    viewBox="0 0 1640 856" >
    <rect
        x="0"
        y="5.6843419e-14"
        width="1640"
        height="856"
        style="fill:#ffffff"
        id="rect2" />
    <g>
        <g>
            <path
                d="m 337.29351,301.37237 c -4.0213,1.42293 -12.37329,12.43547 -8.22826,16.70424 2.04163,-0.12373 13.42511,-5.32043 15.03362,-6.68149 z m 34.89282,8.04297 c -0.0618,4.51624 1.6085,12.49704 5.32052,15.46663 -0.4331,-3.89758 -2.66057,-4.94933 -0.80459,-12.5589 z m -61.66747,4.35865 c -0.61672,-7.5e-4 -1.15791,0.21929 -1.56004,0.77609 -4.26877,5.8773 19.8589,16.95169 23.8802,18.62208 11.69272,4.82557 22.39569,9.77488 34.76896,13.9818 l 0.98988,-2.35135 c -1.6704,-1.79412 -38.04775,-20.72526 -44.7912,-24.12791 -2.53648,-1.23733 -5.07273,-2.59806 -7.42368,-4.02099 -1.48478,-0.8816 -4.01394,-2.87682 -5.86412,-2.87972 z m 36.92076,1.76598 c -1.6704,4.2069 -2.10324,7.42399 -1.23712,10.64104 1.54667,-0.24746 6.74321,-2.59854 8.41357,-3.52653 l -1.4229,-1.91785 c -0.6805,-0.68053 -1.17535,-1.17526 -1.79399,-1.73206 -1.2992,-1.2992 -2.16547,-2.53661 -3.95956,-3.4646 z m 10.88828,10.02224 c -0.74239,2.96959 -0.74224,7.0527 1.11375,9.09429 2.2272,-0.30933 4.70194,-1.67012 6.37234,-3.58797 -0.37118,-0.43306 -6.49623,-4.94952 -7.48609,-5.50632 z m -60.0573,8.29904 c -0.56591,0.0261 -0.35514,0.44363 -0.63355,0.54802 0.0619,1.91786 -1.91752,-0.12377 3.21738,2.84581 1.23734,0.68053 2.72217,1.73252 3.89762,2.66051 12.68264,10.64101 4.4543,25.55033 3.77376,41.94491 -0.24748,6.00104 0.49505,11.44538 3.52654,16.0235 2.9077,4.45438 8.84646,9.15627 15.03312,8.72321 18.68361,-1.48479 9.7134,-45.65748 36.99645,-34.33594 0.68055,-1.2992 0.37122,-6.61955 0,-8.04248 l -9.96079,-2.59858 c -2.59838,-0.68053 -7.6714,-2.84569 -10.08419,-3.21689 -3.27891,3.46451 -6.80504,24.18985 -11.32129,31.42821 -5.01116,7.9189 -23.26187,8.35197 -16.95146,-22.64308 0.98986,-4.70184 2.66017,-11.07411 2.78387,-15.46662 0.24748,-6.2485 -1.79387,-7.6095 -6.49571,-11.01215 -3.89761,-2.84584 -6.31072,-4.26887 -10.45576,-5.87739 -1.97586,-0.78493 -2.88585,-1.00134 -3.32599,-0.98104 z"
                style="fill:#ffc82a" />
            <path
                d="m 344.43456,300.14116 c -1.03191,-0.007 -1.95968,0.0867 -2.74848,0.30326 0.24747,3.40265 10.08412,14.16755 13.42493,17.50834 5.44422,5.38237 12.18756,11.07423 20.10643,15.09554 4.26877,-5.19676 0.43348,-1.36099 -3.89714,-11.50707 -1.97972,-4.57812 -2.53666,-8.1665 -2.04171,-14.10567 -5.30505,-2.27359 -17.62062,-7.24704 -24.84403,-7.2944 z m -11.27558,1.21156 c -4.59833,0.002 -16.11675,6.38049 -18.69384,9.85661 1.97972,2.47465 6.7432,5.56779 10.39334,7.05257 2.59837,-10.76474 1.423,-8.59943 8.7232,-16.88953 -0.1334,-0.0135 -0.27436,-0.0197 -0.4227,-0.0197 z m 11.64568,12.29692 c -1.8859,-0.004 -6.01443,2.43537 -7.69645,3.18936 -1.48476,0.68054 -7.30052,2.84608 -8.04296,3.58847 l 26.91179,14.41482 -0.1853,-7.91911 c -0.0619,-1.60852 0.18547,-1.17533 -0.61881,-2.28893 -2.04156,0.0619 -3.03135,1.48492 -5.19666,2.53665 -1.54666,0.7424 -4.14503,1.79413 -5.75354,0 -2.66027,-3.03145 1.60845,-10.95033 0.92796,-13.48686 -0.1044,-0.0232 -0.22029,-0.0341 -0.34603,-0.0344 z m 35.60993,1.70454 c -1.97973,4.5781 -0.86607,7.48611 1.97978,10.39382 1.1136,-0.12373 5.38224,-2.10365 6.12462,-2.59858 -2.41279,-2.41279 -4.76358,-5.56806 -8.1044,-7.79524 z m -74.73458,4.57835 c -1.42293,1.11359 -4.82553,7.36217 -5.75354,9.71309 5.1349,5.44424 55.67967,31.79946 64.09352,30.9952 1.05172,-0.98987 0.61856,-3.15519 0.86604,-4.82558 0.24743,-1.97973 1.23726,-3.95955 1.4229,-5.8774 -11.56903,-5.25865 -20.10647,-7.36247 -32.66532,-13.85844 -5.1968,-2.72211 -9.83692,-5.01113 -14.6006,-7.67138 -2.53653,-1.4848 -4.39265,-2.66012 -6.86729,-4.20678 -1.97973,-1.17546 -4.70163,-3.40258 -6.49571,-4.26871 z m 84.0761,5.62968 c 1.91784,6.31037 7.8574,13.85826 5.69209,18.99317 8.90878,-7.85702 2.22682,-10.57934 -5.69209,-18.99317 z m -1.91785,0.68073 c -5.01116,10.33168 -10.57888,14.9717 0.24772,19.79728 -3.58824,-4.26878 -0.12398,-13.17758 -0.24772,-19.79728 z m 1.48484,3.46461 c -3.40267,13.30127 0.98996,15.89947 3.4646,18.6216 3.15518,-4.02133 1.1135,-12.12563 -3.4646,-18.6216 z m -22.82838,4.33064 -6.06319,2.96966 c 1.23734,1.36107 4.08321,2.4127 6.31041,3.27882 -0.43306,-3.15518 -1.23709,-2.78396 -0.24722,-6.24848 z m -45.78109,12.62083 c 1.29919,14.72419 -5.38257,34.83045 -1.17567,41.63575 2.22719,3.52639 6.43406,4.14491 9.09427,1.79399 4.45441,-3.95945 6.00137,-17.44611 7.54803,-22.45729 2.41278,-7.7333 4.08286,-8.16653 5.01089,-10.7649 z"
                style="fill:#334f7d" />
        </g>
        <g>
            <path
                d="m 372.17614,392.40307 v 23.24265 c 0,18.01971 -15.2772,33.18635 -32.69841,33.18635 h -52.28081 c -14.32045,0 -26.17065,12.25647 -26.17065,26.59787 v 49.84053 c 0,14.1849 12.33472,22.52829 26.17065,26.59788 16.56851,4.87179 32.45691,5.75224 52.28081,0 13.17728,-3.81525 26.17086,-11.49342 26.17086,-26.59788 v -19.94841 h -52.28062 v -6.64947 h 52.28062 26.17085 c 15.21202,0 20.88061,-10.61064 26.17088,-26.53688 5.46466,-16.39577 5.23211,-32.16299 0,-53.19574 -3.75939,-15.14361 -10.93955,-26.5369 -26.17088,-26.5369 z m -29.40419,126.21792 c 5.42576,0 9.82175,4.44586 9.82175,9.94373 0,5.51742 -4.39599,10.0047 -9.82175,10.0047 -5.40662,0 -9.82176,-4.48728 -9.82176,-10.0047 0,-5.49787 4.41514,-9.94373 9.82176,-9.94373 z"
                style="fill:#ffc82a" />
            <path
                d="m 295.22476,337.4416 c -2.77806,0.31564 -5.46368,0.70178 -8.0278,1.15549 -22.14926,3.91307 -26.17093,12.1035 -26.17093,27.20794 v 19.94878 h 44.59365 c -0.0806,-2.19968 -0.0635,-3.83142 -0.0635,-3.83142 0,0 3.21725,-21.46771 3.52656,-24.99409 0.24744,-3.58825 0.24735,-5.4439 -0.92809,-9.09402 -1.17546,-3.58825 -4.20704,-5.25901 -5.50627,-6.3726 -1.2366,-1.11297 -3.77687,-3.27649 -7.42366,-4.02008 z m -11.32191,15.06462 c 5.40662,0 9.82167,4.48727 9.82167,10.00471 0,5.49789 -4.41505,9.94351 -9.82167,9.94351 -5.42595,0 -9.82168,-4.44562 -9.82168,-9.94351 0,-5.51744 4.39573,-10.00471 9.82168,-10.00471 z m 72.97898,20.03805 c -2.31989,-0.0522 -4.98756,1.16587 -7.58593,3.81064 -3.46455,3.52639 -5.135,11.01166 -7.85712,19.11615 -2.66026,8.10449 -4.14527,8.22857 -8.10471,12.31177 -4.02131,4.08317 -12.12617,1.36057 -17.26107,-1.36155 -5.1968,-2.72213 -6.92866,-6.61957 -8.78465,-9.96035 -0.50131,-0.90237 -0.85446,-2.38442 -1.10833,-4.05771 h -45.15399 -19.64335 c -15.21218,0 -28.53169,9.14339 -32.69793,26.537 -4.80595,19.93711 -5.01893,32.37772 0,53.19527 3.72057,15.49581 12.60551,26.537 27.8177,26.537 h 17.99601 v -23.91385 c 0,-17.27622 14.94815,-32.51487 32.6985,-32.51489 h 52.28063 c 14.55313,0 26.17092,-11.98284 26.17092,-26.59819 v -38.25529 c 0,0 -1.40432,-1.36566 -3.11612,-2.45753 -1.12494,-0.71755 -2.3825,-1.45238 -3.46198,-1.91852 -0.68053,-0.29386 -1.41529,-0.45254 -2.18858,-0.46995 z"
                style="fill:#334f7d" />
        </g>
    </g>
    <g>
        <path
            d="m 526.68474,410.46074 c 24.67048,-0.41463 35.8655,22.80466 36.07277,49.13366 0,23.21929 -11.60962,44.98738 -36.48742,45.81664 -10.15841,0 -18.86567,-3.10972 -27.36558,-8.29262 v 53.69459 l -14.92669,-5.39018 0.20732,-119.20614 c -0.20732,0 11.60964,-15.54863 42.2923,-15.96327 z m -3.73167,84.1699 c 19.90218,-1.24388 22.39002,-20.73149 22.39002,-36.07282 0,-14.92667 -2.48784,-37.3167 -21.35349,-38.14596 -12.85349,-0.82926 -23.21925,5.18288 -25.29239,7.25605 v 59.08476 c 4.97554,3.10975 14.92669,8.49993 24.25586,7.87797 z"
            style="fill:#646464" />
        <path
            d="m 602.97664,473.89915 v -63.64572 l -15.34131,5.18287 v 63.02378 c 0,16.79252 15.54865,26.53632 29.23141,26.53632 17.82911,0 27.98755,-4.97555 32.5485,-7.04871 0.20733,2.28048 0,1.65852 0,3.93898 0,6.6341 -0.20732,18.03641 -3.31707,23.84125 -6.21942,11.81696 -22.80461,13.47548 -34.41432,15.13398 l 2.48783,9.5365 c 15.34131,-0.41465 36.90209,-6.21945 44.57271,-20.7315 4.35361,-8.29261 4.97555,-24.25586 4.97555,-34.82894 v -82.30407 h -15.13398 v 74.01148 c -4.97552,3.31705 -14.09743,7.87795 -22.18275,8.08527 -13.47543,0.20732 -23.42657,-7.04871 -23.42657,-20.9388 z"
            style="fill:#646464" />
        <path
            d="m 691.37061,422.27769 v 59.49943 c 0,15.54863 12.02423,24.67048 32.13384,22.80466 v -7.87797 c -10.57311,-0.41465 -16.99986,-3.31705 -16.99986,-15.34132 v -59.0848 h 16.99986 v -9.7438 h -16.99986 v -30.68262 l -15.13398,5.39018 v 25.29244 h -10.36576 v 9.7438 z"
            style="fill:#646464" />
        <path
            d="M 819.76993,503.33787 V 440.1068 c 0,-15.75595 -10.78041,-28.19484 -26.951,-28.19484 -12.23158,0 -22.59731,3.93897 -31.71921,10.57306 v -63.64573 l -15.13399,4.76825 v 139.73033 h 15.13399 V 433.2654 c 7.67067,-5.39019 16.37791,-10.9877 25.91441,-10.9877 12.23158,0 17.41442,12.02427 17.41442,22.59734 v 58.46283 z"
            style="fill:#646464" />
        <path
            d="m 838.1594,456.27737 c 0,25.08512 13.26816,48.71903 41.25566,48.92635 28.19485,-0.20732 41.87763,-23.84123 41.87763,-48.92635 -0.20732,-24.46317 -15.5486,-45.81663 -41.67031,-46.02394 -25.91436,0.20731 -41.46298,21.56077 -41.46298,46.02394 z m 16.37791,0 c 0,-16.37788 4.14628,-34.4143 24.87775,-35.65819 19.48762,1.03658 25.29247,19.28031 25.29247,35.65819 0,17.41447 -3.73166,38.97523 -24.87782,39.59717 -19.48759,-0.20732 -25.08513,-22.1827 -25.08513,-39.59717 z"
            style="fill:#646464" />
        <path
            d="m 1015.2647,503.33787 v -69.45052 c 0,-12.23159 -9.7438,-20.10956 -20.7315,-22.59734 -10.78035,-2.48779 -20.93879,-0.41465 -28.40214,1.65852 -9.5365,2.48777 -16.37791,6.84139 -24.04854,12.4389 v 77.95044 h 15.13398 v -76.08461 c 4.76825,-3.31704 12.4389,-6.8414 20.52417,-7.04871 13.26822,-0.20731 22.39003,7.46336 22.39003,21.35346 v 61.77986 z"
            style="fill:#646464" />
        <path
            d="m 1143.7709,410.46074 c 24.6706,-0.41463 35.8656,22.80466 36.0728,49.13366 0,23.21929 -11.6095,44.98738 -36.4874,45.81664 -10.1584,0 -18.8656,-3.10972 -27.3655,-8.29262 v 53.69459 l -14.9268,-5.39018 0.2073,-119.20614 c -0.2073,0 11.6097,-15.54863 42.2923,-15.96327 z m -3.7316,84.1699 c 19.9022,-1.24388 22.39,-20.73149 22.39,-36.07282 0,-14.92667 -2.4878,-37.3167 -21.3535,-38.14596 -12.8535,-0.82926 -23.2192,5.18288 -25.2924,7.25605 v 59.08476 c 4.9756,3.10975 14.9267,8.49993 24.2559,7.87797 z"
            style="fill:#646464" />
        <path
            d="m 1272.5136,495.04528 -3.5244,-7.25603 c -7.6706,3.73166 -15.134,7.25603 -25.4997,7.46335 -16.9998,0.62194 -29.0241,-15.34131 -27.3656,-38.97523 h 55.5604 c -0.4146,-27.98754 -9.7438,-45.40201 -35.0362,-45.40201 -26.5364,0 -36.2801,24.67051 -36.4875,48.51173 0,15.34132 6.0121,29.64606 15.9633,38.14598 10.7804,9.12185 27.7802,8.91453 40.841,5.18286 6.0121,-1.86582 10.7804,-4.56092 15.5487,-7.67065 z m -16.1706,-47.68247 h -39.8045 c 1.0366,-13.06084 6.2194,-27.15826 20.7315,-27.15826 13.4755,0 19.2803,14.09742 19.2803,27.36559 z"
            style="fill:#646464" />
        <path
            d="m 1331.7216,421.65576 c 2.073,0 5.5973,0.62194 8.4998,1.24388 1.6584,-3.73166 4.1463,-8.49992 6.0121,-12.23158 -12.6462,-2.28047 -21.3535,-0.20732 -30.4752,3.10973 -8.5,2.9024 -15.9634,7.87797 -21.5608,14.09742 v 75.46266 h 15.134 v -73.38952 c 5.3901,-4.56092 12.2315,-8.29259 22.1826,-8.29259 z"
            style="fill:#646464" />
        <path
            d="m 1360.3665,415.4363 v 63.43841 c 0,18.03639 15.7561,26.12169 29.4389,26.12169 17.829,0 32.5484,-5.80481 45.1946,-14.92669 v -78.15775 h -15.1339 v 76.08461 c -4.9756,3.31705 -12.4389,7.04871 -20.5243,7.25603 -13.2681,0.20733 -23.4265,-7.67067 -23.4265,-21.56076 v -63.43841 z m 19.4877,-17.20715 39.8045,-19.69493 -6.0121,-12.23159 -41.0484,24.46317 z"
            style="fill:#646464" />
    </g>
</svg>
