<?xml version="1.0" encoding="UTF-8" standalone="no"?>
<svg
    xmlns:svg="http://www.w3.org/2000/svg"
    xmlns="http://www.w3.org/2000/svg"
    width="1640"
    height="856"
    version="1.1"
    viewBox="0 0 1640 856">
    <rect
        x="0"
        y="5.6843419e-14"
        width="1640"
        height="856"
        style="fill:#ffffff"
        id="rect2" />
    <g>
        <g>
            <path
                d="m 846.37309,129.36513 c -4.45747,1.57727 -13.71536,13.78428 -9.12074,18.51606 2.26307,-0.13714 14.88126,-5.89751 16.66423,-7.4062 z m 38.67746,8.91535 c -0.0686,5.0061 1.78295,13.85253 5.8976,17.14422 -0.48008,-4.32034 -2.94915,-5.48617 -0.89186,-13.92111 z m -68.35621,4.83141 c -0.68362,-8.9e-4 -1.28351,0.24307 -1.72926,0.86026 -4.73178,6.51478 22.01289,18.79036 26.47036,20.64192 12.96097,5.34899 24.82483,10.83512 38.54017,15.49834 l 1.09724,-2.60639 c -1.85158,-1.98872 -42.17458,-22.97322 -49.64947,-26.74494 -2.81159,-1.37153 -5.62293,-2.87986 -8.22887,-4.45712 -1.64584,-0.97723 -4.44932,-3.18886 -6.50017,-3.19207 z m 40.92535,1.95752 c -1.85157,4.66321 -2.33137,8.22923 -1.3713,11.79522 1.71442,-0.27429 7.47461,-2.88038 9.32614,-3.90903 l -1.57723,-2.12587 c -0.75431,-0.75435 -1.30283,-1.30274 -1.98858,-1.91993 -1.44012,-1.44011 -2.40034,-2.81174 -4.38903,-3.84039 z m 12.06927,11.10931 c -0.82292,3.29168 -0.82275,7.81767 1.23456,10.08069 2.46877,-0.34288 5.21193,-1.85127 7.06351,-3.97714 -0.41144,-0.48003 -7.20084,-5.48636 -8.29807,-6.10355 z m -66.57139,9.19919 c -0.62729,0.0289 -0.39366,0.49174 -0.70226,0.60746 0.0686,2.12587 -2.12551,-0.1372 3.56634,3.15448 1.37155,0.75434 3.01743,1.92043 4.32038,2.94908 14.05826,11.79518 4.93743,28.32164 4.18307,46.49445 -0.27431,6.65194 0.54876,12.6868 3.90906,17.76149 3.22307,4.93751 9.80598,10.1494 16.66368,9.66936 20.71012,-1.64583 10.76695,-50.60971 41.00925,-38.06018 0.75436,-1.44011 0.41149,-7.33753 0,-8.9148 l -11.04118,-2.88043 c -2.88022,-0.75434 -8.50348,-3.15435 -11.17797,-3.56581 -3.63456,3.84029 -7.54314,26.8136 -12.54926,34.83705 -5.55469,8.77782 -25.78495,9.25787 -18.79008,-25.09904 1.09722,-5.21183 2.9487,-12.27527 3.08582,-17.1442 0.27432,-6.92626 -1.98844,-8.43487 -7.20026,-12.20658 -4.32037,-3.15452 -6.99522,-4.7319 -11.58985,-6.51489 -2.19017,-0.87007 -3.19887,-1.10995 -3.68674,-1.08744 z"
                style="fill:#ffc82a;stroke-width:0.44643497" />
            <path
                d="m 854.28869,128.00038 c -1.14384,-0.008 -2.17223,0.0961 -3.0466,0.33615 0.27432,3.77172 11.1779,15.70423 14.88106,19.40737 6.03473,5.96617 13.50948,12.2754 22.28727,16.73289 4.73178,-5.76044 0.48051,-1.50862 -4.31984,-12.7552 -2.19446,-5.07467 -2.8118,-9.05226 -2.26316,-15.63563 -5.88047,-2.52019 -19.53184,-8.03308 -27.53873,-8.08558 z m -12.49859,1.34297 c -5.09707,0.002 -17.86484,7.07255 -20.72146,10.9257 2.19446,2.74307 7.4746,6.1717 11.52065,7.81754 2.88021,-11.93234 1.57735,-9.53218 9.66936,-18.72146 -0.14787,-0.015 -0.30411,-0.0219 -0.46855,-0.0218 z m 12.90884,13.6307 c -2.09046,-0.004 -6.66679,2.69952 -8.53125,3.5353 -1.64581,0.75434 -8.09237,3.15477 -8.91534,3.97769 l 29.83077,15.97831 -0.2054,-8.77805 c -0.0686,-1.78299 0.20559,-1.30281 -0.68592,-2.5372 -2.26301,0.0686 -3.36016,1.64599 -5.76032,2.81179 -1.71443,0.82293 -4.59462,1.98873 -6.3776,0 -2.94881,-3.36025 1.78291,-12.13806 1.02861,-14.9497 -0.11572,-0.0257 -0.24419,-0.0379 -0.38355,-0.0381 z m 39.47234,1.88942 c -2.19446,5.07467 -0.96001,8.29809 2.19451,11.52119 1.23439,-0.13715 5.96603,-2.33183 6.78893,-2.88043 -2.6745,-2.67449 -5.28027,-6.172 -8.98344,-8.64076 z m -82.84064,5.07495 c -1.57727,1.23437 -5.34893,8.1607 -6.3776,10.76662 5.69186,6.03474 61.71895,35.24857 71.04541,34.35707 1.16579,-1.09723 0.68565,-3.49741 0.95997,-5.34898 0.27427,-2.19446 1.37147,-4.38902 1.57724,-6.51489 -12.82387,-5.82903 -22.28732,-8.16104 -36.20835,-15.36159 -5.76048,-3.01737 -10.90389,-5.55467 -16.18426,-8.50346 -2.81165,-1.64584 -4.8691,-2.94865 -7.61215,-4.66306 -2.19446,-1.30296 -5.21158,-3.77165 -7.20026,-4.73171 z m 93.19539,6.2403 c 2.12584,6.99481 8.70966,15.36139 6.30948,21.05325 9.87507,-8.70923 2.46834,-11.72683 -6.30948,-21.05325 z m -2.12587,0.75456 c -5.5547,11.4523 -11.72632,16.5956 0.27458,21.94458 -3.97744,-4.73179 -0.13743,-14.60687 -0.27458,-21.94458 z m 1.64588,3.8404 c -3.77172,14.74398 1.09735,17.624 3.84039,20.64138 3.4974,-4.45749 1.23427,-13.44083 -3.84039,-20.64138 z m -25.30444,4.80036 -6.72084,3.29176 c 1.37155,1.5087 4.5261,2.67439 6.99487,3.63446 -0.48003,-3.49741 -1.37127,-3.08592 -0.27403,-6.92622 z m -50.74673,13.98974 c 1.44011,16.32125 -5.96638,38.60832 -1.30319,46.15176 2.46877,3.90887 7.13193,4.59449 10.08069,1.98857 4.93755,-4.3889 6.6523,-19.3384 8.36671,-24.89311 2.6745,-8.57209 4.52571,-9.0523 5.5544,-11.93251 z"
                style="fill:#334f7d;stroke-width:0.44643497" />
        </g>
        <g>
            <path
                d="m 885.03924,230.26944 v 25.76366 c 0,19.97422 -16.93423,36.78589 -36.24502,36.78589 h -57.95144 c -15.87371,0 -29.00923,13.58588 -29.00923,29.4828 v 55.24647 c 0,15.72347 13.6726,24.97183 29.00923,29.48282 18.36562,5.40021 35.97734,6.37615 57.95144,0 14.60654,-4.22907 29.00947,-12.74006 29.00947,-29.48282 v -22.1121 h -57.95121 v -7.3707 h 57.95121 29.00947 c 16.86198,0 23.14541,-11.76153 29.00949,-29.4152 6.05737,-18.17414 5.79961,-35.65153 0,-58.96561 -4.16717,-16.78614 -12.12609,-29.41521 -29.00949,-29.41521 z m -32.5935,139.90812 c 6.01427,0 10.88707,4.92806 10.88707,11.02225 0,6.11587 -4.8728,11.08987 -10.88707,11.08987 -5.99304,0 -10.88707,-4.974 -10.88707,-11.08987 0,-6.09419 4.89403,-11.02225 10.88707,-11.02225 z"
                style="fill:#ffc82a;stroke-width:0.44643497" />
            <path
                d="m 799.74136,169.3466 c -3.07937,0.34987 -6.05629,0.7779 -8.89853,1.28082 -24.55168,4.33749 -29.00955,13.4163 -29.00955,30.15903 v 22.11253 h 49.43049 c -0.0893,-2.43827 -0.0704,-4.247 -0.0704,-4.247 0,0 3.56621,-23.79619 3.90907,-27.70506 0.27427,-3.97745 0.27418,-6.03438 -1.02875,-10.08041 -1.30296,-3.97745 -4.66336,-5.82943 -6.10352,-7.0638 -1.37072,-1.23368 -4.18652,-3.63187 -8.22886,-4.45611 z m -12.54993,16.69859 c 5.99305,0 10.88697,4.97399 10.88697,11.08987 0,6.09422 -4.89392,11.02203 -10.88697,11.02203 -6.01447,0 -10.88699,-4.92781 -10.88699,-11.02203 0,-6.11588 4.87252,-11.08987 10.88699,-11.08987 z m 80.89461,22.21148 c -2.57151,-0.0579 -5.52853,1.29233 -8.40873,4.22396 -3.84033,3.90887 -5.69197,12.20603 -8.70934,21.18957 -2.94881,8.98354 -4.59488,9.12109 -8.98379,13.64716 -4.45748,4.52605 -13.44143,1.50815 -19.13328,-1.50922 -5.76047,-3.01738 -7.68017,-7.33756 -9.73748,-11.04071 -0.55567,-1.00023 -0.94713,-2.64303 -1.22854,-4.49782 h -50.0516 -21.77396 c -16.86217,0 -31.62636,10.13513 -36.2445,29.41533 -5.32723,22.09958 -5.5633,35.88955 0,58.96507 4.12412,17.17656 13.97277,29.41532 30.83493,29.41532 h 19.94795 v -26.50765 c 0,-19.15008 16.5695,-36.04158 36.24513,-36.0416 h 57.95123 c 16.13163,0 29.00954,-13.28256 29.00954,-29.48316 v -42.40463 c 0,0 -1.55663,-1.51379 -3.45411,-2.72409 -1.24695,-0.79538 -2.64091,-1.60991 -3.83748,-2.12661 -0.75435,-0.32574 -1.5688,-0.50163 -2.42597,-0.52092 z"
                style="fill:#334f7d;stroke-width:0.44643497" />
        </g>
    </g>
    <g>
        <path
            d="m 652.15118,483.41102 c 18.57437,-0.31218 27.00308,17.16961 27.15916,36.99271 0,17.4818 -8.74086,33.87096 -27.47131,34.4953 -7.64834,0 -14.20404,-2.34128 -20.6036,-6.24348 v 40.42665 l -11.2383,-4.05827 0.15607,-89.75027 c -0.15607,0 8.74093,-11.70656 31.8419,-12.01874 z m -2.8096,63.37147 c 14.98435,-0.93649 16.85743,-15.60872 16.85743,-27.1592 0,-11.23829 -1.87308,-28.09573 -16.07706,-28.72008 -9.67737,-0.62435 -17.48172,3.90218 -19.04259,5.46307 v 44.48492 c 3.7461,2.34128 11.23831,6.39955 18.26222,5.93129 z"
            style="fill:#646464;stroke-width:0.44643497" />
        <path
            d="m 709.59131,531.17377 v -47.91884 l -11.55046,3.90218 v 47.45056 c 0,12.64308 11.70655,19.97922 22.00834,19.97922 13.42351,0 21.07178,-3.74608 24.50573,-5.307 0.15607,1.71699 0,1.24872 0,2.96567 0,4.9948 -0.15609,13.57961 -2.49741,17.95008 -4.68262,8.89695 -17.16962,10.14568 -25.91053,11.39436 l 1.87306,7.18001 c 11.55045,-0.31215 27.78357,-4.68261 33.55881,-15.60871 3.27782,-6.24352 3.74607,-18.26227 3.74607,-26.22269 v -61.96672 h -11.39438 v 55.72319 c -3.74607,2.4974 -10.61392,5.93133 -16.70137,6.08741 -10.14566,0.15612 -17.63786,-5.30695 -17.63786,-15.76481 z"
            style="fill:#646464;stroke-width:0.44643497" />
        <path
            d="m 776.1431,492.30799 v 44.79708 c 0,11.70655 9.05305,18.57442 24.19354,17.16962 v -5.93133 c -7.96047,-0.31215 -12.79916,-2.49736 -12.79916,-11.55044 v -44.48493 h 12.79916 v -7.3361 h -12.79916 v -23.10094 l -11.39438,4.05827 v 19.04267 h -7.8044 v 7.3361 z"
            style="fill:#646464;stroke-width:0.44643497" />
        <path
            d="m 872.8149,553.33816 v -47.60664 c 0,-11.86265 -8.11657,-21.22789 -20.2914,-21.22789 -9.20917,0 -17.01351,2.96565 -23.88137,7.96046 v -47.91885 l -11.39438,3.59001 v 105.20291 h 11.39438 v -52.75753 c 5.77523,-4.05827 12.33091,-8.27263 19.51093,-8.27263 9.20917,0 13.11134,9.05306 13.11134,17.01353 v 44.01663 z"
            style="fill:#646464;stroke-width:0.44643497" />
        <path
            d="m 886.66032,517.90634 c 0,18.88658 9.98959,36.68055 31.06139,36.83662 21.22788,-0.15607 31.52964,-17.95004 31.52964,-36.83662 -0.15608,-18.41832 -11.70655,-34.49532 -31.37355,-34.65141 -19.51094,0.15609 -31.21748,16.23309 -31.21748,34.65141 z m 12.33091,0 c 0,-12.33091 3.12174,-25.91051 18.73048,-26.84704 14.6722,0.78044 19.04268,14.51613 19.04268,26.84704 0,13.11134 -2.80958,29.34441 -18.73051,29.81268 -14.67221,-0.15607 -18.88657,-16.70134 -18.88657,-29.81268 z"
            style="fill:#646464;stroke-width:0.44643497" />
        <path
            d="M 1020.0029,553.33816 V 501.0489 c 0,-9.20916 -7.3362,-15.14048 -15.6088,-17.01353 -8.11652,-1.87306 -15.76482,-0.31218 -21.38396,1.2487 -7.18003,1.87304 -12.33092,5.15088 -18.10615,9.36524 v 58.68885 h 11.39438 v -57.28407 c 3.59002,-2.49739 9.36525,-5.15088 15.45265,-5.30697 9.98958,-0.15609 16.85748,5.61916 16.85748,16.07701 v 46.51403 z"
            style="fill:#646464;stroke-width:0.44643497" />
        <path
            d="m 652.15118,483.41102 c 18.57437,-0.31218 27.00308,17.16961 27.15916,36.99271 0,17.4818 -8.74086,33.87096 -27.47131,34.4953 -7.64834,0 -14.20404,-2.34128 -20.6036,-6.24348 v 40.42665 l -11.2383,-4.05827 0.15607,-89.75027 c -0.15607,0 8.74093,-11.70656 31.8419,-12.01874 z m -2.8096,63.37147 c 14.98435,-0.93649 16.85743,-15.60872 16.85743,-27.1592 0,-11.23829 -1.87308,-28.09573 -16.07706,-28.72008 -9.67737,-0.62435 -17.48172,3.90218 -19.04259,5.46307 v 44.48492 c 3.7461,2.34128 11.23831,6.39955 18.26222,5.93129 z"
            style="fill:#646464;stroke-width:0.44643497" />
        <path
            d="m 709.59131,531.17377 v -47.91884 l -11.55046,3.90218 v 47.45056 c 0,12.64308 11.70655,19.97922 22.00834,19.97922 13.42351,0 21.07178,-3.74608 24.50573,-5.307 0.15607,1.71699 0,1.24872 0,2.96567 0,4.9948 -0.15609,13.57961 -2.49741,17.95008 -4.68262,8.89695 -17.16962,10.14568 -25.91053,11.39436 l 1.87306,7.18001 c 11.55045,-0.31215 27.78357,-4.68261 33.55881,-15.60871 3.27782,-6.24352 3.74607,-18.26227 3.74607,-26.22269 v -61.96672 h -11.39438 v 55.72319 c -3.74607,2.4974 -10.61392,5.93133 -16.70137,6.08741 -10.14566,0.15612 -17.63786,-5.30695 -17.63786,-15.76481 z"
            style="fill:#646464;stroke-width:0.44643497" />
        <path
            d="m 776.1431,492.30799 v 44.79708 c 0,11.70655 9.05305,18.57442 24.19354,17.16962 v -5.93133 c -7.96047,-0.31215 -12.79916,-2.49736 -12.79916,-11.55044 v -44.48493 h 12.79916 v -7.3361 h -12.79916 v -23.10094 l -11.39438,4.05827 v 19.04267 h -7.8044 v 7.3361 z"
            style="fill:#646464;stroke-width:0.44643497" />
        <path
            d="m 872.8149,553.33816 v -47.60664 c 0,-11.86265 -8.11657,-21.22789 -20.2914,-21.22789 -9.20917,0 -17.01351,2.96565 -23.88137,7.96046 v -47.91885 l -11.39438,3.59001 v 105.20291 h 11.39438 v -52.75753 c 5.77523,-4.05827 12.33091,-8.27263 19.51093,-8.27263 9.20917,0 13.11134,9.05306 13.11134,17.01353 v 44.01663 z"
            style="fill:#646464;stroke-width:0.44643497" />
        <path
            d="m 886.66032,517.90634 c 0,18.88658 9.98959,36.68055 31.06139,36.83662 21.22788,-0.15607 31.52964,-17.95004 31.52964,-36.83662 -0.15608,-18.41832 -11.70655,-34.49532 -31.37355,-34.65141 -19.51094,0.15609 -31.21748,16.23309 -31.21748,34.65141 z m 12.33091,0 c 0,-12.33091 3.12174,-25.91051 18.73048,-26.84704 14.6722,0.78044 19.04268,14.51613 19.04268,26.84704 0,13.11134 -2.80958,29.34441 -18.73051,29.81268 -14.67221,-0.15607 -18.88657,-16.70134 -18.88657,-29.81268 z"
            style="fill:#646464;stroke-width:0.44643497" />
        <path
            d="M 1020.0029,553.33816 V 501.0489 c 0,-9.20916 -7.3362,-15.14048 -15.6088,-17.01353 -8.11652,-1.87306 -15.76482,-0.31218 -21.38396,1.2487 -7.18003,1.87304 -12.33092,5.15088 -18.10615,9.36524 v 58.68885 h 11.39438 v -57.28407 c 3.59002,-2.49739 9.36525,-5.15088 15.45265,-5.30697 9.98958,-0.15609 16.85748,5.61916 16.85748,16.07701 v 46.51403 z"
            style="fill:#646464;stroke-width:0.44643497" />
        <path
            d="m 726.4439,622.32884 c 18.57443,-0.31219 27.00314,17.16962 27.1592,36.99267 0,17.48182 -8.74083,33.87103 -27.47138,34.49537 -7.64824,0 -14.20391,-2.34133 -20.60347,-6.24349 V 728 l -11.23837,-4.05827 0.15607,-89.75026 c -0.15607,0 8.74093,-11.70656 31.84182,-12.01875 z m -2.80959,63.37149 c 14.98441,-0.93653 16.85745,-15.60875 16.85745,-27.15923 0,-11.23829 -1.87304,-28.09571 -16.07705,-28.7201 -9.6774,-0.62434 -17.48166,3.9022 -19.04266,5.46307 V 679.769 c 3.74617,2.34132 11.23832,6.3996 18.26226,5.93133 z"
            style="fill:#646464;stroke-width:0.44643497" />
        <path
            d="m 823.37419,686.01248 -2.65352,-5.46307 c -5.7752,2.80959 -11.39435,5.46307 -19.19872,5.61919 -12.79916,0.46826 -21.85222,-11.55048 -20.60352,-29.34444 h 41.83141 c -0.31218,-21.07182 -7.33614,-34.18317 -26.3788,-34.18317 -19.97918,0 -27.31526,18.57442 -27.47138,36.52445 0,11.55048 4.5265,22.3205 12.01877,28.7201 8.11654,6.86787 20.9157,6.71179 30.74917,3.9022 4.5265,-1.4048 8.11655,-3.43398 11.70659,-5.77526 z M 811.19937,650.11236 H 781.2306 c 0.78047,-9.83349 4.68255,-20.44743 15.60874,-20.44743 10.14564,0 14.51608,10.61394 14.51608,20.60355 z"
            style="fill:#646464;stroke-width:0.44643497" />
        <path
            d="m 867.95186,630.75753 c 1.5608,0 4.21425,0.46827 6.39954,0.93653 1.24863,-2.80955 3.12175,-6.3996 4.5265,-9.20915 -9.52129,-1.71699 -16.07703,-0.15607 -22.9448,2.34133 -6.39962,2.18521 -12.01884,5.93129 -16.23309,10.6139 V 692.256 h 11.39434 v -55.25498 c 4.05827,-3.43389 9.20912,-6.24349 16.70131,-6.24349 z"
            style="fill:#646464;stroke-width:0.44643497" />
        <path
            d="m 889.51864,626.07492 v 47.76274 c 0,13.57961 11.86278,19.66702 22.16446,19.66702 13.42352,0 24.50575,-4.37042 34.02705,-11.23828 v -58.84495 h -11.39431 v 57.28408 c -3.74612,2.4974 -9.36527,5.30695 -15.45271,5.46307 -9.98957,0.15607 -17.63783,-5.77527 -17.63783,-16.23309 v -47.76279 z m 14.67228,-12.95527 29.96879,-14.8283 -4.52653,-9.20915 -30.90528,18.4183 z"
            style="fill:#646464;stroke-width:0.44643497" />
        <path
            d="m 726.4439,622.32884 c 18.57443,-0.31219 27.00314,17.16962 27.1592,36.99267 0,17.48182 -8.74083,33.87103 -27.47138,34.49537 -7.64824,0 -14.20391,-2.34133 -20.60347,-6.24349 V 728 l -11.23837,-4.05827 0.15607,-89.75026 c -0.15607,0 8.74093,-11.70656 31.84182,-12.01875 z m -2.80959,63.37149 c 14.98441,-0.93653 16.85745,-15.60875 16.85745,-27.15923 0,-11.23829 -1.87304,-28.09571 -16.07705,-28.7201 -9.6774,-0.62434 -17.48166,3.9022 -19.04266,5.46307 V 679.769 c 3.74617,2.34132 11.23832,6.3996 18.26226,5.93133 z"
            style="fill:#646464;stroke-width:0.44643497" />
        <path
            d="m 823.37419,686.01248 -2.65352,-5.46307 c -5.7752,2.80959 -11.39435,5.46307 -19.19872,5.61919 -12.79916,0.46826 -21.85222,-11.55048 -20.60352,-29.34444 h 41.83141 c -0.31218,-21.07182 -7.33614,-34.18317 -26.3788,-34.18317 -19.97918,0 -27.31526,18.57442 -27.47138,36.52445 0,11.55048 4.5265,22.3205 12.01877,28.7201 8.11654,6.86787 20.9157,6.71179 30.74917,3.9022 4.5265,-1.4048 8.11655,-3.43398 11.70659,-5.77526 z M 811.19937,650.11236 H 781.2306 c 0.78047,-9.83349 4.68255,-20.44743 15.60874,-20.44743 10.14564,0 14.51608,10.61394 14.51608,20.60355 z"
            style="fill:#646464;stroke-width:0.44643497" />
        <path
            d="m 867.95186,630.75753 c 1.5608,0 4.21425,0.46827 6.39954,0.93653 1.24863,-2.80955 3.12175,-6.3996 4.5265,-9.20915 -9.52129,-1.71699 -16.07703,-0.15607 -22.9448,2.34133 -6.39962,2.18521 -12.01884,5.93129 -16.23309,10.6139 V 692.256 h 11.39434 v -55.25498 c 4.05827,-3.43389 9.20912,-6.24349 16.70131,-6.24349 z"
            style="fill:#646464;stroke-width:0.44643497" />
        <path
            d="m 889.51864,626.07492 v 47.76274 c 0,13.57961 11.86278,19.66702 22.16446,19.66702 13.42352,0 24.50575,-4.37042 34.02705,-11.23828 v -58.84495 h -11.39431 v 57.28408 c -3.74612,2.4974 -9.36527,5.30695 -15.45271,5.46307 -9.98957,0.15607 -17.63783,-5.77527 -17.63783,-16.23309 v -47.76279 z m 14.67228,-12.95527 29.96879,-14.8283 -4.52653,-9.20915 -30.90528,18.4183 z"
            style="fill:#646464;stroke-width:0.44643497" />
    </g>
</svg>
