<?xml version="1.0" encoding="UTF-8" standalone="no"?>
<svg
     xmlns:svg="http://www.w3.org/2000/svg"
     xmlns="http://www.w3.org/2000/svg"
     width="1024"
     height="1024"
     version="1.1"
     viewBox="0 0 1024 1024">
     <circle
         cx="512"
         cy="512"
         r="512"
         style="fill:#ffffff;fill-opacity:1" />
     <g>
          <g>
               <g>
                    <path
                         d="m 594.76568,74.733437 c -13.98862,4.949837 -43.04218,43.258423 -28.62311,58.107933 7.10205,-0.43041 46.70105,-18.50786 52.29646,-23.24249 z m 121.37936,27.978533 c -0.21514,15.71036 5.59538,43.47265 18.50815,53.80275 -1.50663,-13.55825 -9.25518,-17.21692 -2.79887,-43.68781 z m -214.51859,15.16216 c -2.14537,-0.003 -4.02793,0.76281 -5.42679,2.69971 -14.84951,20.44499 69.08183,58.96875 83.07045,64.77942 40.67472,16.78642 77.90644,34.00326 120.9485,48.63758 l 3.44346,-8.1795 c -5.81073,-6.2411 -132.35421,-72.09559 -155.81223,-83.93217 -8.82348,-4.30421 -17.64615,-9.03772 -25.82423,-13.98755 -5.16506,-3.06676 -13.96305,-10.00741 -20.39916,-10.01749 z m 128.43383,6.14317 c -5.81072,14.6343 -7.3164,25.82537 -4.30347,37.01632 5.38028,-0.86083 23.45713,-9.03938 29.26768,-12.26753 l -4.94975,-6.67149 c -2.36719,-2.36732 -4.08859,-4.08831 -6.24063,-6.0252 -4.5194,-4.51943 -7.53283,-8.82395 -13.77383,-12.0521 z m 37.87633,34.86374 c -2.58249,10.3301 -2.58197,24.53376 3.87432,31.6357 7.74763,-1.07605 16.35633,-5.80973 22.16705,-12.48125 -1.29116,-1.50646 -22.598,-17.21755 -26.04137,-19.15445 z m -208.9174,28.86931 c -1.96857,0.0908 -1.23539,1.54322 -2.20389,1.90638 0.21531,6.67152 -6.67034,-0.43058 11.1921,9.89952 4.30426,2.36732 9.46945,6.02679 13.55841,9.25494 44.11825,37.01619 15.49488,88.88025 13.12754,145.911 -0.86089,20.87543 1.72212,39.81433 12.26753,55.73991 10.11482,15.49514 30.77363,31.85132 52.29475,30.34485 64.99345,-5.16506 33.78935,-158.8257 128.69713,-119.4422 2.36735,-4.5194 1.29133,-23.02698 0,-27.97682 l -34.65001,-9.0395 c -9.03879,-2.36732 -26.68595,-9.89911 -35.07917,-11.19039 -11.40613,12.05179 -23.67224,84.14764 -39.38263,109.32725 -17.432,27.54694 -80.91951,29.05344 -58.96795,-78.76698 3.44337,-16.35599 9.25381,-38.52282 9.68408,-53.80276 0.8609,-21.73625 -6.24022,-26.47063 -22.5962,-38.3072 -13.55835,-9.89968 -21.95268,-14.84986 -36.37175,-20.44532 -6.87329,-2.73049 -10.03884,-3.48329 -11.56994,-3.41268 z"
                         style="fill:#ffc82a" />
                    <path
                         d="m 619.6068,70.450485 c -3.58966,-0.02354 -6.81704,0.301686 -9.56099,1.054922 0.86088,11.836565 35.07897,49.283733 46.70041,60.905103 18.93846,18.72331 42.3961,38.52322 69.94291,52.5119 14.84951,-18.07766 1.50795,-4.73441 -13.5567,-40.02893 -6.88674,-15.92557 -8.82411,-28.40823 -7.10234,-49.068432 C 687.57574,87.916065 644.73435,70.615254 619.6068,70.450485 Z m -39.22363,4.214561 c -15.99593,0.0055 -56.06431,22.195405 -65.02905,34.287544 6.88674,8.60842 23.45714,19.36832 36.1546,24.53336 9.0388,-37.446612 4.95009,-29.91431 30.34485,-58.752513 -0.46405,-0.04708 -0.9544,-0.06857 -1.4704,-0.06839 z m 40.51107,42.776514 c -6.56037,-0.0134 -20.92205,8.47177 -26.77314,11.09464 -5.16497,2.36731 -25.39587,9.90044 -27.97853,12.48296 l 93.61626,50.14387 -0.64458,-27.54767 c -0.21531,-5.59546 0.64519,-4.08857 -2.1526,-7.96235 -7.10188,0.21521 -10.54498,5.1655 -18.0773,8.82408 -5.38028,2.58252 -14.41904,6.2411 -20.01446,0 -9.25409,-10.54532 5.59521,-38.09222 3.22803,-46.91585 -0.36317,-0.0807 -0.76632,-0.11879 -1.20368,-0.11968 z m 123.8739,5.92945 c -6.88675,15.92556 -3.01275,26.04143 6.88692,36.15632 3.87382,-0.43041 18.72285,-7.31784 21.30533,-9.03951 -8.39321,-8.39321 -16.5708,-19.36925 -28.19225,-27.11681 z m -259.97428,15.92642 c -4.94984,3.87378 -16.78624,25.6103 -20.01447,33.7883 17.86244,18.93851 193.68921,110.61868 222.95796,107.82095 3.6585,-3.44336 2.15172,-10.97575 3.0126,-16.78643 0.86072,-6.88673 4.30402,-13.77381 4.94976,-20.44533 -40.24444,-18.2929 -69.94308,-25.61133 -113.63072,-48.20842 -18.07774,-9.46926 -34.21904,-17.4319 -50.79015,-26.68595 -8.82366,-5.16506 -15.28044,-9.25359 -23.88878,-14.63384 -6.88675,-4.08901 -16.35521,-11.83633 -22.5962,-14.84928 z m 292.47,19.58361 c 6.67144,21.95146 27.33307,48.20784 19.80074,66.07029 30.99036,-27.33172 7.74624,-36.80168 -19.80074,-66.07029 z m -6.67149,2.36802 c -17.432,35.94013 -36.80006,52.08104 0.86172,68.86746 -12.48216,-14.84953 -0.43128,-45.83995 -0.86172,-68.86746 z m 5.16519,12.0521 c -11.83659,46.27023 3.44376,55.30845 12.0521,64.77771 10.9757,-13.98867 3.87343,-42.18062 -12.0521,-64.77771 z m -79.41156,15.0647 -21.09161,10.33038 c 4.30426,4.73463 14.20399,8.39287 21.95162,11.40582 -1.50646,-10.97573 -4.30339,-9.6844 -0.86001,-21.7362 z M 537.09031,232.2691 c 4.51939,51.2201 -18.72395,121.16242 -4.08974,144.83557 7.74763,12.26701 22.38178,14.41862 31.6357,6.24063 15.49526,-13.77347 20.87652,-60.68864 26.2568,-78.12069 8.39321,-26.9013 14.20279,-28.40837 17.43102,-37.44719 z"
                         style="fill:#334f7d" />
               </g>
          </g>
          <g>
            <path
                 d="m 716.10954,391.39595 v 80.85266 c 0,62.684 -53.14375,115.44318 -113.74577,115.44318 H 420.49794 c -49.8156,0 -91.03811,42.6358 -91.03811,92.52426 v 173.37699 c 0,49.34411 42.90798,78.36772 91.03811,92.52433 57.63582,16.94717 112.90575,20.00993 181.86583,0 45.83893,-13.27185 91.03885,-39.98143 91.03885,-92.52433 v -69.3932 H 511.53746 v -23.13107 h 181.86516 91.03885 c 52.917,0 72.63598,-36.91058 91.03892,-92.31211 19.00949,-57.03492 18.20057,-111.88327 0,-185.04859 -13.07763,-52.67905 -38.05469,-92.31212 -91.03892,-92.31212 z M 613.82316,830.46197 c 18.87422,7e-5 34.16631,15.46547 34.16631,34.59053 0,19.19311 -15.29209,34.80274 -34.16631,34.80274 -18.80767,0 -34.16631,-15.60963 -34.16631,-34.80274 0,-19.12506 15.35864,-34.59053 34.16631,-34.59053 z"
                 style="fill:#ffc82a" />
            <path
                 d="m 448.42383,200.20508 c -9.66383,1.098 -19.00612,2.44124 -27.92578,4.01953 -77.04917,13.61213 -91.03907,42.10366 -91.03907,94.64648 v 69.39453 h 155.125 c -0.28038,-7.65188 -0.2207,-13.32812 -0.2207,-13.32812 0,0 11.19155,-74.67832 12.26758,-86.94531 0.86071,-12.48222 0.86043,-18.93736 -3.22852,-31.63477 -4.08895,-12.48222 -14.63472,-18.29419 -19.15429,-22.16797 -4.30165,-3.87159 -13.13835,-11.3977 -25.82422,-13.98437 z m -39.38477,52.4043 c 18.80767,0 34.16602,15.60962 34.16602,34.80273 0,19.12513 -15.35835,34.58984 -34.16602,34.58984 -18.87489,0 -34.16601,-15.46471 -34.16601,-34.58984 0,-19.19311 15.29112,-34.80273 34.16601,-34.80273 z m 253.86719,69.70507 c -8.07004,-0.18166 -17.34988,4.0556 -26.38867,13.25586 -12.05189,12.26699 -17.8628,38.30547 -27.33203,66.49805 -9.25409,28.19255 -14.41987,28.62422 -28.19336,42.82812 -13.98863,14.20389 -42.18248,4.73293 -60.04492,-4.73632 -18.07774,-9.46927 -24.10229,-23.02706 -30.5586,-34.64844 -1.74386,-3.13896 -2.97232,-8.29449 -3.85547,-14.11524 H 329.45898 261.12695 c -52.91762,0 -99.25131,31.80649 -113.74414,92.3125 -16.71815,69.35394 -17.45902,112.63024 0,185.04688 12.9425,53.90423 43.84997,92.3125 96.76758,92.3125 h 62.60156 v -83.1875 c 0,-60.09767 51.99915,-113.10735 113.7461,-113.10742 h 181.86523 c 50.62505,0 91.03906,-41.68392 91.03906,-92.52539 V 339.17188 c 0,0 -4.8851,-4.75058 -10.83984,-8.54883 -3.91323,-2.49609 -8.28785,-5.05229 -12.04297,-6.67383 -2.36731,-1.02225 -4.92327,-1.57421 -7.61328,-1.63477 z"
                 style="fill:#334f7d" />
          </g>
    </g>
    <circle
         cx="864"
         cy="864"
         r="160"
         style="fill:#ffffff" />
    <g>
        <path
             d="m 862.0946,736 c -49.3209,0 -104.4447,31.33341 -122.4325,91.09905 -9.2837,30.17293 30.1731,17.98771 32.494,53.38286 2.3211,28.43221 -6.3826,38.29642 -8.1234,55.70388 -2.3211,23.20997 51.6423,58.02489 99.8029,55.70387 71.3706,-4.06173 125.914,-56.86436 125.914,-128.23494 C 989.7496,792.28412 933.4653,736 862.0946,736 Z M 815.675,944.88955 c -12.7656,0 -23.2101,-10.44448 -23.2101,-23.20997 0,-12.76546 10.4445,-23.20995 23.2101,-23.20995 12.7653,0 23.2098,10.44449 23.2098,23.20995 0,12.76549 -10.4445,23.20997 -23.2098,23.20997 z"
             style="fill:#e0995e" />
        <circle
             cx="796.52686"
             cy="811.43219"
             r="23.209949"
             style="fill:#c75c5c" />
        <circle
             cx="862.09534"
             cy="780.099"
             r="23.209949"
             style="fill:#f5cf87" />
        <circle
             cx="927.08289"
             cy="809.69153"
             r="23.209949"
             style="fill:#76c2af" />
        <circle
             cx="944.49048"
             cy="882.80267"
             r="23.209949"
             style="fill:#ffffff" />
        <circle
             cx="891.68799"
             cy="939.66736"
             r="23.209949"
             style="fill:#4f5d73" />
    </g>
</svg>
