<?xml version="1.0" encoding="UTF-8" standalone="no"?>
<svg
    xmlns:svg="http://www.w3.org/2000/svg"
    xmlns="http://www.w3.org/2000/svg"
    width="5437.4189"
    height="1536"
    version="1.1"
    viewBox="0 0 5437.4189 1536">
    <rect
        x="0"
        y="0"
        width="5437.4189"
        height="1536"
        style="fill:#ffffff" />
    <g>
        <g>
            <path
                d="m 785.75707,260.93166 c -16.1029,5.69798 -49.54768,49.79665 -32.94928,66.89054 8.1755,-0.49545 53.75959,-21.30517 60.2007,-26.7554 z m 139.725,32.20731 c -0.24763,18.08486 6.44106,50.04322 21.30549,61.93466 -1.7343,-15.60749 -10.65399,-19.81914 -3.22189,-50.29094 z m -246.94154,17.4538 c -2.4696,-0.003 -4.63677,0.87812 -6.24704,3.10776 -17.09389,23.5351 79.52307,67.88146 95.62598,74.57038 46.8224,19.32355 89.68143,39.14259 139.22904,55.98879 l 3.96387,-9.41576 c -6.68896,-7.1844 -152.3586,-82.99234 -179.36214,-96.61792 -10.15709,-4.95478 -20.31324,-10.40371 -29.7274,-16.10169 -5.94569,-3.53029 -16.07346,-11.51995 -23.48231,-11.53156 z m 147.84567,7.07169 c -6.68894,16.84616 -8.42224,29.72866 -4.95393,42.61105 6.1935,-0.99092 27.00256,-10.4056 33.69135,-14.12166 l -5.69788,-7.67986 c -2.72499,-2.72511 -4.70657,-4.70622 -7.18386,-6.93585 -5.20253,-5.20252 -8.67141,-10.15763 -15.85568,-13.87368 z m 43.60108,40.13313 c -2.97284,11.89144 -2.97222,28.24187 4.45992,36.41722 8.91862,-1.23869 18.82847,-6.68785 25.51742,-14.3677 -1.48634,-1.73415 -26.01353,-19.81987 -29.97734,-22.04952 z m -240.49378,33.2327 c -2.26613,0.10458 -1.42209,1.77647 -2.53697,2.19452 0.24783,7.67986 -7.67853,-0.49565 12.88368,11.39576 4.95481,2.72511 10.90068,6.9377 15.60768,10.65375 50.78642,42.61093 17.8368,102.3139 15.11163,167.96443 -0.99098,24.03059 1.98241,45.83195 14.12171,64.1646 11.64361,17.83713 35.42483,36.66541 60.19872,34.93126 74.81674,-5.94569 38.89638,-182.83107 148.14878,-137.49504 2.72517,-5.2025 1.48651,-26.50735 0,-32.20534 l -39.88707,-10.40575 c -10.40496,-2.72512 -30.71937,-11.3953 -40.38116,-12.88173 -13.13008,13.87331 -27.25014,96.86596 -45.33505,125.85127 -20.06671,31.71048 -93.14994,33.44468 -67.8805,-90.67204 3.96379,-18.82808 10.6524,-44.34526 11.14775,-61.93464 0.99099,-25.02154 -7.18339,-30.47152 -26.01147,-44.09709 -15.6076,-11.39593 -25.27067,-17.09429 -41.86909,-23.53547 -7.91215,-3.14319 -11.55614,-4.00978 -13.31864,-3.92849 z"
                style="fill:#ffc82a" />
            <path
                d="m 814.35274,256.0014 c -4.1322,-0.0271 -7.84735,0.34726 -11.00606,1.21436 0.991,13.62558 40.38094,56.73261 53.75887,70.11048 21.80088,21.55319 48.80393,44.34571 80.51429,60.44869 17.09389,-20.80996 1.73586,-5.44997 -15.6057,-46.079 -7.92763,-18.33262 -10.15784,-32.70195 -8.17584,-56.4848 -21.24359,-9.10436 -70.56011,-29.02007 -99.48556,-29.20973 z m -45.15201,4.85156 c -18.41356,0.006 -64.53799,25.55007 -74.8577,39.46986 7.92761,9.90952 27.0025,22.2957 41.61912,28.24138 10.40496,-43.10639 5.69827,-34.43563 34.93124,-67.63254 -0.53419,-0.0542 -1.09864,-0.0789 -1.69266,-0.0787 z m 46.63404,49.24185 c -7.55192,-0.0154 -24.08424,9.75223 -30.8197,12.77152 -5.94562,2.72512 -29.23427,11.39683 -32.20728,14.36969 l 107.7657,57.72276 -0.74202,-31.71132 c -0.24784,-6.44118 0.74269,-4.70651 -2.47795,-9.1658 -8.17525,0.24773 -12.13878,5.94623 -20.80954,10.15778 -6.19347,2.97287 -16.59837,7.1844 -23.03951,0 -10.65279,-12.13916 6.44087,-43.84958 3.71592,-54.00685 -0.41805,-0.0929 -0.88213,-0.13674 -1.38562,-0.13778 z m 142.59659,6.82567 c -7.92764,18.33258 -3.4681,29.97742 7.92782,41.62108 4.4593,-0.49546 21.55267,-8.42387 24.52548,-10.40576 -9.66181,-9.66178 -19.07533,-22.29677 -32.4533,-31.21532 z m -299.26755,18.33359 c -5.69799,4.45925 -19.32337,29.48112 -23.03953,38.89515 20.56223,21.80092 222.96398,127.33793 256.65645,124.11732 4.2115,-3.96382 2.47696,-12.63464 3.46798,-19.32358 0.99082,-7.92763 4.9545,-15.85562 5.69786,-23.53549 -46.32709,-21.05776 -80.51446,-29.4823 -130.80517,-55.49478 -20.8101,-10.90046 -39.39103,-20.06662 -58.46674,-30.71934 -10.15729,-5.94573 -17.58996,-10.65221 -27.4994,-16.84565 -7.92764,-4.70703 -18.82723,-13.62531 -26.01145,-17.09363 z m 336.67477,22.54352 c 7.67982,25.26928 31.46422,55.4941 22.79342,76.05634 35.6744,-31.4627 8.9171,-42.36398 -22.79342,-76.05634 z m -7.67984,2.72592 c -20.06673,41.37223 -42.36212,59.95273 0.99196,79.27631 -14.36877,-17.09393 -0.49646,-52.76835 -0.99196,-79.27631 z m 5.94588,13.87371 c -13.62564,53.26364 3.96422,63.66789 13.87368,74.56841 12.6346,-16.10301 4.4589,-48.55593 -13.87368,-74.56841 z m -91.41407,17.34161 -24.27947,11.89173 c 4.95481,5.45027 16.35084,9.66142 25.26944,13.12974 -1.73414,-12.63464 -4.9538,-11.14811 -0.98997,-25.02147 z m -183.32606,50.53891 c 5.20249,58.96166 -21.55397,139.47524 -4.70786,166.72644 8.9186,14.12108 25.7646,16.5979 36.41718,7.18385 17.83726,-15.85523 24.03188,-69.8613 30.22534,-89.92807 9.66178,-30.96726 16.34944,-32.70209 20.06563,-43.10705 z"
                style="fill:#334f7d" />
        </g>
        <g>
            <path
                d="m 925.44124,625.45548 v 93.07297 c 0,72.15826 -61.17608,132.8916 -130.93767,132.8916 H 585.15 c -57.34487,0 -104.79786,49.0799 -104.79786,106.50865 v 199.5817 c 0,56.8021 49.39321,90.2124 104.79786,106.5087 66.34706,19.5086 129.97064,23.0343 209.35357,0 52.76715,-15.2778 104.79874,-46.0243 104.79874,-106.5087 v -79.8815 H 689.94952 v -26.6272 H 899.30231 1004.101 c 60.9151,0 83.6144,-42.4893 104.7988,-106.26441 21.8827,-65.65532 20.9515,-128.79364 0,-213.01733 -15.0541,-60.64112 -43.8064,-106.26448 -104.7988,-106.26448 z M 807.69495,1130.8832 c 21.72695,0 39.33029,17.803 39.33029,39.8187 0,22.094 -17.60334,40.0629 -39.33029,40.0629 -21.65028,0 -39.33029,-17.9689 -39.33029,-40.0629 0,-22.0157 17.68001,-39.8187 39.33029,-39.8187 z"
                style="fill:#ffc82a" />
            <path
                d="m 617.29673,405.36746 c -11.12445,1.26395 -21.87876,2.81024 -32.14657,4.62707 -88.69461,15.6695 -104.79901,48.46733 -104.79901,108.95161 v 79.883 h 178.57107 c -0.32278,-8.8084 -0.25412,-15.34255 -0.25412,-15.34255 0,0 12.88315,-85.9654 14.12176,-100.08646 0.99085,-14.36881 0.99051,-21.7996 -3.71644,-36.41617 -4.707,-14.36881 -16.84669,-21.05921 -22.04935,-25.51847 -4.95182,-4.45676 -15.1241,-13.1204 -29.72734,-16.09803 z m -45.33749,60.32484 c 21.65029,0 39.32994,17.96888 39.32994,40.06293 0,22.01578 -17.67965,39.81783 -39.32994,39.81783 -21.72772,0 -39.33,-17.80205 -39.33,-39.81783 0,-22.09405 17.60228,-40.06293 39.33,-40.06293 z m 292.23739,80.24051 c -9.28978,-0.20911 -19.97221,4.66861 -30.37713,15.25934 -13.87346,14.12109 -20.56263,44.09512 -31.46308,76.54879 -10.65279,32.45367 -16.59935,32.95055 -32.45457,49.30131 -16.10295,16.35067 -48.5581,5.44828 -69.1203,-5.45217 -20.81009,-10.90051 -27.74518,-26.50746 -35.17732,-39.8853 -2.00742,-3.61343 -3.42158,-9.54816 -4.43818,-16.24871 h -180.8149 -78.65994 c -60.91573,0 -114.25242,36.61386 -130.93575,106.26491 -19.24498,79.83627 -20.09782,129.65351 0,213.01541 14.89866,62.05151 50.47759,106.26491 111.39333,106.26491 h 72.06333 v -95.76075 c 0,-69.18098 59.85847,-130.20271 130.93804,-130.20278 H 794.503 c 58.27665,0 104.79898,-47.98417 104.79898,-106.50996 V 565.33814 c 0,0 -5.62345,-5.46865 -12.47819,-9.84095 -4.50472,-2.87336 -9.54051,-5.81591 -13.86319,-7.68253 -2.72512,-1.17675 -5.66741,-1.81216 -8.76397,-1.88185 z"
                style="fill:#334f7d" />
        </g>
    </g>
    <g>
        <path
            d="m 1544.1563,697.76572 c 98.7906,-1.66037 143.62,91.31908 144.45,196.75108 0,92.97946 -46.4896,180.1477 -146.1104,183.4684 -40.6784,0 -75.5458,-12.4526 -109.5829,-33.207 v 215.0149 l -59.7725,-21.5845 0.8302,-477.34969 c -0.8302,0 46.4897,-62.26303 169.3555,-63.92338 z m -14.9431,337.05038 c 79.6964,-4.981 89.6587,-83.01729 89.6587,-144.45018 0,-59.77245 -9.9623,-149.43121 -85.508,-152.75188 -51.4706,-3.32071 -92.9793,20.75433 -101.281,29.05613 v 236.59933 c 19.9241,12.4527 59.7725,34.0372 97.1303,31.5466 z"
            style="fill:#646464" />
        <path
            d="M 1849.66,951.79881 V 696.93557 l -61.4328,20.75428 v 252.37278 c 0,67.24407 62.2631,106.26217 117.0544,106.26217 71.395,0 112.0735,-19.9241 130.3374,-28.2259 0.8302,9.132 0,6.6414 0,15.7733 0,26.5656 -0.8302,72.2251 -13.2829,95.47 -24.9051,47.3199 -91.3189,53.9613 -137.8089,60.6026 l 9.9623,38.188 c 61.4328,-1.6604 147.7709,-24.9052 178.4872,-83.0173 17.4336,-33.207 19.9241,-97.1303 19.9241,-139.4692 V 706.06745 h -60.6026 v 296.37195 c -19.924,13.2828 -56.4518,31.5465 -88.8287,32.3767 -53.9611,0.8302 -93.8095,-28.2259 -93.8095,-83.84746 z"
            style="fill:#646464" />
        <path
            d="m 2203.6253,745.08556 v 238.25983 c 0,62.26301 48.1499,98.79061 128.6769,91.31911 v -31.5466 c -42.339,-1.6604 -68.0743,-13.2828 -68.0743,-61.43286 V 745.08556 h 68.0743 v -39.01811 h -68.0743 V 583.20178 l -60.6026,21.58447 v 101.2812 h -41.5087 v 39.01811 z"
            style="fill:#646464" />
        <path
            d="M 2717.7882,1069.6834 V 816.48053 c 0,-63.09318 -43.1691,-112.90357 -107.9227,-112.90357 -48.9802,0 -90.4888,15.77324 -127.0166,42.33882 V 491.0525 l -60.6026,19.09399 v 559.53691 h 60.6026 V 789.0848 c 30.7165,-21.58451 65.5838,-43.99919 103.7718,-43.99919 48.9802,0 69.7344,48.15003 69.7344,90.48891 v 234.10888 z"
            style="fill:#646464" />
        <path
            d="m 2791.4271,881.23405 c 0,100.45099 53.1311,195.09075 165.2044,195.92095 112.9036,-0.8302 167.695,-95.46996 167.695,-195.92095 -0.8302,-97.96043 -62.2629,-183.46833 -166.8648,-184.29848 -103.7716,0.83015 -166.0346,86.33805 -166.0346,184.29848 z m 65.5838,0 c 0,-65.58367 16.6034,-137.80878 99.6206,-142.78983 78.0363,4.15087 101.2813,77.20616 101.2813,142.78983 0,69.73459 -14.9431,156.07265 -99.6209,158.56315 -78.0362,-0.8302 -100.451,-88.82856 -100.451,-158.56315 z"
            style="fill:#646464" />
        <path
            d="M 3500.6287,1069.6834 V 791.57536 c 0,-48.98027 -39.0183,-80.52685 -83.0175,-90.48892 -43.1689,-9.96211 -83.8474,-1.66041 -113.7337,6.64138 -38.188,9.96203 -65.5838,27.39571 -96.3001,49.8104 V 1069.6834 H 3268.18 V 765.00975 c 19.094,-13.28276 49.8104,-27.39571 82.1871,-28.22589 53.1313,-0.83015 89.6588,29.88631 89.6588,85.5079 v 247.39164 z"
            style="fill:#646464" />
        <path
            d="m 4015.2196,697.76572 c 98.7908,-1.66037 143.6201,91.31908 144.4501,196.75108 0,92.97946 -46.4893,180.1477 -146.1105,183.4684 -40.6783,0 -75.5456,-12.4526 -109.5826,-33.207 v 215.0149 l -59.7728,-21.5845 0.8301,-477.34969 c -0.8301,0 46.4899,-62.26303 169.3553,-63.92338 z m -14.9432,337.05038 c 79.6967,-4.981 89.6588,-83.01729 89.6588,-144.45018 0,-59.77245 -9.9621,-149.43121 -85.5082,-152.75188 -51.4706,-3.32071 -92.9789,20.75433 -101.281,29.05613 v 236.59933 c 19.9245,12.4527 59.7725,34.0372 97.1304,31.5466 z"
            style="fill:#646464" />
        <path
            d="m 4530.7573,1036.4765 -14.1131,-29.0561 c -30.7163,14.9431 -60.6025,29.0561 -102.1111,29.8863 -68.0742,2.4905 -116.2244,-61.43286 -109.5829,-156.07265 h 222.4864 c -1.6603,-112.07343 -39.0184,-181.80802 -140.2994,-181.80802 -106.2622,0 -145.2802,98.79071 -146.1105,194.26062 0,61.43286 24.0747,118.71485 63.9235,152.75195 43.1689,36.5276 111.2432,35.6974 163.5439,20.7543 24.0749,-7.4715 43.169,-18.2638 62.2632,-30.7164 z m -64.7535,-190.93994 h -159.3933 c 4.151,-52.30092 24.9049,-108.7527 83.0173,-108.7527 53.9612,0 77.206,56.45178 77.206,109.58292 z"
            style="fill:#646464" />
        <path
            d="m 4767.8501,742.59509 c 8.3014,0 22.4141,2.49052 34.0369,4.98103 6.6409,-14.9431 16.6034,-34.03714 24.0748,-48.98024 -50.6404,-9.13192 -85.508,-0.83016 -122.0352,12.45263 -34.0373,11.62241 -63.9239,31.54658 -86.338,56.45178 v 302.18311 h 60.6024 V 775.802 c 21.5845,-18.26378 48.98,-33.20691 88.8284,-33.20691 z"
            style="fill:#646464" />
        <path
            d="m 4882.556,717.68985 v 254.03311 c 0,72.22504 63.094,104.60184 117.8851,104.60184 71.3948,0 130.3372,-23.2448 180.9777,-59.7725 V 703.57696 h -60.6023 v 304.67364 c -19.9244,13.2828 -49.8105,28.2259 -82.1876,29.0561 -53.1308,0.8302 -93.8092,-30.7165 -93.8092,-86.33806 V 696.93557 Z m 78.0367,-68.90437 159.3934,-78.86651 -24.0751,-48.98024 -164.3742,97.96047 z"
            style="fill:#646464" />
    </g>
</svg>
