<?xml version="1.0" encoding="UTF-8" standalone="no"?>
<svg
    xmlns:svg="http://www.w3.org/2000/svg"
    xmlns="http://www.w3.org/2000/svg"
    width="4925.4189"
    height="1024"
    version="1.1"
    viewBox="0 0 4925.4189 1024">
    <g>
        <g>
            <path
                d="m 771.37597,68.315184 c -14.09004,4.985726 -43.35422,43.572066 -28.83062,58.529226 7.15356,-0.43352 47.03964,-18.64203 52.67561,-23.41098 z m 122.25938,28.181391 c -0.21668,15.824255 5.63593,43.787825 18.6423,54.192835 -1.51751,-13.65656 -9.32224,-17.34175 -2.81915,-44.00458 z M 677.56149,111.76865 c -2.1609,-0.003 -4.05717,0.76836 -5.46616,2.71929 -14.95715,20.59322 69.58269,59.39628 83.67274,65.24909 40.9696,16.90811 78.47125,34.24977 121.82541,48.99019 l 3.46839,-8.23879 c -5.85284,-6.28635 -133.31378,-72.6183 -156.94188,-84.54068 -8.88745,-4.33543 -17.77408,-9.10325 -26.01147,-14.08898 -5.20248,-3.089 -14.06428,-10.07996 -20.54703,-10.09012 z m 129.36497,6.18773 c -5.85282,14.74039 -7.36946,26.01258 -4.33469,37.28467 5.41931,-0.86705 23.62724,-9.1049 29.47993,-12.35645 l -4.98564,-6.71988 c -2.38437,-2.38447 -4.11825,-4.11794 -6.28588,-6.06887 -4.55221,-4.5522 -7.58748,-8.88792 -13.87372,-12.13947 z m 38.15095,35.11649 c -2.60124,10.40501 -2.6007,24.71164 3.90243,31.86507 7.80379,-1.08385 16.47491,-5.85187 22.32774,-12.57174 -1.30055,-1.51738 -22.76184,-17.34238 -26.23017,-19.29333 z m -210.43207,29.07862 c -1.98286,0.0915 -1.24433,1.55441 -2.21985,1.9202 0.21685,6.71988 -6.71871,-0.43369 11.27322,9.97129 4.33546,2.38447 9.5381,6.07049 13.65672,9.32203 44.43812,37.28457 15.6072,89.52467 13.22268,146.96889 -0.86711,21.02676 1.73461,40.10295 12.3565,56.14402 10.18816,15.60749 30.99672,32.08224 52.67388,30.56486 65.46465,-5.20248 34.03433,-159.9772 129.63019,-120.30817 2.38452,-4.55219 1.30069,-23.19393 0,-28.17967 l -34.90119,-9.10503 c -9.10434,-2.38448 -26.87945,-9.97089 -35.33352,-11.27152 -11.48882,12.13915 -23.84387,84.75772 -39.66817,110.11987 -17.55837,27.74667 -81.5062,29.26409 -59.39544,-79.33804 3.46832,-16.47457 9.32085,-38.8021 9.75428,-54.19281 0.86712,-21.89385 -6.28546,-26.66258 -22.76003,-38.58496 -13.65665,-9.97144 -22.11184,-14.9575 -36.63546,-20.59353 -6.92313,-2.7503 -10.11162,-3.50856 -11.65381,-3.43743 z"
                style="fill:#ffc82a;stroke-width:0.20790111" />
            <path
                d="m 796.39718,64.0012 c -3.61567,-0.02372 -6.86643,0.303856 -9.6303,1.06257 0.86712,11.922386 35.33332,49.64103 47.03901,61.34667 19.07577,18.85904 42.70344,38.8025 70.45001,52.89261 14.95715,-18.20872 1.51888,-4.76873 -13.65499,-40.31913 -6.93668,-16.04104 -8.88811,-28.61421 -7.15386,-49.424202 C 864.85891,81.593407 821.70695,64.16716 796.39718,64.0012 Z m -39.50801,4.245121 c -16.11186,0.0055 -56.47074,22.356308 -65.50049,34.536129 6.93666,8.67083 23.62719,19.50874 36.41673,24.71121 9.10434,-37.718101 4.98599,-30.131177 30.56484,-59.178476 -0.46742,-0.04741 -0.96131,-0.06906 -1.48108,-0.06886 z m 40.80479,43.086619 c -6.60793,-0.0135 -21.07371,8.5332 -26.96724,11.17508 -5.20242,2.38448 -25.57999,9.97223 -28.18137,12.57348 l 94.29499,50.50742 -0.64927,-27.74741 c -0.21686,-5.63603 0.64986,-4.1182 -2.1682,-8.02008 -7.15335,0.21677 -10.62144,5.20296 -18.20835,8.88806 -5.41929,2.60126 -14.52358,6.28635 -20.15957,0 -9.3212,-10.62176 5.63576,-38.36838 3.25143,-47.25599 -0.3658,-0.0813 -0.77187,-0.11965 -1.21242,-0.12056 z m 124.77202,5.97246 c -6.93669,16.04101 -3.03459,26.23024 6.93684,36.41845 3.90189,-0.43353 18.85859,-7.37089 21.4598,-9.10504 -8.45409,-8.45406 -16.69092,-19.50968 -28.39664,-27.31341 z m -261.85912,16.04189 c -4.98574,3.90185 -16.90795,25.79598 -20.15959,34.03326 17.99196,19.07581 195.09349,111.42069 224.57441,108.60266 3.68506,-3.46834 2.16734,-11.05531 3.03448,-16.90813 0.86697,-6.93668 4.33519,-13.87367 4.98563,-20.59356 -40.53621,-18.42554 -70.45016,-25.79701 -114.45453,-48.55793 -18.20884,-9.53791 -34.46715,-17.5583 -51.1584,-26.87943 -8.88763,-5.20251 -15.39122,-9.32068 -24.06198,-14.73994 -6.93668,-4.11865 -16.47382,-11.92215 -22.76002,-14.95693 z m 294.59044,19.72558 c 6.7198,22.11062 27.53122,48.55734 19.94428,66.5493 31.21502,-27.52986 7.80241,-37.06848 -19.94428,-66.5493 z m -6.71986,2.38518 c -17.55839,36.20071 -37.06686,52.45864 0.86796,69.36678 -12.57267,-14.95719 -0.4344,-46.17231 -0.86796,-69.36678 z m 5.20264,12.1395 c -11.92243,46.60569 3.4687,55.70941 12.13944,65.24736 11.0553,-14.09013 3.90154,-42.48644 -12.13944,-65.24736 z m -79.98731,15.17391 -21.24454,10.40526 c 4.33546,4.76899 14.30699,8.45375 22.11076,11.48853 -1.51737,-11.05531 -4.33457,-9.7546 -0.86622,-21.89379 z m -160.41031,44.22155 c 4.55218,51.59145 -18.85972,122.04084 -4.11938,145.88564 7.80378,12.35594 22.54403,14.52316 31.86504,6.28587 15.6076,-13.87333 21.02789,-61.12864 26.44717,-78.68707 8.45406,-27.09635 14.30576,-28.61433 17.55743,-37.71867 z"
                style="fill:#334f7d;stroke-width:0.20790111" />
        </g>
        <g>
            <path
                d="m 893.59962,387.27354 v 81.43885 c 0,63.13848 -53.52907,116.28015 -114.57046,116.28015 H 595.84478 c -50.17677,0 -91.69813,42.94492 -91.69813,93.19507 v 174.634 c 0,49.70184 43.21906,78.93589 91.69813,93.19511 58.05368,17.07003 113.72431,20.15501 183.18438,0 46.17126,-13.36807 91.6989,-40.27129 91.6989,-93.19511 V 782.9253 h -183.1837 v -23.29879 h 183.1837 91.69885 c 53.30069,0 73.16259,-37.17817 91.69899,-92.98138 19.1473,-57.44841 18.3325,-112.69444 0,-186.39017 -13.1724,-53.06098 -38.3306,-92.98142 -91.69899,-92.98142 z m -103.028,442.24928 c 19.01108,0 34.414,15.57759 34.414,34.84132 0,19.33226 -15.40292,35.05507 -34.414,35.05507 -18.944,0 -34.41401,-15.72281 -34.41401,-35.05507 0,-19.26373 15.47001,-34.84132 34.41401,-34.84132 z"
                style="fill:#ffc82a;stroke-width:0.20790111" />
            <path
                d="m 623.97317,194.69651 c -9.7339,1.10596 -19.14392,2.45896 -28.12825,4.04869 -77.60779,13.71081 -91.69914,42.40891 -91.69914,95.33266 v 69.89763 h 156.24969 c -0.28243,-7.70735 -0.22235,-13.42473 -0.22235,-13.42473 0,0 11.27275,-75.21973 12.35654,-87.57566 0.86699,-12.57271 0.86669,-19.07465 -3.25189,-31.86415 -4.11862,-12.57271 -14.74085,-18.42681 -19.29318,-22.32866 -4.33284,-3.89967 -13.23359,-11.48035 -26.01142,-14.08578 z m -39.67031,52.78424 c 18.94401,0 34.4137,15.72277 34.4137,35.05506 0,19.26381 -15.46969,34.84061 -34.4137,34.84061 -19.01175,0 -34.41375,-15.5768 -34.41375,-34.84061 0,-19.33229 15.402,-35.05506 34.41375,-35.05506 z m 255.70773,70.21045 c -8.12856,-0.18297 -17.47569,4.08503 -26.57999,13.35192 -12.13928,12.35595 -17.9923,38.58323 -27.5302,66.98019 -9.32119,28.39697 -14.52443,28.83174 -28.39775,43.13865 -14.09008,14.30684 -42.48834,4.76725 -60.48026,-4.77065 -18.20883,-9.53794 -24.27704,-23.19403 -30.78016,-34.89964 -1.75649,-3.16175 -2.99388,-8.35464 -3.88341,-14.21762 H 504.14578 435.31833 c -53.30127,0 -99.97087,32.03713 -114.56879,92.9818 -16.83935,69.85674 -17.58559,113.44683 0,186.38849 13.03633,54.29506 44.1679,92.98177 97.46917,92.98177 h 63.05542 v -83.79063 c 0,-60.53336 52.37616,-113.92737 114.57079,-113.92743 h 183.18374 c 50.99207,0 91.69911,-41.98615 91.69911,-93.19622 V 334.67086 c 0,0 -4.92052,-4.78507 -10.91842,-8.61083 -3.94163,-2.51419 -8.34794,-5.08892 -12.13029,-6.72221 -2.38448,-1.02966 -4.95898,-1.58564 -7.66847,-1.64662 z"
                style="fill:#334f7d;stroke-width:0.20790111" />
        </g>
        <g>
            <path
                d="m 1434.9753,450.545 c 86.4418,-1.45283 125.6675,79.9042 126.3938,172.1572 0,81.35703 -40.6784,157.62923 -127.8466,160.53484 -35.5936,0 -66.1026,-10.89604 -95.8851,-29.05608 V 942.319 l -52.3009,-18.88644 0.7264,-417.68102 c -0.7264,0 40.6785,-54.48015 148.1861,-55.93296 z m -13.0752,294.91911 c 69.7344,-4.3584 78.4514,-72.64015 78.4514,-126.39393 0,-52.3009 -8.717,-130.75231 -74.8195,-133.6579 -45.0368,-2.90562 -81.3569,18.16004 -88.6209,25.42411 v 207.02446 c 17.4336,10.89604 52.3009,29.78248 84.989,27.60326 z"
                style="fill:#646464;stroke-width:0.20790111" />
            <path
                d="M 1702.2911,672.82396 V 449.81862 l -53.7537,18.15999 V 688.8048 c 0,58.83853 54.4802,92.97942 102.4226,92.97942 62.4706,0 98.0643,-17.43363 114.0452,-24.69765 0.7264,7.99043 0,5.81121 0,13.80164 0,23.24484 -0.7264,63.19697 -11.6225,83.5362 -21.792,41.40492 -79.9041,47.21615 -120.5828,53.02732 l 8.717,33.41451 c 53.7537,-1.45285 129.2995,-21.79205 156.1763,-72.64019 15.2544,-29.05607 17.4336,-84.98901 17.4336,-122.03549 V 457.80901 h -53.0273 v 259.32543 c -17.4335,11.62245 -49.3953,27.60326 -77.7251,28.32967 -47.216,0.72641 -82.0833,-24.69765 -82.0833,-73.36655 z"
                style="fill:#646464;stroke-width:0.20790111" />
            <path
                d="m 2012.0107,491.94986 v 208.47736 c 0,54.48015 42.1312,86.44181 112.5923,79.90421 v -27.6033 c -37.0466,-1.45281 -59.565,-11.62242 -59.565,-53.75372 V 491.94986 h 59.565 v -34.14085 h -59.565 V 350.30155 l -53.0273,18.88641 v 88.62105 h -36.3201 v 34.14085 z"
                style="fill:#646464;stroke-width:0.20790111" />
            <path
                d="M 2461.9033,775.97301 V 554.42046 c 0,-55.20653 -37.773,-98.79063 -94.4324,-98.79063 -42.8577,0 -79.1777,13.80159 -111.1395,37.04647 V 269.67092 l -53.0273,16.70725 v 489.59484 h 53.0273 V 530.4492 c 26.8769,-18.88645 57.3858,-38.4993 90.8003,-38.4993 42.8577,0 61.0176,42.13128 61.0176,79.1778 v 204.84531 z"
                style="fill:#646464;stroke-width:0.20790111" />
            <path
                d="m 2526.3373,611.07979 c 0,87.89462 46.4897,170.70443 144.5539,171.43084 98.7906,-0.72641 146.7331,-83.53622 146.7331,-171.43084 -0.7264,-85.71538 -54.48,-160.53479 -146.0067,-161.26117 -90.8002,0.72638 -145.2803,75.54579 -145.2803,161.26117 z m 57.3858,0 c 0,-57.38571 14.528,-120.58268 87.1681,-124.9411 68.2817,3.63201 88.6211,67.55539 88.6211,124.9411 0,61.01777 -13.0752,136.56354 -87.1683,138.74276 -68.2817,-0.72639 -87.8946,-77.72499 -87.8946,-138.74276 z"
                style="fill:#646464;stroke-width:0.20790111" />
            <path
                d="M 3146.8887,775.97301 V 532.62844 c 0,-42.85774 -34.141,-70.461 -72.6403,-79.17781 -37.7728,-8.71685 -73.3665,-1.45286 -99.517,5.81121 -33.4145,8.71677 -57.3858,23.97124 -84.2626,43.5841 v 273.12707 h 53.0273 V 509.38353 c 16.7073,-11.62242 43.5841,-23.97125 71.9137,-24.69766 46.4899,-0.72638 78.4515,26.15052 78.4515,74.81942 v 216.46772 z"
                style="fill:#646464;stroke-width:0.20790111" />
            <path
                d="m 3597.1558,450.545 c 86.4419,-1.45283 125.6676,79.9042 126.3938,172.1572 0,81.35703 -40.6781,157.62923 -127.8467,160.53484 -35.5935,0 -66.1024,-10.89604 -95.8847,-29.05608 V 942.319 l -52.3012,-18.88644 0.7263,-417.68102 c -0.7263,0 40.6787,-54.48015 148.1859,-55.93296 z m -13.0753,294.91911 c 69.7346,-4.3584 78.4514,-72.64015 78.4514,-126.39393 0,-52.3009 -8.7168,-130.75231 -74.8196,-133.6579 -45.0368,-2.90562 -81.3566,18.16004 -88.6209,25.42411 v 207.02446 c 17.4339,10.89604 52.3009,29.78248 84.9891,27.60326 z"
                style="fill:#646464;stroke-width:0.20790111" />
            <path
                d="m 4048.2513,746.91692 -12.349,-25.42406 c -26.8767,13.07523 -53.0272,25.42406 -89.3472,26.15049 -59.5649,2.1792 -101.6963,-53.75374 -95.885,-136.56356 h 194.6756 c -1.4528,-98.06425 -34.1411,-159.08202 -122.762,-159.08202 -92.9794,0 -127.1202,86.44187 -127.8467,169.97805 0,53.75375 21.0654,103.87548 55.9331,133.65796 37.7728,31.96166 97.3378,31.23525 143.1009,18.16004 21.0655,-6.53763 37.7729,-15.98089 54.4803,-26.8769 z M 3991.592,579.84449 h -139.4692 c 3.6322,-45.76331 21.7918,-95.15862 72.6402,-95.15862 47.216,0 67.5552,49.39531 67.5552,95.88506 z"
                style="fill:#646464;stroke-width:0.20790111" />
            <path
                d="m 4255.7075,489.7707 c 7.2637,0 19.6123,2.1792 29.7823,4.3584 5.8108,-13.07521 14.528,-29.7825 21.0654,-42.85771 -44.3103,-7.99043 -74.8195,-0.72639 -106.7808,10.89605 -29.7826,10.16961 -55.9334,27.60326 -75.5457,49.39531 v 264.41026 h 53.0271 V 518.82675 c 18.8864,-15.98081 42.8575,-29.05605 77.7248,-29.05605 z"
                style="fill:#646464;stroke-width:0.20790111" />
            <path
                d="m 4356.0752,467.97861 v 222.27898 c 0,63.19695 55.2072,91.52663 103.1494,91.52663 62.4705,0 114.0451,-20.33923 158.3555,-52.30095 V 455.62983 h -53.027 v 266.58944 c -17.4338,11.62242 -43.5842,24.69765 -71.9141,25.42406 -46.4895,0.72643 -82.0831,-26.87687 -82.0831,-75.54577 V 449.81862 Z m 68.2821,-60.29132 139.4692,-69.0082 -21.0657,-42.85771 -143.8274,85.71541 z"
                style="fill:#646464;stroke-width:0.20790111" />
        </g>
    </g>
</svg>
