<?xml version="1.0" encoding="UTF-8" standalone="no"?>
<svg
     xmlns:svg="http://www.w3.org/2000/svg"
     xmlns="http://www.w3.org/2000/svg"
     width="5072.812"
     height="1024"
     version="1.1"
     viewBox="0 0 5072.812 5072.812">
     <g>
          <path
               d="m -7470.6527,1510.6133 c 570.4168,-9.5868 829.2617,527.2767 834.055,1136.0414 0,536.8635 -268.4315,1040.1732 -843.6417,1059.3467 -234.878,0 -436.2022,-71.9013 -632.7322,-191.7368 v 1241.4966 l -345.1267,-124.629 4.7933,-2756.2187 c -4.7933,0 268.4318,-359.5069 977.8589,-369.0936 z m -86.2814,1946.1301 c 460.1674,-28.7606 517.6892,-479.3424 517.6892,-834.0559 0,-345.1263 -57.5218,-862.8162 -493.7233,-881.9898 -297.1917,-19.1738 -536.8625,119.8356 -584.7967,167.7699 v 1366.1257 c 115.0416,71.9014 345.1266,196.5303 560.8308,182.1501 z"
               style="fill:#646464" />
          <path
               d="M -5706.673,2977.4011 V 1505.82 l -354.7131,119.8355 v 1457.2009 c 0,388.2672 359.5064,613.5582 675.872,613.5582 412.2349,0 647.1121,-115.0421 752.5681,-162.9764 4.7933,52.7277 0,38.3475 0,91.0751 0,153.3896 -4.7933,417.0279 -76.6951,551.2438 -143.8023,273.2252 -527.2763,311.5726 -795.7089,349.9198 l 57.5218,220.4976 c 354.7132,-9.5869 853.2297,-143.8027 1030.5863,-479.3424 100.6615,-191.7369 115.0415,-560.8306 115.0415,-805.2952 V 1558.5476 h -349.9199 v 1711.2523 c -115.0415,76.6948 -325.9522,182.1501 -512.8964,186.9435 -311.5724,4.7934 -541.6563,-162.9764 -541.6563,-484.1357 z"
               style="fill:#646464" />
          <path
               d="m -3662.8771,1783.8385 v 1375.7127 c 0,359.5068 278.0181,570.4175 742.9804,527.2767 v -182.1504 c -244.4649,-9.5867 -393.0606,-76.6947 -393.0606,-354.7132 V 1783.8385 h 393.0606 v -225.2909 h -393.0606 V 849.12088 l -349.9198,124.6289 v 584.79772 h -239.6717 v 225.291 z"
               style="fill:#646464" />
          <path
               d="M -694.09928,3658.0672 V 2196.073 c 0,-364.3002 -249.25832,-651.9057 -623.14572,-651.9057 -282.8124,0 -522.483,91.075 -733.3938,244.4647 V 317.05076 l -349.9198,110.24879 V 3658.0672 h 349.9198 V 2037.89 c 177.3565,-124.629 378.6807,-254.0514 599.1781,-254.0514 282.8124,0 402.6472,278.0185 402.6472,522.4831 v 1351.7456 z"
               style="fill:#646464" />
          <path
               d="m -268.90805,2569.96 c 0,580.0043 306.779006,1126.4546 953.89122,1131.248 651.90553,-4.7934 968.27103,-551.2436 968.27103,-1131.248 -4.7933,-565.624 -359.5064,-1059.3467 -963.47773,-1064.14 -599.178089,4.7933 -958.68452,498.516 -958.68452,1064.14 z m 378.6807,0 c 0,-378.6804 95.86825,-795.7084 575.21052,-824.4689 450.58133,23.9671 584.79813,445.7885 584.79813,824.4689 0,402.6477 -86.2816,901.1636 -575.21153,915.544 C 243.9884,3480.7106 114.56596,2972.6076 114.56596,2569.96 Z"
               style="fill:#646464" />
          <path
               d="M 3826.0241,3658.0672 V 2052.2703 c 0,-282.8121 -225.2917,-464.9621 -479.3432,-522.4832 -249.2573,-57.5212 -484.1357,-9.587 -656.6988,38.3474 -220.4975,57.521 -378.6808,158.1829 -556.0374,287.6054 v 1802.3274 h 349.9199 V 1898.8807 c 110.2492,-76.6947 287.6057,-158.183 474.5489,-162.9764 306.7801,-4.7935 517.6897,172.5633 517.6897,493.7227 v 1428.4402 z"
               style="fill:#646464" />
          <path
               d="m 6797.2729,1510.6133 c 570.4182,-9.5868 829.263,527.2767 834.0563,1136.0414 0,536.8635 -268.4314,1040.1732 -843.6429,1059.3467 -234.8774,0 -436.2015,-71.9013 -632.7314,-191.7368 v 1241.4966 l -345.1264,-124.629 4.7932,-2756.2187 c -4.7932,0 268.4316,-359.5069 977.8578,-369.0936 z m -86.2817,1946.1301 c 460.169,-28.7606 517.6897,-479.3424 517.6897,-834.0559 0,-345.1263 -57.5207,-862.8162 -493.7221,-881.9898 -297.1924,-19.1738 -536.8631,119.8356 -584.7981,167.7699 v 1366.1257 c 115.0424,71.9014 345.1264,196.5303 560.8305,182.1501 z"
               style="fill:#646464" />
          <path
               d="m 9773.9891,3466.3302 -81.4882,-167.7698 c -177.3569,86.2816 -349.9198,167.7698 -589.592,172.5633 -393.0596,14.3804 -671.0789,-354.7133 -632.7314,-901.1637 h 1284.6379 c -9.5874,-647.1122 -225.2909,-1049.7599 -810.0897,-1049.7599 -613.5574,0 -838.8483,570.4176 -843.6416,1121.6613 0,354.7133 139.0092,685.4597 369.0934,881.9901 249.2582,210.9106 642.3187,206.1172 944.3045,119.8356 139.0086,-43.1408 249.2578,-105.4555 359.5071,-177.3569 z M 9400.1015,2363.8427 H 8479.765 c 23.9667,-301.9856 143.8024,-627.9384 479.3421,-627.9384 311.5723,0 445.7876,325.9528 445.7876,632.7319 z"
               style="fill:#646464" />
          <path
               d="m 11142.962,1769.4582 c 47.934,0 129.422,14.3804 196.529,28.7605 38.347,-86.2816 95.87,-196.5304 139.01,-282.812 -292.398,-52.7276 -493.723,-4.7934 -704.633,71.9015 -196.53,67.1079 -369.094,182.15 -498.516,325.9528 v 1744.8063 h 349.92 V 1961.1952 c 124.629,-105.4553 282.811,-191.737 512.896,-191.737 z"
               style="fill:#646464" />
          <path
               d="m 11805.278,1625.6555 v 1466.7878 c 0,417.0277 364.301,603.9713 680.667,603.9713 412.234,0 752.568,-134.2158 1044.965,-345.1265 V 1544.1673 h -349.919 v 1759.1866 c -115.041,76.6946 -287.605,162.9763 -474.549,167.7697 -306.779,4.7936 -541.656,-177.3566 -541.656,-498.516 V 1505.82 Z m 450.582,-397.8542 920.337,-455.37523 -139.008,-282.81209 -949.098,565.62402 z"
               style="fill:#646464" />
          <path
               d="m -7470.6527,1510.6133 c 570.4168,-9.5868 829.2617,527.2767 834.055,1136.0414 0,536.8635 -268.4315,1040.1732 -843.6417,1059.3467 -234.878,0 -436.2022,-71.9013 -632.7322,-191.7368 v 1241.4966 l -345.1267,-124.629 4.7933,-2756.2187 c -4.7933,0 268.4318,-359.5069 977.8589,-369.0936 z m -86.2814,1946.1301 c 460.1674,-28.7606 517.6892,-479.3424 517.6892,-834.0559 0,-345.1263 -57.5218,-862.8162 -493.7233,-881.9898 -297.1917,-19.1738 -536.8625,119.8356 -584.7967,167.7699 v 1366.1257 c 115.0416,71.9014 345.1266,196.5303 560.8308,182.1501 z"
               style="fill:#646464" />
          <path
               d="M -5706.673,2977.4011 V 1505.82 l -354.7131,119.8355 v 1457.2009 c 0,388.2672 359.5064,613.5582 675.872,613.5582 412.2349,0 647.1121,-115.0421 752.5681,-162.9764 4.7933,52.7277 0,38.3475 0,91.0751 0,153.3896 -4.7933,417.0279 -76.6951,551.2438 -143.8023,273.2252 -527.2763,311.5726 -795.7089,349.9198 l 57.5218,220.4976 c 354.7132,-9.5869 853.2297,-143.8027 1030.5863,-479.3424 100.6615,-191.7369 115.0415,-560.8306 115.0415,-805.2952 V 1558.5476 h -349.9199 v 1711.2523 c -115.0415,76.6948 -325.9522,182.1501 -512.8964,186.9435 -311.5724,4.7934 -541.6563,-162.9764 -541.6563,-484.1357 z"
               style="fill:#646464" />
          <path
               d="m -3662.8771,1783.8385 v 1375.7127 c 0,359.5068 278.0181,570.4175 742.9804,527.2767 v -182.1504 c -244.4649,-9.5867 -393.0606,-76.6947 -393.0606,-354.7132 V 1783.8385 h 393.0606 v -225.2909 h -393.0606 V 849.12088 l -349.9198,124.6289 v 584.79772 h -239.6717 v 225.291 z"
               style="fill:#646464" />
          <path
               d="M -694.09928,3658.0672 V 2196.073 c 0,-364.3002 -249.25832,-651.9057 -623.14572,-651.9057 -282.8124,0 -522.483,91.075 -733.3938,244.4647 V 317.05076 l -349.9198,110.24879 V 3658.0672 h 349.9198 V 2037.89 c 177.3565,-124.629 378.6807,-254.0514 599.1781,-254.0514 282.8124,0 402.6472,278.0185 402.6472,522.4831 v 1351.7456 z"
               style="fill:#646464" />
          <path
               d="m -268.90805,2569.96 c 0,580.0043 306.779006,1126.4546 953.89122,1131.248 651.90553,-4.7934 968.27103,-551.2436 968.27103,-1131.248 -4.7933,-565.624 -359.5064,-1059.3467 -963.47773,-1064.14 -599.178089,4.7933 -958.68452,498.516 -958.68452,1064.14 z m 378.6807,0 c 0,-378.6804 95.86825,-795.7084 575.21052,-824.4689 450.58133,23.9671 584.79813,445.7885 584.79813,824.4689 0,402.6477 -86.2816,901.1636 -575.21153,915.544 C 243.9884,3480.7106 114.56596,2972.6076 114.56596,2569.96 Z"
               style="fill:#646464" />
          <path
               d="M 3826.0241,3658.0672 V 2052.2703 c 0,-282.8121 -225.2917,-464.9621 -479.3432,-522.4832 -249.2573,-57.5212 -484.1357,-9.587 -656.6988,38.3474 -220.4975,57.521 -378.6808,158.1829 -556.0374,287.6054 v 1802.3274 h 349.9199 V 1898.8807 c 110.2492,-76.6947 287.6057,-158.183 474.5489,-162.9764 306.7801,-4.7935 517.6897,172.5633 517.6897,493.7227 v 1428.4402 z"
               style="fill:#646464" />
          <path
               d="m 6797.2729,1510.6133 c 570.4182,-9.5868 829.263,527.2767 834.0563,1136.0414 0,536.8635 -268.4314,1040.1732 -843.6429,1059.3467 -234.8774,0 -436.2015,-71.9013 -632.7314,-191.7368 v 1241.4966 l -345.1264,-124.629 4.7932,-2756.2187 c -4.7932,0 268.4316,-359.5069 977.8578,-369.0936 z m -86.2817,1946.1301 c 460.169,-28.7606 517.6897,-479.3424 517.6897,-834.0559 0,-345.1263 -57.5207,-862.8162 -493.7221,-881.9898 -297.1924,-19.1738 -536.8631,119.8356 -584.7981,167.7699 v 1366.1257 c 115.0424,71.9014 345.1264,196.5303 560.8305,182.1501 z"
               style="fill:#646464" />
          <path
               d="m 9773.9891,3466.3302 -81.4882,-167.7698 c -177.3569,86.2816 -349.9198,167.7698 -589.592,172.5633 -393.0596,14.3804 -671.0789,-354.7133 -632.7314,-901.1637 h 1284.6379 c -9.5874,-647.1122 -225.2909,-1049.7599 -810.0897,-1049.7599 -613.5574,0 -838.8483,570.4176 -843.6416,1121.6613 0,354.7133 139.0092,685.4597 369.0934,881.9901 249.2582,210.9106 642.3187,206.1172 944.3045,119.8356 139.0086,-43.1408 249.2578,-105.4555 359.5071,-177.3569 z M 9400.1015,2363.8427 H 8479.765 c 23.9667,-301.9856 143.8024,-627.9384 479.3421,-627.9384 311.5723,0 445.7876,325.9528 445.7876,632.7319 z"
               style="fill:#646464" />
          <path
               d="m 11142.962,1769.4582 c 47.934,0 129.422,14.3804 196.529,28.7605 38.347,-86.2816 95.87,-196.5304 139.01,-282.812 -292.398,-52.7276 -493.723,-4.7934 -704.633,71.9015 -196.53,67.1079 -369.094,182.15 -498.516,325.9528 v 1744.8063 h 349.92 V 1961.1952 c 124.629,-105.4553 282.811,-191.737 512.896,-191.737 z"
               style="fill:#646464" />
          <path
               d="m 11805.278,1625.6555 v 1466.7878 c 0,417.0277 364.301,603.9713 680.667,603.9713 412.234,0 752.568,-134.2158 1044.965,-345.1265 V 1544.1673 h -349.919 v 1759.1866 c -115.041,76.6946 -287.605,162.9763 -474.549,167.7697 -306.779,4.7936 -541.656,-177.3566 -541.656,-498.516 V 1505.82 Z m 450.582,-397.8542 920.337,-455.37523 -139.008,-282.81209 -949.098,565.62402 z"
               style="fill:#646464" />
     </g>
</svg>
