<?xml version="1.0" encoding="UTF-8" standalone="no"?>
<!-- Creator: CorelDRAW X7 -->

<svg
   xmlns:dc="http://purl.org/dc/elements/1.1/"
   xmlns:cc="http://creativecommons.org/ns#"
   xmlns:rdf="http://www.w3.org/1999/02/22-rdf-syntax-ns#"
   xmlns:svg="http://www.w3.org/2000/svg"
   xmlns="http://www.w3.org/2000/svg"
   xmlns:sodipodi="http://sodipodi.sourceforge.net/DTD/sodipodi-0.dtd"
   xmlns:inkscape="http://www.inkscape.org/namespaces/inkscape"
   xml:space="preserve"
   width="1400"
   height="933"
   version="1.1"
   style="clip-rule:evenodd;fill-rule:evenodd;image-rendering:optimizeQuality;shape-rendering:geometricPrecision;text-rendering:geometricPrecision"
   viewBox="0 0 37041.663 24685.626"
   id="svg73"
   sodipodi:docname="model_1_iphone.svg"
   inkscape:version="0.92.1 r15371"
   inkscape:export-filename="/home/zodiac/Development/softbutterfly/pythonperu.org-artwork/logo/model_1_iphone.png"
   inkscape:export-xdpi="96"
   inkscape:export-ydpi="96"><sodipodi:namedview
     pagecolor="#ffffff"
     bordercolor="#666666"
     borderopacity="1"
     objecttolerance="10"
     gridtolerance="10"
     guidetolerance="10"
     inkscape:pageopacity="0"
     inkscape:pageshadow="2"
     inkscape:window-width="1366"
     inkscape:window-height="695"
     id="namedview75"
     showgrid="false"
     units="px"
     inkscape:zoom="0.2662267"
     inkscape:cx="615.05725"
     inkscape:cy="340.49821"
     inkscape:window-x="0"
     inkscape:window-y="0"
     inkscape:window-maximized="1"
     inkscape:current-layer="svg73"
     showguides="false"
     fit-margin-top="0"
     fit-margin-left="0"
     fit-margin-right="0"
     fit-margin-bottom="0"
     inkscape:snap-bbox="true"
     inkscape:bbox-paths="true"
     inkscape:bbox-nodes="true"
     inkscape:snap-bbox-edge-midpoints="true"
     inkscape:snap-bbox-midpoints="true"
     inkscape:object-paths="true"
     inkscape:snap-intersection-paths="true"
     inkscape:snap-smooth-nodes="true"
     inkscape:snap-midpoints="true" /><metadata
     id="metadata77"><rdf:RDF><cc:Work
         rdf:about=""><dc:format>image/svg+xml</dc:format><dc:type
           rdf:resource="http://purl.org/dc/dcmitype/StillImage" /><dc:title /></cc:Work></rdf:RDF></metadata><defs
     id="defs4"><inkscape:perspective
       sodipodi:type="inkscape:persp3d"
       inkscape:vp_x="34187.652 : 43215.798 : 1"
       inkscape:vp_y="0 : 1000 : 0"
       inkscape:vp_z="45497.961 : 43215.798 : 1"
       inkscape:persp3d-origin="39842.806 : 39378.228 : 1"
       id="perspective4801" /><style
       type="text/css"
       id="style2">
    .fil0 {fill:#FEFEFE}
    .fil1 {fill:#FFC82A}
    .fil4 {fill:#FFC82A}
    .fil3 {fill:#334F7D}
    .fil5 {fill:#FFC82A;fill-rule:nonzero}
    .fil2 {fill:#334F7D;fill-rule:nonzero}
   </style><linearGradient
       x1="0"
       y1="0"
       x2="1"
       y2="0"
       gradientUnits="userSpaceOnUse"
       gradientTransform="matrix(-899.83277,-1558.5607,1558.5607,-899.83277,18945.021,23124.677)"
       spreadMethod="pad"
       id="linearGradient132"><stop
         style="stop-opacity:1;stop-color:#9e9fa1"
         offset="0"
         id="stop118" /><stop
         style="stop-opacity:1;stop-color:#d5d6d9"
         offset="0.24704455"
         id="stop120" /><stop
         style="stop-opacity:1;stop-color:#d5d6d9"
         offset="0.34"
         id="stop122" /><stop
         style="stop-opacity:1;stop-color:#d5d6d9"
         offset="0.36831646"
         id="stop124" /><stop
         style="stop-opacity:1;stop-color:#d5d6d9"
         offset="0.635"
         id="stop126" /><stop
         style="stop-opacity:1;stop-color:#d5d6d9"
         offset="0.70587287"
         id="stop128" /><stop
         style="stop-opacity:1;stop-color:#9e9fa1"
         offset="1"
         id="stop130" /></linearGradient><filter
       id="filter6234"
       inkscape:label="Drop Shadow"
       style="color-interpolation-filters:sRGB;"><feFlood
         id="feFlood6224"
         result="flood"
         flood-color="rgb(33,33,33)"
         flood-opacity="1" /><feComposite
         id="feComposite6226"
         result="composite1"
         operator="out"
         in2="SourceGraphic"
         in="flood" /><feGaussianBlur
         id="feGaussianBlur6228"
         result="blur"
         stdDeviation="3"
         in="composite1" /><feOffset
         id="feOffset6230"
         result="offset"
         dy="-6"
         dx="-6" /><feComposite
         id="feComposite6232"
         result="composite2"
         operator="in"
         in2="SourceGraphic"
         in="offset" /></filter></defs><path
     sodipodi:nodetypes="scccccccccccccccccccccs"
     inkscape:connector-curvature="0"
     id="path5034"
     d="m 25322.02,3509.3456 c -616.599,-7.6687 -1273.818,140.0262 -1784.749,435.012 L 3801.1634,15338.951 c -908.3212,524.419 -1010.2051,1315.9 -227.5832,1767.747 l 6801.9108,3927.047 c 782.622,451.847 2153.451,393.03 3087.15,-116.737 l 1.963,-1.138 403.283,-232.854 14518.44,-8382.175 c 0.265,0.132 0.371,0.325 0.635,0.466 l 50.488,29.145 c 20.881,12.055 59.928,9.087 87.127,-6.615 l 1525.9,-880.979 c 27.25,-15.732 32.406,-38.329 11.525,-50.385 l -50.487,-29.145 c -0.265,-0.133 -0.53,-0.238 -0.768,-0.363 l 2681.439,-1548.1208 102.782,-59.3767 300.448,-173.4251 103.301,-59.6334 c 882.944,-539.068 984.832,-1330.5198 202.211,-1782.3667 L 26598.996,3812.9446 c -342.397,-197.6832 -797.399,-297.6345 -1276.976,-303.599 z"
     style="fill:#d5d6d9;fill-opacity:1;fill-rule:nonzero;stroke:none;stroke-width:5.14104986" /><rect
     style="fill:#212121;fill-opacity:1;stroke:none;stroke-width:65.22640991"
     id="rect4639"
     width="37041.664"
     height="24685.625"
     x="0"
     y="-3.4106051e-12"
     inkscape:export-xdpi="96"
     inkscape:export-ydpi="96" /><g
     id="g5058"
     transform="translate(0.00490498,-3460.4255)"
     inkscape:export-xdpi="96"
     inkscape:export-ydpi="96"
     style="fill:#fafafa;fill-opacity:1"><text
       id="text1320"
       y="5185.7974"
       x="1314.4033"
       style="font-style:normal;font-weight:normal;font-size:503.19189453px;line-height:1.25;font-family:sans-serif;letter-spacing:0px;word-spacing:0px;fill:#fafafa;fill-opacity:1;stroke:none;stroke-width:12.5797596"
       xml:space="preserve"><tspan
         style="font-style:normal;font-variant:normal;font-weight:200;font-stretch:normal;font-family:'DejaVu Sans';-inkscape-font-specification:'DejaVu Sans Ultra-Light';fill:#fafafa;fill-opacity:1;stroke-width:12.5797596"
         y="5185.7974"
         x="1314.4033"
         id="tspan1318"
         sodipodi:role="line">Project Name <tspan
   id="tspan4537"
   style="font-weight:normal;fill:#fafafa;fill-opacity:1">PyDay</tspan><tspan
   id="tspan1324"
   style="font-style:normal;font-variant:normal;font-weight:normal;font-stretch:normal;font-family:'DejaVu Sans';-inkscape-font-specification:'DejaVu Sans';fill:#fafafa;fill-opacity:1;stroke-width:12.5797596"> Perú</tspan></tspan></text>
<text
       xml:space="preserve"
       style="font-style:normal;font-weight:normal;font-size:503.19189453px;line-height:1.25;font-family:sans-serif;letter-spacing:0px;word-spacing:0px;fill:#fafafa;fill-opacity:1;stroke:none;stroke-width:12.5797596"
       x="1307.9241"
       y="6577.7207"
       id="text1330"><tspan
         sodipodi:role="line"
         id="tspan1328"
         x="1307.9241"
         y="6577.7207"
         style="font-style:normal;font-variant:normal;font-weight:200;font-stretch:normal;font-family:'DejaVu Sans';-inkscape-font-specification:'DejaVu Sans Ultra-Light';fill:#fafafa;fill-opacity:1;stroke-width:12.5797596">Agency <tspan
   id="tspan1332"
   style="font-weight:normal;fill:#fafafa;fill-opacity:1;stroke-width:12.5797596">SoftButterfly</tspan></tspan></text>
<text
       id="text1338"
       y="5881.7651"
       x="1261.7373"
       style="font-style:normal;font-weight:normal;font-size:503.19189453px;line-height:1.25;font-family:sans-serif;letter-spacing:0px;word-spacing:0px;fill:#fafafa;fill-opacity:1;stroke:none;stroke-width:12.5797596"
       xml:space="preserve"><tspan
         style="font-style:normal;font-variant:normal;font-weight:200;font-stretch:normal;font-family:'DejaVu Sans';-inkscape-font-specification:'DejaVu Sans Ultra-Light';fill:#fafafa;fill-opacity:1;stroke-width:12.5797596"
         y="5881.7651"
         x="1261.7373"
         id="tspan1336"
         sodipodi:role="line">Designer <tspan
   id="tspan1340"
   style="font-weight:normal;fill:#fafafa;fill-opacity:1;stroke-width:12.5797596">Leyla Marcelo</tspan></tspan></text>
<text
       id="text5035"
       y="7273.6763"
       x="1281.1429"
       style="font-style:normal;font-weight:normal;font-size:503.19189453px;line-height:1.25;font-family:sans-serif;letter-spacing:0px;word-spacing:0px;fill:#fafafa;fill-opacity:1;stroke:none;stroke-width:12.5797596"
       xml:space="preserve"><tspan
         style="font-style:normal;font-variant:normal;font-weight:200;font-stretch:normal;font-family:'DejaVu Sans';-inkscape-font-specification:'DejaVu Sans Ultra-Light';fill:#fafafa;fill-opacity:1;stroke-width:12.5797596"
         y="7273.6763"
         x="1281.1429"
         id="tspan5033"
         sodipodi:role="line">City <tspan
   style="font-weight:normal;fill:#fafafa;fill-opacity:1;stroke-width:12.5797596"
   id="tspan5031">Lima</tspan></tspan></text>
<text
       xml:space="preserve"
       style="font-style:normal;font-weight:normal;font-size:503.19189453px;line-height:1.25;font-family:sans-serif;letter-spacing:0px;word-spacing:0px;fill:#fafafa;fill-opacity:1;stroke:none;stroke-width:12.5797596"
       x="1311.6118"
       y="7951.2168"
       id="text5041"><tspan
         sodipodi:role="line"
         id="tspan5039"
         x="1311.6118"
         y="7951.2168"
         style="font-style:normal;font-variant:normal;font-weight:200;font-stretch:normal;font-family:'DejaVu Sans';-inkscape-font-specification:'DejaVu Sans Ultra-Light';fill:#fafafa;fill-opacity:1;stroke-width:12.5797596">Year <tspan
   id="tspan5037"
   style="font-weight:normal;fill:#fafafa;fill-opacity:1;stroke-width:12.5797596">2017</tspan></tspan></text>
</g><path
     inkscape:connector-curvature="0"
     style="clip-rule:evenodd;fill:#d5d6d9;fill-opacity:1;fill-rule:nonzero;stroke:none;stroke-width:5.14104986;image-rendering:optimizeQuality;shape-rendering:geometricPrecision;text-rendering:geometricPrecision"
     d="m 25323.374,3456.3815 c -616.599,-7.6687 -1273.818,140.0265 -1784.749,435.012 L 3802.5157,15285.995 c -523.472,302.226 -778.478,693.079 -751.324,1056.577 l -0.619,0.158 6.253,1478.825 0.466,0.159 c -48.924,325.446 119.897,642.814 517.642,872.453 l 6801.9123,3927.047 c 782.622,451.847 2153.451,393.03 3087.15,-116.737 l 1.963,-1.138 403.283,-232.854 14518.441,-8382.175 c 0.264,0.132 0.37,0.325 0.635,0.465 l 50.487,29.146 c 20.881,12.055 59.923,9.087 87.128,-6.615 l 1525.898,-880.979 c 27.25,-15.732 32.406,-38.329 11.526,-50.385 l -50.488,-29.145 c -0.265,-0.132 -0.529,-0.238 -0.768,-0.363 l 2681.439,-1548.122 102.782,-59.376 300.448,-173.427 103.301,-59.634 c 424.58,-259.222 667.959,-576.763 719.802,-886.871 l 0.555,-0.05 v -3.721 c 12.703,-78.326 13.198,-156.11 1.191,-232.3895 l 7.44,-1475.8274 -0.555,-0.106 c 22.344,-309.307 -148.958,-606.0119 -526.222,-823.8259 L 26600.35,3759.9805 c -342.397,-197.6831 -797.399,-297.6345 -1276.976,-303.599 z"
     id="path5038" /><g
     id="g4629"
     transform="matrix(0.8660254,0.5,-1,0.57735027,14825.501,-4048.8329)"><path
       inkscape:connector-curvature="0"
       id="path98"
       style="fill:#d5d6d9;fill-opacity:1;fill-rule:nonzero;stroke:none;stroke-width:5.14104986"
       d="m 24030.239,5712.0452 v 1525.9149 c 0,27.1965 19.587,49.303 43.75,49.303 h 58.3 c 24.111,0 43.699,-22.1065 43.699,-49.303 V 5712.0452 c 0,-27.2478 -19.588,-49.3543 -43.699,-49.3543 h -58.3 c -24.163,0 -43.75,22.1065 -43.75,49.3543" /><path
       inkscape:connector-curvature="0"
       id="path100"
       style="fill:#bcbcbc;fill-opacity:1;fill-rule:nonzero;stroke:none;stroke-width:5.14104986"
       d="m 24073.166,22106.035 h -154.231 v -403.269 h 154.231 v 403.269" /><path
       inkscape:connector-curvature="0"
       id="path102"
       style="fill:#bcbcbc;fill-opacity:1;fill-rule:nonzero;stroke:none;stroke-width:5.14104986"
       d="m 24073.166,2878.5043 h -154.231 v -403.2638 h 154.231 v 403.2638" /><path
       inkscape:connector-curvature="0"
       id="path104"
       style="fill:#d5d6d9;fill-opacity:1;fill-rule:nonzero;stroke:none;stroke-width:5.14104986"
       d="m 23803.416,22090.092 c 0,817.525 -659.289,1480.2 -1472.654,1480.2 h -7690.548 c -813.365,0 -1472.705,-662.675 -1472.705,-1480.2 V 2518.4765 c 0,-817.478 659.34,-1480.16 1472.705,-1480.16 h 7690.548 c 813.365,0 1472.654,662.682 1472.654,1480.16 z M 22407.569,830.1045 h -7854.187 c -903.694,0 -1636.293,736.352 -1636.293,1644.673 V 22210.845 c 0,908.321 732.599,1644.675 1636.293,1644.675 h 7854.187 c 903.694,0 1636.293,-736.354 1665.597,-1644.675 V 2474.7775 c -29.304,-908.321 -761.903,-1644.673 -1665.597,-1644.673" /><path
       inkscape:connector-curvature="0"
       id="path106"
       style="fill:#f7f7f7;fill-opacity:1;fill-rule:nonzero;stroke:none;stroke-width:5.14104986"
       d="m 22315.904,23705.466 h -7687.72 c -853.105,0 -1544.731,-691.63 -1544.731,-1544.746 V 2529.0675 c 0,-853.106 691.626,-1544.732 1544.731,-1544.732 h 7687.72 c 885.341,0 1603.031,717.742 1603.031,1603.031 V 22102.421 c 0,885.345 -717.69,1603.045 -1603.031,1603.045" /><path
       inkscape:connector-curvature="0"
       id="path108"
       style="fill:#fafafa;fill-opacity:1;fill-rule:nonzero;stroke:none;stroke-width:5.14104986;filter:url(#filter6234)"
       d="M 23456.035,20924.56 H 13546.353 V 3657.6817 h 9909.682 V 20924.56" /><path
       inkscape:connector-curvature="0"
       id="path134"
       style="fill:url(#linearGradient132);fill-opacity:1;fill-rule:nonzero;stroke:none;stroke-width:5.14104986"
       d="m 19394.811,22345.397 c 0,496.872 -402.801,899.684 -899.684,899.684 -496.882,0 -899.683,-402.812 -899.683,-899.684 0,-496.893 402.801,-899.684 899.683,-899.684 496.883,0 899.684,402.791 899.684,899.684" /><path
       inkscape:connector-curvature="0"
       id="path136"
       style="fill:#f7f7f7;fill-opacity:1;fill-rule:nonzero;stroke:none;stroke-width:5.14104986"
       d="m 19291.99,22345.397 c 0,440.12 -356.789,796.863 -796.863,796.863 -440.073,0 -796.862,-356.743 -796.862,-796.863 0,-440.084 356.789,-796.863 796.862,-796.863 440.074,0 796.863,356.779 796.863,796.863" /><path
       inkscape:connector-curvature="0"
       id="path138"
       style="fill:#3c3e42;fill-opacity:1;fill-rule:nonzero;stroke:none;stroke-width:5.14104986"
       d="m 18623.653,1601.7245 c 0,84.93 -69.044,153.769 -154.231,153.769 -85.187,0 -154.232,-68.839 -154.232,-153.769 0,-84.93 69.045,-153.82 154.232,-153.82 85.187,0 154.231,68.89 154.231,153.82" /><path
       inkscape:connector-curvature="0"
       id="path140"
       style="fill:#3c3e42;fill-opacity:1;fill-rule:nonzero;stroke:none;stroke-width:5.14104986"
       d="m 19264.331,2371.9055 h -1539.127 c -68.325,0 -123.694,-55.369 -123.694,-123.694 v 0 c 0,-68.325 55.369,-123.694 123.694,-123.694 h 1539.127 c 68.325,0 123.694,55.369 123.694,123.694 v 0 c 0,68.325 -55.369,123.694 -123.694,123.694" /><path
       inkscape:connector-curvature="0"
       id="path142"
       style="fill:#d5d6d9;fill-opacity:1;fill-rule:nonzero;stroke:none;stroke-width:5.14104986"
       d="m 12865.678,3771.8131 v 887.6535 c 0,27.2479 22.107,49.3544 49.354,49.3544 h 65.806 c 27.247,0 49.354,-22.1065 49.354,-49.3544 v -887.6535 c 0,-27.2478 -22.107,-49.3543 -49.354,-49.3543 h -65.806 c -27.247,0 -49.354,22.1065 -49.354,49.3543" /><path
       inkscape:connector-curvature="0"
       id="path144"
       style="fill:#d5d6d9;fill-opacity:1;fill-rule:nonzero;stroke:none;stroke-width:5.14104986"
       d="m 12865.678,5802.5274 v 1583.9063 c 0,27.2476 22.107,49.303 49.354,49.303 h 65.806 c 27.247,0 49.354,-22.0554 49.354,-49.303 V 5802.5274 c 0,-27.2473 -22.107,-49.3537 -49.354,-49.3537 h -65.806 c -27.247,0 -49.354,22.1064 -49.354,49.3537" /><path
       inkscape:connector-curvature="0"
       id="path146"
       style="fill:#d5d6d9;fill-opacity:1;fill-rule:nonzero;stroke:none;stroke-width:5.14104986"
       d="m 12865.678,7891.2333 v 1583.9063 c 0,27.2473 22.107,49.3537 49.354,49.3537 h 65.806 c 27.247,0 49.354,-22.1064 49.354,-49.3537 V 7891.2333 c 0,-27.2474 -22.107,-49.3025 -49.354,-49.3025 h -65.806 c -27.247,0 -49.354,22.0551 -49.354,49.3025" /><path
       inkscape:connector-curvature="0"
       id="path148"
       style="fill:#bcbcbc;fill-opacity:1;fill-rule:nonzero;stroke:none;stroke-width:5.14104986"
       d="m 13071.32,22208.856 h -154.231 v -403.269 h 154.231 v 403.269" /><path
       inkscape:connector-curvature="0"
       id="path150"
       style="fill:#bcbcbc;fill-opacity:1;fill-rule:nonzero;stroke:none;stroke-width:5.14104986"
       d="m 13071.32,2981.3253 h -154.231 v -403.2638 h 154.231 v 403.2638" /><path
       inkscape:connector-curvature="0"
       id="path152"
       style="fill:#bcbcbc;fill-opacity:1;fill-rule:nonzero;stroke:none;stroke-width:5.14104986"
       d="m 24073.166,22208.856 h -154.231 v -403.269 h 154.231 v 403.269" /><path
       inkscape:connector-curvature="0"
       id="path154"
       style="fill:#bcbcbc;fill-opacity:1;fill-rule:nonzero;stroke:none;stroke-width:5.14104986"
       d="m 24073.166,2981.3253 h -154.231 v -403.2638 h 154.231 v 403.2638" /><path
       inkscape:connector-curvature="0"
       id="path156"
       style="fill:#3c3e42;fill-opacity:1;fill-rule:nonzero;stroke:none;stroke-width:5.14104986"
       d="m 16978.518,2269.5985 c 0,113.566 -92.077,205.642 -205.642,205.642 -113.566,0 -205.642,-92.076 -205.642,-205.642 0,-113.566 92.076,-205.642 205.642,-205.642 113.565,0 205.642,92.076 205.642,205.642" /><g
       inkscape:export-ydpi="96"
       inkscape:export-xdpi="96"
       transform="matrix(0.63821779,0,0,0.63821779,-1395.2418,7845.0848)"
       id="g4637"><path
         class="fil1"
         d="m 27702.667,3690 c -275,-32 -339,742 242,622 0,0 289,-548 270,-662 -57,-342 -492,-814 173,-1448 222,-211 559,-179 540,193 -79,144 -149,194 -283,96 22,-205 26,10 77,-148 -322,-58 -546,569 -20,687 121,-90 360,-303 462,-407 10,-521 51,-865 355,-1110 238,-192 927,-448 817,170 -117,116 -167,160 -311,68 l 53,-145 c 144,-220 -8,155 38,-52 -405,-70 -624,360 -279,646 141,-3 255,-72 397,-112 229,-63 165,-41 261,-251 105,-230 256,-472 441,-588 181,-114 604,-197 832,-68 291,164 177,613 -203,470 l -24,-143 c 45,-29 26,-14 86,-22 80,-12 -20,31 66,-4 -29,-102 -60,-116 -215,-115 -101,1 -195,28 -256,81 -125,109 -152,408 16,491 79,25 361,42 479,58 361,50 503,-573 1163,-462 931,156 630,890 284,718 -59,-29 -127,-102 -68,-197 67,-106 70,19 158,-19 -26,-118 -34,-119 -135,-166 -239,-112 -536,-38 -503,402 257,153 544,376 709,345 342,-66 594,-194 936,-4 157,88 495,389 472,661 -32,390 -627,252 -419,-60 165,10 27,-2 90,37 l 66,52 c 53,-358 -494,-597 -661,-126 -5,58 197,351 260,450 65,101 33,87 137,121 337,109 907,35 1096,820 80,336 -101,671 -389,474 -119,-79 -164,-249 33,-317 163,135 -63,75 85,133 154,-196 -62,-601 -391,-501 -308,95 -115,405 -91,750 l -706,26 c -156,-652 -291,-1216 -841,-1707 -1410,-1258 -3354,-837 -4185,718 -188,352 -210,577 -308,983 -741,1 -675,68 -992,-301 -594,-693 -156,-1484 201,-1392 296,76 181,515 -9,408 -96,-54 -17,-90 -6,-153 z"
         id="path1062"
         inkscape:connector-curvature="0"
         style="fill:#ffc82a" /><path
         class="fil2"
         d="m 27393.667,10709 v 371 h -244 v -1079 h 381 c 272,0 408,115 408,344 0,109 -39,196 -117,263 -78,67 -182,101 -313,101 z m 0,-521 v 336 h 95 c 130,0 194,-57 194,-170 0,-111 -64,-166 -194,-166 z"
         id="path1064"
         inkscape:connector-curvature="0"
         style="fill:#334f7d;fill-rule:nonzero" /><path
         id="path1066"
         class="fil2"
         d="m 28806.667,10310 -313,832 c -75,200 -188,300 -340,300 -57,0 -105,-6 -142,-19 v -190 c 32,19 66,28 103,28 61,0 104,-29 128,-87 l 41,-95 -313,-769 h 263 l 144,468 c 9,29 16,64 21,104 h 3 c 5,-30 13,-63 25,-102 l 145,-470 z"
         inkscape:connector-curvature="0"
         style="fill:#334f7d;fill-rule:nonzero" /><path
         id="path1068"
         class="fil2"
         d="m 28925.667,11080 v -1079 h 383 c 383,0 575,175 575,526 0,168 -53,302 -157,403 -105,100 -244,150 -418,150 z m 244,-881 v 684 h 120 c 105,0 188,-32 248,-95 60,-63 90,-149 90,-258 0,-103 -30,-184 -89,-242 -60,-59 -143,-89 -251,-89 z"
         inkscape:connector-curvature="0"
         style="fill:#334f7d;fill-rule:nonzero" /><path
         id="path1070"
         class="fil2"
         d="m 30680.667,11080 h -225 v -110 h -4 c -51,86 -128,129 -229,129 -75,0 -134,-21 -177,-63 -42,-43 -64,-100 -64,-170 0,-150 89,-236 266,-259 l 209,-28 c 0,-84 -46,-126 -137,-126 -92,0 -179,27 -262,82 v -179 c 33,-17 79,-32 136,-45 57,-14 110,-20 157,-20 220,0 330,110 330,329 z m -224,-313 v -52 l -140,18 c -77,10 -116,45 -116,105 0,27 10,49 28,67 19,17 45,26 77,26 44,0 81,-16 109,-47 28,-31 42,-70 42,-117 z"
         inkscape:connector-curvature="0"
         style="fill:#334f7d;fill-rule:nonzero" /><path
         id="path1072"
         class="fil2"
         d="m 31601.667,10310 -313,832 c -75,200 -188,300 -340,300 -57,0 -105,-6 -142,-19 v -190 c 32,19 66,28 103,28 61,0 104,-29 128,-87 l 41,-95 -313,-769 h 263 l 144,468 c 9,29 16,64 21,104 h 3 c 4,-30 13,-63 25,-102 l 145,-470 z"
         inkscape:connector-curvature="0"
         style="fill:#334f7d;fill-rule:nonzero" /><path
         id="path1074"
         class="fil2"
         d="m 32388.667,10709 v 371 h -243 v -1079 h 381 c 272,0 408,115 408,344 0,109 -39,196 -117,263 -78,67 -182,101 -313,101 z m 0,-521 v 336 h 96 c 129,0 194,-57 194,-170 0,-111 -65,-166 -194,-166 z"
         inkscape:connector-curvature="0"
         style="fill:#334f7d;fill-rule:nonzero" /><path
         id="path1076"
         class="fil2"
         d="m 33761.667,10763 h -503 c 8,112 79,168 212,168 85,0 159,-21 223,-61 v 172 c -71,38 -163,57 -277,57 -125,0 -221,-34 -290,-104 -69,-68 -103,-165 -103,-288 0,-128 37,-229 111,-304 75,-75 166,-112 274,-112 112,0 199,33 261,100 61,67 92,157 92,272 z m -220,-146 c 0,-111 -45,-166 -134,-166 -38,0 -72,16 -99,48 -28,31 -45,71 -51,118 z"
         inkscape:connector-curvature="0"
         style="fill:#334f7d;fill-rule:nonzero" /><path
         id="path1078"
         class="fil2"
         d="m 34405.667,10524 c -29,-15 -62,-23 -100,-23 -52,0 -92,19 -121,57 -29,38 -44,89 -44,154 v 368 h -237 v -770 h 237 v 143 h 3 c 38,-105 105,-157 203,-157 25,0 45,3 59,9 z"
         inkscape:connector-curvature="0"
         style="fill:#334f7d;fill-rule:nonzero" /><path
         id="path1080"
         class="fil2"
         d="m 35248.667,11080 h -237 v -117 h -4 c -59,91 -137,136 -235,136 -179,0 -268,-108 -268,-324 v -465 h 237 v 444 c 0,108 43,163 129,163 43,0 77,-15 102,-45 26,-30 39,-70 39,-121 v -441 h 237 z"
         inkscape:connector-curvature="0"
         style="fill:#334f7d;fill-rule:nonzero" /><path
         class="fil3"
         d="m 34646.667,6975 c 276,32 339,-742 -241,-622 0,0 -290,548 -271,662 57,342 492,814 -173,1448 -221,212 -558,179 -539,-193 78,-144 149,-193 282,-96 -21,205 -26,-10 -76,148 321,58 546,-569 20,-687 -121,90 -360,304 -462,407 -11,521 -51,865 -356,1111 -238,191 -927,448 -817,-171 118,-116 167,-160 311,-68 l -53,145 c -143,220 9,-154 -38,52 405,71 624,-360 279,-646 -141,3 -254,72 -397,112 -228,64 -165,41 -260,251 -105,231 -257,472 -441,588 -182,114 -605,197 -832,68 -291,-164 -177,-613 202,-470 l 25,143 c -46,29 -27,14 -86,22 -81,12 19,-31 -66,4 28,102 59,116 215,115 101,0 195,-28 255,-81 125,-108 152,-408 -15,-491 -79,-25 -361,-42 -480,-58 -361,-50 -503,573 -1163,462 -931,-156 -629,-890 -283,-718 58,29 127,102 67,197 -66,106 -70,-19 -158,20 26,117 34,118 135,165 239,112 536,38 504,-402 -258,-153 -545,-376 -710,-345 -342,66 -593,194 -935,4 -157,-88 -495,-389 -473,-661 33,-390 627,-252 419,60 -164,-10 -26,2 -90,-37 l -65,-52 c -53,358 493,597 661,126 5,-58 -198,-351 -261,-450 -64,-101 -33,-87 -136,-121 -337,-109 -908,-35 -1096,-820 -81,-336 101,-671 388,-474 119,79 165,249 -32,317 -163,-135 62,-75 -85,-133 -154,196 61,602 390,501 308,-95 115,-405 92,-750 l 705,-25 c 156,651 291,1215 842,1706 1409,1258 3354,837 4184,-718 188,-352 211,-577 308,-983 741,-1 675,-68 993,302 594,692 155,1483 -202,1391 -296,-76 -180,-515 9,-408 97,54 17,90 6,153 z"
         id="path1082"
         inkscape:connector-curvature="0"
         style="fill:#334f7d" /><circle
         class="fil0"
         cx="31167.668"
         cy="5366"
         r="2744"
         id="circle1084"
         style="fill:#fefefe" /><g
         id="g1118"
         transform="translate(25082.667,-3204)"><path
           class="fil3"
           d="m 5483,7735 c -135,0 -214,-156 -121,-266 83,-97 274,-45 274,106 0,81 -70,160 -153,160 z m -375,-153 v 375 h 842 v 100 H 4794 c -213,0 -372,110 -454,242 -110,178 -136,452 -136,669 0,192 71,514 175,645 l 84,84 c 122,109 359,83 522,83 38,0 23,-94 23,-169 0,-291 -25,-408 178,-610 24,-24 86,-67 119,-81 124,-55 175,-51 346,-51 142,0 691,9 783,-7 218,-37 366,-213 366,-430 v -796 c 0,-197 -129,-329 -263,-396 -237,-119 -1134,-144 -1355,103 -45,51 -74,146 -74,239 z"
           id="path1086"
           inkscape:connector-curvature="0"
           style="fill:#334f7d" /><path
           class="fil4"
           d="m 6440,10415 c -54,0 -89,-5 -128,-48 -82,-90 -36,-266 120,-266 199,0 199,314 8,314 z m 459,-1968 c 0,276 -250,515 -497,521 h -682 c -217,0 -366,-18 -518,163 -45,53 -94,156 -94,251 v 834 c 0,344 518,483 773,483 238,0 439,-16 646,-120 327,-164 273,-338 273,-700 h -842 v -99 h 1255 c 295,0 396,-283 460,-528 83,-321 17,-882 -197,-1097 -57,-57 -145,-98 -255,-98 h -322 z"
           id="path1088"
           inkscape:connector-curvature="0"
           style="fill:#ffc82a" /><path
           class="fil0"
           d="m 5721,7165 c 59,12 100,47 120,65 21,18 70,45 89,103 19,59 19,89 15,147 -5,57 -57,404 -57,404 0,0 -2,181 28,235 30,54 58,117 142,161 83,44 214,88 279,22 64,-66 88,-68 131,-199 44,-131 71,-252 127,-309 56,-57 114,-73 158,-54 44,19 113,64 113,64 0,0 -19,-175 28,-326 47,-151 24,-118 91,-260 68,-141 142,-195 193,-220 51,-26 103,-45 103,-45 -141,-259 -636,-502 -1003,-395 -170,49 -306,153 -411,304 -98,140 -146,303 -146,303 z"
           id="path1090"
           inkscape:connector-curvature="0"
           style="fill:#fefefe" /><path
           class="fil1"
           d="m 5760,7116 c 1,31 -31,-2 52,46 20,11 44,28 63,43 205,172 72,413 61,678 -4,97 8,185 57,259 47,72 143,148 243,141 302,-24 157,-738 598,-555 11,-21 6,-107 0,-130 l -161,-42 c -42,-11 -124,-46 -163,-52 -53,56 -110,391 -183,508 -81,128 -376,135 -274,-366 16,-76 43,-179 45,-250 4,-101 -29,-123 -105,-178 -63,-46 -102,-69 -169,-95 -73,-29 -56,-10 -64,-7 z"
           id="path1092"
           inkscape:connector-curvature="0"
           style="fill:#ffc82a" /><path
           class="fil3"
           d="m 5797,7039 c 83,88 900,514 1036,501 17,-16 10,-51 14,-78 4,-32 20,-64 23,-95 -187,-85 -325,-119 -528,-224 -84,-44 -159,-81 -236,-124 -41,-24 -71,-43 -111,-68 -32,-19 -76,-55 -105,-69 -23,18 -78,119 -93,157 z"
           id="path1094"
           inkscape:connector-curvature="0"
           style="fill:#334f7d" /><path
           class="fil3"
           d="m 6464,7479 -331,-165 c 21,238 -87,563 -19,673 36,57 104,67 147,29 72,-64 97,-282 122,-363 39,-125 66,-132 81,-174 z"
           id="path1096"
           inkscape:connector-curvature="0"
           style="fill:#334f7d" /><path
           class="fil3"
           d="m 6472,6567 c 4,55 163,229 217,283 88,87 197,179 325,244 69,-84 7,-22 -63,-186 -32,-74 -41,-132 -33,-228 -98,-42 -344,-141 -446,-113 z"
           id="path1098"
           inkscape:connector-curvature="0"
           style="fill:#334f7d" /><path
           class="fil4"
           d="m 6891,7322 16,-38 c -27,-29 -615,-335 -724,-390 -41,-20 -82,-42 -120,-65 -32,-19 -94,-70 -120,-34 -69,95 321,274 386,301 189,78 362,158 562,226 z"
           id="path1100"
           inkscape:connector-curvature="0"
           style="fill:#ffc82a" /><path
           class="fil3"
           d="m 6268,6890 435,233 -3,-128 c -1,-26 3,-19 -10,-37 -33,1 -49,24 -84,41 -25,12 -67,29 -93,0 -43,-49 26,-177 15,-218 -27,-6 -101,38 -130,51 -24,11 -118,46 -130,58 z"
           id="path1102"
           inkscape:connector-curvature="0"
           style="fill:#334f7d" /><path
           class="fil1"
           d="m 6268,6852 c 33,-2 217,-86 243,-108 l -110,-162 c -65,23 -200,201 -133,270 z"
           id="path1104"
           inkscape:connector-curvature="0"
           style="fill:#ffc82a" /><path
           class="fil3"
           d="m 6032,6741 c 32,40 109,90 168,114 42,-174 23,-139 141,-273 -69,-7 -266,101 -309,159 z"
           id="path1106"
           inkscape:connector-curvature="0"
           style="fill:#334f7d" /><path
           class="fil1"
           d="m 6545,6983 c 25,-4 109,-42 136,-57 l -23,-31 c -11,-11 -19,-19 -29,-28 -21,-21 -35,-41 -64,-56 -27,68 -34,120 -20,172 z"
           id="path1108"
           inkscape:connector-curvature="0"
           style="fill:#ffc82a" /><path
           class="fil3"
           d="m 7130,6976 c 18,-2 87,-34 99,-42 -39,-39 -77,-90 -131,-126 -32,74 -14,121 32,168 z"
           id="path1110"
           inkscape:connector-curvature="0"
           style="fill:#334f7d" /><path
           class="fil1"
           d="m 6759,7120 c 36,-5 76,-27 103,-58 -6,-7 -105,-80 -121,-89 -12,48 -12,114 18,147 z"
           id="path1112"
           inkscape:connector-curvature="0"
           style="fill:#ffc82a" /><path
           class="fil1"
           d="m 7051,6962 c -7,-63 -43,-80 -13,-203 l -73,-47 c -1,73 26,202 86,250 z"
           id="path1114"
           inkscape:connector-curvature="0"
           style="fill:#ffc82a" /><path
           class="fil3"
           d="m 6775,7158 c 20,22 66,39 102,53 -7,-51 -20,-45 -4,-101 z"
           id="path1116"
           inkscape:connector-curvature="0"
           style="fill:#334f7d" /></g><path
         class="fil3"
         d="m 32331.667,3769 c 128,136 236,180 92,307 35,-83 -61,-205 -92,-307 z"
         id="path1120"
         inkscape:connector-curvature="0"
         style="fill:#334f7d" /><path
         class="fil3"
         d="m 32300.667,3780 c -81,167 -171,242 4,320 -58,-69 -2,-213 -4,-320 z"
         id="path1122"
         inkscape:connector-curvature="0"
         style="fill:#334f7d" /><path
         class="fil3"
         d="m 32324.667,3836 c -55,215 16,257 56,301 51,-65 18,-196 -56,-301 z"
         id="path1124"
         inkscape:connector-curvature="0"
         style="fill:#334f7d" /><path
         class="fil5"
         d="m 29836.667,12613 h 430 v 186 h -675 v -77 c 0,-52 9,-98 27,-140 17,-41 39,-78 65,-111 27,-33 56,-62 87,-87 31,-26 61,-49 89,-69 30,-21 56,-42 78,-61 23,-19 41,-39 57,-58 15,-19 26,-38 34,-58 8,-20 12,-40 12,-63 0,-43 -13,-76 -37,-99 -25,-22 -62,-33 -113,-33 -87,0 -170,35 -250,104 v -197 c 88,-57 188,-86 298,-86 52,0 98,7 138,21 41,13 76,32 104,57 28,25 50,56 65,92 14,35 22,75 22,119 0,47 -7,89 -22,125 -14,37 -33,70 -57,100 -24,29 -51,57 -82,81 -31,25 -64,49 -97,72 -23,17 -44,33 -65,48 -21,16 -40,32 -56,47 -16,16 -29,31 -38,45 -9,15 -14,29 -14,42 z"
         id="path1126"
         inkscape:connector-curvature="0"
         style="fill:#ffc82a;fill-rule:nonzero" /><path
         id="path1128"
         class="fil5"
         d="m 30776.667,12817 c -242,0 -362,-170 -362,-510 0,-177 32,-311 98,-404 65,-92 160,-139 283,-139 236,0 354,173 354,519 0,172 -32,304 -97,396 -64,92 -156,138 -276,138 z m 10,-881 c -97,0 -145,121 -145,365 0,229 47,344 142,344 92,0 138,-118 138,-355 0,-236 -45,-354 -135,-354 z"
         inkscape:connector-curvature="0"
         style="fill:#ffc82a;fill-rule:nonzero" /><path
         id="path1130"
         class="fil5"
         d="m 31786.667,11759 v 1040 h -223 v -788 c -12,11 -27,21 -44,31 -16,10 -34,19 -53,26 -19,8 -38,15 -59,20 -20,6 -40,10 -60,12 v -189 c 58,-17 113,-38 164,-65 52,-27 98,-56 139,-87 z"
         inkscape:connector-curvature="0"
         style="fill:#ffc82a;fill-rule:nonzero" /><path
         id="path1132"
         class="fil5"
         d="m 32086.667,12525 c 0,-28 4,-56 13,-82 8,-26 20,-50 37,-73 16,-22 37,-43 62,-60 24,-18 53,-32 87,-44 -51,-26 -91,-58 -119,-98 -29,-40 -43,-84 -43,-133 0,-39 8,-75 25,-108 16,-33 38,-62 67,-86 29,-24 63,-43 103,-56 40,-14 83,-21 130,-21 48,0 92,7 132,21 40,13 75,32 104,56 29,24 51,52 67,85 16,32 24,68 24,106 0,48 -15,92 -45,131 -30,40 -72,73 -125,98 33,11 62,26 87,44 25,18 46,38 63,60 17,23 30,48 38,75 8,26 13,54 13,83 0,43 -9,83 -27,119 -17,35 -42,66 -73,92 -32,26 -70,46 -114,60 -44,14 -93,21 -146,21 -52,0 -100,-7 -144,-21 -44,-14 -82,-33 -114,-59 -32,-25 -57,-56 -75,-92 -18,-36 -27,-75 -27,-118 z m 212,-19 c 0,23 3,44 10,62 7,19 18,34 31,47 13,13 29,23 47,30 18,7 38,10 61,10 21,0 41,-3 59,-11 19,-7 34,-17 47,-30 14,-12 24,-28 32,-46 7,-19 11,-39 11,-62 0,-20 -4,-40 -11,-58 -7,-19 -17,-35 -30,-48 -13,-14 -29,-24 -47,-32 -18,-8 -39,-12 -61,-12 -21,0 -41,3 -60,10 -18,8 -34,18 -47,32 -13,13 -23,29 -31,48 -8,18 -11,38 -11,60 z m 31,-451 c 0,18 3,35 9,51 7,16 15,30 26,41 11,12 24,21 38,28 15,6 31,10 48,10 17,0 32,-4 47,-10 15,-7 27,-16 38,-28 11,-12 20,-26 27,-41 6,-16 9,-33 9,-51 0,-18 -3,-35 -9,-51 -6,-16 -15,-30 -26,-41 -11,-12 -24,-21 -39,-27 -14,-7 -30,-10 -47,-10 -18,0 -35,3 -49,10 -15,7 -28,16 -39,27 -10,12 -19,26 -24,42 -6,16 -9,32 -9,50 z"
         inkscape:connector-curvature="0"
         style="fill:#ffc82a;fill-rule:nonzero" /></g></g><g
     transform="translate(72.609491,665.28173)"
     inkscape:label="Cube:x0.00:x0.00:x0.00:x0.00:x0.00:x0.00"
     id="g4934"><path
       d="M50.0,-50.0L-50.0,-50.0L-50.0,50.0L50.0,50.0z"
       style="stroke-linejoin:round;stroke-opacity:1.0;fill-opacity:1.0;stroke:#000000;stroke-width:2.0;fill:#CD0000"
       inkscape:label="Face:0"
       id="path4932" /></g><g
     id="g8882"
     inkscape:label="Cube:x0.00:x0.00:z10.00:x0.00:x0.00:z0.00"
     transform="translate(188.92246,500.16542)"><path
       id="path8880"
       inkscape:label="Face:0"
       style="stroke-linejoin:round;stroke-opacity:1.0;fill-opacity:1.0;stroke:#000000;stroke-width:2.0;fill:#CD0000"
       d="M40.5579787673,-57.922796534L-57.922796534,-40.5579787673L-40.5579787673,57.922796534L57.922796534,40.5579787673z" /></g></svg>