<?xml version="1.0" encoding="UTF-8" standalone="no"?>
<!-- Creator: CorelDRAW X7 -->

<svg
   xmlns:dc="http://purl.org/dc/elements/1.1/"
   xmlns:cc="http://creativecommons.org/ns#"
   xmlns:rdf="http://www.w3.org/1999/02/22-rdf-syntax-ns#"
   xmlns:svg="http://www.w3.org/2000/svg"
   xmlns="http://www.w3.org/2000/svg"
   xmlns:sodipodi="http://sodipodi.sourceforge.net/DTD/sodipodi-0.dtd"
   xmlns:inkscape="http://www.inkscape.org/namespaces/inkscape"
   xml:space="preserve"
   width="1400"
   height="933"
   version="1.1"
   style="clip-rule:evenodd;fill-rule:evenodd;image-rendering:optimizeQuality;shape-rendering:geometricPrecision;text-rendering:geometricPrecision"
   viewBox="0 0 37041.666 24685.626"
   id="svg73"
   sodipodi:docname="model_1_c.svg"
   inkscape:version="0.92.1 r15371"
   inkscape:export-filename="/home/zodiac/Development/softbutterfly/pythonperu.org-artwork/logo/model_1_c.png"
   inkscape:export-xdpi="96"
   inkscape:export-ydpi="96"><metadata
     id="metadata77"><rdf:RDF><cc:Work
         rdf:about=""><dc:format>image/svg+xml</dc:format><dc:type
           rdf:resource="http://purl.org/dc/dcmitype/StillImage" /><dc:title /></cc:Work></rdf:RDF></metadata><sodipodi:namedview
     pagecolor="#ffffff"
     bordercolor="#666666"
     borderopacity="1"
     objecttolerance="10"
     gridtolerance="10"
     guidetolerance="10"
     inkscape:pageopacity="0"
     inkscape:pageshadow="2"
     inkscape:window-width="1366"
     inkscape:window-height="695"
     id="namedview75"
     showgrid="false"
     units="px"
     inkscape:zoom="0.19098704"
     inkscape:cx="-733.70229"
     inkscape:cy="6.9898454"
     inkscape:window-x="0"
     inkscape:window-y="0"
     inkscape:window-maximized="1"
     inkscape:current-layer="svg73"
     showguides="true" /><defs
     id="defs4"><style
       type="text/css"
       id="style2"><![CDATA[
    .fil0 {fill:#FEFEFE}
    .fil1 {fill:#FFC82A}
    .fil4 {fill:#FFC82A}
    .fil3 {fill:#334F7D}
    .fil5 {fill:#FFC82A;fill-rule:nonzero}
    .fil2 {fill:#334F7D;fill-rule:nonzero}
   ]]></style></defs><rect
     id="rect79"
     width="37041.668"
     height="24685.625"
     x="-0.00044257438"
     y="0.00013892856"
     style="stroke-width:32.27233124;fill:#fafafa;fill-opacity:1;stroke:none"
     inkscape:export-xdpi="96"
     inkscape:export-ydpi="96" /><g
     id="g5058"
     transform="translate(0.00519541,-3460.4254)"
     inkscape:export-xdpi="96"
     inkscape:export-ydpi="96"><g
       id="g4901"><text
         xml:space="preserve"
         style="font-style:normal;font-weight:normal;font-size:503.19189453px;line-height:1.25;font-family:sans-serif;letter-spacing:0px;word-spacing:0px;fill:#000000;fill-opacity:1;stroke:none;stroke-width:12.5797596"
         x="1261.4867"
         y="5185.7974"
         id="text1320"><tspan
           sodipodi:role="line"
           id="tspan1318"
           x="1261.4867"
           y="5185.7974"
           style="font-style:normal;font-variant:normal;font-weight:200;font-stretch:normal;font-family:'DejaVu Sans';-inkscape-font-specification:'DejaVu Sans Ultra-Light';stroke-width:12.5797596">Project Name <tspan
   id="tspan4883"
   style="font-weight:normal">PyDay</tspan><tspan
   style="font-style:normal;font-variant:normal;font-weight:normal;font-stretch:normal;font-family:'DejaVu Sans';-inkscape-font-specification:'DejaVu Sans';stroke-width:12.5797596"
   id="tspan1324"> Perú</tspan></tspan></text>
<text
         id="text1330"
         y="6577.7207"
         x="1307.9241"
         style="font-style:normal;font-weight:normal;font-size:503.19189453px;line-height:1.25;font-family:sans-serif;letter-spacing:0px;word-spacing:0px;fill:#000000;fill-opacity:1;stroke:none;stroke-width:12.5797596"
         xml:space="preserve"><tspan
           style="font-style:normal;font-variant:normal;font-weight:200;font-stretch:normal;font-family:'DejaVu Sans';-inkscape-font-specification:'DejaVu Sans Ultra-Light';stroke-width:12.5797596"
           y="6577.7207"
           x="1307.9241"
           id="tspan1328"
           sodipodi:role="line">Agency <tspan
   style="font-weight:normal;stroke-width:12.5797596"
   id="tspan1332">SoftButterfly</tspan></tspan></text>
<text
         xml:space="preserve"
         style="font-style:normal;font-weight:normal;font-size:503.19189453px;line-height:1.25;font-family:sans-serif;letter-spacing:0px;word-spacing:0px;fill:#000000;fill-opacity:1;stroke:none;stroke-width:12.5797596"
         x="1261.7373"
         y="5881.7651"
         id="text1338"><tspan
           sodipodi:role="line"
           id="tspan1336"
           x="1261.7373"
           y="5881.7651"
           style="font-style:normal;font-variant:normal;font-weight:200;font-stretch:normal;font-family:'DejaVu Sans';-inkscape-font-specification:'DejaVu Sans Ultra-Light';stroke-width:12.5797596">Designer <tspan
   style="font-weight:normal;stroke-width:12.5797596"
   id="tspan1340">Leyla Marcelo</tspan></tspan></text>
<text
         xml:space="preserve"
         style="font-style:normal;font-weight:normal;font-size:503.19189453px;line-height:1.25;font-family:sans-serif;letter-spacing:0px;word-spacing:0px;fill:#000000;fill-opacity:1;stroke:none;stroke-width:12.5797596"
         x="1281.1429"
         y="7273.6763"
         id="text5035"><tspan
           sodipodi:role="line"
           id="tspan5033"
           x="1281.1429"
           y="7273.6763"
           style="font-style:normal;font-variant:normal;font-weight:200;font-stretch:normal;font-family:'DejaVu Sans';-inkscape-font-specification:'DejaVu Sans Ultra-Light';stroke-width:12.5797596">City <tspan
   id="tspan5031"
   style="font-weight:normal;stroke-width:12.5797596">Lima</tspan></tspan></text>
<text
         id="text5041"
         y="7951.2168"
         x="1311.6118"
         style="font-style:normal;font-weight:normal;font-size:503.19189453px;line-height:1.25;font-family:sans-serif;letter-spacing:0px;word-spacing:0px;fill:#000000;fill-opacity:1;stroke:none;stroke-width:12.5797596"
         xml:space="preserve"><tspan
           style="font-style:normal;font-variant:normal;font-weight:200;font-stretch:normal;font-family:'DejaVu Sans';-inkscape-font-specification:'DejaVu Sans Ultra-Light';stroke-width:12.5797596"
           y="7951.2168"
           x="1311.6118"
           id="tspan5039"
           sodipodi:role="line">Year <tspan
   style="font-weight:normal;stroke-width:12.5797596"
   id="tspan5037">2017</tspan></tspan></text>
</g></g><g
     id="g4997"
     transform="matrix(1.1280495,0,0,1.1280495,3581.537,-7950.7123)"><g
       id="g5212"
       transform="translate(-0.0010071,6.7586017e-4)"
       inkscape:export-xdpi="96"
       inkscape:export-ydpi="96"><g
         transform="matrix(1.1315421,0,0,1.1315421,26571.938,9603.1203)"
         id="g4770"
         style="clip-rule:evenodd;fill-rule:evenodd;image-rendering:optimizeQuality;shape-rendering:geometricPrecision;text-rendering:geometricPrecision"><g
           id="g4720"><path
             class="fil1"
             d="m -20212.238,5769.3347 c -275,-32 -339,742 242,622 0,0 289,-548 270,-662 -57,-342 -492,-814 173,-1448 222,-211 559,-179 540,193 -79,144 -149,194 -283,96 22,-205 26,10 77,-148 -322,-58 -546,569 -20,687 121,-90 360,-303 462,-407 10,-521 51,-865 355,-1110 238,-192 927,-448 817,170 -117,116 -167,160 -311,68 l 53,-145 c 144,-220 -8,155 38,-52 -405,-70 -624,360 -279,646 141,-3 255,-72 397,-112 229,-63 165,-41 261,-251 105,-230 256,-472 441,-588 181,-114 604,-197 832,-68 291,164 177,613 -203,470 l -24,-143 c 45,-29 26,-14 86,-22 80,-12 -20,31 66,-4 -29,-102 -60,-116 -215,-115 -101,1 -195,28 -256,81 -125,109 -152,408 16,491 79,25 361,42 479,58 361,50 503,-573 1163,-462 931,156 630,890 284,718 -59,-29 -127,-102 -68,-197 67,-106 70,19 158,-19 -26,-118 -34,-119 -135,-166 -239,-112 -536,-38 -503,402 257,153 544,376 709,345 342,-66 594,-194 936,-4 157,88 495,389 472,661 -32,390 -627,252 -419,-60 165,10 27,-2 90,37 l 66,52 c 53,-358 -494,-597 -661,-126 -5,58 197,351 260,450 65,101 33,87 137,121 337,109 907,35 1096,820 80,336 -101,671 -389,474 -119,-79 -164,-249 33,-317 163,135 -63,75 85,133 154,-196 -62,-601 -391,-501 -308,95 -115,405 -91,750 l -706,26 c -156,-652 -291,-1216 -841,-1707 -1410,-1258 -3354,-837 -4185,718 -188,352 -210,577 -308,983 -741,1 -675,68 -992,-301 -594,-693 -156,-1484 201,-1392 296,76 181,515 -9,408 -96,-54 -17,-90 -6,-153 z"
             id="path4568"
             inkscape:connector-curvature="0"
             style="fill:#ffc82a" /><path
             class="fil3"
             d="m -13268.238,9054.3347 c 276,32 339,-742 -241,-622 0,0 -290,548 -271,662 57,342 492,814 -173,1448.0003 -221,212 -558,179 -539,-193 78,-144 149,-193 282,-96 -21,205 -26,-10 -76,148 321,58 546,-569.0003 20,-687.0003 -121,90 -360,304.0003 -462,407.0003 -11,521 -51,865 -356,1111 -238,191 -927,448 -817,-171 118,-116 167,-160 311,-68 l -53,145 c -143,220 9,-154 -38,52 405,71 624,-360 279,-646 -141,3 -254,72 -397,112 -228,64 -165,41 -260,251 -105,231 -257,472 -441,588 -182,114 -605,197 -832,68 -291,-164 -177,-613 202,-470 l 25,143 c -46,29 -27,14 -86,22 -81,12 19,-31 -66,4 28,102 59,116 215,115 101,0 195,-28 255,-81 125,-108 152,-408 -15,-491 -79,-25 -361,-42 -480,-58 -361,-50 -503,573 -1163,462 -931,-156 -629,-890 -283,-718 58,29 127,102 67,197 -66,106 -70,-19 -158,20 26,117 34,118 135,165 239,112 536,38 504,-402 -258,-153 -545,-376 -710,-345 -342,66 -593,194 -935,4 -157,-88 -495,-389.0003 -473,-661.0003 33,-390 627,-252 419,60 -164,-10 -26,2 -90,-37 l -65,-52 c -53,358 493,597.0003 661,126 5,-58 -198,-351 -261,-450 -64,-101 -33,-87 -136,-121 -337,-109 -908,-35 -1096,-820 -81,-336 101,-671 388,-474 119,79 165,249 -32,317 -163,-135 62,-75 -85,-133 -154,196 61,602 390,501 308,-95 115,-405 92,-750 l 705,-25 c 156,651 291,1215 842,1706 1409,1258.0003 3354,837.0003 4184,-718 188,-352 211,-577 308,-983 741,-1 675,-68 993,302 594,692 155,1483 -202,1391 -296,-76 -180,-515 9,-408 97,54 17,90 6,153 z"
             id="path4588"
             inkscape:connector-curvature="0"
             style="fill:#334f7d" /></g><g
           id="g4743"><g
             id="g4716"><path
               class="fil3"
               d="m -17349.238,6610.3347 c -135,0 -214,-156 -121,-266 83,-97 274,-45 274,106 0,81 -70,160 -153,160 z m -375,-153 v 375 h 842 v 100 h -1156 c -213,0 -372,110 -454,242 -110,178 -136,452 -136,669 0,192 71,514 175,645 l 84,84 c 122,109 359,83 522,83 38,0 23,-94 23,-169 0,-291 -25,-408 178,-610 24,-24 86,-67 119,-81 124,-55 175,-51 346,-51 142,0 691,9 783,-7 218,-37 366,-213 366,-430 v -796 c 0,-197 -129,-329 -263,-396 -237,-119 -1134,-144 -1355,103 -45,51 -74,146 -74,239 z"
               id="path4592"
               inkscape:connector-curvature="0"
               style="fill:#334f7d" /><path
               class="fil4"
               d="m -16392.238,9290.3347 c -54,0 -89,-5 -128,-48 -82,-90 -36,-266 120,-266 199,0 199,314 8,314 z m 459,-1968 c 0,276 -250,515 -497,521 h -682 c -217,0 -366,-18 -518,163 -45,53 -94,156 -94,251 v 834 c 0,344 518,483 773,483 238,0 439,-16 646,-120 327,-164 273,-338 273,-700 h -842 v -99 h 1255 c 295,0 396,-283 460,-528 83,-321 17,-882 -197,-1097 -57,-57 -145,-98 -255,-98 h -322 z"
               id="path4594"
               inkscape:connector-curvature="0"
               style="fill:#ffc82a" /></g><g
             id="g4712"><path
               class="fil0"
               d="m -17111.238,6040.3347 c 59,12 100,47 120,65 21,18 70,45 89,103 19,59 19,89 15,147 -5,57 -57,404 -57,404 0,0 -2,181 28,235 30,54 58,117 142,161 83,44 214,88 279,22 64,-66 88,-68 131,-199 44,-131 71,-252 127,-309 56,-57 114,-73 158,-54 44,19 113,64 113,64 0,0 -19,-175 28,-326 47,-151 24,-118 91,-260 68,-141 142,-195 193,-220 51,-26 103,-45 103,-45 -141,-259 -636,-502 -1003,-395 -170,49 -306,153 -411,304 -98,140 -146,303 -146,303 z"
               id="path4596"
               inkscape:connector-curvature="0"
               style="fill:#fefefe" /><path
               class="fil1"
               d="m -17072.238,5991.3347 c 1,31 -31,-2 52,46 20,11 44,28 63,43 205,172 72,413 61,678 -4,97 8,185 57,259 47,72 143,148 243,141 302,-24 157,-738 598,-555 11,-21 6,-107 0,-130 l -161,-42 c -42,-11 -124,-46 -163,-52 -53,56 -110,391 -183,508 -81,128 -376,135 -274,-366 16,-76 43,-179 45,-250 4,-101 -29,-123 -105,-178 -63,-46 -102,-69 -169,-95 -73,-29 -56,-10 -64,-7 z"
               id="path4598"
               inkscape:connector-curvature="0"
               style="fill:#ffc82a" /><path
               class="fil3"
               d="m -17035.238,5914.3347 c 83,88 900,514 1036,501 17,-16 10,-51 14,-78 4,-32 20,-64 23,-95 -187,-85 -325,-119 -528,-224 -84,-44 -159,-81 -236,-124 -41,-24 -71,-43 -111,-68 -32,-19 -76,-55 -105,-69 -23,18 -78,119 -93,157 z"
               id="path4600"
               inkscape:connector-curvature="0"
               style="fill:#334f7d" /><path
               class="fil3"
               d="m -16368.238,6354.3347 -331,-165 c 21,238 -87,563 -19,673 36,57 104,67 147,29 72,-64 97,-282 122,-363 39,-125 66,-132 81,-174 z"
               id="path4602"
               inkscape:connector-curvature="0"
               style="fill:#334f7d" /><path
               class="fil3"
               d="m -16360.238,5442.3347 c 4,55 163,229 217,283 88,87 197,179 325,244 69,-84 7,-22 -63,-186 -32,-74 -41,-132 -33,-228 -98,-42 -344,-141 -446,-113 z"
               id="path4604"
               inkscape:connector-curvature="0"
               style="fill:#334f7d" /><path
               class="fil4"
               d="m -15941.238,6197.3347 16,-38 c -27,-29 -615,-335 -724,-390 -41,-20 -82,-42 -120,-65 -32,-19 -94,-70 -120,-34 -69,95 321,274 386,301 189,78 362,158 562,226 z"
               id="path4606"
               inkscape:connector-curvature="0"
               style="fill:#ffc82a" /><path
               class="fil3"
               d="m -16564.238,5765.3347 435,233 -3,-128 c -1,-26 3,-19 -10,-37 -33,1 -49,24 -84,41 -25,12 -67,29 -93,0 -43,-49 26,-177 15,-218 -27,-6 -101,38 -130,51 -24,11 -118,46 -130,58 z"
               id="path4608"
               inkscape:connector-curvature="0"
               style="fill:#334f7d" /><path
               class="fil1"
               d="m -16564.238,5727.3347 c 33,-2 217,-86 243,-108 l -110,-162 c -65,23 -200,201 -133,270 z"
               id="path4610"
               inkscape:connector-curvature="0"
               style="fill:#ffc82a" /><path
               class="fil3"
               d="m -16800.238,5616.3347 c 32,40 109,90 168,114 42,-174 23,-139 141,-273 -69,-7 -266,101 -309,159 z"
               id="path4612"
               inkscape:connector-curvature="0"
               style="fill:#334f7d" /><path
               class="fil1"
               d="m -16287.238,5858.3347 c 25,-4 109,-42 136,-57 l -23,-31 c -11,-11 -19,-19 -29,-28 -21,-21 -35,-41 -64,-56 -27,68 -34,120 -20,172 z"
               id="path4614"
               inkscape:connector-curvature="0"
               style="fill:#ffc82a" /><path
               class="fil3"
               d="m -15702.238,5851.3347 c 18,-2 87,-34 99,-42 -39,-39 -77,-90 -131,-126 -32,74 -14,121 32,168 z"
               id="path4616"
               inkscape:connector-curvature="0"
               style="fill:#334f7d" /><path
               class="fil1"
               d="m -16073.238,5995.3347 c 36,-5 76,-27 103,-58 -6,-7 -105,-80 -121,-89 -12,48 -12,114 18,147 z"
               id="path4618"
               inkscape:connector-curvature="0"
               style="fill:#ffc82a" /><path
               class="fil1"
               d="m -15781.238,5837.3347 c -7,-63 -43,-80 -13,-203 l -73,-47 c -1,73 26,202 86,250 z"
               id="path4620"
               inkscape:connector-curvature="0"
               style="fill:#ffc82a" /><path
               class="fil3"
               d="m -16057.238,6033.3347 c 20,22 66,39 102,53 -7,-51 -20,-45 -4,-101 z"
               id="path4622"
               inkscape:connector-curvature="0"
               style="fill:#334f7d" /><path
               style="fill:#334f7d"
               inkscape:connector-curvature="0"
               id="path4626"
               d="m -15583.238,5848.3347 c 128,136 236,180 92,307 35,-83 -61,-205 -92,-307 z"
               class="fil3" /><path
               style="fill:#334f7d"
               inkscape:connector-curvature="0"
               id="path4628"
               d="m -15614.238,5859.3347 c -81,167 -171,242 4,320 -58,-69 -2,-213 -4,-320 z"
               class="fil3" /><path
               style="fill:#334f7d"
               inkscape:connector-curvature="0"
               id="path4630"
               d="m -15590.238,5915.3347 c -55,215 16,257 56,301 51,-65 18,-196 -56,-301 z"
               class="fil3" /></g></g></g><g
         id="g5142"><g
           transform="translate(34114.736,3955.6799)"
           id="g4838"><path
             d="m -10776.243,13562.069 -36.695,-127.981 h -14.319 q -43.854,69.808 -124.402,108.291 -80.548,37.59 -183.471,37.59 -176.311,0 -265.808,-93.973 -89.498,-94.867 -89.498,-272.073 v -652.439 h 272.968 v 584.421 q 0,108.292 38.484,162.885 38.485,53.7 122.613,53.7 114.557,0 165.57,-76.074 51.014,-76.968 51.014,-254.173 v -470.759 h 272.968 v 1000.585 z m -406.32,-1110.667 v -24.165 q 153.936,-178.995 210.319,-269.388 h 306.083 v 18.794 q -46.539,46.539 -159.306,138.722 -111.872,91.288 -175.416,136.037 z"
             style="font-style:normal;font-weight:bold;font-size:medium;line-height:1.25;font-family:sans-serif;letter-spacing:0px;word-spacing:0px;fill:#334f7d;fill-opacity:1;stroke:none;stroke-width:45.82287216"
             id="path4815"
             inkscape:connector-curvature="0" /><path
             style="fill:#334f7d;fill-rule:nonzero;stroke-width:1.24140716"
             inkscape:connector-curvature="0"
             id="path4570"
             d="m -20318.082,13095.82 v 460.562 h -302.904 v -1339.478 h 472.977 c 337.662,0 506.494,142.762 506.494,427.044 0,135.314 -48.415,243.316 -145.245,326.49 -96.83,83.175 -225.936,125.382 -388.56,125.382 z m 0,-646.773 v 417.113 h 117.933 c 161.383,0 240.833,-70.76 240.833,-211.039 0,-137.796 -79.45,-206.074 -240.833,-206.074 z"
             class="fil2" /><path
             style="fill:#334f7d;fill-rule:nonzero;stroke-width:1.24140716"
             inkscape:connector-curvature="0"
             d="m -18563.974,12600.499 -388.56,1032.851 c -93.106,248.281 -233.385,372.422 -422.079,372.422 -70.76,0 -130.347,-7.449 -176.28,-23.587 v -235.867 c 39.725,23.586 81.933,34.759 127.865,34.759 75.726,0 129.107,-36.001 158.901,-108.002 l 50.897,-117.934 -388.56,-954.642 h 326.49 l 178.762,580.978 c 11.173,36.001 19.863,79.451 26.07,129.107 h 3.724 c 6.207,-37.242 16.139,-78.209 31.035,-126.624 l 180.004,-583.461 z"
             class="fil2"
             id="path4572" /><path
             style="fill:#334f7d;fill-rule:nonzero;stroke-width:1.24140716"
             inkscape:connector-curvature="0"
             d="m -18416.246,13556.382 v -1339.478 h 475.459 c 475.459,0 713.809,217.246 713.809,652.98 0,208.557 -65.795,374.905 -194.901,500.287 -130.348,124.141 -302.904,186.211 -518.908,186.211 z m 302.903,-1093.679 v 849.122 h 148.969 c 130.348,0 233.384,-39.725 307.869,-117.933 74.484,-78.209 111.726,-184.97 111.726,-320.284 0,-127.864 -37.242,-228.418 -110.485,-300.42 -74.484,-73.243 -177.521,-110.485 -311.593,-110.485 z"
             class="fil2"
             id="path4574" /><path
             style="fill:#334f7d;fill-rule:nonzero;stroke-width:1.24140716"
             inkscape:connector-curvature="0"
             d="m -16237.577,13556.382 h -279.316 v -136.554 h -4.966 c -63.312,106.761 -158.9,160.141 -284.282,160.141 -93.106,0 -166.349,-26.069 -219.729,-78.209 -52.139,-53.38 -79.45,-124.14 -79.45,-211.039 0,-186.211 110.485,-292.972 330.214,-321.524 l 259.454,-34.76 c 0,-104.278 -57.105,-156.417 -170.073,-156.417 -114.209,0 -222.212,33.518 -325.248,101.795 v -222.211 c 40.966,-21.104 98.071,-39.725 168.831,-55.864 70.76,-17.379 136.555,-24.828 194.901,-24.828 273.109,0 409.664,136.555 409.664,408.423 z m -278.075,-388.56 v -64.553 l -173.797,22.345 c -95.588,12.414 -144.003,55.863 -144.003,130.348 0,33.518 12.414,60.829 34.759,83.174 23.587,21.104 55.864,32.277 95.589,32.277 54.621,0 100.554,-19.863 135.313,-58.346 34.759,-38.484 52.139,-86.899 52.139,-145.245 z"
             class="fil2"
             id="path4576" /><path
             style="fill:#334f7d;fill-rule:nonzero;stroke-width:1.24140716"
             inkscape:connector-curvature="0"
             d="m -15094.241,12600.499 -388.56,1032.851 c -93.106,248.281 -233.385,372.422 -422.079,372.422 -70.76,0 -130.347,-7.449 -176.279,-23.587 v -235.867 c 39.725,23.586 81.932,34.759 127.865,34.759 75.725,0 129.106,-36.001 158.9,-108.002 l 50.897,-117.934 -388.56,-954.642 h 326.49 l 178.763,580.978 c 11.172,36.001 19.862,79.451 26.069,129.107 h 3.724 c 4.966,-37.242 16.139,-78.209 31.036,-126.624 l 180.004,-583.461 z"
             class="fil2"
             id="path4578" /><path
             style="fill:#334f7d;fill-rule:nonzero;stroke-width:1.24140716"
             inkscape:connector-curvature="0"
             d="m -14117.253,13095.82 v 460.562 h -301.662 v -1339.478 h 472.976 c 337.663,0 506.494,142.762 506.494,427.044 0,135.314 -48.415,243.316 -145.245,326.49 -96.829,83.175 -225.936,125.382 -388.56,125.382 z m 0,-646.773 v 417.113 h 119.175 c 160.141,0 240.833,-70.76 240.833,-211.039 0,-137.796 -80.692,-206.074 -240.833,-206.074 z"
             class="fil2"
             id="path4580" /><path
             style="fill:#334f7d;fill-rule:nonzero;stroke-width:1.24140716"
             inkscape:connector-curvature="0"
             d="m -12412.801,13162.856 h -624.428 c 9.931,139.038 98.071,208.557 263.178,208.557 105.52,0 197.384,-26.07 276.834,-75.726 v 213.522 c -88.14,47.173 -202.349,70.76 -343.87,70.76 -155.176,0 -274.351,-42.208 -360.008,-129.106 -85.657,-84.416 -127.865,-204.832 -127.865,-357.525 0,-158.901 45.932,-284.283 137.797,-377.388 93.105,-93.106 206.073,-139.038 340.145,-139.038 139.038,0 247.04,40.967 324.007,124.141 75.726,83.174 114.21,194.901 114.21,337.663 z m -273.11,-181.245 c 0,-137.796 -55.863,-206.074 -166.348,-206.074 -47.174,0 -89.382,19.863 -122.9,59.588 -34.759,38.483 -55.863,88.14 -63.311,146.486 z"
             class="fil2"
             id="path4582" /><path
             style="fill:#334f7d;fill-rule:nonzero;stroke-width:1.24140716"
             inkscape:connector-curvature="0"
             d="m -11613.335,12866.16 c -36.001,-18.621 -76.967,-28.552 -124.141,-28.552 -64.553,0 -114.209,23.586 -150.21,70.76 -36.001,47.173 -54.622,110.485 -54.622,191.177 v 456.837 h -294.213 v -955.883 h 294.213 v 177.521 h 3.724 c 47.174,-130.348 130.348,-194.901 252.006,-194.901 31.035,0 55.863,3.724 73.243,11.173 z"
             class="fil2"
             id="path4584" /></g><g
           transform="matrix(1.3002851,0,0,1.3002851,37319.183,496.83698)"
           id="g4813"><path
             class="fil5"
             d="m -18078.238,14692.335 h 430 v 186 h -675 v -77 c 0,-52 9,-98 27,-140 17,-41 39,-78 65,-111 27,-33 56,-62 87,-87 31,-26 61,-49 89,-69 30,-21 56,-42 78,-61 23,-19 41,-39 57,-58 15,-19 26,-38 34,-58 8,-20 12,-40 12,-63 0,-43 -13,-76 -37,-99 -25,-22 -62,-33 -113,-33 -87,0 -170,35 -250,104 v -197 c 88,-57 188,-86 298,-86 52,0 98,7 138,21 41,13 76,32 104,57 28,25 50,56 65,92 14,35 22,75 22,119 0,47 -7,89 -22,125 -14,37 -33,70 -57,100 -24,29 -51,57 -82,81 -31,25 -64,49 -97,72 -23,17 -44,33 -65,48 -21,16 -40,32 -56,47 -16,16 -29,31 -38,45 -9,15 -14,29 -14,42 z"
             id="path4805"
             inkscape:connector-curvature="0"
             style="fill:#ffc82a;fill-rule:nonzero" /><path
             id="path4807"
             class="fil5"
             d="m -17138.238,14896.335 c -242,0 -362,-170 -362,-510 0,-177 32,-311 98,-404 65,-92 160,-139 283,-139 236,0 354,173 354,519 0,172 -32,304 -97,396 -64,92 -156,138 -276,138 z m 10,-881 c -97,0 -145,121 -145,365 0,229 47,344 142,344 92,0 138,-118 138,-355 0,-236 -45,-354 -135,-354 z"
             inkscape:connector-curvature="0"
             style="fill:#ffc82a;fill-rule:nonzero" /><path
             id="path4809"
             class="fil5"
             d="m -16128.238,13838.335 v 1040 h -223 v -788 c -12,11 -27,21 -44,31 -16,10 -34,19 -53,26 -19,8 -38,15 -59,20 -20,6 -40,10 -60,12 v -189 c 58,-17 113,-38 164,-65 52,-27 98,-56 139,-87 z"
             inkscape:connector-curvature="0"
             style="fill:#ffc82a;fill-rule:nonzero" /><path
             id="path4811"
             class="fil5"
             d="m -15828.238,14604.335 c 0,-28 4,-56 13,-82 8,-26 20,-50 37,-73 16,-22 37,-43 62,-60 24,-18 53,-32 87,-44 -51,-26 -91,-58 -119,-98 -29,-40 -43,-84 -43,-133 0,-39 8,-75 25,-108 16,-33 38,-62 67,-86 29,-24 63,-43 103,-56 40,-14 83,-21 130,-21 48,0 92,7 132,21 40,13 75,32 104,56 29,24 51,52 67,85 16,32 24,68 24,106 0,48 -15,92 -45,131 -30,40 -72,73 -125,98 33,11 62,26 87,44 25,18 46,38 63,60 17,23 30,48 38,75 8,26 13,54 13,83 0,43 -9,83 -27,119 -17,35 -42,66 -73,92 -32,26 -70,46 -114,60 -44,14 -93,21 -146,21 -52,0 -100,-7 -144,-21 -44,-14 -82,-33 -114,-59 -32,-25 -57,-56 -75,-92 -18,-36 -27,-75 -27,-118 z m 212,-19 c 0,23 3,44 10,62 7,19 18,34 31,47 13,13 29,23 47,30 18,7 38,10 61,10 21,0 41,-3 59,-11 19,-7 34,-17 47,-30 14,-12 24,-28 32,-46 7,-19 11,-39 11,-62 0,-20 -4,-40 -11,-58 -7,-19 -17,-35 -30,-48 -13,-14 -29,-24 -47,-32 -18,-8 -39,-12 -61,-12 -21,0 -41,3 -60,10 -18,8 -34,18 -47,32 -13,13 -23,29 -31,48 -8,18 -11,38 -11,60 z m 31,-451 c 0,18 3,35 9,51 7,16 15,30 26,41 11,12 24,21 38,28 15,6 31,10 48,10 17,0 32,-4 47,-10 15,-7 27,-16 38,-28 11,-12 20,-26 27,-41 6,-16 9,-33 9,-51 0,-18 -3,-35 -9,-51 -6,-16 -15,-30 -26,-41 -11,-12 -24,-21 -39,-27 -14,-7 -30,-10 -47,-10 -18,0 -35,3 -49,10 -15,7 -28,16 -39,27 -10,12 -19,26 -24,42 -6,16 -9,32 -9,50 z"
             inkscape:connector-curvature="0"
             style="fill:#ffc82a;fill-rule:nonzero" /></g></g></g></g></svg>