<?xml version="1.0" encoding="UTF-8" standalone="no"?>
<!-- Creator: CorelDRAW X7 -->

<svg
   xmlns:dc="http://purl.org/dc/elements/1.1/"
   xmlns:cc="http://creativecommons.org/ns#"
   xmlns:rdf="http://www.w3.org/1999/02/22-rdf-syntax-ns#"
   xmlns:svg="http://www.w3.org/2000/svg"
   xmlns="http://www.w3.org/2000/svg"
   xmlns:sodipodi="http://sodipodi.sourceforge.net/DTD/sodipodi-0.dtd"
   xmlns:inkscape="http://www.inkscape.org/namespaces/inkscape"
   xml:space="preserve"
   width="1349.5493"
   height="492.50394"
   version="1.1"
   style="clip-rule:evenodd;fill-rule:evenodd;image-rendering:optimizeQuality;shape-rendering:geometricPrecision;text-rendering:geometricPrecision"
   viewBox="0 0 35706.824 13030.834"
   id="svg73"
   sodipodi:docname="pyday_imagotipo_horizontal.svg"
   inkscape:version="0.92.1 r15371"
   inkscape:export-filename="/home/zodiac/Development/softbutterfly/pythonperu.org-artwork/logo/pyday_imagotipo_horizontal.png"
   inkscape:export-xdpi="96"
   inkscape:export-ydpi="96"><metadata
     id="metadata77"><rdf:RDF><cc:Work
         rdf:about=""><dc:format>image/svg+xml</dc:format><dc:type
           rdf:resource="http://purl.org/dc/dcmitype/StillImage" /><dc:title /></cc:Work></rdf:RDF></metadata><sodipodi:namedview
     pagecolor="#ffffff"
     bordercolor="#666666"
     borderopacity="1"
     objecttolerance="10"
     gridtolerance="10"
     guidetolerance="10"
     inkscape:pageopacity="0"
     inkscape:pageshadow="2"
     inkscape:window-width="1366"
     inkscape:window-height="695"
     id="namedview75"
     showgrid="false"
     units="px"
     inkscape:zoom="0.6046463"
     inkscape:cx="674.77466"
     inkscape:cy="-59.915883"
     inkscape:window-x="0"
     inkscape:window-y="0"
     inkscape:window-maximized="1"
     inkscape:current-layer="svg73"
     showguides="true"
     fit-margin-top="0"
     fit-margin-left="0"
     fit-margin-right="0"
     fit-margin-bottom="0"
     inkscape:pagecheckerboard="false"
     showborder="true"
     inkscape:showpageshadow="false"
     borderlayer="false"
     inkscape:snap-bbox="true"
     inkscape:bbox-paths="true"
     inkscape:bbox-nodes="true"
     inkscape:snap-bbox-edge-midpoints="true"
     inkscape:snap-bbox-midpoints="true"
     inkscape:object-paths="false"
     inkscape:snap-intersection-paths="true"
     inkscape:snap-smooth-nodes="true"
     inkscape:snap-midpoints="true"
     inkscape:snap-object-midpoints="true"
     inkscape:snap-page="true"
     inkscape:snap-text-baseline="true"
     inkscape:snap-center="true" /><defs
     id="defs4"><style
       type="text/css"
       id="style2"><![CDATA[
    .fil0 {fill:#FEFEFE}
    .fil1 {fill:#FFC82A}
    .fil4 {fill:#FFC82A}
    .fil3 {fill:#334F7D}
    .fil5 {fill:#FFC82A;fill-rule:nonzero}
    .fil2 {fill:#334F7D;fill-rule:nonzero}
   ]]></style></defs><g
     id="g5333"
     transform="translate(1086.9597,-5774.7373)"><circle
       r="5291.6665"
       cy="12290.159"
       cx="5291.6665"
       id="path5033"
       style="fill:#ffffff;fill-opacity:1;stroke:none;stroke-width:28.46064377;stroke-opacity:1" /><path
       id="path4881"
       d="m 28.990477,12843.299 c 10.9982,212.596 188.519273,925.185 -98.598631,1180.238 -451.750126,401.298 -946.914146,-544.93 -559.294016,-549.993 132.00804,-1.725 -31.61747,129.687 128.31257,112.448 107.94894,-11.638 137.32174,-262.554 4.34084,-325.716 -394.29616,-187.278 -673.35024,230.107 -568.49244,551.232 367.27904,1124.776 1511.06555,613.721 1773.69017,1124.479 96.5173,189.744 548.50663,768.546 389.95033,1118.33 -249.47079,550.347 -1086.681168,-112.685 -734.63214,-274.97 119.89409,-55.268 23.89653,131.339 162.98746,50.539 93.88316,-54.538 18.65474,-295.698 -128.51929,-299.31 -436.379902,-10.713 -521.53016,484.076 -295.12409,734.788 793.01367,878.148 1630.03836,-53.962 2077.70256,305.821 165.3488,134.082 813.6917,479.014 811.1133,863.048 -4.0565,604.236 -1038.5551,339.04 -782.9496,47.594 87.0491,-99.255 75.1942,110.285 169.3953,-20.102 63.5839,-88.009 -103.1872,-277.736 -239.1068,-221.175 -403.0107,167.704 -279.5575,654.372 29.2489,791.321 1081.6289,479.681 1467.1623,-712.298 2022.4605,-565.702 205.5895,55.236 938.181,106.643 1092.0264,458.525 242.0591,553.647 -810.8921,732.155 -695.9266,361.942 39.1527,-126.08 113.5824,70.148 146.6061,-87.282 22.2904,-106.262 -207.2412,-211.754 -308.4049,-104.8 -299.9568,317.126 10.7468,711.51 348.5576,711.016 1183.2208,-1.727 1050.6074,-1247.463 1617.5238,-1339.401 210.2821,-33.16 900.4459,-284.155 1184.1139,-25.27 446.3205,407.328 -442.9959,998.676 -488.5492,613.709 -15.5136,-131.105 132.3073,17.88 98.4438,-139.371 -22.8579,-106.141 -275.4575,-109.141 -324.3731,29.714 -145.0374,411.712 299.2062,645.624 607.6117,507.773 1080.223,-482.838 452.4049,-1566.964 932.9144,-1881.539 178.6149,-115.822 707.0175,-625.849 1071.4591,-504.724 573.4096,190.577 1.516,1092.542 -196.6804,759.385 -67.4976,-113.46 128.1239,-37.497 33.2279,-167.38 -64.053,-87.668 -296.011,12.314 -284.2204,159.06 34.9602,435.109 535.9344,468.104 761.6073,216.731 790.4452,-880.46 -224.0462,-1615.45 86.9715,-2098.27 116.064,-178.458 391.3447,-859.318 773.5447,-896.896 601.35,-59.125 445.707,997.441 129.139,773.7 -107.81,-76.197 101.848,-86.342 -37.672,-166.398 -94.173,-54.036 -265.433,131.651 -194.975,260.914 208.913,383.273 680.012,209.654 783.931,-111.776 363.993,-1125.844 -861.758,-1384.652 -774.009,-1952.232 h -936.5839 a 4365.6249,4365.6249 0 0 1 -4326.0925,3812.48 4365.6249,4365.6249 0 0 1 -4325.00728,-3812.48 z"
       style="fill:#334f7d;fill-opacity:1;stroke:none;stroke-width:57.94020462;stroke-opacity:1"
       inkscape:connector-curvature="0" /><path
       id="path4851"
       d="m 5808.9992,5774.7378 c -1183.2208,1.7277 -1050.6074,1247.4639 -1617.5238,1339.4015 -210.2821,33.1597 -900.4459,284.1551 -1184.1139,25.2699 -446.3203,-407.3279 442.9959,-998.6767 488.5492,-613.7095 15.5136,131.1052 -132.3075,-17.8798 -98.4438,139.3713 22.8576,106.1416 275.4575,109.1407 324.3731,-29.7137 145.0374,-411.7118 -299.2059,-645.6236 -607.6117,-507.7727 -1080.2227,482.8375 -452.4049,1566.964 -932.9145,1881.5388 -178.6149,115.8221 -707.0174,625.8491 -1071.4591,504.7237 -573.40927,-190.5773 -1.5147,-1092.5421 196.6805,-759.3852 67.4975,113.46 -128.1238,37.4976 -33.2279,167.38 64.053,87.6683 296.0109,-12.3145 284.2204,-159.0601 -34.9601,-435.1094 -535.9345,-468.1035 -761.60731,-216.7308 -790.4453124,880.4605 224.04671,1615.4505 -86.97142,2098.2699 -116.06379,178.458 -391.34436,859.3181 -773.544508,896.8961 -601.350202,59.125 -445.706752,-997.4404 -129.139402,-773.6995 107.810297,76.1968 -101.84758,86.342 37.67212,166.398 94.173197,54.0362 265.43321,-131.6513 194.975172,-260.9143 C -170.00014,9289.7284 -641.09914,9463.3475 -745.01911,9784.7773 -1109.0112,10910.622 116.73939,11169.429 28.990477,11737.01 H 965.57414 A 4365.6249,4365.6249 0 0 1 5291.6666,7924.5292 4365.6249,4365.6249 0 0 1 9616.6738,11737.01 h 937.6692 c -10.998,-212.596 -188.52,-925.186 98.598,-1180.239 451.75,-401.298 946.914,544.929 559.294,549.993 -132.008,1.725 31.618,-129.688 -128.312,-112.448 -107.949,11.638 -137.322,262.554 -4.341,325.716 394.296,187.278 673.35,-230.107 568.492,-551.232 -367.279,-1124.776 -1511.065,-613.72 -1773.6897,-1124.4791 -96.5174,-189.7433 -548.5067,-768.5458 -389.9503,-1118.3297 249.4708,-550.3474 1086.681,112.6852 734.632,274.9703 -119.894,55.2678 -23.896,-131.3394 -162.987,-50.5396 -93.8835,54.5383 -18.655,295.697 128.519,299.3099 436.38,10.7129 521.53,-484.0743 295.124,-734.7874 -793.0138,-878.1483 -1630.0385,53.9618 -2077.7027,-305.821 -165.3487,-134.0818 -813.6916,-479.0138 -811.1132,-863.0481 4.0565,-604.2363 1038.5551,-339.04 782.9497,-47.594 -87.049,99.255 -75.1944,-110.2852 -169.3956,20.1022 -63.5838,88.0092 103.1873,277.7355 239.1069,221.175 403.0107,-167.7051 279.5574,-654.372 -29.2489,-791.3211 -1081.6288,-479.6811 -1467.1622,712.2983 -2022.4604,565.7019 -205.5895,-55.2365 -938.181,-106.6435 -1092.0264,-458.525 -242.0591,-553.6472 810.8921,-732.155 695.9266,-361.9418 -39.1525,126.0798 -113.5824,-70.1482 -146.6061,87.2816 -22.2904,106.2622 207.2412,211.7539 308.4049,104.7998 299.9566,-317.1253 -10.7468,-711.5095 -348.5576,-711.0161 z"
       style="fill:#ffc82a;fill-opacity:1;stroke:none;stroke-width:57.94020462;stroke-opacity:1"
       inkscape:connector-curvature="0" /></g><g
     id="g5325"
     transform="translate(1086.9597,-5379.7296)"><g
       transform="translate(18544.016,-98.466085)"
       id="g4972"><path
         class="fil3"
         d="m -13855.911,10868.605 c -172.318,0 -273.157,-199.124 -154.448,-339.532 105.944,-123.815 349.743,-57.44 349.743,135.302 0,103.391 -89.35,204.23 -195.295,204.23 z m -478.663,-195.295 v 478.663 h 1074.759 v 127.644 h -1475.56 c -271.88,0 -474.834,140.408 -579.501,308.897 -140.408,227.206 -173.596,576.949 -173.596,853.936 0,245.075 90.627,656.088 223.377,823.301 l 107.22,107.22 c 155.725,139.132 458.241,105.944 666.3,105.944 48.504,0 29.358,-119.985 29.358,-215.717 0,-371.443 -31.911,-520.786 227.205,-778.626 30.635,-30.634 109.774,-85.521 151.896,-103.391 158.278,-70.204 223.376,-65.098 441.647,-65.098 181.254,0 882.017,11.488 999.449,-8.935 278.263,-47.229 467.175,-271.881 467.175,-548.868 v -1016.043 c 0,-251.457 -164.66,-419.947 -335.702,-505.468 -302.516,-151.896 -1447.478,-183.807 -1729.571,131.473 -57.439,65.098 -94.456,186.359 -94.456,305.068 z"
         id="path4968"
         inkscape:connector-curvature="0"
         style="fill:#334f7d;stroke-width:1.27643561" /><path
         class="fil4"
         d="m -12634.362,14289.452 c -68.927,0 -113.602,-6.382 -163.383,-61.269 -104.668,-114.879 -45.952,-339.532 153.172,-339.532 254.011,0 254.011,400.801 10.211,400.801 z m 585.884,-2512.025 c 0,352.296 -319.109,657.364 -634.388,665.023 h -870.529 c -276.987,0 -467.176,-22.976 -661.194,208.059 -57.44,67.651 -119.985,199.124 -119.985,320.385 v 1064.547 c 0,439.094 661.194,616.519 986.685,616.519 303.792,0 560.355,-20.423 824.577,-153.173 417.395,-209.335 348.467,-431.435 348.467,-893.504 h -1074.759 v -126.368 h 1601.927 c 376.549,0 505.469,-361.231 587.16,-673.958 105.945,-409.735 21.7,-1125.816 -251.457,-1400.249 -72.757,-72.757 -185.084,-125.091 -325.491,-125.091 h -411.013 z"
         id="path4970"
         inkscape:connector-curvature="0"
         style="fill:#ffc82a;stroke-width:1.27643561" /></g><g
       id="g5008"
       transform="translate(-7668.1677,5089.8373)"><path
         class="fil0"
         d="m 12589.223,4954.8024 c 75.31,15.3172 127.644,59.9924 153.172,82.9683 26.806,22.9758 89.351,57.4396 113.603,131.4729 24.252,75.3097 24.252,113.6027 19.147,187.636 -6.382,72.7568 -72.757,515.68 -72.757,515.68 0,0 -2.553,231.0348 35.74,299.9623 38.293,68.9276 74.033,149.343 181.254,205.5062 105.944,56.1631 273.157,112.3263 356.125,28.0816 81.692,-84.2448 112.327,-86.7977 167.214,-254.0107 56.163,-167.2131 90.626,-321.6618 162.107,-394.4186 71.48,-72.7569 145.514,-93.1798 201.677,-68.9276 56.163,24.2523 144.237,81.6919 144.237,81.6919 0,0 -24.252,-223.3762 35.74,-416.118 59.993,-192.7418 30.635,-150.6194 116.156,-331.8732 86.797,-179.9775 181.254,-248.905 246.352,-280.8159 65.098,-33.1873 131.473,-57.4396 131.473,-57.4396 -179.978,-330.5968 -811.813,-640.7706 -1280.265,-504.192 -216.994,62.5453 -390.589,195.2946 -524.615,388.0364 -125.091,178.701 -186.36,386.76 -186.36,386.76 z"
         id="path4974"
         inkscape:connector-curvature="0"
         style="fill:#fefefe;stroke-width:1.27643561" /><path
         class="fil1"
         d="m 12639.004,4892.257 c 1.277,39.5695 -39.569,-2.5528 66.375,58.7161 25.529,14.0408 56.163,35.7402 80.415,54.8867 261.67,219.5469 91.904,527.1679 77.863,865.4233 -5.106,123.8143 10.211,236.1406 72.757,330.5969 59.992,91.9033 182.53,188.9124 310.174,179.9774 385.483,-30.6345 200.4,-942.0095 763.308,-708.4218 14.041,-26.8051 7.659,-136.5786 0,-165.9366 l -205.506,-53.6103 c -53.61,-14.0408 -158.278,-58.716 -208.059,-66.3747 -67.651,71.4804 -140.408,499.0864 -233.588,648.4293 -103.391,163.3838 -479.94,172.3188 -349.743,-467.1754 20.423,-97.0091 54.887,-228.482 57.439,-319.1089 5.106,-128.92 -37.016,-157.0016 -134.025,-227.2055 -80.416,-58.7161 -130.197,-88.0741 -215.718,-121.2614 -93.18,-37.0167 -71.48,-12.7644 -81.692,-8.9351 z"
         id="path4976"
         inkscape:connector-curvature="0"
         style="fill:#ffc82a;stroke-width:1.27643561" /><path
         class="fil3"
         d="m 12686.232,4793.9715 c 105.944,112.3263 1148.792,656.0879 1322.388,639.4942 21.699,-20.4229 12.764,-65.0982 17.87,-99.562 5.105,-40.8459 25.528,-81.6918 29.358,-121.2613 -238.694,-108.4971 -414.842,-151.8959 -673.958,-285.9216 -107.221,-56.1632 -202.954,-103.3913 -301.239,-158.278 -52.334,-30.6345 -90.627,-54.8868 -141.684,-86.7976 -40.846,-24.2523 -97.01,-70.204 -134.026,-88.0741 -29.358,22.9758 -99.562,151.8958 -118.709,200.4004 z"
         id="path4978"
         inkscape:connector-curvature="0"
         style="fill:#334f7d;stroke-width:1.27643561" /><path
         class="fil3"
         d="m 13537.615,5355.6032 -422.5,-210.6119 c 26.805,303.7917 -111.05,718.6332 -24.253,859.0411 45.952,72.7569 132.75,85.5212 187.636,37.0167 91.904,-81.6919 123.815,-359.9549 155.726,-463.3462 49.781,-159.5544 84.244,-168.4895 103.391,-222.0997 z"
         id="path4980"
         inkscape:connector-curvature="0"
         style="fill:#334f7d;stroke-width:1.27643561" /><path
         class="fil3"
         d="m 13547.826,4191.4939 c 5.106,70.2039 208.059,292.3037 276.987,361.2313 112.326,111.0499 251.458,228.4819 414.841,311.4502 88.074,-107.2205 8.935,-28.0815 -80.415,-237.417 -40.846,-94.4562 -52.334,-168.4895 -42.122,-291.0273 -125.091,-53.6103 -439.094,-179.9774 -569.291,-144.2372 z"
         id="path4982"
         inkscape:connector-curvature="0"
         style="fill:#334f7d;stroke-width:1.27643561" /><path
         class="fil4"
         d="m 14082.653,5155.2028 20.423,-48.5046 c -34.464,-37.0166 -785.008,-427.6059 -924.14,-497.8099 -52.333,-25.5287 -104.667,-53.6103 -153.172,-82.9683 -40.846,-24.2523 -119.985,-89.3505 -153.172,-43.3988 -88.074,121.2614 409.736,349.7434 492.704,384.2071 241.246,99.562 462.07,201.6768 717.357,288.4745 z"
         id="path4984"
         inkscape:connector-curvature="0"
         style="fill:#ffc82a;stroke-width:1.27643561" /><path
         class="fil3"
         d="m 13287.433,4603.7826 555.25,297.4095 -3.829,-163.3838 c -1.277,-33.1873 3.829,-24.2523 -12.765,-47.2281 -42.122,1.2764 -62.545,30.6345 -107.22,52.3339 -31.911,15.3172 -85.522,37.0166 -118.709,0 -54.887,-62.5454 33.187,-225.9291 19.147,-278.263 -34.464,-7.6586 -128.92,48.5046 -165.937,65.0982 -30.634,14.0408 -150.619,58.7161 -165.937,74.0333 z"
         id="path4986"
         inkscape:connector-curvature="0"
         style="fill:#334f7d;stroke-width:1.27643561" /><path
         class="fil1"
         d="m 13287.433,4555.278 c 42.123,-2.5528 276.987,-109.7734 310.174,-137.855 l -140.408,-206.7826 c -82.968,29.358 -255.287,256.5636 -169.766,344.6376 z"
         id="path4988"
         inkscape:connector-curvature="0"
         style="fill:#ffc82a;stroke-width:1.27643561" /><path
         class="fil3"
         d="m 12986.195,4413.5937 c 40.846,51.0574 139.131,114.8792 214.441,145.5136 53.61,-222.0998 29.358,-177.4245 179.977,-348.4669 -88.074,-8.935 -339.532,128.92 -394.418,202.9533 z"
         id="path4990"
         inkscape:connector-curvature="0"
         style="fill:#334f7d;stroke-width:1.27643561" /><path
         class="fil1"
         d="m 13641.006,4722.4911 c 31.911,-5.1057 139.132,-53.6103 173.595,-72.7568 l -29.358,-39.5695 c -14.04,-14.0408 -24.252,-24.2523 -37.016,-35.7402 -26.805,-26.8052 -44.676,-52.3339 -81.692,-71.4804 -34.464,86.7976 -43.399,153.1722 -25.529,219.5469 z"
         id="path4992"
         inkscape:connector-curvature="0"
         style="fill:#ffc82a;stroke-width:1.27643561" /><path
         class="fil3"
         d="m 14387.721,4713.556 c 22.976,-2.5528 111.05,-43.3988 126.367,-53.6102 -49.781,-49.781 -98.285,-114.8793 -167.213,-160.8309 -40.846,94.4562 -17.87,154.4487 40.846,214.4411 z"
         id="path4994"
         inkscape:connector-curvature="0"
         style="fill:#334f7d;stroke-width:1.27643561" /><path
         class="fil1"
         d="m 13914.163,4897.3628 c 45.952,-6.3822 97.009,-34.4638 131.473,-74.0333 -7.658,-8.935 -134.026,-102.1148 -154.449,-113.6028 -15.317,61.2689 -15.317,145.5137 22.976,187.6361 z"
         id="path4996"
         inkscape:connector-curvature="0"
         style="fill:#ffc82a;stroke-width:1.27643561" /><path
         class="fil1"
         d="m 14286.883,4695.6859 c -8.936,-80.4154 -54.887,-102.1148 -16.594,-259.1164 l -93.18,-59.9925 c -1.276,93.1798 33.187,257.84 109.774,319.1089 z"
         id="path4998"
         inkscape:connector-curvature="0"
         style="fill:#ffc82a;stroke-width:1.27643561" /><path
         class="fil3"
         d="m 13934.586,4945.8673 c 25.529,28.0816 84.245,49.781 130.197,67.6511 -8.935,-65.0982 -25.529,-57.4396 -5.106,-128.92 z"
         id="path5000"
         inkscape:connector-curvature="0"
         style="fill:#334f7d;stroke-width:1.27643561" /><path
         style="fill:#334f7d;stroke-width:1.27643561"
         inkscape:connector-curvature="0"
         id="path5002"
         d="m 14539.617,4709.7268 c 163.384,173.5952 301.239,229.7584 117.432,391.8657 44.675,-105.9441 -77.863,-261.6693 -117.432,-391.8657 z"
         class="fil3" /><path
         style="fill:#334f7d;stroke-width:1.27643561"
         inkscape:connector-curvature="0"
         id="path5004"
         d="m 14500.047,4723.7676 c -103.391,213.1647 -218.27,308.8974 5.106,408.4594 -74.033,-88.0741 -2.553,-271.8808 -5.106,-408.4594 z"
         class="fil3" /><path
         style="fill:#334f7d;stroke-width:1.27643561"
         inkscape:connector-curvature="0"
         id="path5006"
         d="m 14530.682,4795.248 c -70.204,274.4336 20.423,328.0439 71.48,384.2071 65.098,-82.9683 22.976,-250.1814 -71.48,-384.2071 z"
         class="fil3" /></g></g><g
     id="g4573"
     transform="translate(1322.9202,-1601.6115)"><text
       id="text4512"
       y="7657.0649"
       x="12440.557"
       style="font-style:normal;font-weight:normal;font-size:754.03735352px;line-height:1.25;font-family:sans-serif;letter-spacing:0px;word-spacing:0px;fill:#646464;fill-opacity:1;stroke:none;stroke-width:18.85093307"
       xml:space="preserve"><tspan
         id="tspan4537"
         style="font-style:normal;font-variant:normal;font-weight:500;font-stretch:normal;font-size:5026.91552734px;font-family:Flux;-inkscape-font-specification:'Flux Medium';fill:#646464;fill-opacity:1;stroke-width:18.85093307"
         y="7657.0649"
         x="12440.557"
         sodipodi:role="line">pyday perú</tspan></text>
<text
       id="text4512-3"
       y="12040.536"
       x="26641.514"
       style="font-style:normal;font-weight:normal;font-size:754.03747559px;line-height:1.25;font-family:sans-serif;letter-spacing:0px;word-spacing:0px;clip-rule:evenodd;fill:#ffc82a;fill-opacity:1;fill-rule:evenodd;stroke:none;stroke-width:18.85093498;image-rendering:optimizeQuality;shape-rendering:geometricPrecision;text-rendering:geometricPrecision"
       xml:space="preserve"><tspan
         id="tspan4537-5"
         style="font-style:normal;font-variant:normal;font-weight:500;font-stretch:normal;font-size:5026.91601562px;font-family:Flux;-inkscape-font-specification:'Flux Medium';fill:#ffc82a;fill-opacity:1;stroke-width:18.85093498"
         y="12040.536"
         x="26641.514"
         sodipodi:role="line">2018</tspan></text>
</g></svg>