<?xml version="1.0" encoding="UTF-8" standalone="no"?>
<!-- Creator: CorelDRAW X7 -->

<svg
   xmlns:dc="http://purl.org/dc/elements/1.1/"
   xmlns:cc="http://creativecommons.org/ns#"
   xmlns:rdf="http://www.w3.org/1999/02/22-rdf-syntax-ns#"
   xmlns:svg="http://www.w3.org/2000/svg"
   xmlns="http://www.w3.org/2000/svg"
   xmlns:sodipodi="http://sodipodi.sourceforge.net/DTD/sodipodi-0.dtd"
   xmlns:inkscape="http://www.inkscape.org/namespaces/inkscape"
   xml:space="preserve"
   width="795.13696"
   height="160.50667"
   version="1.1"
   style="clip-rule:evenodd;fill-rule:evenodd;image-rendering:optimizeQuality;shape-rendering:geometricPrecision;text-rendering:geometricPrecision"
   viewBox="0 0 21037.998 4246.7391"
   id="svg73"
   sodipodi:docname="python_peru_logotipo.svg"
   inkscape:version="0.92.1 r15371"
   inkscape:export-filename="/home/zodiac/Development/softbutterfly/pythonperu.org-artwork/logo/python_peru_logotipo.png"
   inkscape:export-xdpi="96"
   inkscape:export-ydpi="96"><metadata
     id="metadata77"><rdf:RDF><cc:Work
         rdf:about=""><dc:format>image/svg+xml</dc:format><dc:type
           rdf:resource="http://purl.org/dc/dcmitype/StillImage" /><dc:title /></cc:Work></rdf:RDF></metadata><sodipodi:namedview
     pagecolor="#ffffff"
     bordercolor="#666666"
     borderopacity="1"
     objecttolerance="10"
     gridtolerance="10"
     guidetolerance="10"
     inkscape:pageopacity="0"
     inkscape:pageshadow="2"
     inkscape:window-width="1366"
     inkscape:window-height="695"
     id="namedview75"
     showgrid="false"
     units="px"
     inkscape:zoom="0.49851028"
     inkscape:cx="-669.08096"
     inkscape:cy="67.700565"
     inkscape:window-x="0"
     inkscape:window-y="0"
     inkscape:window-maximized="1"
     inkscape:current-layer="svg73"
     showguides="true"
     fit-margin-top="0"
     fit-margin-left="0"
     fit-margin-right="0"
     fit-margin-bottom="0"
     inkscape:pagecheckerboard="false"
     showborder="true"
     inkscape:showpageshadow="false"
     borderlayer="false"
     inkscape:snap-bbox="true"
     inkscape:bbox-paths="true"
     inkscape:bbox-nodes="true"
     inkscape:snap-bbox-edge-midpoints="true"
     inkscape:snap-bbox-midpoints="true"
     inkscape:object-paths="false"
     inkscape:snap-intersection-paths="true"
     inkscape:snap-smooth-nodes="true"
     inkscape:snap-midpoints="true"
     inkscape:snap-object-midpoints="true"
     inkscape:snap-page="true"
     inkscape:snap-text-baseline="true"
     inkscape:snap-center="true"
     inkscape:guide-bbox="true"><sodipodi:guide
       position="-11386.766,4077.855"
       orientation="0,1"
       id="guide4561"
       inkscape:locked="false" /><sodipodi:guide
       position="-17702.667,-433.50284"
       orientation="0,1"
       id="guide4563"
       inkscape:locked="false" /></sodipodi:namedview><defs
     id="defs4"><style
       type="text/css"
       id="style2"><![CDATA[
    .fil0 {fill:#FEFEFE}
    .fil1 {fill:#FFC82A}
    .fil4 {fill:#FFC82A}
    .fil3 {fill:#334F7D}
    .fil5 {fill:#FFC82A;fill-rule:nonzero}
    .fil2 {fill:#334F7D;fill-rule:nonzero}
   ]]></style></defs><g
     aria-label="python perú"
     style="font-style:normal;font-weight:normal;font-size:1058.33337402px;line-height:1.25;font-family:sans-serif;letter-spacing:0px;word-spacing:0px;fill:#646464;fill-opacity:1;stroke:none;stroke-width:26.45833206"
     id="text4559"
     transform="translate(-9582.2229,-4476.1308)"><path
       d="m 10526.962,5618.0725 c 545.747,-9.1722 793.397,504.4723 797.983,1086.9084 0,513.6445 -256.822,995.1862 -807.155,1013.5306 -224.72,0 -417.337,-68.7917 -605.3671,-183.4444 v 1187.8028 l -330.2,-119.2389 4.5861,-2637.014 c -4.5861,0 256.8222,-343.9584 935.567,-353.1306 z m -82.55,1861.9612 c 440.266,-27.5167 495.3,-458.6111 495.3,-797.9834 0,-330.2 -55.034,-825.5 -472.37,-843.8444 -284.339,-18.3445 -513.6441,114.6527 -559.5052,160.5139 v 1307.0417 c 110.0662,68.7917 330.2002,188.0305 536.5752,174.2722 z"
       style="font-style:normal;font-variant:normal;font-weight:normal;font-stretch:normal;font-size:4586.11132812px;font-family:flux;-inkscape-font-specification:flux;fill:#646464;fill-opacity:1;stroke-width:26.45833206"
       id="path4565"
       inkscape:connector-curvature="0" /><path
       d="M 12214.651,7021.4226 V 5613.4864 l -339.372,114.6528 V 7122.317 c 0,371.475 343.958,587.0223 646.641,587.0223 394.406,0 619.125,-110.0667 720.02,-155.9278 4.586,50.4472 0,36.6889 0,87.1361 0,146.7556 -4.586,398.9917 -73.378,527.4028 -137.583,261.4084 -504.472,298.0973 -761.295,334.7861 l 55.034,210.9612 c 339.372,-9.1723 816.328,-137.5834 986.014,-458.6112 96.308,-183.4444 110.066,-536.575 110.066,-770.4667 V 5663.9336 h -334.786 v 1637.2418 c -110.066,73.3778 -311.855,174.2722 -490.714,178.8583 -298.097,4.5861 -518.23,-155.9278 -518.23,-463.1972 z"
       style="font-style:normal;font-variant:normal;font-weight:normal;font-stretch:normal;font-size:4586.11132812px;font-family:flux;-inkscape-font-specification:flux;fill:#646464;fill-opacity:1;stroke-width:26.45833206"
       id="path4567"
       inkscape:connector-curvature="0" /><path
       d="m 14170.054,5879.4809 v 1316.2139 c 0,343.9584 265.994,545.7473 710.847,504.4723 v -174.2723 c -233.892,-9.1722 -376.061,-73.3778 -376.061,-339.3722 V 5879.4809 h 376.061 v -215.5473 h -376.061 v -678.7444 l -334.786,119.2388 v 559.5056 h -229.306 v 215.5473 z"
       style="font-style:normal;font-variant:normal;font-weight:normal;font-stretch:normal;font-size:4586.11132812px;font-family:flux;-inkscape-font-specification:flux;fill:#646464;fill-opacity:1;stroke-width:26.45833206"
       id="path4569"
       inkscape:connector-curvature="0" /><path
       d="m 17010.434,7672.6504 v -1398.764 c 0,-348.5444 -238.478,-623.7111 -596.195,-623.7111 -270.581,0 -499.886,87.1361 -701.675,233.8917 V 4476.1308 l -334.786,105.4806 v 3091.039 h 334.786 V 6122.5448 c 169.686,-119.2389 362.303,-243.0639 573.264,-243.0639 270.581,0 385.233,265.9944 385.233,499.8861 v 1293.2834 z"
       style="font-style:normal;font-variant:normal;font-weight:normal;font-stretch:normal;font-size:4586.11132812px;font-family:flux;-inkscape-font-specification:flux;fill:#646464;fill-opacity:1;stroke-width:26.45833206"
       id="path4571"
       inkscape:connector-curvature="0" /><path
       d="m 17417.236,6631.6031 c 0,554.9195 293.511,1077.7362 912.636,1082.3223 623.711,-4.5861 926.394,-527.4028 926.394,-1082.3223 -4.586,-541.1611 -343.958,-1013.5306 -921.808,-1018.1167 -573.264,4.5861 -917.222,476.9556 -917.222,1018.1167 z m 362.303,0 c 0,-362.3028 91.722,-761.2945 550.333,-788.8111 431.094,22.9305 559.506,426.5083 559.506,788.8111 0,385.2334 -82.55,862.1889 -550.334,875.9473 -431.094,-4.5861 -554.919,-490.7139 -554.919,-875.9473 z"
       style="font-style:normal;font-variant:normal;font-weight:normal;font-stretch:normal;font-size:4586.11132812px;font-family:flux;-inkscape-font-specification:flux;fill:#646464;fill-opacity:1;stroke-width:26.45833206"
       id="path4573"
       inkscape:connector-curvature="0" /><path
       d="M 21335.065,7672.6504 V 6136.3031 c 0,-270.5806 -215.548,-444.8528 -458.612,-499.8861 -238.477,-55.0334 -463.197,-9.1723 -628.297,36.6889 -210.961,55.0333 -362.303,151.3416 -531.989,275.1666 v 1724.3779 h 334.786 V 5989.5475 c 105.481,-73.3777 275.167,-151.3416 454.025,-155.9278 293.512,-4.5861 495.3,165.1001 495.3,472.3695 v 1366.6612 z"
       style="font-style:normal;font-variant:normal;font-weight:normal;font-stretch:normal;font-size:4586.11132812px;font-family:flux;-inkscape-font-specification:flux;fill:#646464;fill-opacity:1;stroke-width:26.45833206"
       id="path4575"
       inkscape:connector-curvature="0" /><path
       d="m 24177.809,5618.0725 c 545.748,-9.1722 793.398,504.4723 797.984,1086.9084 0,513.6445 -256.822,995.1862 -807.156,1013.5306 -224.719,0 -417.336,-68.7917 -605.366,-183.4444 v 1187.8028 l -330.2,-119.2389 4.586,-2637.014 c -4.586,0 256.822,-343.9584 935.566,-353.1306 z m -82.55,1861.9612 c 440.267,-27.5167 495.3,-458.6111 495.3,-797.9834 0,-330.2 -55.033,-825.5 -472.369,-843.8444 -284.339,-18.3445 -513.644,114.6527 -559.506,160.5139 v 1307.0417 c 110.067,68.7917 330.2,188.0305 536.575,174.2722 z"
       style="font-style:normal;font-variant:normal;font-weight:normal;font-stretch:normal;font-size:4586.11132812px;font-family:flux;-inkscape-font-specification:flux;fill:#646464;fill-opacity:1;stroke-width:26.45833206"
       id="path4577"
       inkscape:connector-curvature="0" /><path
       d="m 27025.784,7489.2059 -77.964,-160.5139 c -169.686,82.55 -334.786,160.5139 -564.092,165.1 -376.061,13.7584 -642.056,-339.3722 -605.367,-862.1889 h 1229.078 c -9.172,-619.125 -215.547,-1004.3584 -775.053,-1004.3584 -587.022,0 -802.569,545.7473 -807.155,1073.1501 0,339.3722 132.997,655.8139 353.13,843.8445 238.478,201.7889 614.539,197.2028 903.464,114.6528 132.997,-41.275 238.478,-100.8945 343.959,-169.6862 z m -357.717,-1054.8056 h -880.533 c 22.93,-288.925 137.583,-600.7806 458.611,-600.7806 298.097,0 426.508,311.8556 426.508,605.3667 z"
       style="font-style:normal;font-variant:normal;font-weight:normal;font-stretch:normal;font-size:4586.11132812px;font-family:flux;-inkscape-font-specification:flux;fill:#646464;fill-opacity:1;stroke-width:26.45833206"
       id="path4579"
       inkscape:connector-curvature="0" /><path
       d="m 28335.549,5865.7225 c 45.861,0 123.825,13.7584 188.03,27.5167 36.689,-82.55 91.723,-188.0306 132.998,-270.5806 -279.753,-50.4472 -472.37,-4.5861 -674.159,68.7917 -188.03,64.2056 -353.13,174.2722 -476.955,311.8556 v 1669.3445 h 334.786 V 6049.167 c 119.239,-100.8945 270.58,-183.4445 490.714,-183.4445 z"
       style="font-style:normal;font-variant:normal;font-weight:normal;font-stretch:normal;font-size:4586.11132812px;font-family:flux;-inkscape-font-specification:flux;fill:#646464;fill-opacity:1;stroke-width:26.45833206"
       id="path4581"
       inkscape:connector-curvature="0" /><path
       d="m 28969.221,5728.1392 v 1403.3501 c 0,398.9916 348.545,577.85 651.228,577.85 394.406,0 720.02,-128.4111 999.772,-330.2 v -1728.964 h -334.786 v 1683.1029 c -110.066,73.3777 -275.166,155.9277 -454.025,160.5138 -293.511,4.5862 -518.23,-169.6861 -518.23,-476.9555 V 5613.4864 Z m 431.095,-380.6473 880.533,-435.6805 -132.997,-270.5806 -908.05,541.1611 z"
       style="font-style:normal;font-variant:normal;font-weight:normal;font-stretch:normal;font-size:4586.11132812px;font-family:flux;-inkscape-font-specification:flux;fill:#646464;fill-opacity:1;stroke-width:26.45833206"
       id="path4583"
       inkscape:connector-curvature="0" /></g></svg>