<?xml version="1.0" encoding="UTF-8" standalone="no"?>
<!-- Created with Inkscape (http://www.inkscape.org/) -->

<svg
   xmlns:dc="http://purl.org/dc/elements/1.1/"
   xmlns:cc="http://creativecommons.org/ns#"
   xmlns:rdf="http://www.w3.org/1999/02/22-rdf-syntax-ns#"
   xmlns:svg="http://www.w3.org/2000/svg"
   xmlns="http://www.w3.org/2000/svg"
   xmlns:sodipodi="http://sodipodi.sourceforge.net/DTD/sodipodi-0.dtd"
   xmlns:inkscape="http://www.inkscape.org/namespaces/inkscape"
   version="1.1"
   id="svg2"
   xml:space="preserve"
   width="1024"
   height="963.58398"
   viewBox="0 0 1024 963.58399"
   sodipodi:docname="iPhone 6 Flat Mockup - Silver.svg"
   inkscape:version="0.92.1 r15371"><metadata
     id="metadata8"><rdf:RDF><cc:Work
         rdf:about=""><dc:format>image/svg+xml</dc:format><dc:type
           rdf:resource="http://purl.org/dc/dcmitype/StillImage" /><dc:title></dc:title></cc:Work></rdf:RDF></metadata><defs
     id="defs6"><clipPath
       clipPathUnits="userSpaceOnUse"
       id="clipPath116"><path
         d="m 4340,295 c 0,-96.648 -78.35,-175 -175,-175 -96.65,0 -175,78.352 -175,175 0,96.652 78.35,175 175,175 96.65,0 175,-78.348 175,-175 z"
         id="path114"
         inkscape:connector-curvature="0" /></clipPath><linearGradient
       x1="0"
       y1="0"
       x2="1"
       y2="0"
       gradientUnits="userSpaceOnUse"
       gradientTransform="matrix(-25.507072,44.179674,44.179674,25.507072,619.72062,20.900675)"
       spreadMethod="pad"
       id="linearGradient132"><stop
         style="stop-opacity:1;stop-color:#9e9fa1"
         offset="0"
         id="stop118" /><stop
         style="stop-opacity:1;stop-color:#d5d6d9"
         offset="0.24704455"
         id="stop120" /><stop
         style="stop-opacity:1;stop-color:#d5d6d9"
         offset="0.34"
         id="stop122" /><stop
         style="stop-opacity:1;stop-color:#d5d6d9"
         offset="0.36831646"
         id="stop124" /><stop
         style="stop-opacity:1;stop-color:#d5d6d9"
         offset="0.635"
         id="stop126" /><stop
         style="stop-opacity:1;stop-color:#d5d6d9"
         offset="0.70587287"
         id="stop128" /><stop
         style="stop-opacity:1;stop-color:#9e9fa1"
         offset="1"
         id="stop130" /></linearGradient><clipPath
       clipPathUnits="userSpaceOnUse"
       id="clipPath184"><path
         d="m 1130,260 c 0,-88.371 -71.63,-160 -160,-160 -88.367,0 -160,71.629 -160,160 0,88.359 71.633,160 160,160 88.37,0 160,-71.641 160,-160 z"
         id="path182"
         inkscape:connector-curvature="0" /></clipPath><linearGradient
       x1="0"
       y1="0"
       x2="1"
       y2="0"
       gradientUnits="userSpaceOnUse"
       gradientTransform="matrix(-23.320823,40.392865,40.392865,23.320823,153.01853,17.693146)"
       spreadMethod="pad"
       id="linearGradient200"><stop
         style="stop-opacity:1;stop-color:#9e9fa1"
         offset="0"
         id="stop186" /><stop
         style="stop-opacity:1;stop-color:#d5d6d9"
         offset="0.24704455"
         id="stop188" /><stop
         style="stop-opacity:1;stop-color:#d5d6d9"
         offset="0.34"
         id="stop190" /><stop
         style="stop-opacity:1;stop-color:#d5d6d9"
         offset="0.36831646"
         id="stop192" /><stop
         style="stop-opacity:1;stop-color:#d5d6d9"
         offset="0.635"
         id="stop194" /><stop
         style="stop-opacity:1;stop-color:#d5d6d9"
         offset="0.70587287"
         id="stop196" /><stop
         style="stop-opacity:1;stop-color:#9e9fa1"
         offset="1"
         id="stop198" /></linearGradient></defs><sodipodi:namedview
     pagecolor="#ffffff"
     bordercolor="#666666"
     borderopacity="1"
     objecttolerance="10"
     gridtolerance="10"
     guidetolerance="10"
     inkscape:pageopacity="0"
     inkscape:pageshadow="2"
     inkscape:window-width="1366"
     inkscape:window-height="695"
     id="namedview4"
     showgrid="false"
     fit-margin-top="0"
     fit-margin-left="0"
     fit-margin-right="0"
     fit-margin-bottom="0"
     inkscape:zoom="0.50476055"
     inkscape:cx="525.94922"
     inkscape:cy="496.07788"
     inkscape:window-x="0"
     inkscape:window-y="0"
     inkscape:window-maximized="1"
     inkscape:current-layer="g10" /><g
     id="g10"
     inkscape:groupmode="layer"
     inkscape:label="ink_ext_XXXXXX"
     transform="matrix(1.3333333,0,0,-1.3333333,0,963.58397)"><path
       inkscape:connector-curvature="0"
       id="path14"
       style="fill:#4d4d4d;fill-opacity:1;fill-rule:nonzero;stroke:none;stroke-width:0.14573056"
       d="m 1.8666043,700.96395 v 14.96215 h 4.6508594 v -14.96215 z m 4.8034101,19.12276 c 0,-1.28389 -0.9785515,-2.3244 -2.5087223,-2.3244 -1.468687,0 -2.4478214,1.04051 -2.4170723,2.3244 -0.030749,1.34655 0.9483853,2.35646 2.4478069,2.35646 1.4994362,0 2.4478215,-1.00991 2.4779877,-2.35646" /><path
       inkscape:connector-curvature="0"
       id="path16"
       style="fill:#4d4d4d;fill-opacity:1;fill-rule:nonzero;stroke:none;stroke-width:0.14573056"
       d="m 15.025111,711.94911 c 0.397262,-0.0918 0.886916,-0.12241 1.560337,-0.12241 2.47844,0 4.008173,1.25328 4.008173,3.36492 0,1.89741 -1.315655,3.02974 -3.641078,3.02974 -0.948414,0 -1.591086,-0.0918 -1.927432,-0.18362 z m -4.620751,9.36173 c 1.438521,0.24483 3.45769,0.42845 6.303356,0.42845 2.876575,0 4.926421,-0.55086 6.302846,-1.65258 1.316239,-1.03906 2.203738,-2.75285 2.203738,-4.77268 0,-2.01982 -0.673567,-3.73216 -1.897412,-4.89509 -1.591086,-1.49956 -3.947258,-2.17284 -6.700691,-2.17284 -0.612068,0 -1.163075,0.0306 -1.591086,0.0918 v -7.37396 H 10.40436 v 20.34689" /><path
       inkscape:connector-curvature="0"
       id="path18"
       style="fill:#4d4d4d;fill-opacity:1;fill-rule:nonzero;stroke:none;stroke-width:0.14573056"
       d="m 28.032,722.688 h 4.65099 v -8.5369 h 0.06092 c 0.489509,0.64267 1.101431,1.13233 1.835768,1.53017 0.672838,0.36724 1.560337,0.58147 2.417086,0.58147 2.968095,0 5.232019,-2.05043 5.232019,-6.54767 v -8.75112 h -4.650845 v 8.23086 c 0,1.95716 -0.672838,3.30371 -2.417087,3.30371 -1.223845,0 -1.988348,-0.79423 -2.325422,-1.62053 -0.122268,-0.30603 -0.152435,-0.70387 -0.152435,-1.04051 v -8.87353 H 28.032 V 722.688" /><path
       inkscape:connector-curvature="0"
       id="path20"
       style="fill:#4d4d4d;fill-opacity:1;fill-rule:nonzero;stroke:none;stroke-width:0.14573056"
       d="m 49.912713,708.46032 c 0,-2.57068 1.070828,-4.4987 3.059759,-4.4987 1.805164,0 2.968094,1.8056 2.968094,4.4987 0,2.23405 -0.85675,4.49725 -2.968094,4.49725 -2.233758,0 -3.059759,-2.29526 -3.059759,-4.49725 z m 10.831278,0.15302 c 0,-5.47655 -3.88576,-7.98603 -7.893933,-7.98603 -4.375268,0 -7.741352,2.87672 -7.741352,7.7106 0,4.83388 3.182172,7.92483 7.98618,7.92483 4.589346,0 7.649105,-3.15215 7.649105,-7.6494" /><path
       inkscape:connector-curvature="0"
       id="path22"
       style="fill:#4d4d4d;fill-opacity:1;fill-rule:nonzero;stroke:none;stroke-width:0.14573056"
       d="m 63.623335,711.15197 c 0,1.86681 -0.0615,3.45818 -0.122414,4.77413 h 4.038923 l 0.214078,-2.05043 h 0.09225 c 0.611923,0.94871 2.141511,2.38707 4.620096,2.38707 3.059758,0 5.354432,-2.01983 5.354432,-6.42526 v -8.87353 h -4.650845 v 8.29206 c 0,1.92802 -0.672838,3.24251 -2.356172,3.24251 -1.284906,0 -2.049991,-0.88604 -2.355588,-1.74294 -0.122414,-0.27543 -0.183912,-0.73448 -0.183912,-1.16293 v -8.6287 h -4.650845 v 10.18802" /><path
       inkscape:connector-curvature="0"
       id="path24"
       style="fill:#4d4d4d;fill-opacity:1;fill-rule:nonzero;stroke:none;stroke-width:0.14573056"
       d="m 90.614236,710.14351 c 0,1.13087 -0.489509,3.02828 -2.631748,3.02828 -1.958182,0 -2.753433,-1.77499 -2.875847,-3.02828 z m -5.476846,-3.18275 c 0.15258,-1.92802 2.049846,-2.84466 4.222252,-2.84466 1.591086,0 2.876429,0.21276 4.130441,0.61061 l 0.612068,-3.1507 c -1.529734,-0.61206 -3.396251,-0.9181 -5.41593,-0.9181 -5.079001,0 -7.985597,2.93647 -7.985597,7.61879 0,3.79337 2.356171,7.98604 7.55744,7.98604 4.834757,0 6.670088,-3.76422 6.670088,-7.46578 0,-0.79569 -0.09166,-1.49956 -0.15258,-1.8362 H 85.13739" /><path
       inkscape:connector-curvature="0"
       id="path26"
       style="fill:#4d4d4d;fill-opacity:1;fill-rule:nonzero;stroke:none;stroke-width:0.14573056"
       d="m 113.47397,707.57283 c 0,1.8362 -0.97902,3.42758 -2.96751,3.42758 -1.2546,0 -2.29526,-0.76509 -2.75402,-1.775 -0.12241,-0.24483 -0.18333,-0.61207 -0.18333,-1.16293 0.0917,-2.11164 1.10085,-4.00905 3.21234,-4.00905 1.65258,0 2.69252,1.49957 2.69252,3.5194 z m 2.54008,9.97525 c -0.52026,0.0306 -1.07141,0 -1.80575,-0.0612 -4.13044,-0.33664 -5.96635,-2.44828 -6.48661,-4.77268 h 0.0917 c 0.97901,1.00846 2.35602,1.58992 4.22268,1.58992 3.33534,0 6.15027,-2.35501 6.15027,-6.48647 0,-3.94638 -3.02959,-7.19034 -7.34336,-7.19034 -5.29366,0 -7.89452,3.94638 -7.89452,8.68991 0,3.73216 1.37701,6.85371 3.51852,8.84293 1.98908,1.80414 4.55918,2.78345 7.68044,2.93647 0.85675,0.0612 1.40732,0.0612 1.86666,0.0306 v -3.57914" /><path
       inkscape:connector-curvature="0"
       id="path28"
       style="fill:#4d4d4d;fill-opacity:1;fill-rule:nonzero;stroke:none;stroke-width:0.14573056"
       d="m 132.66318,716.90541 c 0,-1.04052 0.48951,-1.95862 1.40718,-2.96853 1.49942,1.04052 2.2645,1.8362 2.2645,3.02974 0,0.97931 -0.58117,2.05043 -1.80501,2.05043 -1.19383,0 -1.86667,-1.04052 -1.86667,-2.11164 z m 4.16134,-11.87267 c -1.28549,1.28535 -2.9681,3.15215 -4.65085,5.04957 -0.85675,-0.61207 -1.62183,-1.49957 -1.62183,-2.84612 0,-1.7444 1.31551,-3.24251 3.42685,-3.24251 1.22399,0 2.23391,0.4576 2.84583,1.03906 z m 3.51852,-4.06879 c -0.42801,0.45905 -0.85675,0.9181 -1.34626,1.46896 -1.34626,-1.04052 -3.21292,-1.8056 -5.66076,-1.8056 -4.98719,0 -7.19034,2.96707 -7.19034,5.84379 0,2.72371 1.56033,4.68087 3.9165,5.905 v 0.12242 c -0.88735,0.97931 -1.56033,2.50948 -1.56033,3.97844 0,2.60129 2.04999,5.44595 6.18058,5.44595 3.18202,0 5.59969,-1.86535 5.59969,-4.83388 0,-2.08103 -1.22384,-3.85603 -4.06952,-5.29439 l -0.0308,-0.12241 c 1.19368,-1.31449 2.44769,-2.81406 3.4576,-3.85458 0.826,1.28535 1.46867,3.18276 1.74425,5.01751 h 4.16134 c -0.55116,-3.12009 -1.59109,-5.78259 -3.427,-7.83302 1.16249,-1.31449 2.35617,-2.66104 3.6402,-4.03819 h -5.4152" /><path
       inkscape:connector-curvature="0"
       id="path30"
       style="fill:#4d4d4d;fill-opacity:1;fill-rule:nonzero;stroke:none;stroke-width:0.14573056"
       d="m 163.57088,707.57283 c 0,1.8362 -0.97931,3.42758 -2.96707,3.42758 -1.25474,0 -2.29526,-0.76509 -2.75431,-1.775 -0.12241,-0.24483 -0.18362,-0.61207 -0.18362,-1.16293 0.0918,-2.11164 1.10173,-4.00905 3.2119,-4.00905 1.65259,0 2.6931,1.49957 2.6931,3.5194 z m 2.54009,9.97525 c -0.52026,0.0306 -1.07112,0 -1.8056,-0.0612 -4.13001,-0.33664 -5.96621,-2.44828 -6.48647,-4.77268 h 0.0918 c 0.97931,1.00846 2.35646,1.58992 4.22181,1.58992 3.33578,0 6.15129,-2.35501 6.15129,-6.48647 0,-3.94638 -3.02974,-7.19034 -7.34482,-7.19034 -5.29293,0 -7.89422,3.94638 -7.89422,8.68991 0,3.73216 1.37715,6.85371 3.51939,8.84293 1.98922,1.80414 4.55845,2.78345 7.68,2.93647 0.85689,0.0612 1.40776,0.0612 1.86681,0.0306 v -3.57914" /><path
       inkscape:connector-curvature="0"
       id="path32"
       style="fill:#4d4d4d;fill-opacity:1;fill-rule:nonzero;stroke:none;stroke-width:0.14573056"
       d="m 181.93439,711.94911 c 0.39784,-0.0918 0.8875,-0.12241 1.56077,-0.12241 2.47742,0 4.00759,1.25328 4.00759,3.36492 0,1.89741 -1.31594,3.02974 -3.6418,3.02974 -0.94725,0 -1.58992,-0.0918 -1.92656,-0.18362 z m -4.62112,9.36173 c 1.43837,0.24483 3.45819,0.42845 6.30431,0.42845 2.87526,0 4.92569,-0.55086 6.30284,-1.65258 1.31595,-1.03906 2.20199,-2.75285 2.20199,-4.77268 0,-2.01982 -0.67181,-3.73216 -1.89595,-4.89509 -1.59138,-1.49956 -3.94784,-2.17284 -6.70069,-2.17284 -0.61207,0 -1.16293,0.0306 -1.59138,0.0918 v -7.37396 h -4.62112 v 20.34689" /><path
       inkscape:connector-curvature="0"
       id="path34"
       style="fill:#4d4d4d;fill-opacity:1;fill-rule:nonzero;stroke:none;stroke-width:0.14573056"
       d="m 194.94084,722.688 h 4.65026 v -21.72405 h -4.65026 V 722.688" /><path
       inkscape:connector-curvature="0"
       id="path36"
       style="fill:#4d4d4d;fill-opacity:1;fill-rule:nonzero;stroke:none;stroke-width:0.14573056"
       d="m 217.46204,705.76722 c 0,-1.95861 0.0612,-3.54853 0.12241,-4.80327 h -4.03819 l -0.21422,2.11017 h -0.0918 c -0.58147,-0.91664 -1.98922,-2.44681 -4.68233,-2.44681 -3.02828,0 -5.26233,1.89741 -5.26233,6.51707 v 8.78172 h 4.68087 v -8.04724 c 0,-2.17284 0.70388,-3.48733 2.32586,-3.48733 1.28534,0 2.01982,0.88604 2.32586,1.62052 0.12241,0.27543 0.15302,0.64267 0.15302,1.00991 v 8.90414 h 4.68086 v -10.15888" /><path
       inkscape:connector-curvature="0"
       id="path38"
       style="fill:#4d4d4d;fill-opacity:1;fill-rule:nonzero;stroke:none;stroke-width:0.14573056"
       d="m 221.16797,705.03274 c 0.85689,-0.5188 2.63189,-1.13087 4.00905,-1.13087 1.4063,0 1.98776,0.48966 1.98776,1.25329 0,0.76508 -0.45905,1.13232 -2.20199,1.71379 -3.09094,1.04051 -4.28448,2.7237 -4.25387,4.4987 0,2.78345 2.38706,4.89509 6.08862,4.89509 1.7444,0 3.30517,-0.39785 4.22327,-0.8569 l -0.82629,-3.21336 c -0.67328,0.36725 -1.95862,0.8569 -3.24396,0.8569 -1.13233,0 -1.77354,-0.45759 -1.77354,-1.22268 0,-0.70388 0.58146,-1.07112 2.41621,-1.71379 2.84612,-0.97931 4.03965,-2.41767 4.07025,-4.62112 0,-2.78491 -2.20344,-4.83388 -6.48646,-4.83388 -1.95862,0 -3.70302,0.42845 -4.83534,1.04052 l 0.82629,3.33431" /><path
       inkscape:connector-curvature="0"
       id="path40"
       style="fill:#4d4d4d;fill-opacity:1;fill-rule:nonzero;stroke:none;stroke-width:0.14573056"
       d="m 258.25494,708.85817 c -0.0918,2.47888 -0.18362,5.47655 -0.18362,8.47569 h -0.0918 c -0.64268,-2.6319 -1.49811,-5.56982 -2.2938,-7.98604 l -2.50948,-8.04724 h -3.64181 l -2.20199,7.98604 c -0.67327,2.41767 -1.37715,5.35414 -1.86681,8.04724 h -0.0612 c -0.12242,-2.78491 -0.21423,-5.96621 -0.36724,-8.5369 l -0.36724,-7.83301 h -4.31363 l 1.31449,20.62233 h 6.21249 l 2.01837,-6.88432 c 0.64267,-2.38706 1.28535,-4.95629 1.7444,-7.37396 h 0.0918 c 0.58146,2.38707 1.28534,5.10931 1.95862,7.40457 l 2.20344,6.85371 h 6.08862 l 1.13233,-20.62233 h -4.55991 l -0.30603,7.89422" /><path
       inkscape:connector-curvature="0"
       id="path42"
       style="fill:#4d4d4d;fill-opacity:1;fill-rule:nonzero;stroke:none;stroke-width:0.14573056"
       d="m 270.59103,708.46032 c 0,-2.57068 1.07112,-4.4987 3.05888,-4.4987 1.8056,0 2.96853,1.8056 2.96853,4.4987 0,2.23405 -0.85689,4.49725 -2.96853,4.49725 -2.23259,0 -3.05888,-2.29526 -3.05888,-4.49725 z m 10.83069,0.15302 c 0,-5.47655 -3.88517,-7.98603 -7.89422,-7.98603 -4.37483,0 -7.74121,2.87672 -7.74121,7.7106 0,4.83388 3.18276,7.92483 7.98604,7.92483 4.59051,0 7.64939,-3.15215 7.64939,-7.6494" /><path
       inkscape:connector-curvature="0"
       id="path44"
       style="fill:#4d4d4d;fill-opacity:1;fill-rule:nonzero;stroke:none;stroke-width:0.14573056"
       d="m 295.62171,701.33119 c -0.82484,-0.36724 -2.38561,-0.67328 -4.16061,-0.67328 -4.83388,0 -7.92483,2.93647 -7.92483,7.6494 0,4.37483 2.99914,7.95543 8.5675,7.95543 1.22414,0 2.57069,-0.21423 3.55,-0.58147 l -0.73448,-3.45672 c -0.55232,0.24482 -1.37716,0.45759 -2.60129,0.45759 -2.44828,0 -4.03966,-1.74294 -4.00905,-4.19121 0,-2.75431 1.8362,-4.19267 4.10086,-4.19267 1.10026,0 1.95716,0.18362 2.66104,0.46051 l 0.55086,-3.42758" /><path
       inkscape:connector-curvature="0"
       id="path46"
       style="fill:#4d4d4d;fill-opacity:1;fill-rule:nonzero;stroke:none;stroke-width:0.14573056"
       d="m 302.84557,709.62325 h 0.0598 c 0.33809,0.61207 0.70534,1.22414 1.07258,1.80415 l 3.02974,4.4987 h 5.59896 l -5.35414,-6.05802 6.11923,-8.90413 h -5.72284 l -3.60975,6.14982 -1.19353,-1.46896 v -4.68086 h -4.65026 V 722.688 h 4.65026 v -13.06475" /><path
       inkscape:connector-curvature="0"
       id="path48"
       style="fill:#4d4d4d;fill-opacity:1;fill-rule:nonzero;stroke:none;stroke-width:0.14573056"
       d="m 328.88762,705.76722 c 0,-1.95861 0.0612,-3.54853 0.12241,-4.80327 h -4.03965 l -0.21276,2.11017 h -0.0933 c -0.58147,-0.91664 -1.98777,-2.44681 -4.68087,-2.44681 -3.02973,0 -5.26233,1.89741 -5.26233,6.51707 v 8.78172 h 4.68087 v -8.04724 c 0,-2.17284 0.70388,-3.48733 2.32586,-3.48733 1.28388,0 2.01837,0.88604 2.3244,1.62052 0.12241,0.27543 0.15302,0.64267 0.15302,1.00991 v 8.90414 h 4.68232 v -10.15888" /><path
       inkscape:connector-curvature="0"
       id="path50"
       style="fill:#4d4d4d;fill-opacity:1;fill-rule:nonzero;stroke:none;stroke-width:0.14573056"
       d="m 337.27441,707.38921 c 0,-0.36725 0.0306,-0.70388 0.0918,-0.97931 0.30604,-1.25474 1.37716,-2.20345 2.72371,-2.20345 2.01837,0 3.2119,1.68319 3.2119,4.22327 0,2.38707 -1.07112,4.19121 -3.15215,4.19121 -1.31449,0 -2.47742,-0.97931 -2.78346,-2.355 -0.0612,-0.24483 -0.0918,-0.55086 -0.0918,-0.8263 z m -4.65026,3.51793 c 0,1.95862 -0.0627,3.64181 -0.12241,5.01896 h 4.03965 l 0.21276,-2.08103 h 0.0612 c 1.10172,1.59138 2.81552,2.41767 4.98836,2.41767 3.27311,0 6.21103,-2.84612 6.21103,-7.61879 0,-5.44741 -3.45818,-8.01664 -6.79395,-8.01664 -1.80561,0 -3.21191,0.73448 -3.88664,1.71379 h -0.0598 v -7.43517 h -4.65026 v 16.00121" /><path
       inkscape:connector-curvature="0"
       id="path52"
       style="fill:#808080;fill-opacity:1;fill-rule:nonzero;stroke:none;stroke-width:0.14573056"
       d="m 14.353322,670.93762 c -0.839655,-0.4197 -2.518981,-0.8394 -4.6707802,-0.8394 -4.9855733,0 -8.73756954,3.14777 -8.73756954,8.94785 0,5.5363 3.75199624,9.28741 9.23624474,9.28741 2.203606,0 3.594298,-0.47071 4.198293,-0.78695 l -0.551619,-1.86243 c -0.865844,0.4197 -2.098855,0.73594 -3.568693,0.73594 -4.1453497,0 -6.9005606,-2.6523 -6.9005606,-7.29527 0,-4.32966 2.4927794,-7.11166 6.7963916,-7.11166 1.390139,0 2.807018,0.28855 3.725806,0.73594 l 0.472487,-1.81143" /><path
       inkscape:connector-curvature="0"
       id="path54"
       style="fill:#808080;fill-opacity:1;fill-rule:nonzero;stroke:none;stroke-width:0.14573056"
       d="m 17.051057,679.09708 c 0,1.49665 -0.02681,2.78199 -0.105946,3.96387 h 2.020991 l 0.07855,-2.49345 h 0.105218 c 0.577238,1.70505 1.967945,2.78199 3.515749,2.78199 0.263044,0 0.446373,-0.0262 0.656371,-0.0801 v -2.17721 c -0.23623,0.0525 -0.472459,0.0787 -0.787237,0.0787 -1.626936,0 -2.781413,-1.23434 -3.095608,-2.96416 -0.05305,-0.31623 -0.105946,-0.68347 -0.105946,-1.07695 v -6.76918 h -2.282141 v 8.73655" /><path
       inkscape:connector-curvature="0"
       id="path56"
       style="fill:#808080;fill-opacity:1;fill-rule:nonzero;stroke:none;stroke-width:0.14573056"
       d="m 33.421261,677.94435 c 0.02623,1.46896 -0.60347,3.7511 -3.200971,3.7511 -2.335041,0 -3.358652,-2.15098 -3.541981,-3.7511 z m -6.769038,-1.65404 c 0.05173,-3.12155 2.046494,-4.40835 4.355303,-4.40835 1.653168,0 2.649965,0.28854 3.51575,0.65724 l 0.394055,-1.65404 c -0.813468,-0.36724 -2.204174,-0.78694 -4.224583,-0.78694 -3.909659,0 -6.245282,2.57068 -6.245282,6.40194 0,3.83125 2.256491,6.84933 5.956736,6.84933 4.145305,0 5.248048,-3.64763 5.248048,-5.98369 0,-0.47217 -0.05305,-0.83941 -0.07913,-1.07549 h -8.920896" /><path
       inkscape:connector-curvature="0"
       id="path58"
       style="fill:#808080;fill-opacity:1;fill-rule:nonzero;stroke:none;stroke-width:0.14573056"
       d="m 45.199204,676.84117 c -2.518952,0.0525 -5.378914,-0.39347 -5.378914,-2.85924 0,-1.49665 0.99738,-2.2049 2.177506,-2.2049 1.653021,0 2.702719,1.04926 3.070542,2.12475 0.07855,0.23754 0.130866,0.49986 0.130866,0.73594 z m 0.34101,-6.48064 -0.183912,1.60012 h -0.07797 c -0.708688,-0.9968 -2.07258,-1.88867 -3.88401,-1.88867 -2.571416,0 -3.882991,1.80998 -3.882991,3.64764 0,3.06908 2.729096,4.7479 7.635552,4.72313 v 0.26085 c 0,1.05072 -0.288692,2.93939 -2.886776,2.93939 -1.179981,0 -2.413007,-0.36724 -3.305606,-0.94433 L 38.429,682.22154 c 1.049697,0.68056 2.571999,1.12795 4.17212,1.12795 3.884011,0 4.828491,-2.65083 4.828491,-5.19529 v -4.74936 c 0,-1.10318 0.05232,-2.17867 0.209414,-3.04431 h -2.098811" /><path
       inkscape:connector-curvature="0"
       id="path60"
       style="fill:#808080;fill-opacity:1;fill-rule:nonzero;stroke:none;stroke-width:0.14573056"
       d="m 53.828639,686.70713 v -3.64618 h 3.305752 v -1.75897 h -3.305752 v -6.84788 c 0,-1.57389 0.446373,-2.46722 1.731133,-2.46722 0.60347,0 1.049697,0.0787 1.33839,0.15885 l 0.104634,-1.73274 c -0.445061,-0.18362 -1.154477,-0.31477 -2.046494,-0.31477 -1.075783,0 -1.941131,0.341 -2.492721,0.97056 -0.655788,0.68202 -0.892017,1.81143 -0.892017,3.30663 v 6.92657 h -1.967362 v 1.75897 h 1.967362 v 3.04285 l 2.257075,0.60333" /><path
       inkscape:connector-curvature="0"
       id="path62"
       style="fill:#808080;fill-opacity:1;fill-rule:nonzero;stroke:none;stroke-width:0.14573056"
       d="m 67.62699,677.94435 c 0.02609,1.46896 -0.604053,3.7511 -3.200971,3.7511 -2.335624,0 -3.358652,-2.15098 -3.542564,-3.7511 z m -6.769621,-1.65404 c 0.05232,-3.12155 2.046494,-4.40835 4.355303,-4.40835 1.653168,0 2.650548,0.28854 3.516333,0.65724 l 0.393327,-1.65404 c -0.813468,-0.36724 -2.203592,-0.78694 -4.223855,-0.78694 -3.910242,0 -6.245282,2.57068 -6.245282,6.40194 0,3.83125 2.256491,6.84933 5.956736,6.84933 4.145305,0 5.24732,-3.64763 5.24732,-5.98369 0,-0.47217 -0.05232,-0.83941 -0.07913,-1.07549 h -8.92075" /><path
       inkscape:connector-curvature="0"
       id="path64"
       style="fill:#808080;fill-opacity:1;fill-rule:nonzero;stroke:none;stroke-width:0.14573056"
       d="m 81.372879,677.89043 c 0,0.29 -0.02623,0.68347 -0.105363,0.97202 -0.34101,1.46896 -1.600122,2.67561 -3.332421,2.67561 -2.388086,0 -3.804296,-2.09852 -3.804296,-4.90674 0,-2.57215 1.259112,-4.6969 3.751979,-4.6969 1.548387,0 2.964596,1.02303 3.384738,2.75576 0.07913,0.31478 0.105363,0.62956 0.105363,0.9968 z m 2.308955,11.10029 v -15.35125 c 0,-1.1265 0.02609,-2.4133 0.104634,-3.27894 h -2.07258 l -0.10478,2.2049 h -0.05232 c -0.709417,-1.41796 -2.257804,-2.49345 -4.330384,-2.49345 -3.069522,0 -5.431377,2.59692 -5.431377,6.45441 -0.02609,4.22473 2.598084,6.8231 5.694275,6.8231 1.94186,0 3.254018,-0.91956 3.831257,-1.94258 h 0.05232 v 7.58381 h 2.308955" /><path
       inkscape:connector-curvature="0"
       id="path66"
       style="fill:#808080;fill-opacity:1;fill-rule:nonzero;stroke:none;stroke-width:0.14573056"
       d="m 95.351645,675.4509 c 0,-0.28855 0.0529,-0.57855 0.10478,-0.83941 0.446227,-1.60158 1.784616,-2.70184 3.463869,-2.70184 2.413736,0 3.857346,1.96736 3.857346,4.87905 0,2.54446 -1.31216,4.72313 -3.778214,4.72313 -1.575202,0 -3.044457,-1.07549 -3.516915,-2.83446 -0.05174,-0.26086 -0.130866,-0.57709 -0.130866,-0.94433 z m -2.388087,-5.09037 c 0.0529,0.86564 0.105363,2.15244 0.105363,3.27894 v 15.35125 h 2.282724 v -7.97729 h 0.0529 c 0.812885,1.4165 2.282723,2.33606 4.329217,2.33606 3.148658,0 5.378328,-2.6246 5.353268,-6.48209 0,-4.53951 -2.8604,-6.79542 -5.694277,-6.79542 -1.836934,0 -3.305606,0.70825 -4.251252,2.38707 h -0.07855 l -0.104634,-2.09852 h -1.99476" /><path
       inkscape:connector-curvature="0"
       id="path68"
       style="fill:#808080;fill-opacity:1;fill-rule:nonzero;stroke:none;stroke-width:0.14573056"
       d="m 108.65072,683.06095 2.78142,-7.50513 c 0.28796,-0.8394 0.60332,-1.8362 0.81346,-2.59837 h 0.0523 c 0.23565,0.76217 0.49811,1.73273 0.81347,2.65084 l 2.51895,7.45266 h 2.43982 l -3.46387,-9.05278 c -1.65316,-4.35589 -2.78083,-6.58703 -4.35545,-7.95106 -1.12766,-0.9968 -2.25649,-1.39027 -2.83373,-1.4952 l -0.57665,1.94113 c 0.57665,0.18362 1.33722,0.55086 2.01968,1.12796 0.62955,0.49985 1.41694,1.39027 1.94171,2.57214 0.10478,0.23608 0.18391,0.4197 0.18391,0.55086 0,0.13116 -0.0523,0.31478 -0.15826,0.60333 l -4.69631,11.70362 h 2.51953" /><path
       inkscape:connector-curvature="0"
       id="path70"
       style="fill:#808080;fill-opacity:1;fill-rule:nonzero;stroke:none;stroke-width:0.14573056"
       d="m 128.08856,672.1705 c 0.57665,-0.10492 1.41635,-0.13115 2.30895,-0.13115 4.87979,0 7.53077,2.72953 7.53077,7.50512 0.0262,4.17081 -2.33562,6.82165 -7.16353,6.82165 -1.18129,0 -2.07272,-0.10493 -2.67619,-0.23609 z m -2.28375,15.63835 c 1.39115,0.21131 3.04431,0.36724 4.85458,0.36724 3.28068,0 5.61572,-0.75926 7.16353,-2.20345 1.57462,-1.44273 2.49287,-3.49024 2.49287,-6.34948 0,-2.88692 -0.89202,-5.24775 -2.54461,-6.87411 -1.65433,-1.65404 -4.3827,-2.54591 -7.8199,-2.54591 -1.62693,0 -2.99155,0.0787 -4.14647,0.20985 v 17.39586" /><path
       inkscape:connector-curvature="0"
       id="path72"
       style="fill:#808080;fill-opacity:1;fill-rule:nonzero;stroke:none;stroke-width:0.14573056"
       d="m 143.19673,679.09708 c 0,1.49665 -0.0261,2.78199 -0.10521,3.96387 h 2.02084 l 0.078,-2.49345 h 0.10536 c 0.57768,1.70505 1.96795,2.78199 3.5156,2.78199 0.26232,0 0.44594,-0.0262 0.65579,-0.0801 v -2.17721 c -0.23608,0.0525 -0.47217,0.0787 -0.78694,0.0787 -1.62636,0 -2.78054,-1.23434 -3.09649,-2.96416 -0.0517,-0.31623 -0.10419,-0.68347 -0.10419,-1.07695 v -6.76918 h -2.28273 v 8.73655" /><path
       inkscape:connector-curvature="0"
       id="path74"
       style="fill:#808080;fill-opacity:1;fill-rule:nonzero;stroke:none;stroke-width:0.14573056"
       d="m 159.56767,677.94435 c 0.0262,1.46896 -0.60333,3.7511 -3.2017,3.7511 -2.33461,0 -3.35764,-2.15098 -3.54126,-3.7511 z m -6.76919,-1.65404 c 0.0525,-3.12155 2.04606,-4.40835 4.35443,-4.40835 1.65404,0 2.65084,0.28854 3.51648,0.65724 l 0.39347,-1.65404 c -0.81318,-0.36724 -2.20344,-0.78694 -4.22473,-0.78694 -3.90995,0 -6.24455,2.57068 -6.24455,6.40194 0,3.83125 2.25736,6.84933 5.95601,6.84933 4.14603,0 5.24775,-3.64763 5.24775,-5.98369 0,-0.47217 -0.0525,-0.83941 -0.0787,-1.07549 h -8.92017" /><path
       inkscape:connector-curvature="0"
       id="path76"
       style="fill:#808080;fill-opacity:1;fill-rule:nonzero;stroke:none;stroke-width:0.14573056"
       d="m 171.34415,676.84117 c -2.51822,0.0525 -5.37891,-0.39347 -5.37891,-2.85924 0,-1.49665 0.99679,-2.2049 2.17721,-2.2049 1.65404,0 2.7033,1.04926 3.07054,2.12475 0.0787,0.23754 0.13116,0.49986 0.13116,0.73594 z m 0.34101,-6.48064 -0.18362,1.60012 h -0.0787 c -0.70825,-0.9968 -2.07229,-1.88867 -3.88372,-1.88867 -2.57069,0 -3.88227,1.80998 -3.88227,3.64764 0,3.06908 2.72808,4.7479 7.63483,4.72313 v 0.26085 c 0,1.05072 -0.28855,2.93939 -2.88547,2.93939 -1.18187,0 -2.41475,-0.36724 -3.30662,-0.94433 l -0.52463,1.52288 c 1.04926,0.68056 2.57068,1.12795 4.17081,1.12795 3.88371,0 4.82805,-2.65083 4.82805,-5.19529 v -4.74936 c 0,-1.10318 0.0539,-2.17867 0.20985,-3.04431 h -2.09852" /><path
       inkscape:connector-curvature="0"
       id="path78"
       style="fill:#808080;fill-opacity:1;fill-rule:nonzero;stroke:none;stroke-width:0.14573056"
       d="m 177.29724,679.62316 c 0,1.31158 -0.0262,2.38707 -0.10492,3.43779 h 2.02128 l 0.10347,-2.04752 h 0.0802 c 0.70825,1.20811 1.88867,2.33606 3.98719,2.33606 1.73274,0 3.04431,-1.05071 3.59517,-2.54591 h 0.0525 c 0.39347,0.70825 0.89187,1.25911 1.4165,1.65259 0.76071,0.57709 1.60157,0.89332 2.80822,0.89332 1.67882,0 4.17081,-1.10318 4.17081,-5.51153 v -7.47743 h -2.25591 v 7.19035 c 0,2.43952 -0.89187,3.90849 -2.7543,3.90849 -1.31158,0 -2.33606,-0.97057 -2.72954,-2.09852 -0.10492,-0.31478 -0.18362,-0.73448 -0.18362,-1.15419 v -7.84613 h -2.25591 v 7.60859 c 0,2.02128 -0.89333,3.49025 -2.65084,3.49025 -1.44273,0 -2.49199,-1.15419 -2.86069,-2.30837 -0.1297,-0.34101 -0.18362,-0.73449 -0.18362,-1.12796 v -7.66251 h -2.25591 v 9.26263" /><path
       inkscape:connector-curvature="0"
       id="path80"
       style="fill:#808080;fill-opacity:1;fill-rule:nonzero;stroke:none;stroke-width:0.14573056"
       d="m 198.85808,672.72136 c 0.68348,-0.44593 1.89012,-0.9181 3.04431,-0.9181 1.68027,0 2.46722,0.83941 2.46722,1.88867 0,1.10318 -0.65579,1.70651 -2.36229,2.33606 -2.28214,0.81318 -3.35764,2.07229 -3.35764,3.59517 0,2.04606 1.65259,3.72633 4.38066,3.72633 1.28681,0 2.41476,-0.36724 3.12301,-0.7884 l -0.57709,-1.67881 c -0.4984,0.31477 -1.4165,0.73448 -2.59692,0.73448 -1.3655,0 -2.12621,-0.78695 -2.12621,-1.73128 0,-1.04926 0.76071,-1.52289 2.4133,-2.15244 2.2049,-0.83941 3.33431,-1.94113 3.33431,-3.83126 0,-2.22968 -1.73273,-3.80356 -4.75081,-3.80356 -1.39027,0 -2.67562,0.341 -3.56894,0.86563 l 0.57709,1.75751" /><path
       inkscape:connector-curvature="0"
       id="path82"
       style="fill:#808080;fill-opacity:1;fill-rule:nonzero;stroke:none;stroke-width:0.14573056"
       d="m 212.34253,686.70713 v -3.64618 h 3.30662 v -1.75897 h -3.30662 v -6.84788 c 0,-1.57389 0.44739,-2.46722 1.73128,-2.46722 0.60332,0 1.05071,0.0787 1.33926,0.15885 l 0.10493,-1.73274 c -0.44594,-0.18362 -1.15419,-0.31477 -2.04752,-0.31477 -1.07549,0 -1.94113,0.341 -2.49199,0.97056 -0.65579,0.68202 -0.89187,1.81143 -0.89187,3.30663 v 6.92657 h -1.96882 v 1.75897 h 1.96882 v 3.04285 l 2.25591,0.60333" /><path
       inkscape:connector-curvature="0"
       id="path84"
       style="fill:#808080;fill-opacity:1;fill-rule:nonzero;stroke:none;stroke-width:0.14573056"
       d="m 224.9351,676.84117 c -2.51822,0.0525 -5.37891,-0.39347 -5.37891,-2.85924 0,-1.49665 0.9968,-2.2049 2.17721,-2.2049 1.65405,0 2.70331,1.04926 3.07055,2.12475 0.0787,0.23754 0.13115,0.49986 0.13115,0.73594 z m 0.34101,-6.48064 -0.18362,1.60012 h -0.0787 c -0.70825,-0.9968 -2.07375,-1.88867 -3.88372,-1.88867 -2.57069,0 -3.88226,1.80998 -3.88226,3.64764 0,3.06908 2.72807,4.7479 7.63482,4.72313 v 0.26085 c 0,1.05072 -0.28855,2.93939 -2.88692,2.93939 -1.18042,0 -2.4133,-0.36724 -3.30517,-0.94433 l -0.52463,1.52288 c 1.04926,0.68056 2.57069,1.12795 4.17081,1.12795 3.88372,0 4.82805,-2.65083 4.82805,-5.19529 v -4.74936 c 0,-1.10318 0.0525,-2.17867 0.20985,-3.04431 h -2.09852" /><path
       inkscape:connector-curvature="0"
       id="path86"
       style="fill:#808080;fill-opacity:1;fill-rule:nonzero;stroke:none;stroke-width:0.14573056"
       d="m 230.8882,688.99072 h 2.30837 v -18.63019 h -2.30837 v 18.63019" /><path
       inkscape:connector-curvature="0"
       id="path88"
       style="fill:#808080;fill-opacity:1;fill-rule:nonzero;stroke:none;stroke-width:0.14573056"
       d="m 245.13336,677.94435 c 0.0262,1.46896 -0.60333,3.7511 -3.20024,3.7511 -2.33607,0 -3.35909,-2.15098 -3.54271,-3.7511 z m -6.76919,-1.65404 c 0.0525,-3.12155 2.04606,-4.40835 4.35589,-4.40835 1.65258,0 2.64938,0.28854 3.51502,0.65724 l 0.39347,-1.65404 c -0.81317,-0.36724 -2.20344,-0.78694 -4.22327,-0.78694 -3.90995,0 -6.24601,2.57068 -6.24601,6.40194 0,3.83125 2.25737,6.84933 5.95747,6.84933 4.14457,0 5.24775,-3.64763 5.24775,-5.98369 0,-0.47217 -0.0525,-0.83941 -0.0802,-1.07549 h -8.92017" /><path
       inkscape:connector-curvature="0"
       id="path90"
       style="fill:#808080;fill-opacity:1;fill-rule:nonzero;stroke:none;stroke-width:0.14573056"
       d="m 249.35371,671.72457 c 0,0.97056 0.65579,1.65404 1.57389,1.65404 0.91956,0 1.54912,-0.68348 1.54912,-1.65404 0,-0.94434 -0.60332,-1.65259 -1.57535,-1.65259 -0.9181,0 -1.54766,0.70825 -1.54766,1.65259" /><path
       inkscape:connector-curvature="0"
       id="path92"
       style="fill:#808080;fill-opacity:1;fill-rule:nonzero;stroke:none;stroke-width:0.14573056"
       d="m 264.38728,670.8327 c -0.60333,-0.31478 -1.94259,-0.73448 -3.64764,-0.73448 -3.83125,0 -6.32325,2.59691 -6.32325,6.48063 0,3.90995 2.67562,6.74441 6.82165,6.74441 1.36404,0 2.57069,-0.34101 3.2017,-0.65724 l -0.52463,-1.78374 c -0.55086,0.31477 -1.41796,0.60332 -2.67707,0.60332 -2.9117,0 -4.48704,-2.15244 -4.48704,-4.80182 0,-2.93793 1.88867,-4.74936 4.40835,-4.74936 1.31157,0 2.17867,0.34101 2.83446,0.63101 l 0.39347,-1.73273" /><path
       inkscape:connector-curvature="0"
       id="path94"
       style="fill:#808080;fill-opacity:1;fill-rule:nonzero;stroke:none;stroke-width:0.14573056"
       d="m 268.34532,676.68378 c 0,-2.782 1.60012,-4.88052 3.85749,-4.88052 2.20344,0 3.85749,2.07375 3.85749,4.93298 0,2.15244 -1.07695,4.88052 -3.80503,4.88052 -2.72953,0 -3.90995,-2.51968 -3.90995,-4.93298 z m 10.07581,0.13116 c 0,-4.6969 -3.25271,-6.74296 -6.32325,-6.74296 -3.43778,0 -6.08716,2.51823 -6.08716,6.5331 0,4.25096 2.78054,6.74441 6.29701,6.74441 3.64764,0 6.1134,-2.65083 6.1134,-6.53455" /><path
       inkscape:connector-curvature="0"
       id="path96"
       style="fill:#808080;fill-opacity:1;fill-rule:nonzero;stroke:none;stroke-width:0.14573056"
       d="m 281.32991,679.62316 c 0,1.31158 -0.0262,2.38707 -0.10492,3.43779 h 2.02128 l 0.10492,-2.04752 h 0.0787 c 0.70825,1.20811 1.88867,2.33606 3.98864,2.33606 1.73128,0 3.04286,-1.05071 3.59372,-2.54591 h 0.0525 c 0.39348,0.70825 0.89187,1.25911 1.41796,1.65259 0.76071,0.57709 1.60012,0.89332 2.80677,0.89332 1.67882,0 4.17227,-1.10318 4.17227,-5.51153 v -7.47743 h -2.25737 v 7.19035 c 0,2.43952 -0.89187,3.90849 -2.75431,3.90849 -1.31303,0 -2.33606,-0.97057 -2.72953,-2.09852 -0.10493,-0.31478 -0.18362,-0.73448 -0.18362,-1.15419 v -7.84613 h -2.25591 v 7.60859 c 0,2.02128 -0.89187,3.49025 -2.65084,3.49025 -1.44273,0 -2.49199,-1.15419 -2.85923,-2.30837 -0.13116,-0.34101 -0.18362,-0.73449 -0.18362,-1.12796 v -7.66251 h -2.25737 v 9.26263" /><path
       inkscape:connector-curvature="0"
       id="path98"
       style="fill:#d5d6d9;fill-opacity:1;fill-rule:nonzero;stroke:none;stroke-width:0.14573056"
       d="m 763.86854,514.48713 v -43.25428 c 0,-0.77092 0.55523,-1.39756 1.24016,-1.39756 h 1.65259 c 0.68348,0 1.23871,0.62664 1.23871,1.39756 v 43.25428 c 0,0.77238 -0.55523,1.39902 -1.23871,1.39902 h -1.65259 c -0.68493,0 -1.24016,-0.62664 -1.24016,-1.39902" /><path
       inkscape:connector-curvature="0"
       id="path100"
       style="fill:#bcbcbc;fill-opacity:1;fill-rule:nonzero;stroke:none;stroke-width:0.14573056"
       d="m 765.08539,49.775581 h -4.37192 v 11.43125 h 4.37192 v -11.43125" /><path
       inkscape:connector-curvature="0"
       id="path102"
       style="fill:#bcbcbc;fill-opacity:1;fill-rule:nonzero;stroke:none;stroke-width:0.14573056"
       d="m 765.08539,594.80798 h -4.37192 v 11.43111 h 4.37192 v -11.43111" /><path
       inkscape:connector-curvature="0"
       id="path104"
       style="fill:#d5d6d9;fill-opacity:1;fill-rule:nonzero;stroke:none;stroke-width:0.14573056"
       d="m 757.43891,50.227491 c 0,-23.173926 -18.68849,-41.958419 -41.74452,-41.958419 H 497.6946 c -23.05603,0 -41.74597,18.784493 -41.74597,41.958419 V 605.01349 c 0,23.17262 18.68994,41.95729 41.74597,41.95729 h 217.99979 c 23.05603,0 41.74452,-18.78467 41.74452,-41.95729 z M 717.8716,652.87286 H 495.23321 c -25.61651,0 -46.38312,-20.87298 -46.38312,-46.62066 V 46.804572 c 0,-25.747673 20.76661,-46.62070085 46.38312,-46.62070085 H 717.8716 c 25.61652,0 46.38312,20.87302785 47.21379,46.62070085 V 606.2522 c -0.83067,25.74768 -21.59727,46.62066 -47.21379,46.62066" /><path
       inkscape:connector-curvature="0"
       id="path106"
       style="fill:#f7f7f7;fill-opacity:1;fill-rule:nonzero;stroke:none;stroke-width:0.14573056"
       d="M 715.27323,4.4373787 H 497.35359 c -24.18252,0 -43.78766,19.6052473 -43.78766,43.7880663 V 604.71329 c 0,24.18253 19.60514,43.78766 43.78766,43.78766 h 217.91964 c 25.09626,0 45.44024,-20.34544 45.44024,-45.44025 V 49.87803 c 0,-25.096404 -20.34398,-45.4406513 -45.44024,-45.4406513" /><path
       inkscape:connector-curvature="0"
       id="path108"
       style="fill:#29abe2;fill-opacity:1;fill-rule:nonzero;stroke:none;stroke-width:0.14573056"
       d="M 747.59189,83.26621 H 466.68751 V 572.72106 H 747.59189 V 83.26621" /><path
       inkscape:connector-curvature="0"
       id="path134"
       style="fill:url(#linearGradient132);fill-opacity:1;fill-rule:nonzero;stroke:none;stroke-width:0.14573056"
       d="m 632.47059,42.990512 c 0,-14.084566 -11.41799,-25.502846 -25.50285,-25.502846 -14.08486,0 -25.50285,11.41828 -25.50285,25.502846 0,14.085149 11.41799,25.502846 25.50285,25.502846 14.08486,0 25.50285,-11.417697 25.50285,-25.502846" /><path
       inkscape:connector-curvature="0"
       id="path136"
       style="fill:#f7f7f7;fill-opacity:1;fill-rule:nonzero;stroke:none;stroke-width:0.14573056"
       d="m 629.55598,42.990512 c 0,-12.475846 -10.1137,-22.588235 -22.58824,-22.588235 -12.47453,0 -22.58823,10.112389 -22.58823,22.588235 0,12.474827 10.1137,22.588235 22.58823,22.588235 12.47454,0 22.58824,-10.113408 22.58824,-22.588235" /><path
       inkscape:connector-curvature="0"
       id="path138"
       style="fill:#3c3e42;fill-opacity:1;fill-rule:nonzero;stroke:none;stroke-width:0.14573056"
       d="m 610.611,631.00017 c 0,-2.40747 -1.95716,-4.35881 -4.37191,-4.35881 -2.41476,0 -4.37192,1.95134 -4.37192,4.35881 0,2.40746 1.95716,4.36025 4.37192,4.36025 2.41475,0 4.37191,-1.95279 4.37191,-4.36025" /><path
       inkscape:connector-curvature="0"
       id="path140"
       style="fill:#3c3e42;fill-opacity:1;fill-rule:nonzero;stroke:none;stroke-width:0.14573056"
       d="m 628.77195,609.16827 h -43.62882 c -1.93676,0 -3.50627,1.56952 -3.50627,3.50628 v 0 c 0,1.93676 1.56951,3.50628 3.50627,3.50628 h 43.62882 c 1.93675,0 3.50627,-1.56952 3.50627,-3.50628 v 0 c 0,-1.93676 -1.56952,-3.50628 -3.50627,-3.50628" /><path
       inkscape:connector-curvature="0"
       id="path142"
       style="fill:#d5d6d9;fill-opacity:1;fill-rule:nonzero;stroke:none;stroke-width:0.14573056"
       d="m 447.39279,569.48584 v -25.16183 c 0,-0.77238 0.62664,-1.39902 1.39901,-1.39902 h 1.86535 c 0.77237,0 1.39902,0.62664 1.39902,1.39902 v 25.16183 c 0,0.77238 -0.62665,1.39902 -1.39902,1.39902 h -1.86535 c -0.77237,0 -1.39901,-0.62664 -1.39901,-1.39902" /><path
       inkscape:connector-curvature="0"
       id="path144"
       style="fill:#d5d6d9;fill-opacity:1;fill-rule:nonzero;stroke:none;stroke-width:0.14573056"
       d="m 447.39279,511.92228 v -44.89813 c 0,-0.77237 0.62664,-1.39756 1.39901,-1.39756 h 1.86535 c 0.77237,0 1.39902,0.62519 1.39902,1.39756 v 44.89813 c 0,0.77237 -0.62665,1.39901 -1.39902,1.39901 h -1.86535 c -0.77237,0 -1.39901,-0.62664 -1.39901,-1.39901" /><path
       inkscape:connector-curvature="0"
       id="path146"
       style="fill:#d5d6d9;fill-opacity:1;fill-rule:nonzero;stroke:none;stroke-width:0.14573056"
       d="m 447.39279,452.71487 v -44.89813 c 0,-0.77237 0.62664,-1.39901 1.39901,-1.39901 h 1.86535 c 0.77237,0 1.39902,0.62664 1.39902,1.39901 v 44.89813 c 0,0.77237 -0.62665,1.39755 -1.39902,1.39755 h -1.86535 c -0.77237,0 -1.39901,-0.62518 -1.39901,-1.39755" /><path
       inkscape:connector-curvature="0"
       id="path148"
       style="fill:#bcbcbc;fill-opacity:1;fill-rule:nonzero;stroke:none;stroke-width:0.14573056"
       d="m 453.22201,46.86097 h -4.37192 v 11.43125 h 4.37192 V 46.86097" /><path
       inkscape:connector-curvature="0"
       id="path150"
       style="fill:#bcbcbc;fill-opacity:1;fill-rule:nonzero;stroke:none;stroke-width:0.14573056"
       d="m 453.22201,591.89337 h -4.37192 v 11.43111 h 4.37192 v -11.43111" /><path
       inkscape:connector-curvature="0"
       id="path152"
       style="fill:#bcbcbc;fill-opacity:1;fill-rule:nonzero;stroke:none;stroke-width:0.14573056"
       d="m 765.08539,46.86097 h -4.37192 v 11.43125 h 4.37192 V 46.86097" /><path
       inkscape:connector-curvature="0"
       id="path154"
       style="fill:#bcbcbc;fill-opacity:1;fill-rule:nonzero;stroke:none;stroke-width:0.14573056"
       d="m 765.08539,591.89337 h -4.37192 v 11.43111 h 4.37192 v -11.43111" /><path
       inkscape:connector-curvature="0"
       id="path156"
       style="fill:#3c3e42;fill-opacity:1;fill-rule:nonzero;stroke:none;stroke-width:0.14573056"
       d="m 563.97723,612.06831 c 0,-3.21919 -2.61004,-5.82922 -5.82922,-5.82922 -3.21919,0 -5.82923,2.61003 -5.82923,5.82922 0,3.21919 2.61004,5.82922 5.82923,5.82922 3.21918,0 5.82922,-2.61003 5.82922,-5.82922" /><path
       inkscape:connector-curvature="0"
       id="path158"
       style="fill:#139ece;fill-opacity:1;fill-rule:nonzero;stroke:none;stroke-width:0.14573056"
       d="m 623.61163,331.39273 c 0,10.92979 -5.97641,18.8007 -16.46901,18.8007 -6.70361,0 -12.67856,-4.08046 -15.44744,-9.76541 -0.72865,-1.4573 -1.16585,-3.20607 -1.16585,-5.68349 0.29001,-12.53428 6.26642,-22.73542 17.77913,-22.73542 9.32676,0 15.30317,8.01518 15.30317,19.38362 z m 8.45237,50.86287 c -2.62315,0 -5.53776,0 -9.18103,-0.43719 -19.82081,-2.33169 -29.43902,-14.57451 -31.77217,-27.69026 h 0.43719 c 4.66338,5.39203 11.80563,9.18248 21.27958,9.18248 16.32182,0 29.00183,-11.6599 29.00183,-30.89779 0,-18.07204 -13.26293,-33.81094 -33.37375,-33.81094 -23.02834,0 -35.7069,17.48766 -35.7069,40.80601 0,18.21777 6.55788,33.08229 16.46755,42.55623 8.74384,8.16091 20.11228,12.82429 33.66667,13.99014 3.93473,0.43719 6.84934,0.43719 9.0353,0.29146 L 632.064,382.2556" /><path
       inkscape:connector-curvature="0"
       id="path160"
       style="fill:#139ece;fill-opacity:1;fill-rule:nonzero;stroke:none;stroke-width:0.14573056"
       d="m 569.05157,270.01102 v 12.77911 h 3.25416 v -12.77911 z m 3.43778,16.34805 c 0,-0.97202 -0.70971,-1.73273 -1.83621,-1.73273 -1.07549,0 -1.78519,0.76071 -1.78519,1.73273 0,0.99534 0.73448,1.75751 1.81143,1.75751 1.10026,0 1.78374,-0.76217 1.80997,-1.75751" /><path
       inkscape:connector-curvature="0"
       id="path162"
       style="fill:#139ece;fill-opacity:1;fill-rule:nonzero;stroke:none;stroke-width:0.14573056"
       d="m 579.09969,279.22119 c 0.39347,-0.10492 0.91956,-0.13116 1.57534,-0.13116 2.4133,0 3.88227,1.18042 3.88227,3.25417 0,1.96736 -1.36258,3.01662 -3.59518,3.01662 -0.89041,0 -1.52142,-0.0772 -1.86243,-0.15739 z m -3.20025,8.23961 c 1.15419,0.20839 2.75431,0.36724 4.93153,0.36724 2.36375,0 4.09503,-0.4984 5.22152,-1.44419 1.05072,-0.86418 1.73274,-2.25591 1.73274,-3.9085 0,-1.68027 -0.52317,-3.07054 -1.52143,-4.01487 -1.2868,-1.2868 -3.30662,-1.89013 -5.58877,-1.89013 -0.60332,0 -1.15564,0.0277 -1.57534,0.10493 v -6.66426 h -3.20025 v 17.44978" /><path
       inkscape:connector-curvature="0"
       id="path164"
       style="fill:#139ece;fill-opacity:1;fill-rule:nonzero;stroke:none;stroke-width:0.14573056"
       d="m 590.353,288.64121 h 3.25271 v -7.60859 h 0.0525 c 0.39493,0.60333 0.9181,1.10027 1.60158,1.46751 0.6281,0.36724 1.39027,0.57855 2.20344,0.57855 2.17868,0 4.46082,-1.44273 4.46082,-5.5363 v -7.53136 h -3.22794 v 7.16266 c 0,1.86243 -0.68201,3.25416 -2.46576,3.25416 -1.25911,0 -2.15244,-0.83941 -2.49345,-1.80997 -0.10346,-0.26232 -0.13115,-0.60479 -0.13115,-0.97203 v -7.63482 H 590.353 v 18.63019" /><path
       inkscape:connector-curvature="0"
       id="path166"
       style="fill:#139ece;fill-opacity:1;fill-rule:nonzero;stroke:none;stroke-width:0.14573056"
       d="m 607.87564,276.38673 c 0,-2.46576 1.20665,-4.32965 3.17547,-4.32965 1.83621,0 3.12155,1.81143 3.12155,4.38211 0,1.9936 -0.89187,4.2772 -3.09678,4.2772 -2.28214,0 -3.20024,-2.20345 -3.20024,-4.32966 z m 9.62842,0.13116 c 0,-4.6969 -3.30517,-6.79542 -6.55933,-6.79542 -3.61995,0 -6.40195,2.49345 -6.40195,6.58557 0,4.19849 2.75577,6.77064 6.61326,6.77064 3.80356,0 6.34802,-2.67707 6.34802,-6.56079" /><path
       inkscape:connector-curvature="0"
       id="path168"
       style="fill:#139ece;fill-opacity:1;fill-rule:nonzero;stroke:none;stroke-width:0.14573056"
       d="m 620.15053,278.98511 c 0,1.46896 -0.0277,2.7033 -0.10493,3.80502 h 2.833 l 0.15739,-1.91635 h 0.0787 c 0.55086,0.99825 1.94258,2.2049 4.06734,2.2049 2.22967,0 4.5395,-1.44273 4.5395,-5.4853 v -7.58236 h -3.22793 v 7.21512 c 0,1.83766 -0.68056,3.22793 -2.43953,3.22793 -1.28534,0 -2.17721,-0.9181 -2.51968,-1.88867 -0.10347,-0.28854 -0.13116,-0.68347 -0.13116,-1.05071 v -7.50367 h -3.2527 v 8.97409" /><path
       inkscape:connector-curvature="0"
       id="path170"
       style="fill:#139ece;fill-opacity:1;fill-rule:nonzero;stroke:none;stroke-width:0.14573056"
       d="m 643.05354,277.75223 c 0.0248,1.18041 -0.49986,3.12155 -2.6523,3.12155 -1.99359,0 -2.833,-1.80998 -2.96416,-3.12155 z m -5.61646,-2.25737 c 0.0787,-2.30837 1.88867,-3.30663 3.93619,-3.30663 1.49665,0 2.57068,0.21131 3.54271,0.57856 l 0.47216,-2.23114 c -1.10318,-0.44594 -2.6246,-0.78694 -4.46081,-0.78694 -4.14603,0 -6.58702,2.54445 -6.58702,6.4544 0,3.54271 2.15244,6.87557 6.24455,6.87557 4.1475,0 5.51153,-3.41155 5.51153,-6.21978 0,-0.60333 -0.0539,-1.07549 -0.10492,-1.36404 h -8.55439" /><path
       inkscape:connector-curvature="0"
       id="path172"
       style="fill:#d5d6d9;fill-opacity:1;fill-rule:nonzero;stroke:none;stroke-width:0.14573056"
       d="m 276.64759,44.343037 c 0,-20.533725 -16.64534,-37.178894 -37.17878,-37.178894 H 45.314186 c -20.533143,0 -37.1783263,16.645169 -37.1783263,37.178894 V 535.9241 c 0,20.53343 16.6451833,37.17878 37.1783263,37.17878 H 239.46881 c 20.53344,0 37.17878,-16.64535 37.17878,-37.17878 z M 241.40849,578.33169 H 43.122544 c -22.8147,0 -41.3094519,-18.49467 -41.3094519,-41.30878 V 41.308927 C 1.8130921,18.494664 20.307844,0 43.122544,0 H 241.40849 c 22.81411,0 41.30878,18.494664 41.30878,41.308927 V 537.02291 c 0,22.81411 -18.49467,41.30878 -41.30878,41.30878" /><path
       inkscape:connector-curvature="0"
       id="path174"
       style="fill:#f7f7f7;fill-opacity:1;fill-rule:nonzero;stroke:none;stroke-width:0.14573056"
       d="M 239.68886,4.4111909 H 44.246855 c -21.217493,0 -38.417633,17.2007951 -38.417633,38.4177061 V 535.76088 c 0,21.21691 17.20014,38.41749 38.417633,38.41749 H 239.68886 c 21.21837,0 38.41895,-17.20058 38.41895,-38.41749 V 42.828897 c 0,-21.216911 -17.20058,-38.4177061 -38.41895,-38.4177061" /><path
       inkscape:connector-curvature="0"
       id="path176"
       style="fill:#29abe2;fill-opacity:1;fill-rule:nonzero;stroke:none;stroke-width:0.14573056"
       d="M 265.2296,71.450086 H 19.012736 V 505.68501 H 265.2296 V 71.450086" /><path
       inkscape:connector-curvature="0"
       id="path202"
       style="fill:url(#linearGradient200);fill-opacity:1;fill-rule:nonzero;stroke:none;stroke-width:0.14573056"
       d="m 164.67552,37.889943 c 0,-12.878354 -10.43868,-23.316888 -23.31689,-23.316888 -12.87777,0 -23.31688,10.438534 -23.31688,23.316888 0,12.876606 10.43911,23.316888 23.31688,23.316888 12.87821,0 23.31689,-10.440282 23.31689,-23.316888" /><path
       inkscape:connector-curvature="0"
       id="path204"
       style="fill:#f7f7f7;fill-opacity:1;fill-rule:nonzero;stroke:none;stroke-width:0.14573056"
       d="m 161.76091,37.889943 c 0,-11.267886 -9.13439,-20.402277 -20.40228,-20.402277 -11.26788,0 -20.40227,9.134391 -20.40227,20.402277 0,11.267886 9.13439,20.402277 20.40227,20.402277 11.26789,0 20.40228,-9.134391 20.40228,-20.402277" /><path
       inkscape:connector-curvature="0"
       id="path206"
       style="fill:#3c3e42;fill-opacity:1;fill-rule:nonzero;stroke:none;stroke-width:0.14573056"
       d="m 145.73055,558.87666 c 0,-2.01254 -1.63087,-3.64326 -3.64326,-3.64326 -2.0124,0 -3.64327,1.63072 -3.64327,3.64326 0,2.01254 1.63087,3.64326 3.64327,3.64326 2.01239,0 3.64326,-1.63072 3.64326,-3.64326" /><path
       inkscape:connector-curvature="0"
       id="path208"
       style="fill:#3c3e42;fill-opacity:1;fill-rule:nonzero;stroke:none;stroke-width:0.14573056"
       d="m 103.46869,541.38899 c 0,-2.81697 -2.28389,-5.10057 -5.100569,-5.10057 -2.81668,0 -5.100569,2.2836 -5.100569,5.10057 0,2.81697 2.283889,5.10057 5.100569,5.10057 2.816679,0 5.100569,-2.2836 5.100569,-5.10057" /><path
       inkscape:connector-curvature="0"
       id="path210"
       style="fill:#3c3e42;fill-opacity:1;fill-rule:nonzero;stroke:none;stroke-width:0.14573056"
       d="m 161.64141,539.20303 h -39.1645 c -1.60989,0 -2.91461,1.30429 -2.91461,2.91462 v 0 c 0,1.60886 1.30472,2.91461 2.91461,2.91461 h 39.1645 c 1.61032,0 2.91461,-1.30575 2.91461,-2.91461 v 0 c 0,-1.61033 -1.30429,-2.91462 -2.91461,-2.91462" /><path
       inkscape:connector-curvature="0"
       id="path212"
       style="fill:#d5d6d9;fill-opacity:1;fill-rule:nonzero;stroke:none;stroke-width:0.14573056"
       d="m 281.25996,453.43915 v -38.32568 c 0,-0.68493 0.55523,-1.23871 1.23871,-1.23871 h 1.65259 c 0.68493,0 1.24016,0.55378 1.24016,1.23871 v 38.32568 c 0,0.68493 -0.55523,1.24017 -1.24016,1.24017 h -1.65259 c -0.68348,0 -1.23871,-0.55524 -1.23871,-1.24017" /><path
       inkscape:connector-curvature="0"
       id="path214"
       style="fill:#d5d6d9;fill-opacity:1;fill-rule:nonzero;stroke:none;stroke-width:0.14573056"
       d="m 0.24079642,504.44484 v -22.29532 c 0,-0.68493 0.55502937,-1.23871 1.23928678,-1.23871 h 1.6525553 c 0.6842486,0 1.239278,0.55378 1.239278,1.23871 v 22.29532 c 0,0.68494 -0.5550294,1.24017 -1.239278,1.24017 H 1.4800832 c -0.68425741,0 -1.23928678,-0.55523 -1.23928678,-1.24017" /><path
       inkscape:connector-curvature="0"
       id="path216"
       style="fill:#d5d6d9;fill-opacity:1;fill-rule:nonzero;stroke:none;stroke-width:0.14573056"
       d="m 0,453.43915 v -39.78298 c 0,-0.68494 0.55502792,-1.23871 1.2392795,-1.23871 h 1.6525684 c 0.6842486,0 1.239278,0.55377 1.239278,1.23871 v 39.78298 c 0,0.68493 -0.5550294,1.24017 -1.239278,1.24017 H 1.2392795 C 0.55502792,454.67932 0,454.12408 0,453.43915" /><path
       inkscape:connector-curvature="0"
       id="path218"
       style="fill:#d5d6d9;fill-opacity:1;fill-rule:nonzero;stroke:none;stroke-width:0.14573056"
       d="m 0.24079642,400.97615 v -39.78298 c 0,-0.68494 0.55502937,-1.23871 1.23928678,-1.23871 h 1.6525553 c 0.6842486,0 1.239278,0.55377 1.239278,1.23871 v 39.78298 c 0,0.68493 -0.5550294,1.24017 -1.239278,1.24017 H 1.4800832 c -0.68425741,0 -1.23928678,-0.55524 -1.23928678,-1.24017" /><path
       inkscape:connector-curvature="0"
       id="path220"
       style="fill:#bcbcbc;fill-opacity:1;fill-rule:nonzero;stroke:none;stroke-width:0.14573056"
       d="M 5.829222,524.72033 H 1.4573055 v 8.65348 H 5.829222 v -8.65348" /><path
       inkscape:connector-curvature="0"
       id="path222"
       style="fill:#bcbcbc;fill-opacity:1;fill-rule:nonzero;stroke:none;stroke-width:0.14573056"
       d="m 282.71727,524.72033 h -4.37192 v 8.65348 h 4.37192 v -8.65348" /><path
       inkscape:connector-curvature="0"
       id="path224"
       style="fill:#bcbcbc;fill-opacity:1;fill-rule:nonzero;stroke:none;stroke-width:0.14573056"
       d="M 5.829222,43.809664 H 1.4573055 v 8.653334 H 5.829222 v -8.653334" /><path
       inkscape:connector-curvature="0"
       id="path226"
       style="fill:#bcbcbc;fill-opacity:1;fill-rule:nonzero;stroke:none;stroke-width:0.14573056"
       d="m 282.71727,43.809664 h -4.37192 v 8.653334 h 4.37192 v -8.653334" /><path
       inkscape:connector-curvature="0"
       id="path228"
       style="fill:#139ece;fill-opacity:1;fill-rule:nonzero;stroke:none;stroke-width:0.14573056"
       d="m 158.59273,291.96679 c 0,10.92979 -5.97641,18.80069 -16.46901,18.80069 -6.70477,0 -12.67914,-4.08045 -15.44861,-9.76394 -0.72865,-1.45731 -1.16526,-3.20753 -1.16526,-5.68495 0.2903,-12.53283 6.26583,-22.73397 17.77913,-22.73397 9.32734,0 15.30375,8.01518 15.30375,19.38217 z m 8.45091,50.86287 c -2.62169,0 -5.5363,0 -9.17956,-0.43719 -19.82082,-2.33169 -29.43962,-14.57306 -31.77247,-27.69026 h 0.43719 c 4.66338,5.39203 11.80476,9.18248 21.27841,9.18248 16.32182,0 29.00329,-11.6599 29.00329,-30.89633 0,-18.07351 -13.26293,-33.81241 -33.37462,-33.81241 -23.02834,0 -35.7069,17.48767 -35.7069,40.80602 0,18.21777 6.55787,33.08374 16.46872,42.55769 8.74383,8.15945 20.11198,12.82283 33.66638,13.99013 3.93472,0.43719 6.84933,0.43719 9.03529,0.29 l 0.14427,-13.99013" /><path
       inkscape:connector-curvature="0"
       id="path230"
       style="fill:#139ece;fill-opacity:1;fill-rule:nonzero;stroke:none;stroke-width:0.14573056"
       d="m 104.03398,230.58653 v 12.77912 h 3.25271 v -12.77912 z m 3.43662,16.34806 c 0,-0.97203 -0.70869,-1.73128 -1.83592,-1.73128 -1.07592,0 -1.78461,0.75925 -1.78461,1.73128 0,0.99679 0.73433,1.75751 1.81026,1.75751 1.10158,0 1.78462,-0.76072 1.81027,-1.75751" /><path
       inkscape:connector-curvature="0"
       id="path232"
       style="fill:#139ece;fill-opacity:1;fill-rule:nonzero;stroke:none;stroke-width:0.14573056"
       d="m 114.08079,239.79816 c 0.39449,-0.10638 0.92,-0.13261 1.57578,-0.13261 2.41359,0 3.88227,1.18042 3.88227,3.25416 0,1.96736 -1.36331,3.01808 -3.59489,3.01808 -0.89085,0 -1.52099,-0.0787 -1.86316,-0.15885 z m -3.20039,8.23815 c 1.1539,0.20985 2.75533,0.36724 4.93269,0.36724 2.36244,0 4.09474,-0.4984 5.22123,-1.44273 1.05028,-0.86564 1.7323,-2.25737 1.7323,-3.90995 0,-1.67882 -0.52375,-3.06909 -1.52172,-4.01488 -1.28651,-1.2868 -3.3056,-1.89012 -5.58833,-1.89012 -0.60347,0 -1.15564,0.0277 -1.57578,0.10638 v -6.66572 h -3.20039 v 17.44978" /><path
       inkscape:connector-curvature="0"
       id="path234"
       style="fill:#139ece;fill-opacity:1;fill-rule:nonzero;stroke:none;stroke-width:0.14573056"
       d="m 125.33396,249.21673 h 3.25329 v -7.60859 h 0.053 c 0.39391,0.60332 0.91752,1.10172 1.60071,1.46896 0.62897,0.36724 1.3907,0.57709 2.203,0.57709 2.17853,0 4.46125,-1.44273 4.46125,-5.5363 v -7.53136 h -3.22705 v 7.16266 c 0,1.86389 -0.68202,3.25562 -2.46664,3.25562 -1.25926,0 -2.15186,-0.83941 -2.4933,-1.80997 -0.10362,-0.26377 -0.13101,-0.60478 -0.13101,-0.97202 v -7.63629 h -3.25329 v 18.6302" /><path
       inkscape:connector-curvature="0"
       id="path236"
       style="fill:#139ece;fill-opacity:1;fill-rule:nonzero;stroke:none;stroke-width:0.14573056"
       d="m 142.85689,236.96225 c 0,-2.46576 1.20694,-4.3282 3.17532,-4.3282 1.83621,0 3.12301,1.80997 3.12301,4.38066 0,1.99505 -0.89333,4.27719 -3.09678,4.27719 -2.2833,0 -3.20155,-2.20345 -3.20155,-4.32965 z m 9.62973,0.13115 c 0,-4.69543 -3.30663,-6.79541 -6.55933,-6.79541 -3.62083,0 -6.4034,2.49345 -6.4034,6.58702 0,4.19704 2.75518,6.76918 6.61325,6.76918 3.80502,0 6.34948,-2.67707 6.34948,-6.56079" /><path
       inkscape:connector-curvature="0"
       id="path238"
       style="fill:#139ece;fill-opacity:1;fill-rule:nonzero;stroke:none;stroke-width:0.14573056"
       d="m 155.13163,239.56208 c 0,1.46751 -0.0262,2.70184 -0.10493,3.80357 h 2.833 l 0.15885,-1.91636 h 0.0772 c 0.55086,0.99825 1.94259,2.2049 4.06734,2.2049 2.23113,0 4.54096,-1.44273 4.54096,-5.48529 v -7.58237 h -3.22793 v 7.21512 c 0,1.83767 -0.68202,3.22794 -2.44099,3.22794 -1.28534,0 -2.17721,-0.91811 -2.51968,-1.88867 -0.10347,-0.28855 -0.1297,-0.68202 -0.1297,-1.04926 v -7.50513 h -3.25416 v 8.97555" /><path
       inkscape:connector-curvature="0"
       id="path240"
       style="fill:#139ece;fill-opacity:1;fill-rule:nonzero;stroke:none;stroke-width:0.14573056"
       d="m 178.03464,238.32774 c 0.0262,1.18042 -0.49985,3.12155 -2.65084,3.12155 -1.99505,0 -2.83446,-1.80997 -2.96561,-3.12155 z m -5.61645,-2.25736 c 0.0787,-2.30838 1.88866,-3.30663 3.93764,-3.30663 1.49519,0 2.56922,0.21131 3.54125,0.57855 l 0.47362,-2.22968 c -1.10318,-0.44739 -2.62461,-0.78694 -4.46227,-0.78694 -4.14603,0 -6.58702,2.54445 -6.58702,6.45295 0,3.54271 2.15244,6.87556 6.24601,6.87556 4.14604,0 5.51007,-3.41155 5.51007,-6.21832 0,-0.60478 -0.0525,-1.07695 -0.10346,-1.36549 h -8.55584" /></g></svg>