<?xml version="1.0" encoding="UTF-8" standalone="no"?>
<!-- Creator: CorelDRAW X7 -->

<svg
   xmlns:dc="http://purl.org/dc/elements/1.1/"
   xmlns:cc="http://creativecommons.org/ns#"
   xmlns:rdf="http://www.w3.org/1999/02/22-rdf-syntax-ns#"
   xmlns:svg="http://www.w3.org/2000/svg"
   xmlns="http://www.w3.org/2000/svg"
   xmlns:xlink="http://www.w3.org/1999/xlink"
   xmlns:sodipodi="http://sodipodi.sourceforge.net/DTD/sodipodi-0.dtd"
   xmlns:inkscape="http://www.inkscape.org/namespaces/inkscape"
   xml:space="preserve"
   width="1075.3312"
   height="200.94554"
   version="1.1"
   style="clip-rule:evenodd;fill-rule:evenodd;image-rendering:optimizeQuality;shape-rendering:geometricPrecision;text-rendering:geometricPrecision"
   viewBox="0 0 28451.471 5316.6843"
   id="svg73"
   sodipodi:docname="top-bar-logo.svg"
   inkscape:version="0.92.2pre0 (973e216, 2017-07-25)"
   inkscape:export-filename="/home/zodiac/Development/softbutterfly/pythonperu.org-artwork/web-page-resources/top-bar-logo.png"
   inkscape:export-xdpi="96"
   inkscape:export-ydpi="96"><metadata
     id="metadata77"><rdf:RDF><cc:Work
         rdf:about=""><dc:format>image/svg+xml</dc:format><dc:type
           rdf:resource="http://purl.org/dc/dcmitype/StillImage" /><dc:title /></cc:Work></rdf:RDF></metadata><sodipodi:namedview
     pagecolor="#ffffff"
     bordercolor="#666666"
     borderopacity="1"
     objecttolerance="10"
     gridtolerance="10"
     guidetolerance="10"
     inkscape:pageopacity="0"
     inkscape:pageshadow="2"
     inkscape:window-width="1366"
     inkscape:window-height="695"
     id="namedview75"
     showgrid="false"
     units="px"
     inkscape:zoom="0.73465739"
     inkscape:cx="270.87456"
     inkscape:cy="166.48757"
     inkscape:window-x="0"
     inkscape:window-y="0"
     inkscape:window-maximized="1"
     inkscape:current-layer="svg73"
     showguides="true"
     fit-margin-top="0"
     fit-margin-left="0"
     fit-margin-right="0"
     fit-margin-bottom="0"
     inkscape:pagecheckerboard="false"
     showborder="true"
     inkscape:showpageshadow="false"
     borderlayer="false"
     inkscape:snap-bbox="true"
     inkscape:bbox-paths="true"
     inkscape:bbox-nodes="true"
     inkscape:snap-bbox-edge-midpoints="true"
     inkscape:snap-bbox-midpoints="true"
     inkscape:object-paths="false"
     inkscape:snap-intersection-paths="true"
     inkscape:snap-smooth-nodes="true"
     inkscape:snap-midpoints="true"
     inkscape:snap-object-midpoints="true"
     inkscape:snap-page="true"
     inkscape:snap-text-baseline="true"
     inkscape:snap-center="true"
     inkscape:guide-bbox="true" /><defs
     id="defs4"><style
       type="text/css"
       id="style2"><![CDATA[
    .fil0 {fill:#FEFEFE}
    .fil1 {fill:#FFC82A}
    .fil4 {fill:#FFC82A}
    .fil3 {fill:#334F7D}
    .fil5 {fill:#FFC82A;fill-rule:nonzero}
    .fil2 {fill:#334F7D;fill-rule:nonzero}
   ]]></style><linearGradient
       id="linearGradient2795"><stop
         id="stop2797"
         offset="0"
         style="stop-color:#b8b8b8;stop-opacity:0.49803922" /><stop
         id="stop2799"
         offset="1"
         style="stop-color:#7f7f7f;stop-opacity:0" /></linearGradient><linearGradient
       id="linearGradient2787"><stop
         id="stop2789"
         offset="0"
         style="stop-color:#7f7f7f;stop-opacity:0.5" /><stop
         id="stop2791"
         offset="1"
         style="stop-color:#7f7f7f;stop-opacity:0" /></linearGradient><linearGradient
       id="linearGradient3676"><stop
         id="stop3678"
         offset="0"
         style="stop-color:#b2b2b2;stop-opacity:0.5" /><stop
         id="stop3680"
         offset="1"
         style="stop-color:#b3b3b3;stop-opacity:0" /></linearGradient><linearGradient
       id="linearGradient3236"><stop
         id="stop3244"
         offset="0"
         style="stop-color:#f4f4f4;stop-opacity:1" /><stop
         id="stop3240"
         offset="1"
         style="stop-color:#ffffff;stop-opacity:1" /></linearGradient><linearGradient
       id="linearGradient4671"><stop
         id="stop4673"
         offset="0"
         style="stop-color:#ffd43b;stop-opacity:1" /><stop
         id="stop4675"
         offset="1"
         style="stop-color:#ffe873;stop-opacity:1" /></linearGradient><linearGradient
       id="linearGradient4689"><stop
         id="stop4691"
         offset="0"
         style="stop-color:#5a9fd4;stop-opacity:1" /><stop
         id="stop4693"
         offset="1"
         style="stop-color:#306998;stop-opacity:1" /></linearGradient><linearGradient
       gradientTransform="translate(100.2702,99.61116)"
       gradientUnits="userSpaceOnUse"
       xlink:href="#linearGradient4671"
       id="linearGradient2987"
       y2="144.75717"
       x2="-65.308502"
       y1="144.75717"
       x1="224.23996" /><linearGradient
       gradientTransform="translate(100.2702,99.61116)"
       gradientUnits="userSpaceOnUse"
       xlink:href="#linearGradient4689"
       id="linearGradient2990"
       y2="76.313133"
       x2="26.670298"
       y1="77.475983"
       x1="172.94208" /><linearGradient
       gradientTransform="matrix(0.562541,0,0,0.567972,-11.5974,-7.60954)"
       gradientUnits="userSpaceOnUse"
       xlink:href="#linearGradient4671"
       id="linearGradient2255"
       y2="144.75717"
       x2="-65.308502"
       y1="144.75717"
       x1="224.23996" /><linearGradient
       gradientTransform="matrix(0.562541,0,0,0.567972,-11.5974,-7.60954)"
       gradientUnits="userSpaceOnUse"
       xlink:href="#linearGradient4689"
       id="linearGradient2258"
       y2="76.313133"
       x2="26.670298"
       y1="76.176224"
       x1="172.94208" /><radialGradient
       gradientTransform="matrix(1,0,0,0.177966,0,108.7434)"
       gradientUnits="userSpaceOnUse"
       xlink:href="#linearGradient2795"
       id="radialGradient2801"
       fy="132.28575"
       fx="61.518883"
       r="29.036913"
       cy="132.28575"
       cx="61.518883" /><linearGradient
       gradientTransform="matrix(0.562541,0,0,0.567972,-9.399749,-5.305317)"
       gradientUnits="userSpaceOnUse"
       xlink:href="#linearGradient4671"
       id="linearGradient1475"
       y2="137.27299"
       x2="112.03144"
       y1="192.35176"
       x1="150.96111" /><linearGradient
       gradientTransform="matrix(0.562541,0,0,0.567972,-9.399749,-5.305317)"
       gradientUnits="userSpaceOnUse"
       xlink:href="#linearGradient4689"
       id="linearGradient1478"
       y2="114.39767"
       x2="135.66525"
       y1="20.603781"
       x1="26.648937" /><radialGradient
       gradientTransform="matrix(2.382716e-8,-0.296405,1.43676,4.683673e-7,-128.544,150.5202)"
       gradientUnits="userSpaceOnUse"
       xlink:href="#linearGradient2795"
       id="radialGradient1480"
       fy="132.28575"
       fx="61.518883"
       r="29.036913"
       cy="132.28575"
       cx="61.518883" /></defs><path
     class="fil3"
     d="m 1632.561,1533.3293 c -172.318,0 -273.157,-199.124 -154.448,-339.532 105.944,-123.815 349.743,-57.44 349.743,135.302 0,103.391 -89.35,204.23 -195.295,204.23 z m -478.663,-195.295 v 478.663 h 1074.759 v 127.644 H 753.097 c -271.88,0 -474.834,140.408 -579.501,308.897 C 33.188,2480.4443 0,2830.1873 0,3107.1743 c 0,245.075 90.627,656.088 223.377,823.301 l 107.22,107.22 c 155.725,139.132 458.241,105.944 666.3,105.944 48.504,0 29.358,-119.985 29.358,-215.717 0,-371.443 -31.911,-520.786 227.205,-778.626 30.635,-30.634 109.774,-85.521 151.896,-103.391 158.278,-70.204 223.376,-65.098 441.647,-65.098 181.254,0 882.017,11.488 999.449,-8.935 278.263,-47.229 467.175,-271.881 467.175,-548.868 v -1016.043 c 0,-251.457 -164.66,-419.947 -335.702,-505.468 -302.516,-151.896 -1447.478,-183.807 -1729.571,131.473 -57.439,65.098 -94.456,186.359 -94.456,305.068 z"
     id="path4968"
     inkscape:connector-curvature="0"
     style="fill:#01579b;stroke-width:1.27643561;fill-opacity:1" /><path
     class="fil4"
     d="m 2854.11,4954.1763 c -68.927,0 -113.602,-6.382 -163.383,-61.269 -104.668,-114.879 -45.952,-339.532 153.172,-339.532 254.011,0 254.011,400.801 10.211,400.801 z m 585.884,-2512.025 c 0,352.296 -319.109,657.364 -634.388,665.023 h -870.529 c -276.987,0 -467.176,-22.976 -661.194,208.059 -57.44,67.651 -119.985,199.124 -119.985,320.385 v 1064.547 c 0,439.094 661.194,616.519 986.685,616.519 303.792,0 560.355,-20.423 824.577,-153.173 417.395,-209.335 348.467,-431.435 348.467,-893.504 H 2238.868 v -126.368 h 1601.927 c 376.549,0 505.469,-361.231 587.16,-673.958 105.945,-409.735 21.7,-1125.816 -251.457,-1400.249 -72.757,-72.757 -185.084,-125.091 -325.491,-125.091 h -411.013 z"
     id="path4970"
     inkscape:connector-curvature="0"
     style="fill:#ffc107;stroke-width:1.27643561;fill-opacity:1" /><path
     class="fil0"
     d="m 1865.511,807.8306 c 75.31,15.3172 127.644,59.9924 153.172,82.9683 26.806,22.9758 89.351,57.4396 113.603,131.4729 24.252,75.3097 24.252,113.6027 19.147,187.636 -6.382,72.7568 -72.757,515.68 -72.757,515.68 0,0 -2.553,231.0348 35.74,299.9623 38.293,68.9276 74.033,149.343 181.254,205.5062 105.944,56.1631 273.157,112.3263 356.125,28.0816 81.692,-84.2448 112.327,-86.7977 167.214,-254.0107 56.163,-167.2131 90.626,-321.6618 162.107,-394.4186 71.48,-72.7569 145.514,-93.1798 201.677,-68.9276 56.163,24.2523 144.237,81.6919 144.237,81.6919 0,0 -24.252,-223.3762 35.74,-416.118 59.993,-192.7418 30.635,-150.6194 116.156,-331.8732 86.797,-179.9775 181.254,-248.905 246.352,-280.8159 65.098,-33.1873 131.473,-57.4396 131.473,-57.4396 -179.978,-330.5968 -811.813,-640.7706 -1280.265,-504.192 -216.994,62.5453 -390.589,195.2946 -524.615,388.0364 -125.091,178.701 -186.36,386.76 -186.36,386.76 z"
     id="path4974"
     inkscape:connector-curvature="0"
     style="fill:#fefefe;stroke-width:1.27643561" /><path
     class="fil1"
     d="m 1915.292,745.2852 c 1.277,39.5695 -39.569,-2.5528 66.375,58.7161 25.529,14.0408 56.163,35.7402 80.415,54.8867 261.67,219.5469 91.904,527.1679 77.863,865.4233 -5.106,123.8143 10.211,236.1406 72.757,330.5969 59.992,91.9033 182.53,188.9124 310.174,179.9774 385.483,-30.6345 200.4,-942.0095 763.308,-708.4218 14.041,-26.8051 7.659,-136.5786 0,-165.9366 l -205.506,-53.6103 c -53.61,-14.0408 -158.278,-58.716 -208.059,-66.3747 -67.651,71.4804 -140.408,499.0864 -233.588,648.4293 -103.391,163.3838 -479.94,172.3188 -349.743,-467.1754 20.423,-97.0091 54.887,-228.482 57.439,-319.1089 5.106,-128.92 -37.016,-157.0016 -134.025,-227.2055 -80.416,-58.7161 -130.197,-88.0741 -215.718,-121.2614 -93.18,-37.0167 -71.48,-12.7644 -81.692,-8.9351 z"
     id="path4976"
     inkscape:connector-curvature="0"
     style="fill:#ffc107;stroke-width:1.27643561;fill-opacity:1" /><path
     class="fil3"
     d="m 1962.52,646.9997 c 105.944,112.3263 1148.792,656.0879 1322.388,639.4942 21.699,-20.4229 12.764,-65.0982 17.87,-99.562 5.105,-40.8459 25.528,-81.6918 29.358,-121.2613 C 3093.442,957.1735 2917.294,913.7747 2658.178,779.749 2550.957,723.5858 2455.224,676.3577 2356.939,621.471 c -52.334,-30.6345 -90.627,-54.8868 -141.684,-86.7976 -40.846,-24.2523 -97.01,-70.204 -134.026,-88.0741 -29.358,22.9758 -99.562,151.8958 -118.709,200.4004 z"
     id="path4978"
     inkscape:connector-curvature="0"
     style="fill:#01579b;stroke-width:1.27643561;fill-opacity:1" /><path
     class="fil3"
     d="m 2813.903,1208.6314 -422.5,-210.6119 c 26.805,303.7917 -111.05,718.6332 -24.253,859.0411 45.952,72.7569 132.75,85.5212 187.636,37.0167 91.904,-81.6919 123.815,-359.9549 155.726,-463.3462 49.781,-159.5544 84.244,-168.4895 103.391,-222.0997 z"
     id="path4980"
     inkscape:connector-curvature="0"
     style="fill:#01579b;stroke-width:1.27643561;fill-opacity:1" /><path
     class="fil3"
     d="m 2824.114,44.5221 c 5.106,70.2039 208.059,292.3037 276.987,361.2313 112.326,111.0499 251.458,228.4819 414.841,311.4502 88.074,-107.2205 8.935,-28.0815 -80.415,-237.417 -40.846,-94.4562 -52.334,-168.4895 -42.122,-291.0273 C 3268.314,135.149 2954.311,8.7819 2824.114,44.5221 Z"
     id="path4982"
     inkscape:connector-curvature="0"
     style="fill:#01579b;stroke-width:1.27643561;fill-opacity:1" /><path
     class="fil4"
     d="m 3358.941,1008.231 20.423,-48.5046 c -34.464,-37.0166 -785.008,-427.6059 -924.14,-497.8099 -52.333,-25.5287 -104.667,-53.6103 -153.172,-82.9683 -40.846,-24.2523 -119.985,-89.3505 -153.172,-43.3988 -88.074,121.2614 409.736,349.7434 492.704,384.2071 241.246,99.562 462.07,201.6768 717.357,288.4745 z"
     id="path4984"
     inkscape:connector-curvature="0"
     style="fill:#ffc107;stroke-width:1.27643561;fill-opacity:1" /><path
     class="fil3"
     d="m 2563.721,456.8108 555.25,297.4095 -3.829,-163.3838 c -1.277,-33.1873 3.829,-24.2523 -12.765,-47.2281 -42.122,1.2764 -62.545,30.6345 -107.22,52.3339 -31.911,15.3172 -85.522,37.0166 -118.709,0 -54.887,-62.5454 33.187,-225.9291 19.147,-278.263 -34.464,-7.6586 -128.92,48.5046 -165.937,65.0982 -30.634,14.0408 -150.619,58.7161 -165.937,74.0333 z"
     id="path4986"
     inkscape:connector-curvature="0"
     style="fill:#01579b;stroke-width:1.27643561;fill-opacity:1" /><path
     class="fil1"
     d="m 2563.721,408.3062 c 42.123,-2.5528 276.987,-109.7734 310.174,-137.855 L 2733.487,63.6686 c -82.968,29.358 -255.287,256.5636 -169.766,344.6376 z"
     id="path4988"
     inkscape:connector-curvature="0"
     style="fill:#ffc107;stroke-width:1.27643561;fill-opacity:1" /><path
     class="fil3"
     d="m 2262.483,266.6219 c 40.846,51.0574 139.131,114.8792 214.441,145.5136 53.61,-222.0998 29.358,-177.4245 179.977,-348.4669 -88.074,-8.935 -339.532,128.92 -394.418,202.9533 z"
     id="path4990"
     inkscape:connector-curvature="0"
     style="fill:#01579b;stroke-width:1.27643561;fill-opacity:1" /><path
     class="fil1"
     d="m 2917.294,575.5193 c 31.911,-5.1057 139.132,-53.6103 173.595,-72.7568 l -29.358,-39.5695 c -14.04,-14.0408 -24.252,-24.2523 -37.016,-35.7402 -26.805,-26.8052 -44.676,-52.3339 -81.692,-71.4804 -34.464,86.7976 -43.399,153.1722 -25.529,219.5469 z"
     id="path4992"
     inkscape:connector-curvature="0"
     style="fill:#ffc107;stroke-width:1.27643561;fill-opacity:1" /><path
     class="fil3"
     d="m 3664.009,566.5842 c 22.976,-2.5528 111.05,-43.3988 126.367,-53.6102 -49.781,-49.781 -98.285,-114.8793 -167.213,-160.8309 -40.846,94.4562 -17.87,154.4487 40.846,214.4411 z"
     id="path4994"
     inkscape:connector-curvature="0"
     style="fill:#01579b;stroke-width:1.27643561;fill-opacity:1" /><path
     class="fil1"
     d="m 3190.451,750.391 c 45.952,-6.3822 97.009,-34.4638 131.473,-74.0333 -7.658,-8.935 -134.026,-102.1148 -154.449,-113.6028 -15.317,61.2689 -15.317,145.5137 22.976,187.6361 z"
     id="path4996"
     inkscape:connector-curvature="0"
     style="fill:#ffc107;stroke-width:1.27643561;fill-opacity:1" /><path
     class="fil1"
     d="m 3563.171,548.7141 c -8.936,-80.4154 -54.887,-102.1148 -16.594,-259.1164 l -93.18,-59.9925 c -1.276,93.1798 33.187,257.84 109.774,319.1089 z"
     id="path4998"
     inkscape:connector-curvature="0"
     style="fill:#ffc107;stroke-width:1.27643561;fill-opacity:1" /><path
     class="fil3"
     d="m 3210.874,798.8955 c 25.529,28.0816 84.245,49.781 130.197,67.6511 -8.935,-65.0982 -25.529,-57.4396 -5.106,-128.92 z"
     id="path5000"
     inkscape:connector-curvature="0"
     style="fill:#01579b;stroke-width:1.27643561;fill-opacity:1" /><path
     style="fill:#01579b;stroke-width:1.27643561;fill-opacity:1"
     inkscape:connector-curvature="0"
     id="path5002"
     d="m 3815.905,562.755 c 163.384,173.5952 301.239,229.7584 117.432,391.8657 44.675,-105.9441 -77.863,-261.6693 -117.432,-391.8657 z"
     class="fil3" /><path
     style="fill:#01579b;stroke-width:1.27643561;fill-opacity:1"
     inkscape:connector-curvature="0"
     id="path5004"
     d="m 3776.335,576.7958 c -103.391,213.1647 -218.27,308.8974 5.106,408.4594 -74.033,-88.0741 -2.553,-271.8808 -5.106,-408.4594 z"
     class="fil3" /><path
     style="fill:#01579b;stroke-width:1.27643561;fill-opacity:1"
     inkscape:connector-curvature="0"
     id="path5006"
     d="m 3806.97,648.2762 c -70.204,274.4336 20.423,328.0439 71.48,384.2071 65.098,-82.9683 22.976,-250.1814 -71.48,-384.2071 z"
     class="fil3" /><path
     inkscape:connector-curvature="0"
     id="path862"
     style="font-style:normal;font-variant:normal;font-weight:normal;font-stretch:normal;font-size:4938.88916016px;line-height:1.25;font-family:Flux;-inkscape-font-specification:Flux;letter-spacing:0px;word-spacing:0px;fill:#616161;fill-opacity:1;stroke:none;stroke-width:26.45833397"
     d="m 6812.5783,1859.6538 c 587.7278,-9.8778 854.4278,543.2778 859.3667,1170.5167 0,553.1556 -276.5778,1071.739 -869.2445,1091.4945 -242.0056,0 -449.4389,-74.0833 -651.9334,-197.5556 v 1279.1723 l -355.6,-128.4111 4.9389,-2839.8612 c -4.9389,0 276.5778,-370.4167 1007.5334,-380.2945 z m -88.9,2005.189 c 474.1333,-29.6334 533.4,-493.8889 533.4,-859.3667 0,-355.6001 -59.2667,-889.0001 -508.7056,-908.7556 -306.2111,-19.7556 -553.1556,123.4722 -602.5445,172.8611 V 3677.165 c 118.5334,74.0833 355.6001,202.4944 577.8501,187.6778 z" /><path
     inkscape:connector-curvature="0"
     id="path864"
     style="font-style:normal;font-variant:normal;font-weight:normal;font-stretch:normal;font-size:4938.88916016px;line-height:1.25;font-family:Flux;-inkscape-font-specification:Flux;letter-spacing:0px;word-spacing:0px;fill:#616161;fill-opacity:1;stroke:none;stroke-width:26.45833397"
     d="m 8630.0895,3370.9539 v -1516.239 l -365.4778,123.4722 v 1501.4223 c 0,400.05 370.4167,632.1778 696.3834,632.1778 424.7444,0 666.75,-118.5333 775.4056,-167.9222 4.9388,54.3278 0,39.5111 0,93.8389 0,158.0445 -4.9389,429.6834 -79.0223,567.9723 -148.1666,281.5166 -543.2778,321.0277 -819.8556,360.5389 l 59.2667,227.1889 c 365.4778,-9.8778 879.1223,-148.1667 1061.8612,-493.889 103.7163,-197.5555 118.5333,-577.85 118.5333,-829.7333 v -1960.739 h -360.5389 v 1763.1834 c -118.5333,79.0222 -335.8445,187.6778 -528.4611,192.6167 -321.0278,4.9389 -558.0945,-167.9223 -558.0945,-498.8278 z" /><path
     inkscape:connector-curvature="0"
     id="path866"
     style="font-style:normal;font-variant:normal;font-weight:normal;font-stretch:normal;font-size:4938.88916016px;line-height:1.25;font-family:Flux;-inkscape-font-specification:Flux;letter-spacing:0px;word-spacing:0px;fill:#616161;fill-opacity:1;stroke:none;stroke-width:26.45833397"
     d="m 10735.908,2141.1705 v 1417.4612 c 0,370.4166 286.456,587.7278 765.528,543.2778 v -187.6778 c -251.883,-9.8778 -404.989,-79.0223 -404.989,-365.4778 V 2141.1705 h 404.989 v -232.1278 h -404.989 v -730.9556 l -360.539,128.4111 v 602.5445 h -246.944 v 232.1278 z" /><path
     inkscape:connector-curvature="0"
     id="path868"
     style="font-style:normal;font-variant:normal;font-weight:normal;font-stretch:normal;font-size:4938.88916016px;line-height:1.25;font-family:Flux;-inkscape-font-specification:Flux;letter-spacing:0px;word-spacing:0px;fill:#616161;fill-opacity:1;stroke:none;stroke-width:26.45833397"
     d="M 13794.779,4072.2761 V 2565.9149 c 0,-375.3555 -256.823,-671.6889 -642.056,-671.6889 -291.394,0 -538.339,93.8389 -755.65,251.8834 V 629.87038 l -360.539,113.59445 V 4072.2761 h 360.539 V 2402.9316 c 182.739,-128.4111 390.172,-261.7611 617.361,-261.7611 291.395,0 414.867,286.4555 414.867,538.3389 v 1392.7667 z" /><path
     inkscape:connector-curvature="0"
     id="path870"
     style="font-style:normal;font-variant:normal;font-weight:normal;font-stretch:normal;font-size:4938.88916016px;line-height:1.25;font-family:Flux;-inkscape-font-specification:Flux;letter-spacing:0px;word-spacing:0px;fill:#616161;fill-opacity:1;stroke:none;stroke-width:26.45833397"
     d="m 14232.873,2951.1483 c 0,597.6056 316.089,1160.6389 982.839,1165.5778 671.689,-4.9389 997.656,-567.9722 997.656,-1165.5778 -4.939,-582.7889 -370.417,-1091.4945 -992.717,-1096.4334 -617.361,4.9389 -987.778,513.6445 -987.778,1096.4334 z m 390.172,0 c 0,-390.1723 98.778,-819.8556 592.667,-849.489 464.256,24.6945 602.544,459.3167 602.544,849.489 0,414.8667 -88.9,928.5111 -592.666,943.3278 -464.256,-4.9389 -597.606,-528.4611 -597.606,-943.3278 z" /><path
     inkscape:connector-curvature="0"
     id="path872"
     style="font-style:normal;font-variant:normal;font-weight:normal;font-stretch:normal;font-size:4938.88916016px;line-height:1.25;font-family:Flux;-inkscape-font-specification:Flux;letter-spacing:0px;word-spacing:0px;fill:#616161;fill-opacity:1;stroke:none;stroke-width:26.45833397"
     d="M 18452.074,4072.2761 V 2417.7483 c 0,-291.3945 -232.128,-479.0723 -493.889,-538.339 -256.822,-59.2666 -498.828,-9.8777 -676.628,39.5111 -227.189,59.2667 -390.172,162.9834 -572.911,296.3334 v 1857.0223 h 360.539 V 2259.7038 c 113.594,-79.0222 296.333,-162.9833 488.95,-167.9222 316.089,-4.9389 533.4,177.8 533.4,508.7056 v 1471.7889 z" /><path
     inkscape:connector-curvature="0"
     id="path874"
     style="font-style:normal;font-variant:normal;font-weight:normal;font-stretch:normal;font-size:4938.88916016px;line-height:1.25;font-family:Flux;-inkscape-font-specification:Flux;letter-spacing:0px;word-spacing:0px;fill:#616161;fill-opacity:1;stroke:none;stroke-width:26.45833397"
     d="m 21513.49,1859.6538 c 587.728,-9.8778 854.428,543.2778 859.367,1170.5167 0,553.1556 -276.578,1071.739 -869.244,1091.4945 -242.006,0 -449.439,-74.0833 -651.934,-197.5556 v 1279.1723 l -355.6,-128.4111 4.939,-2839.8612 c -4.939,0 276.578,-370.4167 1007.533,-380.2945 z m -88.9,2005.189 c 474.134,-29.6334 533.4,-493.8889 533.4,-859.3667 0,-355.6001 -59.266,-889.0001 -508.705,-908.7556 -306.211,-19.7556 -553.156,123.4722 -602.545,172.8611 V 3677.165 c 118.534,74.0833 355.6,202.4944 577.85,187.6778 z" /><path
     inkscape:connector-curvature="0"
     id="path876"
     style="font-style:normal;font-variant:normal;font-weight:normal;font-stretch:normal;font-size:4938.88916016px;line-height:1.25;font-family:Flux;-inkscape-font-specification:Flux;letter-spacing:0px;word-spacing:0px;fill:#616161;fill-opacity:1;stroke:none;stroke-width:26.45833397"
     d="m 24580.541,3874.7206 -83.961,-172.8612 c -182.739,88.9 -360.539,172.8612 -607.483,177.8 -404.989,14.8167 -691.445,-365.4778 -651.934,-928.5111 h 1323.623 c -9.878,-666.7501 -232.128,-1081.6167 -834.673,-1081.6167 -632.177,0 -864.305,587.7278 -869.244,1155.7 0,365.4778 143.228,706.2612 380.294,908.7556 256.823,217.3111 661.812,212.3723 972.962,123.4723 143.227,-44.45 256.822,-108.6556 370.416,-182.7389 z M 24195.308,2738.776 h -948.267 c 24.695,-311.15 148.167,-646.9944 493.889,-646.9944 321.028,0 459.317,335.8444 459.317,651.9333 z" /><path
     inkscape:connector-curvature="0"
     id="path878"
     style="font-style:normal;font-variant:normal;font-weight:normal;font-stretch:normal;font-size:4938.88916016px;line-height:1.25;font-family:Flux;-inkscape-font-specification:Flux;letter-spacing:0px;word-spacing:0px;fill:#616161;fill-opacity:1;stroke:none;stroke-width:26.45833397"
     d="m 25991.056,2126.3538 c 49.389,0 133.35,14.8167 202.495,29.6333 39.511,-88.9 98.778,-202.4944 143.228,-291.3944 -301.273,-54.3278 -508.706,-4.9389 -726.017,74.0833 -202.495,69.1445 -380.295,187.6778 -513.645,335.8445 v 1797.7556 h 360.539 V 2323.9094 c 128.411,-108.6556 291.395,-197.5556 528.462,-197.5556 z" /><path
     inkscape:connector-curvature="0"
     id="path880"
     style="font-style:normal;font-variant:normal;font-weight:normal;font-stretch:normal;font-size:4938.88916016px;line-height:1.25;font-family:Flux;-inkscape-font-specification:Flux;letter-spacing:0px;word-spacing:0px;fill:#616161;fill-opacity:1;stroke:none;stroke-width:26.45833397"
     d="m 26673.471,1978.1871 v 1511.3001 c 0,429.6834 375.356,622.3 701.322,622.3 424.745,0 775.406,-138.2889 1076.678,-355.6 V 1894.226 h -360.539 v 1812.5723 c -118.533,79.0223 -296.333,167.9223 -488.95,172.8611 -316.089,4.9389 -558.094,-182.7389 -558.094,-513.6444 V 1854.7149 Z m 464.256,-409.9278 948.266,-469.1945 -143.227,-291.39441 -977.901,582.78891 z" /></svg>