<?xml version="1.0" encoding="UTF-8" standalone="no"?>
<!-- Creator: CorelDRAW X7 -->

<svg
   xmlns:dc="http://purl.org/dc/elements/1.1/"
   xmlns:cc="http://creativecommons.org/ns#"
   xmlns:rdf="http://www.w3.org/1999/02/22-rdf-syntax-ns#"
   xmlns:svg="http://www.w3.org/2000/svg"
   xmlns="http://www.w3.org/2000/svg"
   xmlns:sodipodi="http://sodipodi.sourceforge.net/DTD/sodipodi-0.dtd"
   xmlns:inkscape="http://www.inkscape.org/namespaces/inkscape"
   xml:space="preserve"
   width="1400"
   height="933"
   version="1.1"
   style="clip-rule:evenodd;fill-rule:evenodd;image-rendering:optimizeQuality;shape-rendering:geometricPrecision;text-rendering:geometricPrecision"
   viewBox="0 0 37041.666 24685.626"
   id="svg73"
   sodipodi:docname="model_1_a.svg"
   inkscape:version="0.92.1 r15371"
   inkscape:export-filename="/home/zodiac/Development/softbutterfly/pythonperu.org-artwork/logo/model_1_a.png"
   inkscape:export-xdpi="96"
   inkscape:export-ydpi="96"><metadata
     id="metadata77"><rdf:RDF><cc:Work
         rdf:about=""><dc:format>image/svg+xml</dc:format><dc:type
           rdf:resource="http://purl.org/dc/dcmitype/StillImage" /><dc:title /></cc:Work></rdf:RDF></metadata><sodipodi:namedview
     pagecolor="#ffffff"
     bordercolor="#666666"
     borderopacity="1"
     objecttolerance="10"
     gridtolerance="10"
     guidetolerance="10"
     inkscape:pageopacity="0"
     inkscape:pageshadow="2"
     inkscape:window-width="1366"
     inkscape:window-height="695"
     id="namedview75"
     showgrid="false"
     units="px"
     inkscape:zoom="0.2973261"
     inkscape:cx="320.38717"
     inkscape:cy="532.59959"
     inkscape:window-x="0"
     inkscape:window-y="0"
     inkscape:window-maximized="1"
     inkscape:current-layer="svg73"
     showguides="false" /><defs
     id="defs4"><style
       type="text/css"
       id="style2"><![CDATA[
    .fil0 {fill:#FEFEFE}
    .fil1 {fill:#FFC82A}
    .fil4 {fill:#FFC82A}
    .fil3 {fill:#334F7D}
    .fil5 {fill:#FFC82A;fill-rule:nonzero}
    .fil2 {fill:#334F7D;fill-rule:nonzero}
   ]]></style></defs><rect
     id="rect79"
     width="37041.668"
     height="24685.625"
     x="-0.00044257438"
     y="0.00013892856"
     style="stroke-width:32.27233124;fill:#fafafa;fill-opacity:1;stroke:none"
     inkscape:export-xdpi="96"
     inkscape:export-ydpi="96" /><g
     id="g1264"
     transform="matrix(1.2764356,0,0,1.2764356,40462.062,-827.30852)"
     inkscape:export-xdpi="96"
     inkscape:export-ydpi="96"><g
       id="g1210"><path
         style="fill:#ffc82a"
         inkscape:connector-curvature="0"
         id="path9"
         d="m -20661.78,8675.3895 c -275,-32 -339,742 242,622 0,0 289,-548 270,-662 -57,-342 -492,-814 173,-1448 222,-211 559,-179 540,193 -79,144 -149,194 -283,96 22,-205 26,10 77,-148 -322,-58 -546,569 -20,687 121,-90 360,-303 462,-407 10,-521 51,-865 355,-1110 238,-192 927,-448 817,170 -117,116 -167,160 -311,68 l 53,-145 c 144,-220 -8,155 38,-52 -405,-70 -624,360 -279,646 141,-3 255,-72 397,-112 229,-63 165,-41 261,-251 105,-230 256,-472 441,-588 181,-114 604,-197 832,-68 291,164 177,613 -203,470 l -24,-143 c 45,-29 26,-14 86,-22 80,-12 -20,31 66,-4 -29,-102 -60,-116 -215,-115 -101,1 -195,28 -256,81 -125,109 -152,408 16,491 79,25 361,42 479,58 361,50 503,-573 1163,-462 931,156 630,890 284,718 -59,-29 -127,-102 -68,-197 67,-106 70,19 158,-19 -26,-118 -34,-119 -135,-166 -239,-112 -536,-38 -503,402 257,153 544,376 709,345 342,-66 594,-194 936,-4 157,88 495,389 472,661 -32,390 -627,252 -419,-60 165,10 27,-2 90,37 l 66,52 c 53,-358 -494,-597 -661,-126 -5,58 197,351 260,450 65,101 33,87 137,121 337,109 907,35 1096,820 80,336 -101,670.9995 -389,473.9995 -119,-78.9995 -164,-248.9995 33,-316.9995 163,135 -63,75 85,133 154,-196 -62,-601 -391,-501 -308,95 -115,405 -91,749.9995 l -706,26 c -156,-651.9995 -291,-1215.9995 -841,-1706.9995 -1410,-1258 -3354,-837 -4185,718 -188,352 -210,577 -308,982.9995 -741,1 -675,68 -992,-300.9995 -594,-693 -156,-1484 201,-1392 296,76 181,515 -9,408 -96,-54 -17,-90 -6,-153 z"
         class="fil1" /><path
         style="fill:#334f7d"
         inkscape:connector-curvature="0"
         id="path21"
         d="m -13717.78,11960.389 c 276,32 339,-742 -241,-622 0,0 -290,548 -271,662 57,342 492,814 -173,1448 -221,212 -558,179 -539,-193 78,-144 149,-193 282,-96 -21,205 -26,-10 -76,148 321,58 546,-569 20,-687 -121,90 -360,304 -462,407 -11,521 -51,865 -356,1111 -238,191 -927,448 -817,-171 118,-116 167,-160 311,-68 l -53,145 c -143,220 9,-154 -38,52 405,71 624,-360 279,-646 -141,3 -254,72 -397,112 -228,64 -165,41 -260,251 -105,231 -257,472 -441,588 -182,114 -605,197 -832,68 -291,-164 -177,-613 202,-470 l 25,143 c -46,29 -27,14 -86,22 -81,12 19,-31 -66,4 28,102 59,116 215,115 101,0 195,-28 255,-81 125,-108 152,-408 -15,-491 -79,-25 -361,-42 -480,-58 -361,-50 -503,573 -1163,462 -931,-156 -629,-890 -283,-718 58,29 127,102 67,197 -66,106 -70,-19 -158,20 26,117 34,118 135,165 239,112 536,38 504,-402 -258,-153 -545,-376 -710,-345 -342,66 -593,194 -935,4 -157,-88 -495,-389 -473,-661 33,-390 627,-252 419,60 -164,-10 -26,2 -90,-37 l -65,-52 c -53,358 493,597 661,126 5,-58 -198,-351 -261,-450 -64,-101 -33,-87 -136,-121 -337,-109 -908,-35 -1096,-820 -81,-336 101,-671 388,-474 119,79 165,249 -32,317 -163,-135 62,-75 -85,-133 -154,196 61,602 390,501 308,-95 115,-405 92,-750 l 705,-25 c 156,651 291,1215 842,1706 1409,1258 3354,837 4184,-718 188,-352 211,-577 308,-983 741,-1 675,-68 993,302 594,692 155,1483 -202,1391 -296,-76 -180,-515 9,-408 97,54 17,90 6,153 z"
         class="fil3" /></g><g
       id="g1237"><g
         id="g1214"><path
           style="fill:#334f7d"
           inkscape:connector-curvature="0"
           id="path25"
           d="m -17798.78,9516.3895 c -135,0 -214,-156 -121,-266 83,-97 274,-45 274,106 0,81 -70,160 -153,160 z m -375,-153 v 375 h 842 v 100 h -1156 c -213,0 -372,110 -454,241.9995 -110,178 -136,452 -136,669 0,192 71,514 175,645 l 84,84 c 122,109 359,83 522,83 38,0 23,-94 23,-169 0,-291 -25,-408 178,-610 24,-24 86,-67 119,-81 124,-55 175,-51 346,-51 142,0 691,9 783,-7 218,-37 366,-213 366,-430 v -795.9995 c 0,-197 -129,-329 -263,-396 -237,-119 -1134,-144 -1355,103 -45,51 -74,146 -74,239 z"
           class="fil3" /><path
           style="fill:#ffc82a"
           inkscape:connector-curvature="0"
           id="path27"
           d="m -16841.78,12196.389 c -54,0 -89,-5 -128,-48 -82,-90 -36,-266 120,-266 199,0 199,314 8,314 z m 459,-1968 c 0,276 -250,515 -497,521 h -682 c -217,0 -366,-18 -518,163 -45,53 -94,156 -94,251 v 834 c 0,344 518,483 773,483 238,0 439,-16 646,-120 327,-164 273,-338 273,-700 h -842 v -99 h 1255 c 295,0 396,-283 460,-528 83,-321 17,-882 -197,-1096.9995 -57,-57 -145,-98 -255,-98 h -322 z"
           class="fil4" /></g><g
         id="g1206"><path
           style="fill:#fefefe"
           inkscape:connector-curvature="0"
           id="path29"
           d="m -17560.78,8946.3895 c 59,12 100,47 120,65 21,18 70,45 89,103 19,59 19,89 15,147 -5,57 -57,404 -57,404 0,0 -2,181 28,235 30,54 58,116.9995 142,160.9995 83,44 214,88 279,22 64,-66 88,-68 131,-198.9995 44,-131 71,-252 127,-309 56,-57 114,-73 158,-54 44,19 113,64 113,64 0,0 -19,-175 28,-326 47,-151 24,-118 91,-260 68,-141 142,-195 193,-220 51,-26 103,-45 103,-45 -141,-259 -636,-502 -1003,-395 -170,49 -306,153 -411,304 -98,140 -146,303 -146,303 z"
           class="fil0" /><path
           style="fill:#ffc82a"
           inkscape:connector-curvature="0"
           id="path31"
           d="m -17521.78,8897.3895 c 1,31 -31,-2 52,46 20,11 44,28 63,43 205,172 72,413 61,678 -4,97 8,185 57,259 47,72 143,147.9995 243,140.9995 302,-24 157,-737.9995 598,-554.9995 11,-21 6,-107 0,-130 l -161,-42 c -42,-11 -124,-46 -163,-52 -53,56 -110,391 -183,508 -81,128 -376,135 -274,-366 16,-76 43,-179 45,-250 4,-101 -29,-123 -105,-178 -63,-46 -102,-69 -169,-95 -73,-29 -56,-10 -64,-7 z"
           class="fil1" /><path
           style="fill:#334f7d"
           inkscape:connector-curvature="0"
           id="path33"
           d="m -17484.78,8820.3895 c 83,88 900,514 1036,501 17,-16 10,-51 14,-78 4,-32 20,-64 23,-95 -187,-85 -325,-119 -528,-224 -84,-44 -159,-81 -236,-124 -41,-24 -71,-43 -111,-68 -32,-19 -76,-55 -105,-69 -23,18 -78,119 -93,157 z"
           class="fil3" /><path
           style="fill:#334f7d"
           inkscape:connector-curvature="0"
           id="path35"
           d="m -16817.78,9260.3895 -331,-165 c 21,238 -87,563 -19,673 36,57 104,67 147,29 72,-64 97,-282 122,-363 39,-125 66,-132 81,-174 z"
           class="fil3" /><path
           style="fill:#334f7d"
           inkscape:connector-curvature="0"
           id="path37"
           d="m -16809.78,8348.3895 c 4,55 163,229 217,283 88,87 197,179 325,244 69,-84 7,-22 -63,-186 -32,-74 -41,-132 -33,-228 -98,-42 -344,-141 -446,-113 z"
           class="fil3" /><path
           style="fill:#ffc82a"
           inkscape:connector-curvature="0"
           id="path39"
           d="m -16390.78,9103.3895 16,-38 c -27,-29 -615,-335 -724,-390 -41,-20 -82,-42 -120,-65 -32,-19 -94,-70 -120,-34 -69,95 321,274 386,301 189,78 362,158 562,226 z"
           class="fil4" /><path
           style="fill:#334f7d"
           inkscape:connector-curvature="0"
           id="path41"
           d="m -17013.78,8671.3895 435,233 -3,-128 c -1,-26 3,-19 -10,-37 -33,1 -49,24 -84,41 -25,12 -67,29 -93,0 -43,-49 26,-177 15,-218 -27,-6 -101,38 -130,51 -24,11 -118,46 -130,58 z"
           class="fil3" /><path
           style="fill:#ffc82a"
           inkscape:connector-curvature="0"
           id="path43"
           d="m -17013.78,8633.3895 c 33,-2 217,-86 243,-108 l -110,-162 c -65,23 -200,201 -133,270 z"
           class="fil1" /><path
           style="fill:#334f7d"
           inkscape:connector-curvature="0"
           id="path45"
           d="m -17249.78,8522.3895 c 32,40 109,90 168,114 42,-174 23,-139 141,-273 -69,-7 -266,101 -309,159 z"
           class="fil3" /><path
           style="fill:#ffc82a"
           inkscape:connector-curvature="0"
           id="path47"
           d="m -16736.78,8764.3895 c 25,-4 109,-42 136,-57 l -23,-31 c -11,-11 -19,-19 -29,-28 -21,-21 -35,-41 -64,-56 -27,68 -34,120 -20,172 z"
           class="fil1" /><path
           style="fill:#334f7d"
           inkscape:connector-curvature="0"
           id="path49"
           d="m -16151.78,8757.3895 c 18,-2 87,-34 99,-42 -39,-39 -77,-90 -131,-126 -32,74 -14,121 32,168 z"
           class="fil3" /><path
           style="fill:#ffc82a"
           inkscape:connector-curvature="0"
           id="path51"
           d="m -16522.78,8901.3895 c 36,-5 76,-27 103,-58 -6,-7 -105,-80 -121,-89 -12,48 -12,114 18,147 z"
           class="fil1" /><path
           style="fill:#ffc82a"
           inkscape:connector-curvature="0"
           id="path53"
           d="m -16230.78,8743.3895 c -7,-63 -43,-80 -13,-203 l -73,-47 c -1,73 26,202 86,250 z"
           class="fil1" /><path
           style="fill:#334f7d"
           inkscape:connector-curvature="0"
           id="path55"
           d="m -16506.78,8939.3895 c 20,22 66,39 102,53 -7,-51 -20,-45 -4,-101 z"
           class="fil3" /><path
           class="fil3"
           d="m -16032.78,8754.3895 c 128,136 236,180 92,307 35,-83 -61,-205 -92,-307 z"
           id="path58"
           inkscape:connector-curvature="0"
           style="fill:#334f7d" /><path
           class="fil3"
           d="m -16063.78,8765.3895 c -81,167 -171,242 4,320 -58,-69 -2,-213 -4,-320 z"
           id="path60"
           inkscape:connector-curvature="0"
           style="fill:#334f7d" /><path
           class="fil3"
           d="m -16039.78,8821.3895 c -55,215 16,257 56,301 51,-65 18,-196 -56,-301 z"
           id="path62"
           inkscape:connector-curvature="0"
           style="fill:#334f7d" /></g></g></g><g
     id="g5058"
     transform="translate(0.00519541,-3460.4254)"
     inkscape:export-xdpi="96"
     inkscape:export-ydpi="96"><text
       id="text1320"
       y="5185.7974"
       x="1261.4867"
       style="font-style:normal;font-weight:normal;font-size:503.19189453px;line-height:1.25;font-family:sans-serif;letter-spacing:0px;word-spacing:0px;fill:#000000;fill-opacity:1;stroke:none;stroke-width:12.5797596"
       xml:space="preserve"><tspan
         style="font-style:normal;font-variant:normal;font-weight:200;font-stretch:normal;font-family:'DejaVu Sans';-inkscape-font-specification:'DejaVu Sans Ultra-Light';stroke-width:12.5797596"
         y="5185.7974"
         x="1261.4867"
         id="tspan1318"
         sodipodi:role="line">Project Name <tspan
   id="tspan1324"
   style="font-style:normal;font-variant:normal;font-weight:normal;font-stretch:normal;font-family:'DejaVu Sans';-inkscape-font-specification:'DejaVu Sans';stroke-width:12.5797596">Python Perú</tspan></tspan></text>
<text
       xml:space="preserve"
       style="font-style:normal;font-weight:normal;font-size:503.19189453px;line-height:1.25;font-family:sans-serif;letter-spacing:0px;word-spacing:0px;fill:#000000;fill-opacity:1;stroke:none;stroke-width:12.5797596"
       x="1307.9241"
       y="6577.7207"
       id="text1330"><tspan
         sodipodi:role="line"
         id="tspan1328"
         x="1307.9241"
         y="6577.7207"
         style="font-style:normal;font-variant:normal;font-weight:200;font-stretch:normal;font-family:'DejaVu Sans';-inkscape-font-specification:'DejaVu Sans Ultra-Light';stroke-width:12.5797596">Agency <tspan
   id="tspan1332"
   style="font-weight:normal;stroke-width:12.5797596">SoftButterfly</tspan></tspan></text>
<text
       id="text1338"
       y="5881.7651"
       x="1261.7373"
       style="font-style:normal;font-weight:normal;font-size:503.19189453px;line-height:1.25;font-family:sans-serif;letter-spacing:0px;word-spacing:0px;fill:#000000;fill-opacity:1;stroke:none;stroke-width:12.5797596"
       xml:space="preserve"><tspan
         style="font-style:normal;font-variant:normal;font-weight:200;font-stretch:normal;font-family:'DejaVu Sans';-inkscape-font-specification:'DejaVu Sans Ultra-Light';stroke-width:12.5797596"
         y="5881.7651"
         x="1261.7373"
         id="tspan1336"
         sodipodi:role="line">Designer <tspan
   id="tspan1340"
   style="font-weight:normal;stroke-width:12.5797596">Leyla Marcelo</tspan></tspan></text>
<text
       id="text5035"
       y="7273.6763"
       x="1281.1429"
       style="font-style:normal;font-weight:normal;font-size:503.19189453px;line-height:1.25;font-family:sans-serif;letter-spacing:0px;word-spacing:0px;fill:#000000;fill-opacity:1;stroke:none;stroke-width:12.5797596"
       xml:space="preserve"><tspan
         style="font-style:normal;font-variant:normal;font-weight:200;font-stretch:normal;font-family:'DejaVu Sans';-inkscape-font-specification:'DejaVu Sans Ultra-Light';stroke-width:12.5797596"
         y="7273.6763"
         x="1281.1429"
         id="tspan5033"
         sodipodi:role="line">City <tspan
   style="font-weight:normal;stroke-width:12.5797596"
   id="tspan5031">Lima</tspan></tspan></text>
<text
       xml:space="preserve"
       style="font-style:normal;font-weight:normal;font-size:503.19189453px;line-height:1.25;font-family:sans-serif;letter-spacing:0px;word-spacing:0px;fill:#000000;fill-opacity:1;stroke:none;stroke-width:12.5797596"
       x="1311.6118"
       y="7951.2168"
       id="text5041"><tspan
         sodipodi:role="line"
         id="tspan5039"
         x="1311.6118"
         y="7951.2168"
         style="font-style:normal;font-variant:normal;font-weight:200;font-stretch:normal;font-family:'DejaVu Sans';-inkscape-font-specification:'DejaVu Sans Ultra-Light';stroke-width:12.5797596">Year <tspan
   id="tspan5037"
   style="font-weight:normal;stroke-width:12.5797596">2017</tspan></tspan></text>
</g></svg>