<?xml version="1.0" encoding="UTF-8" standalone="no"?>
<svg
    xmlns:svg="http://www.w3.org/2000/svg"
    xmlns="http://www.w3.org/2000/svg"
    width="4925.4189"
    height="1024"
    version="1.1"
    viewBox="0 0 1024 4925.4189">
    <g>
        <g>
            <g>
                <path
                    d="m -7623.2793,328.59463 c -67.7728,23.98124 -208.5329,209.58076 -138.6747,281.52439 34.4085,-2.08524 226.2597,-89.6678 253.3686,-112.60637 z m 588.0651,135.55191 c -1.0422,76.11436 27.1087,210.61853 89.6691,260.66642 -7.2992,-65.68778 -44.8398,-83.41346 -13.5601,-211.66111 z m -1039.3108,73.45838 c -10.3939,-0.0145 -19.5149,3.6958 -26.2921,13.07972 -71.9436,99.05294 334.6913,285.69488 402.4641,313.84674 197.063,81.32768 377.4451,164.74072 585.9777,235.64182 l 16.6829,-39.6284 c -28.152,-30.2372 -641.2365,-349.29251 -754.8872,-406.63893 -42.7484,-20.85332 -85.4929,-43.78644 -125.1146,-67.76769 -25.0238,-14.85803 -67.6489,-48.4844 -98.8308,-48.53326 z m 622.2428,29.76284 c -28.1519,70.90095 -35.4469,125.11999 -20.8497,179.33849 26.0667,-4.17049 113.6465,-43.79436 141.7978,-59.43425 l -23.9808,-32.32249 c -11.4688,-11.46928 -19.8087,-19.80723 -30.235,-29.19114 -21.896,-21.89601 -36.4956,-42.75072 -66.7323,-58.39061 z m 183.5053,168.90956 c -12.5119,50.04789 -12.5093,118.8625 18.7706,153.27035 37.5361,-5.2133 79.244,-28.14735 107.396,-60.46984 -6.2556,-7.29852 -109.484,-83.41645 -126.1666,-92.80051 z m -1012.1739,139.86759 c -9.5375,0.43988 -5.9852,7.47665 -10.6774,9.23611 1.043,32.32249 -32.3169,-2.08604 54.2239,47.9617 20.8535,11.46928 45.8781,29.19892 65.6886,44.83881 213.7464,179.33797 75.0703,430.61177 63.6008,706.91727 -4.1708,101.1383 8.3434,192.8944 59.4345,270.0516 49.0048,75.0717 149.0936,154.3149 253.3603,147.0163 314.8836,-25.0238 163.7044,-769.487 623.5185,-578.6798 11.4695,-21.8959 6.2563,-111.5623 0,-135.5436 l -167.874,-43.795 c -43.7917,-11.4693 -129.2896,-47.9598 -169.9535,-54.2158 -55.261,58.3891 -114.6885,407.6829 -190.8031,529.6743 -84.4554,133.4609 -392.0431,140.7597 -285.6908,-381.6143 16.6825,-79.2424 44.8331,-186.6373 46.9179,-260.6663 4.1708,-105.309 -30.233,-128.2465 -109.4753,-185.59288 -65.6882,-47.96238 -106.3575,-71.94526 -176.2158,-99.05444 -33.3001,-13.22888 -48.6367,-16.87611 -56.0546,-16.53397 z"
                    style="fill:#ffc82a" />
                <path
                    d="m -7502.9278,307.84446 c -17.3913,-0.11408 -33.0274,1.46154 -46.3215,5.11094 4.1708,57.34643 169.9525,238.77232 226.2566,295.0762 91.7541,90.71158 205.4027,186.63921 338.8631,254.41236 71.9436,-87.58353 7.3058,-22.93747 -65.6802,-193.93419 -33.3653,-77.15706 -42.7516,-137.63373 -34.4099,-237.72937 -89.4086,-38.31779 -296.9686,-122.13768 -418.7081,-122.93594 z m -190.0327,20.41894 c -77.4977,0.0266 -271.6231,107.53338 -315.056,166.11805 33.3652,41.70653 113.6463,93.83664 175.1637,118.86045 43.7917,-181.42331 23.9825,-144.93036 147.0163,-284.64727 -2.2483,-0.22806 -4.6239,-0.33219 -7.124,-0.33123 z m 196.2702,207.24577 c -31.784,-0.0648 -101.3641,41.04448 -129.7119,53.75188 -25.0235,11.46928 -123.0392,47.9662 -135.5518,60.47816 l 453.557,242.93967 -3.123,-133.46448 c -1.0431,-27.10919 3.1258,-19.80847 -10.429,-38.57643 -34.4075,1.04269 -51.0889,25.02613 -87.5818,42.7514 -26.0667,12.51197 -69.8581,30.23725 -96.9671,0 -44.8348,-51.09043 27.1079,-184.55109 15.6393,-227.30031 -1.7595,-0.39101 -3.7127,-0.57552 -5.8317,-0.57989 z m 600.1508,28.72739 c -33.3653,77.15693 -14.5963,126.16691 33.3661,175.17196 18.768,-2.08523 90.7094,-35.45381 103.2212,-43.79503 -40.664,-40.66384 -80.283,-93.84116 -136.5873,-131.37693 z m -1259.5369,77.16116 c -23.9813,18.76783 -81.3269,124.07813 -96.9672,163.69928 86.5409,91.75427 938.3956,535.9312 1080.1982,522.3765 17.7251,-16.6826 10.4249,-53.1758 14.5958,-81.3277 4.1701,-33.3653 20.8522,-66.7321 23.9808,-99.0546 -194.9783,-88.6265 -338.8638,-124.0831 -550.5239,-233.56268 -87.5842,-45.87713 -165.7863,-84.45505 -246.0709,-129.2895 -42.7493,-25.02394 -74.0314,-44.83226 -115.7376,-70.89876 -33.3653,-19.81065 -79.2387,-57.34533 -109.4752,-71.94254 z m 1416.9739,94.8796 c 32.3221,106.35162 132.4246,233.55985 95.9316,320.10078 150.1438,-132.41806 37.5294,-178.29862 -95.9316,-320.10078 z m -32.3224,11.4727 c -84.4555,174.12464 -178.2908,252.32498 4.1749,333.65278 -60.4743,-71.9438 -2.0895,-222.08786 -4.1749,-333.65278 z m 25.0246,58.39075 c -57.3466,224.17243 16.6844,267.96113 58.3905,313.83843 53.1757,-67.7732 18.7663,-204.35889 -58.3905,-313.83843 z m -384.7373,72.98619 -102.1858,50.04911 c 20.8535,22.93869 68.8163,40.66233 106.3523,55.25954 -7.2985,-53.17581 -20.8492,-46.91942 -4.1665,-105.30865 z m -771.5703,212.70474 c 21.8959,248.1538 -90.7148,587.0139 -19.8141,701.7069 37.536,59.4318 108.4363,69.8561 153.2702,30.2349 75.0722,-66.7304 101.1437,-294.0275 127.2103,-378.4832 40.6639,-130.3329 68.8104,-137.6343 84.4509,-181.426 z"
                    style="fill:#334f7d" />
            </g>
            <g>
                <path
                    d="m -7035.3861,1862.7777 v 391.7192 c 0,303.6948 -257.4737,559.3051 -551.0815,559.3051 h -881.1131 c -241.3492,0 -441.0661,206.5642 -441.0661,448.2664 v 839.9859 c 0,239.0648 207.8828,379.68 441.0661,448.2666 279.237,82.1066 547.0116,96.9452 881.1131,0 222.0828,-64.3002 441.0698,-193.7041 441.0698,-448.2666 v -336.1998 h -881.1098 v -112.0667 h 881.1098 441.0696 c 256.3752,0 351.9107,-178.8262 441.0701,-447.2385 92.0983,-276.3257 88.1792,-542.0579 0,-896.5329 -63.359,-255.2222 -184.3691,-447.2387 -441.0701,-447.2387 z m -495.5625,2127.2099 c 91.4429,0 165.5306,74.9279 165.5306,167.586 0,92.9878 -74.0877,168.6142 -165.5306,168.6142 -91.1203,0 -165.5307,-75.6264 -165.5307,-168.6142 0,-92.6581 74.4104,-167.586 165.5307,-167.586 z"
                    style="fill:#ffc82a" />
                <path
                    d="m -8332.2837,936.4862 c -46.8199,5.31961 -92.0819,11.82753 -135.2963,19.47409 -373.2919,65.94871 -441.071,203.98601 -441.071,458.54811 v 336.2062 h 751.5578 c -1.3585,-37.0722 -1.0695,-64.5727 -1.0695,-64.5727 0,0 54.2217,-361.8053 59.4347,-421.2371 4.1702,-60.4745 4.1688,-91.7487 -15.6415,-153.2659 -19.8105,-60.4745 -70.9032,-88.6326 -92.7998,-107.4004 -20.8409,-18.75733 -63.6533,-55.22026 -125.1144,-67.7523 z m -190.8134,253.8911 c 91.1203,0 165.5292,75.6262 165.5292,168.6141 0,92.6585 -74.4089,167.5826 -165.5292,167.5826 -91.4461,0 -165.5294,-74.9241 -165.5294,-167.5826 0,-92.9879 74.0833,-168.6141 165.5294,-168.6141 z m 1229.9489,337.7108 c -39.0982,-0.8801 -84.0577,19.6489 -127.8492,64.2225 -58.3897,59.4318 -86.5426,185.5845 -132.4197,322.1733 -44.8347,136.5888 -69.8622,138.6801 -136.5926,207.496 -67.773,68.8156 -204.368,22.9304 -290.9088,-22.9467 -87.5841,-45.8773 -116.772,-111.5628 -148.0519,-167.8666 -8.4487,-15.2079 -14.4005,-40.1856 -18.6791,-68.3864 h -761.0015 -331.0586 c -256.378,0 -480.8578,154.0979 -551.0735,447.2405 -80.9969,336.0095 -84.5863,545.6769 0,896.5248 62.7045,261.1581 212.4467,447.2404 468.8247,447.2404 h 303.2953 v -403.0312 c 0,-291.1642 251.9282,-547.9883 551.0831,-547.9886 h 881.11 c 245.2708,0 441.0708,-201.9525 441.0708,-448.2719 v -644.7343 c 0,0 -23.6676,-23.0161 -52.5174,-41.4179 -18.9591,-12.0932 -40.1534,-24.4776 -58.3464,-32.3337 -11.4693,-4.9526 -23.8526,-7.6269 -36.8852,-7.9202 z"
                    style="fill:#334f7d" />
            </g>
        </g>
        <g>
            <path
                d="m -4431.3791,2167.112 c 415.7828,-6.9881 604.4577,384.3375 607.9515,828.0726 0,391.3256 -195.6625,758.1933 -614.9393,772.1692 -171.2052,0 -317.9525,-52.4097 -461.2054,-139.7591 v 904.9401 l -251.5665,-90.8434 3.494,-2009.0371 c -3.494,0 195.6628,-262.0484 712.7717,-269.0364 z m -62.8915,1418.5548 c 335.421,-20.9638 377.3492,-349.3976 377.3492,-607.9522 0,-251.5662 -41.9282,-628.9159 -359.8802,-642.8917 -216.6261,-13.976 -391.3248,87.3494 -426.2645,122.2894 v 995.7834 c 83.8551,52.4097 251.5664,143.2531 408.7955,132.7711 z"
                style="fill:#646464" />
            <path
                d="M -3145.5956,3236.2692 V 2163.6181 l -258.5541,87.3492 v 1062.1694 c 0,283.0121 262.048,447.2291 492.6503,447.2291 300.4823,0 471.6869,-83.8554 548.555,-118.7952 3.4938,38.4338 0,27.9518 0,66.3856 0,111.8072 -3.494,303.9761 -55.904,401.8074 -104.8191,199.1568 -384.3372,227.1087 -580.0007,255.0603 l 41.9284,160.7231 c 258.5541,-6.988 621.9281,-104.8193 751.2052,-349.3978 73.3732,-139.7591 83.855,-408.7954 83.855,-586.9882 V 2202.0517 h -255.0603 v 1247.35 c -83.855,55.9037 -237.5901,132.7711 -373.8558,136.2651 -227.1083,3.494 -394.819,-118.7952 -394.819,-352.8916 z"
                style="fill:#646464" />
            <path
                d="m -1655.8509,2366.2685 v 1002.7718 c 0,262.0484 202.6503,415.7833 541.5664,384.3376 v -132.7713 c -178.1932,-6.988 -286.5061,-55.9036 -286.5061,-258.5543 v -995.7838 h 286.5061 v -164.2168 h -286.5061 v -517.1086 l -255.0603,90.8432 v 426.2654 h -174.6993 v 164.2168 z"
                style="fill:#646464" />
            <path
                d="M 508.12296,3732.414 V 2666.7508 c 0,-265.5423 -181.68725,-475.1809 -454.217736,-475.1809 -206.144934,0 -380.843284,66.3854 -534.578564,178.1928 V 1297.1114 l -255.06013,80.3615 V 3732.414 h 255.06013 V 2551.4495 c 129.27713,-90.8434 276.02446,-185.1808 436.747381,-185.1808 206.144929,0 293.493869,202.6506 293.493869,380.8436 v 985.3017 z"
                style="fill:#646464" />
            <path
                d="m 818.04926,2939.281 c 0,422.7713 223.61454,821.0848 695.30144,824.5788 475.1808,-3.494 705.7831,-401.8075 705.7831,-824.5788 -3.4939,-412.2892 -262.048,-772.169 -702.2891,-775.6629 -436.7474,3.4939 -698.79544,363.3737 -698.79544,775.6629 z m 276.02444,0 c 0,-276.0241 69.8794,-580.0002 419.277,-600.9641 328.4335,17.4699 426.2657,324.94 426.2657,600.9641 0,293.4942 -62.8916,656.8678 -419.2779,667.3498 -328.4336,-3.4939 -422.771,-373.8556 -422.771,-667.3498 z"
                style="fill:#646464" />
            <path
                d="M 3802.8889,3732.414 V 2561.9316 c 0,-206.1448 -164.2175,-338.9159 -349.3983,-380.8436 -181.6863,-41.9279 -352.8918,-6.9882 -478.6748,27.9518 -160.7231,41.9275 -276.0244,115.3012 -405.3016,209.6386 V 3732.414 h 255.0603 V 2450.1241 c 80.3618,-55.9036 209.6389,-115.3012 345.9038,-118.7952 223.6153,-3.4939 377.3495,125.7834 377.3495,359.8798 V 3732.414 Z"
                style="fill:#646464" />
            <path
                d="m 5968.6639,2167.112 c 415.784,-6.9881 604.4587,384.3375 607.9519,828.0726 0,391.3256 -195.6611,758.1933 -614.9399,772.1692 -171.204,0 -317.951,-52.4097 -461.2033,-139.7591 v 904.9401 l -251.5679,-90.8434 3.4932,-2009.0371 c -3.4932,0 195.6643,-262.0484 712.7712,-269.0364 z m -62.8916,1418.5548 c 335.4218,-20.9638 377.3495,-349.3976 377.3495,-607.9522 0,-251.5662 -41.9277,-628.9159 -359.8804,-642.8917 -216.6265,-13.976 -391.3238,87.3494 -426.2651,122.2894 v 995.7834 c 83.857,52.4097 251.5663,143.2531 408.796,132.7711 z"
                style="fill:#646464" />
            <path
                d="m 8138.4241,3592.6548 -59.3984,-122.2892 c -129.2763,62.8916 -255.0595,122.2892 -429.7583,125.7833 -286.5061,10.4819 -489.1567,-258.5544 -461.2049,-656.8679 h 936.3857 c -6.988,-471.687 -164.2177,-765.1812 -590.4828,-765.1812 -447.229,0 -611.4451,415.7836 -614.9399,817.5909 0,258.5544 101.3245,499.6389 269.037,642.892 181.6868,153.7349 468.1928,150.2409 688.3126,87.3494 101.3245,-31.4458 181.6868,-76.8677 262.049,-129.2773 z m -272.5302,-803.6149 h -670.8435 c 17.4707,-220.1206 104.8178,-457.711 349.3977,-457.711 227.1077,0 324.939,237.5904 324.939,461.2051 z"
                style="fill:#646464" />
            <path
                d="m 9136.2841,2355.7868 c 34.9381,0 94.335,10.4819 143.2522,20.9638 27.9502,-62.8915 69.8795,-143.2532 101.3245,-206.1447 -213.1317,-38.4338 -359.8803,-3.4939 -513.6137,52.4098 -143.2538,48.9156 -269.0386,132.7711 -363.3736,237.5904 V 3732.414 H 8758.933 V 2495.5458 c 90.8434,-76.8674 206.1438,-139.759 373.8547,-139.759 z"
                style="fill:#646464" />
            <path
                d="m 9619.0509,2250.9673 v 1069.1573 c 0,303.976 265.5454,440.2412 496.1461,440.2412 300.482,0 548.555,-97.8313 761.687,-251.5665 V 2191.5699 h -255.059 v 1282.2897 c -83.856,55.9036 -209.639,118.7952 -345.905,122.2892 -223.614,3.4941 -394.8184,-129.2772 -394.8184,-363.3736 V 2163.6181 Z m 328.4354,-290 670.8437,-331.928 -101.325,-206.1447 -691.8071,412.2893 z"
                style="fill:#646464" />
            <path
                d="m -4431.3791,2167.112 c 415.7828,-6.9881 604.4577,384.3375 607.9515,828.0726 0,391.3256 -195.6625,758.1933 -614.9393,772.1692 -171.2052,0 -317.9525,-52.4097 -461.2054,-139.7591 v 904.9401 l -251.5665,-90.8434 3.494,-2009.0371 c -3.494,0 195.6628,-262.0484 712.7717,-269.0364 z m -62.8915,1418.5548 c 335.421,-20.9638 377.3492,-349.3976 377.3492,-607.9522 0,-251.5662 -41.9282,-628.9159 -359.8802,-642.8917 -216.6261,-13.976 -391.3248,87.3494 -426.2645,122.2894 v 995.7834 c 83.8551,52.4097 251.5664,143.2531 408.7955,132.7711 z"
                style="fill:#646464" />
            <path
                d="M -3145.5956,3236.2692 V 2163.6181 l -258.5541,87.3492 v 1062.1694 c 0,283.0121 262.048,447.2291 492.6503,447.2291 300.4823,0 471.6869,-83.8554 548.555,-118.7952 3.4938,38.4338 0,27.9518 0,66.3856 0,111.8072 -3.494,303.9761 -55.904,401.8074 -104.8191,199.1568 -384.3372,227.1087 -580.0007,255.0603 l 41.9284,160.7231 c 258.5541,-6.988 621.9281,-104.8193 751.2052,-349.3978 73.3732,-139.7591 83.855,-408.7954 83.855,-586.9882 V 2202.0517 h -255.0603 v 1247.35 c -83.855,55.9037 -237.5901,132.7711 -373.8558,136.2651 -227.1083,3.494 -394.819,-118.7952 -394.819,-352.8916 z"
                style="fill:#646464" />
            <path
                d="m -1655.8509,2366.2685 v 1002.7718 c 0,262.0484 202.6503,415.7833 541.5664,384.3376 v -132.7713 c -178.1932,-6.988 -286.5061,-55.9036 -286.5061,-258.5543 v -995.7838 h 286.5061 v -164.2168 h -286.5061 v -517.1086 l -255.0603,90.8432 v 426.2654 h -174.6993 v 164.2168 z"
                style="fill:#646464" />
            <path
                d="M 508.12296,3732.414 V 2666.7508 c 0,-265.5423 -181.68725,-475.1809 -454.217736,-475.1809 -206.144934,0 -380.843284,66.3854 -534.578564,178.1928 V 1297.1114 l -255.06013,80.3615 V 3732.414 h 255.06013 V 2551.4495 c 129.27713,-90.8434 276.02446,-185.1808 436.747381,-185.1808 206.144929,0 293.493869,202.6506 293.493869,380.8436 v 985.3017 z"
                style="fill:#646464" />
            <path
                d="m 818.04926,2939.281 c 0,422.7713 223.61454,821.0848 695.30144,824.5788 475.1808,-3.494 705.7831,-401.8075 705.7831,-824.5788 -3.4939,-412.2892 -262.048,-772.169 -702.2891,-775.6629 -436.7474,3.4939 -698.79544,363.3737 -698.79544,775.6629 z m 276.02444,0 c 0,-276.0241 69.8794,-580.0002 419.277,-600.9641 328.4335,17.4699 426.2657,324.94 426.2657,600.9641 0,293.4942 -62.8916,656.8678 -419.2779,667.3498 -328.4336,-3.4939 -422.771,-373.8556 -422.771,-667.3498 z"
                style="fill:#646464" />
            <path
                d="M 3802.8889,3732.414 V 2561.9316 c 0,-206.1448 -164.2175,-338.9159 -349.3983,-380.8436 -181.6863,-41.9279 -352.8918,-6.9882 -478.6748,27.9518 -160.7231,41.9275 -276.0244,115.3012 -405.3016,209.6386 V 3732.414 h 255.0603 V 2450.1241 c 80.3618,-55.9036 209.6389,-115.3012 345.9038,-118.7952 223.6153,-3.4939 377.3495,125.7834 377.3495,359.8798 V 3732.414 Z"
                style="fill:#646464" />
            <path
                d="m 5968.6639,2167.112 c 415.784,-6.9881 604.4587,384.3375 607.9519,828.0726 0,391.3256 -195.6611,758.1933 -614.9399,772.1692 -171.204,0 -317.951,-52.4097 -461.2033,-139.7591 v 904.9401 l -251.5679,-90.8434 3.4932,-2009.0371 c -3.4932,0 195.6643,-262.0484 712.7712,-269.0364 z m -62.8916,1418.5548 c 335.4218,-20.9638 377.3495,-349.3976 377.3495,-607.9522 0,-251.5662 -41.9277,-628.9159 -359.8804,-642.8917 -216.6265,-13.976 -391.3238,87.3494 -426.2651,122.2894 v 995.7834 c 83.857,52.4097 251.5663,143.2531 408.796,132.7711 z"
                style="fill:#646464" />
            <path
                d="m 8138.4241,3592.6548 -59.3984,-122.2892 c -129.2763,62.8916 -255.0595,122.2892 -429.7583,125.7833 -286.5061,10.4819 -489.1567,-258.5544 -461.2049,-656.8679 h 936.3857 c -6.988,-471.687 -164.2177,-765.1812 -590.4828,-765.1812 -447.229,0 -611.4451,415.7836 -614.9399,817.5909 0,258.5544 101.3245,499.6389 269.037,642.892 181.6868,153.7349 468.1928,150.2409 688.3126,87.3494 101.3245,-31.4458 181.6868,-76.8677 262.049,-129.2773 z m -272.5302,-803.6149 h -670.8435 c 17.4707,-220.1206 104.8178,-457.711 349.3977,-457.711 227.1077,0 324.939,237.5904 324.939,461.2051 z"
                style="fill:#646464" />
            <path
                d="m 9136.2841,2355.7868 c 34.9381,0 94.335,10.4819 143.2522,20.9638 27.9502,-62.8915 69.8795,-143.2532 101.3245,-206.1447 -213.1317,-38.4338 -359.8803,-3.4939 -513.6137,52.4098 -143.2538,48.9156 -269.0386,132.7711 -363.3736,237.5904 V 3732.414 H 8758.933 V 2495.5458 c 90.8434,-76.8674 206.1438,-139.759 373.8547,-139.759 z"
                style="fill:#646464" />
            <path
                d="m 9619.0509,2250.9673 v 1069.1573 c 0,303.976 265.5454,440.2412 496.1461,440.2412 300.482,0 548.555,-97.8313 761.687,-251.5665 V 2191.5699 h -255.059 v 1282.2897 c -83.856,55.9036 -209.639,118.7952 -345.905,122.2892 -223.614,3.4941 -394.8184,-129.2772 -394.8184,-363.3736 V 2163.6181 Z m 328.4354,-290 670.8437,-331.928 -101.325,-206.1447 -691.8071,412.2893 z"
                style="fill:#646464" />
        </g>
    </g>
</svg>
